<svg version="1.1" id="Layer_1" xmlns="http://www.w3.org/2000/svg" xmlns:xlink="http://www.w3.org/1999/xlink" x="0px" y="0px"
	 width="100%" viewBox="0 0 592 912" enable-background="new 0 0 592 912" xml:space="preserve">
<path fill="#000000" opacity="1.000000" stroke="none" 
	d="
M332.239746,460.967896 
	C332.800964,467.325714 333.065277,473.043579 336.710968,478.446930 
	C339.979492,483.291290 338.917267,489.405304 337.262848,494.924438 
	C336.062958,498.927460 335.357269,501.741425 341.201202,502.473389 
	C345.895905,503.061462 348.816833,507.018646 349.187134,511.627899 
	C349.783081,519.046204 352.963562,526.184570 351.545349,533.805786 
	C351.240173,535.445862 352.491516,536.107361 353.688965,536.787598 
	C357.369934,538.878723 358.911499,542.237061 359.161377,546.303894 
	C359.518585,552.118225 359.809570,557.936768 360.192566,563.749329 
	C360.527893,568.838074 359.559662,573.389954 354.786682,576.723267 
	C358.798035,580.294312 359.427795,584.736511 359.194977,589.566406 
	C358.819427,597.356934 359.964264,605.223938 357.659821,612.915649 
	C356.900940,615.448486 359.042633,617.595337 359.269196,620.117615 
	C360.314209,631.751404 361.497620,643.343140 356.576141,654.536316 
	C355.961517,655.934204 356.233093,657.830261 356.424774,659.456543 
	C357.703339,670.304443 357.160004,681.027588 354.529877,691.642029 
	C354.253052,692.759277 354.073029,693.946411 354.118713,695.090332 
	C354.428040,702.834106 353.698883,703.546082 361.630249,702.163391 
	C368.195129,701.019043 369.996185,702.475586 372.614410,708.739624 
	C374.569763,713.417603 375.843811,718.213379 379.834900,722.134583 
	C384.139374,726.363647 381.221558,733.711182 375.050415,735.258972 
	C361.626312,738.625671 347.908173,740.416443 334.178284,741.933960 
	C328.581146,742.552551 321.509186,735.115479 321.747528,729.515808 
	C321.811096,728.022583 321.938721,726.511047 322.248444,725.052856 
	C323.866913,717.433533 323.325043,710.424866 321.408722,702.476562 
	C318.167542,689.033081 318.015167,674.569214 322.050659,660.949341 
	C323.968048,654.477966 322.575500,648.443420 322.494141,642.250305 
	C322.437347,637.924377 321.840851,633.524902 322.799622,629.334717 
	C325.191284,618.882141 322.684998,608.633423 322.131287,598.299988 
	C321.826294,592.608093 322.615570,587.004150 323.931000,581.471680 
	C324.234100,580.196899 325.062134,578.896667 324.257355,577.616455 
	C318.322235,568.175354 319.155029,557.418030 318.948029,547.092285 
	C318.796661,539.541687 313.883575,534.215698 312.151123,527.534546 
	C311.838593,526.329285 310.405365,525.993835 309.195923,526.113342 
	C303.361115,526.690186 297.632172,525.685303 291.760559,524.603333 
	C290.269867,528.264221 289.484802,531.507019 291.097137,535.010803 
	C291.565521,536.028625 291.994934,537.334839 291.768555,538.360107 
	C289.586304,548.243286 288.397034,558.443298 283.051819,567.367981 
	C282.356873,568.528198 281.372742,569.483765 282.411469,570.927551 
	C286.866486,577.119812 285.309387,583.999084 284.522400,590.731079 
	C283.904510,596.016846 282.860840,601.251709 282.183228,606.531921 
	C281.535034,611.582520 280.949829,616.543823 275.608795,619.152405 
	C273.882263,619.995605 274.415100,621.593567 274.587006,623.116272 
	C275.629059,632.345520 277.629639,641.572815 274.859772,650.848816 
	C274.681519,651.445740 274.583954,652.321777 274.887970,652.770386 
	C281.651337,662.750610 279.080566,673.646362 277.563660,684.217773 
	C276.671417,690.435669 274.675964,696.420715 276.924438,702.722534 
	C277.279022,703.716431 277.017761,705.084045 276.662170,706.152710 
	C274.050476,714.002258 275.731812,720.977844 280.455322,727.575195 
	C284.685883,733.484070 283.002563,738.078857 276.082977,740.053650 
	C273.526520,740.783203 270.914612,741.554932 268.287994,741.739929 
	C265.283356,741.951660 263.653931,743.608398 262.356964,746.762085 
	C258.517944,742.168518 253.731674,743.254883 249.185959,743.217407 
	C243.853607,743.173401 238.502975,743.428223 233.194122,743.062256 
	C229.001846,742.773254 225.087952,741.067627 224.518005,736.270508 
	C223.989365,731.820984 225.971909,728.478821 230.742233,727.466431 
	C233.064362,726.973633 233.326691,725.508179 233.228409,723.382874 
	C233.003098,718.510193 234.842422,714.197510 236.400986,709.597717 
	C238.383865,703.745789 240.129807,697.259033 239.328888,690.771729 
	C238.265503,682.158447 237.493637,673.543274 237.871658,664.865601 
	C237.972305,662.555176 237.837341,659.834229 238.974319,658.038696 
	C243.808151,650.405090 237.834579,642.558960 240.552536,635.242310 
	C239.034073,634.636658 238.527710,635.094971 238.375397,635.779480 
	C235.604584,648.233276 230.253403,659.679382 224.574112,670.985168 
	C223.321793,673.478271 221.934204,676.458984 218.438644,675.888062 
	C215.276657,675.371643 214.761871,672.328979 214.093491,669.761536 
	C211.193008,658.620056 210.188278,647.090881 207.701004,635.927673 
	C205.451752,625.832825 206.527283,616.240295 207.315155,606.322205 
	C207.633423,602.315674 208.025787,597.637146 204.936691,593.915771 
	C203.585114,592.287476 203.749222,590.156738 203.757492,588.151306 
	C203.789749,580.318237 204.427307,572.432129 203.739899,564.663086 
	C202.283768,548.205750 205.883148,531.480286 203.254852,515.475952 
	C200.690186,499.858917 202.746735,484.305237 200.468994,469.061676 
	C198.529999,456.085236 200.956009,443.649994 201.434967,431.001282 
	C201.708344,423.781921 198.913284,416.641998 201.562378,409.341125 
	C203.133453,405.011200 203.566116,400.261353 204.441483,395.687073 
	C207.602219,379.170197 207.403748,362.325012 209.276367,345.681183 
	C209.347794,345.046478 209.360962,344.234711 209.035828,343.751190 
	C202.875015,334.590332 205.703415,325.423096 209.759079,316.795410 
	C215.202744,305.215027 228.358765,299.481140 240.832596,302.724426 
	C244.443787,303.663361 246.685867,302.153748 248.803879,300.050476 
	C256.165375,292.740295 264.475708,287.099915 274.795105,285.002655 
	C280.990204,283.743622 287.124725,282.178040 293.443237,281.476288 
	C295.289978,281.271210 298.390717,281.795044 298.494354,278.666046 
	C298.587646,275.849091 296.563416,274.159729 293.933807,273.417633 
	C292.013702,272.875763 290.040955,272.518860 288.089081,272.091400 
	C282.584564,270.885834 279.897522,267.553802 281.022308,262.068604 
	C284.417175,245.513519 291.012878,230.242874 301.570038,217.024796 
	C308.567352,208.263809 322.768311,208.506454 330.802826,216.945618 
	C336.867218,223.315460 339.188385,231.206970 339.133026,239.838562 
	C339.098969,245.146667 339.184784,249.992752 342.981049,254.667221 
	C347.238495,259.909576 343.687897,269.511627 336.985657,272.604370 
	C334.687469,273.664886 333.115448,274.334412 333.152679,277.401428 
	C333.196838,281.036835 330.337891,281.477509 327.403992,280.951263 
	C323.310089,280.216980 319.244751,279.323181 315.149994,278.594177 
	C313.437073,278.289185 311.573456,277.492950 310.062134,279.254822 
	C310.184723,281.522400 312.109009,281.293579 313.375427,281.486145 
	C329.744720,283.975403 342.632019,292.920349 354.611481,303.568848 
	C356.351746,305.115753 358.179993,306.615936 359.659332,308.394165 
	C363.890106,313.479767 367.937469,316.382111 375.141815,312.423248 
	C380.149139,309.671661 387.441681,314.781097 391.369659,322.010132 
	C396.861298,332.116852 395.792297,344.480774 388.244720,353.333649 
	C385.855194,356.136383 385.199341,358.905945 385.354431,362.439026 
	C386.503601,388.623230 391.015320,414.407379 395.488586,440.114288 
	C397.808044,453.443939 403.271820,466.228119 407.342834,479.250061 
	C408.237274,482.111023 409.375305,484.909485 409.162567,487.994843 
	C408.859924,492.384949 411.818787,495.006348 414.558594,497.656097 
	C416.580231,499.611267 418.156281,497.829773 419.776703,496.676971 
	C427.912567,490.888672 435.301483,484.069672 444.026611,479.095612 
	C445.616821,478.189026 447.212769,477.292267 448.812927,476.403290 
	C449.822723,475.842346 451.108307,475.486084 451.360413,474.191040 
	C453.918823,461.046692 459.437408,448.919067 466.063629,437.581085 
	C471.981140,427.455719 477.193970,416.697052 485.367706,407.989594 
	C486.546234,406.734131 487.468048,405.513733 487.768829,403.758392 
	C488.302643,400.643127 489.330688,397.584656 489.581329,394.456726 
	C489.819031,391.490265 491.631805,388.310028 490.271118,385.649658 
	C488.596832,382.376038 484.747192,384.817108 482.028046,383.833160 
	C480.467987,383.268677 478.741699,383.052155 477.304810,382.279785 
	C473.122498,380.031708 473.132355,375.698395 477.199463,373.221924 
	C479.924530,371.562622 482.975983,371.561218 485.943176,371.803314 
	C489.929108,372.128540 492.920441,370.949860 495.530731,367.798218 
	C498.098633,364.697754 501.434143,362.314514 505.624725,361.834290 
	C509.888947,361.345642 511.453827,363.264313 510.367859,367.373077 
	C508.711761,373.638947 506.687500,379.614197 499.444641,381.646423 
	C497.827545,382.100159 497.297943,383.491760 496.971222,385.080688 
	C495.597076,391.763428 494.128723,398.426880 492.672974,405.092651 
	C492.488800,405.935974 492.246887,406.943054 492.974609,407.428131 
	C500.119415,412.190765 498.681824,420.063629 499.885803,426.866119 
	C500.722321,431.592377 500.696136,436.483337 500.892670,441.307312 
	C501.068329,445.618317 500.459045,449.702271 496.192444,452.120331 
	C493.595551,453.592133 493.326630,456.502686 492.035828,458.773865 
	C488.192719,465.535950 485.151306,472.961456 481.045349,479.296753 
	C467.591980,500.054626 453.046936,520.122864 425.031616,522.785950 
	C414.836578,523.755066 404.454315,523.870300 395.631744,519.493408 
	C387.060455,515.241150 378.657837,509.088257 376.334015,498.210144 
	C375.435059,494.001892 373.889496,490.041595 371.046051,486.510376 
	C368.537262,483.394745 369.885193,479.092743 369.084412,475.355499 
	C365.598053,459.084564 361.366638,443.050720 354.924316,426.540710 
	C351.059174,434.765961 346.853241,442.028473 342.590118,449.257477 
	C341.334320,451.386871 340.053986,453.469513 337.526306,453.573517 
	C332.726746,453.771027 331.727264,456.475403 332.239746,460.967896 
M288.535461,439.781342 
	C302.996979,438.730804 317.487122,438.387878 331.946930,439.303009 
	C335.887878,439.552429 337.577026,438.577240 338.928589,435.055725 
	C343.281799,423.713440 347.903290,412.487274 353.758057,401.789581 
	C360.027618,390.334015 364.132629,378.022430 367.237244,365.367432 
	C367.639526,363.727661 368.223938,362.071503 366.911896,359.581512 
	C365.565857,364.174408 363.183472,367.207245 361.216980,370.466034 
	C359.155884,373.881592 356.919434,377.197815 353.892792,379.901611 
	C347.708344,385.426361 338.463104,383.979279 334.887177,376.581970 
	C332.036011,370.683990 330.582550,364.375641 331.170990,357.705383 
	C331.536469,353.563202 331.614899,349.396179 331.953369,345.251038 
	C332.297211,341.040253 330.537140,339.252838 326.252472,339.089600 
	C318.681091,338.801117 311.431366,339.060211 304.628448,343.251404 
	C299.361969,346.496063 294.920746,349.725983 293.926239,356.529236 
	C292.858826,363.830841 292.627045,371.717621 286.006042,376.904572 
	C272.226593,387.699554 263.017548,384.293152 256.998718,368.632233 
	C255.291168,364.189240 254.898209,359.239136 253.926147,354.516724 
	C253.698486,353.410675 253.906433,352.115356 252.270950,351.555176 
	C249.566467,352.315613 247.722168,355.345520 244.459183,355.255981 
	C241.002823,355.161102 240.348587,356.883301 240.882797,360.046783 
	C245.239288,385.845367 254.264145,409.680756 269.768890,430.965546 
	C274.311951,437.202148 278.874084,442.462769 288.535461,439.781342 
M293.932800,289.285004 
	C288.370575,290.329956 282.763641,291.183289 277.257202,292.467468 
	C270.079590,294.141357 263.135376,296.300934 258.194946,302.485107 
	C253.808304,307.976074 253.628281,308.966064 257.729462,314.792450 
	C258.394196,315.736755 259.038727,316.773071 259.363312,317.864777 
	C260.460510,321.554901 262.281982,321.734619 265.677307,320.208954 
	C273.778778,316.568604 283.266357,320.077515 287.412109,327.750732 
	C288.363251,329.511200 289.232117,331.816498 291.510925,331.658142 
	C296.533783,331.309052 301.718750,332.287231 306.555481,330.466583 
	C306.572754,326.616516 302.183960,322.554810 306.938751,319.767517 
	C310.359283,317.762421 314.776154,318.196960 317.608582,321.257446 
	C321.675842,325.652100 314.727142,326.979370 314.591217,330.408142 
	C321.497528,335.753693 329.306854,335.353546 335.502319,329.267365 
	C336.690063,328.100555 337.922028,326.974396 339.184753,325.889008 
	C347.370392,318.852783 349.720886,318.745850 358.264526,324.929718 
	C358.494263,325.096039 358.899445,325.019928 359.223907,325.047546 
	C361.813629,322.026794 361.909088,321.936554 359.626892,319.522339 
	C356.652802,316.376099 353.524841,313.374115 350.434631,310.339050 
	C334.990662,295.170624 317.372559,285.709869 293.932800,289.285004 
M248.871536,550.499390 
	C248.286194,537.007568 251.679520,524.089905 254.596252,511.109497 
	C255.963562,505.024506 256.255920,498.002716 265.803406,498.553436 
	C264.527863,495.709106 263.564362,493.798462 262.798523,491.811646 
	C259.549561,483.382355 261.438965,478.430969 269.511383,475.234131 
	C272.190063,474.173279 273.590881,472.745178 273.977142,469.953583 
	C274.477905,466.334442 275.095184,462.723785 275.856323,459.150787 
	C276.453613,456.346863 275.726379,454.842072 272.752808,454.102356 
	C268.230164,452.977295 264.620087,450.822968 265.647583,445.116913 
	C265.867767,443.894012 265.143951,442.881927 264.423370,441.941833 
	C257.469543,432.869446 252.331421,422.846008 248.630554,412.047638 
	C248.239151,410.905609 248.083603,409.427094 246.130844,408.643158 
	C246.090652,414.772186 245.051590,420.646820 244.580063,426.440643 
	C243.543533,439.176788 242.307281,452.061646 242.755463,464.762421 
	C243.240524,478.508423 244.683609,492.278595 245.443680,506.067749 
	C246.549850,526.135559 249.035965,546.156921 246.383163,566.278931 
	C246.238510,567.376221 245.992233,568.672119 248.564087,569.629211 
	C250.685791,563.521606 247.916016,557.360962 248.871536,550.499390 
M271.848633,482.555176 
	C270.663849,482.784821 270.253754,483.618774 270.170013,484.707184 
	C269.689423,490.954315 276.424377,499.086517 282.574982,499.685760 
	C288.444458,500.257629 290.305145,502.002747 291.238800,507.896057 
	C291.602356,510.190979 292.031616,512.490723 292.162720,514.803467 
	C292.329895,517.751648 293.651581,519.239014 296.612579,519.822510 
	C310.321075,522.524231 320.045166,519.502869 326.360138,507.046936 
	C329.761108,500.338806 332.593475,493.421631 332.321533,485.714294 
	C332.263824,484.078156 332.414764,481.778290 329.808685,481.468292 
	C327.233276,481.161957 326.959442,483.308044 326.359161,484.958679 
	C325.849884,486.359131 325.581848,487.845978 325.179016,489.286743 
	C324.055664,493.304504 322.742432,497.254059 320.366943,500.736023 
	C316.452545,506.473663 310.720245,506.791229 306.277405,501.519287 
	C303.302979,497.989807 301.812500,493.735870 300.808868,489.340271 
	C299.094696,481.832520 299.177856,481.908295 291.425903,482.274963 
	C285.165527,482.571136 278.911438,483.965698 271.848633,482.555176 
M239.501831,540.806641 
	C238.955353,531.368042 238.313843,521.933533 237.908401,512.488892 
	C237.742432,508.622467 236.504166,507.276215 232.387955,508.071625 
	C226.707565,509.169281 220.899521,509.772491 215.118057,510.119995 
	C211.506302,510.337067 210.107574,511.657776 210.188065,515.267090 
	C210.347260,522.407104 210.225082,529.553284 210.227066,536.696960 
	C210.231873,554.004272 210.854492,554.589966 228.309036,553.756714 
	C238.187973,553.285156 239.755875,551.605347 239.501831,540.806641 
M260.910065,573.355225 
	C252.328140,574.644653 252.339890,574.644836 252.187027,583.064026 
	C252.093536,588.213379 252.467468,593.440308 251.692947,598.488342 
	C250.956772,603.286499 252.858185,607.275574 253.965897,611.555847 
	C254.350922,613.043579 255.442932,613.858948 256.958405,613.539062 
	C261.121765,612.660217 265.236664,613.963135 269.380798,613.678528 
	C271.817657,613.511230 274.260956,613.169678 274.725372,610.258667 
	C276.320740,600.259155 278.021027,590.262939 278.574951,580.135376 
	C278.806396,575.903931 276.427917,573.599487 272.285797,573.376282 
	C268.807770,573.188843 265.312195,573.327698 260.910065,573.355225 
M211.548508,393.996796 
	C210.599411,399.731567 209.654877,405.467133 208.699921,411.200928 
	C207.714951,417.114960 209.416504,419.384583 215.635803,419.773224 
	C220.111603,420.052979 224.626877,419.706726 229.101700,419.994781 
	C233.974380,420.308502 235.815399,417.856323 236.753677,413.449219 
	C238.291824,406.224548 238.031738,398.884094 238.602173,391.611237 
	C239.442184,380.901215 238.162811,379.838043 227.542343,380.029266 
	C211.014175,380.326874 214.971161,378.727875 211.548508,393.996796 
M207.264267,470.061096 
	C206.732880,480.085114 208.114059,489.978668 209.200989,499.900757 
	C209.614380,503.674408 211.408066,505.240387 215.116241,504.765045 
	C220.556686,504.067657 226.006226,503.436707 231.437759,502.676453 
	C233.777023,502.349060 235.662766,501.099121 235.736938,498.556152 
	C236.008499,489.247894 236.470886,479.929962 235.114151,470.649719 
	C234.720032,467.953918 233.244537,467.122925 230.655441,467.168427 
	C224.504395,467.276581 218.349625,467.422607 212.227951,466.386414 
	C210.046646,466.017181 207.753616,466.171112 207.264267,470.061096 
M236.676193,428.168091 
	C236.645081,424.758636 235.640244,423.073975 231.818985,424.809998 
	C230.415421,425.447693 228.535934,425.176666 226.883484,425.101562 
	C222.066574,424.882751 217.254166,424.561615 212.441010,424.264221 
	C209.915543,424.108185 208.295044,424.821442 208.209045,427.776855 
	C207.928284,437.427490 207.569107,447.076477 207.143906,456.721863 
	C207.025650,459.404755 208.072098,460.506622 210.743973,460.992523 
	C217.037613,462.137115 223.352081,461.828857 229.671463,461.818115 
	C233.283020,461.811951 234.536362,459.618683 234.847870,456.386841 
	C235.725586,447.280762 236.749969,438.186768 236.676193,428.168091 
M267.133118,370.352722 
	C273.102295,375.565582 277.459320,375.476013 279.771118,369.429932 
	C283.623810,359.353821 283.826385,348.673920 283.342377,338.029022 
	C283.263153,336.285919 282.525269,334.323364 281.476532,332.923065 
	C278.883606,329.460938 276.984436,324.642365 271.446655,325.244324 
	C266.340637,325.799347 263.335938,329.483124 262.348877,334.028656 
	C259.671570,346.358063 260.715637,358.411713 267.133118,370.352722 
M272.425171,675.069824 
	C272.488434,671.745239 272.764465,668.408325 272.572021,665.098633 
	C272.130524,657.507385 270.622375,656.097717 262.976013,655.206482 
	C259.841949,654.841248 256.732086,654.272888 253.602463,653.863831 
	C249.795395,653.366150 247.389984,654.872009 247.265961,658.892090 
	C246.907944,670.495911 250.430847,681.827942 248.848618,693.831482 
	C253.902252,693.402893 258.015167,692.968933 262.139343,692.725830 
	C267.288177,692.422424 270.571655,690.311829 271.006683,684.726685 
	C271.238251,681.753601 271.909546,678.814819 272.425171,675.069824 
M211.068268,568.555847 
	C211.218735,574.197632 211.161865,579.830933 212.098526,585.451294 
	C212.687500,588.985474 214.244461,590.476685 217.811874,591.054443 
	C222.625687,591.834106 227.423172,591.695862 232.228989,591.821594 
	C238.288254,591.980103 240.510315,590.365845 241.354202,584.440186 
	C242.636703,575.434692 241.485779,566.618225 238.273575,557.632874 
	C230.317795,559.398804 222.420303,559.920532 214.463989,559.322693 
	C212.128952,559.147217 211.121918,560.362427 211.118149,562.599670 
	C211.115341,564.262207 211.085983,565.924744 211.068268,568.555847 
M280.649658,559.078308 
	C283.158539,551.538025 285.108032,543.876221 286.140778,535.430176 
	C276.532684,535.183960 267.380341,534.467407 257.818542,532.009338 
	C258.170624,542.819214 257.870514,552.890259 257.298584,562.952454 
	C257.196320,564.751587 257.850464,566.035889 259.655212,566.887207 
	C267.005493,570.354309 277.050903,566.978149 280.649658,559.078308 
M361.577301,425.002777 
	C362.327545,427.028748 363.317017,429.001953 363.778198,431.091705 
	C364.737366,435.438416 367.263275,436.962250 371.630524,436.743744 
	C375.251770,436.562622 378.952301,436.894135 382.542603,437.468231 
	C386.158234,438.046387 387.027649,436.722748 386.496399,433.421356 
	C384.940460,423.752075 383.479279,414.067474 381.999817,404.385986 
	C380.697845,395.866089 378.070526,393.086548 369.083527,391.025757 
	C366.515686,398.122803 364.105835,405.327728 361.285980,412.368408 
	C359.643860,416.468567 359.206421,420.305145 361.577301,425.002777 
M217.180313,332.472351 
	C216.893768,335.137085 218.157410,336.851685 220.418762,338.110046 
	C224.775620,340.534485 229.286789,342.759399 233.353577,345.609802 
	C240.095200,350.335022 245.385437,344.856537 251.153900,343.400848 
	C255.373917,342.335938 254.427475,337.694336 254.580948,334.827179 
	C255.185974,323.524384 250.477493,313.373352 236.609009,314.049347 
	C225.435135,314.593994 220.098984,319.132782 217.180313,332.472351 
M328.956818,670.568115 
	C329.425293,678.803467 327.733490,687.058655 329.035736,695.771973 
	C334.523407,695.773193 339.584503,694.466919 344.655823,693.023010 
	C348.128448,692.034302 350.171417,689.810852 350.480560,686.373047 
	C351.088593,679.611023 352.336945,672.878052 351.614746,666.030945 
	C350.760529,657.932129 350.802399,657.978271 342.772217,658.938721 
	C340.140717,659.253479 337.469604,659.339600 334.816284,659.344238 
	C330.892456,659.351135 328.968506,661.144043 329.099457,665.121277 
	C329.148529,666.612183 329.022888,668.108826 328.956818,670.568115 
M321.911316,454.220367 
	C314.438385,454.312653 306.962891,454.311981 299.493011,454.516327 
	C283.426697,454.955872 283.426636,454.998901 281.422119,469.093689 
	C281.328796,469.749939 281.249512,470.413605 281.238617,471.075043 
	C281.212677,472.650635 281.992920,473.746277 283.577393,473.686249 
	C290.180298,473.436066 296.937653,475.033386 303.352386,472.809723 
	C307.209595,471.472626 311.036072,471.028046 315.032715,470.736176 
	C318.534576,470.480438 321.706635,472.272888 325.488220,472.088409 
	C325.809662,466.555206 324.349396,461.295685 325.221039,456.014771 
	C325.470917,454.500793 323.937805,454.352783 321.911316,454.220367 
M353.314972,645.532043 
	C354.603973,637.934692 353.951202,630.301025 353.754333,622.674744 
	C353.666351,619.266785 351.896118,617.956238 348.604889,618.294861 
	C345.143341,618.650940 341.676239,618.976318 338.204163,619.200867 
	C332.980743,619.538696 331.353149,621.298401 331.091675,626.689941 
	C330.790100,632.908264 332.510071,638.861877 333.279114,644.938232 
	C333.822662,649.233215 335.457214,652.582336 340.504486,652.958008 
	C347.624756,653.488159 351.422394,651.562378 353.314972,645.532043 
M330.256378,599.254578 
	C330.563782,602.559509 331.011230,605.859070 331.136414,609.170898 
	C331.246033,612.070557 332.626709,613.409180 335.402649,613.577393 
	C340.624329,613.893982 345.491272,611.596313 350.670166,611.507080 
	C351.698303,611.489319 352.399292,610.485291 352.557892,609.434204 
	C353.890472,600.600952 354.534332,591.778076 352.442810,582.576111 
	C348.793945,584.066528 345.639374,584.943176 342.320251,585.162231 
	C330.102631,585.968506 330.103699,585.984497 330.256378,599.254578 
M458.147156,483.443146 
	C456.074585,482.984100 454.040436,481.831421 451.860229,482.893951 
	C442.148987,487.626923 434.055267,494.614288 424.813354,501.592102 
	C432.343597,505.486694 439.632172,507.069977 446.697571,509.237427 
	C447.227936,509.400177 448.048889,509.091095 448.566925,508.747986 
	C456.782593,503.306549 462.017242,495.469116 466.721008,486.990204 
	C464.031067,484.992798 461.346619,484.606018 458.147156,483.443146 
M393.829926,482.791870 
	C397.482727,482.626862 397.006287,480.470490 396.406830,477.905060 
	C394.096558,468.018433 391.909790,458.102692 389.734253,448.185211 
	C389.325684,446.322784 389.007599,444.617798 386.673462,444.215637 
	C382.230774,443.450256 377.779968,442.685791 373.266083,443.163910 
	C369.674408,443.544373 367.782379,445.141541 369.278931,449.187592 
	C372.519867,457.949860 374.546906,467.057831 376.721771,476.125153 
	C377.173126,478.007050 377.154053,480.465057 379.980682,481.571899 
	C380.687195,478.812134 379.464905,476.747650 378.876770,474.608154 
	C377.332458,468.990631 375.688965,463.399353 374.224060,457.761475 
	C373.678558,455.662170 373.194000,453.016266 376.113800,452.434784 
	C378.527100,451.954132 378.648010,454.487244 379.257965,456.147827 
	C381.728882,462.875214 383.932037,469.703278 385.224945,476.743805 
	C386.081512,481.408203 388.367676,483.469543 393.829926,482.791870 
M344.424133,540.412231 
	C339.867645,541.308350 335.336639,542.384583 330.745331,543.034302 
	C327.909576,543.435547 327.026733,544.689941 327.499268,547.359375 
	C328.541077,553.244751 329.363831,559.173157 330.559723,565.026001 
	C331.990997,572.030823 333.746887,573.254700 340.810333,572.650635 
	C343.287872,572.438721 345.742157,571.952576 348.206116,571.585205 
	C351.902863,571.034058 353.626556,568.923035 353.761261,565.149475 
	C353.940125,560.140930 353.143707,555.204407 352.993683,550.235657 
	C352.830658,544.836365 350.815308,541.309509 344.424133,540.412231 
M259.011627,648.603638 
	C260.313354,648.850830 261.616882,649.089050 262.916534,649.346680 
	C268.664734,650.486267 269.754730,649.691956 269.966644,643.892639 
	C270.221497,636.917847 269.570465,629.983826 268.901489,623.049255 
	C268.692383,620.881714 267.699768,619.655090 265.586212,619.411499 
	C262.847137,619.095642 260.097290,618.873596 256.852966,618.563477 
	C257.876434,623.917664 255.607147,626.199951 250.814285,626.188477 
	C248.236191,626.182251 247.015671,627.770996 247.421768,630.025452 
	C248.334320,635.091492 244.322525,641.363220 250.067474,645.047546 
	C252.348526,646.510376 255.296677,647.794006 259.011627,648.603638 
M212.302246,627.237244 
	C219.655762,628.064514 227.006851,628.914368 234.364273,629.705261 
	C236.559723,629.941284 237.800064,628.975708 237.913422,626.632812 
	C238.145889,621.828003 238.444748,617.026184 238.750732,612.225281 
	C238.916779,609.620178 238.012909,608.281128 235.141006,608.117615 
	C228.522858,607.740723 221.918152,607.112305 215.313370,606.525452 
	C213.519150,606.366089 212.294098,606.878967 212.235718,608.804688 
	C212.055649,614.744873 210.397949,620.644836 212.302246,627.237244 
M264.190002,527.658020 
	C269.524414,529.019836 274.970276,529.483704 280.445740,529.867371 
	C283.990143,530.115723 285.493988,528.695801 286.070251,525.233582 
	C287.050568,519.343811 285.580994,513.709961 284.839661,507.997253 
	C284.512634,505.477112 282.459778,505.122437 280.351715,504.983246 
	C264.344666,503.926575 263.598206,504.568848 262.219940,520.629395 
	C262.120667,521.785889 261.940430,522.937195 261.756500,524.084290 
	C261.509888,525.622437 262.225159,526.625854 264.190002,527.658020 
M330.839844,233.695145 
	C330.664734,230.483582 329.850800,227.467804 328.095093,224.740799 
	C324.001740,218.382889 318.040253,216.420303 312.399109,220.097412 
	C306.252075,224.104218 302.737946,230.271469 299.043884,237.809326 
	C311.084991,236.065186 320.140503,242.706696 330.251434,245.305298 
	C332.125854,241.465805 330.975739,237.980225 330.839844,233.695145 
M345.341034,332.844208 
	C338.223694,342.474548 340.026276,352.898468 342.899017,363.274872 
	C343.742249,366.320618 346.783600,366.392731 349.173370,363.820770 
	C355.429108,357.088074 357.227173,341.524109 352.676910,333.441986 
	C350.865143,330.223907 348.720490,328.889984 345.341034,332.844208 
M364.280243,328.970032 
	C362.738281,331.154144 363.170807,333.344666 364.163696,335.598755 
	C365.506531,338.647430 366.751770,341.734344 367.161560,345.087494 
	C367.890259,351.050049 371.391449,352.803406 376.707520,349.694031 
	C383.785858,345.553925 386.571777,339.216827 385.790039,331.155334 
	C385.397156,327.103851 384.009552,323.516144 380.121735,321.815491 
	C376.258728,320.125671 372.605865,321.267853 369.474640,323.978546 
	C367.840790,325.392944 366.289246,326.902405 364.280243,328.970032 
M367.993500,719.202087 
	C370.217224,713.737122 366.301056,708.379150 360.748199,708.838440 
	C350.895081,709.653320 341.144135,711.908875 331.156219,710.896423 
	C331.797272,720.194092 333.800537,722.265686 342.581604,721.736023 
	C350.838287,721.237915 359.066010,720.258728 367.993500,719.202087 
M232.192902,355.670197 
	C226.611908,353.315277 221.078995,350.869263 216.550674,346.806946 
	C215.335663,348.084045 215.477051,349.551941 215.997711,349.937714 
	C221.598099,354.086914 219.031647,359.857117 219.077179,365.043060 
	C219.106934,368.432098 218.602783,371.792145 213.645233,371.229523 
	C214.394485,374.294037 216.044662,375.543243 218.428116,375.479797 
	C222.894073,375.360931 227.352661,374.982452 231.816162,374.747070 
	C234.632462,374.598541 234.894760,372.929901 234.543045,370.620300 
	C233.821152,365.880066 233.238541,361.118622 232.192902,355.670197 
M256.523102,713.252502 
	C252.869308,713.021362 249.217972,712.734192 245.561081,712.573120 
	C240.890152,712.367188 240.885757,716.067322 240.469040,719.107300 
	C240.080643,721.940735 239.846115,725.320801 243.935181,725.534668 
	C250.571167,725.881775 257.239838,726.432739 263.872101,725.255005 
	C267.439362,724.621521 270.114166,723.721375 269.585846,718.927429 
	C269.062836,714.181824 267.027435,712.539795 262.491516,713.238464 
	C260.863495,713.489197 259.164703,713.280457 256.523102,713.252502 
M342.336578,515.492493 
	C339.254730,512.623413 336.851868,513.387024 334.613373,516.687195 
	C332.753998,519.428528 330.672211,522.034729 328.523438,524.559937 
	C325.914825,527.625610 322.106110,525.564209 318.693176,526.187744 
	C320.092804,528.578796 321.357697,530.522156 322.405609,532.576172 
	C324.438690,536.561096 328.059875,536.237366 331.522400,535.880371 
	C336.069550,535.411621 341.026031,535.632446 344.136871,531.331909 
	C345.241791,529.804443 344.814514,527.763733 344.516113,525.969849 
	C343.971222,522.694458 343.265778,519.445862 342.336578,515.492493 
M478.870392,468.276276 
	C481.747864,464.313049 484.592529,460.331665 487.006104,454.703674 
	C479.146790,454.271088 472.275116,453.854248 465.397858,453.575531 
	C464.727692,453.548401 463.741302,454.209381 463.380432,454.829529 
	C461.160309,458.644867 459.323517,462.621887 458.613525,467.466919 
	C465.603394,467.726440 471.873016,469.534546 478.870392,468.276276 
M301.464539,242.845367 
	C297.795532,246.390976 299.326721,250.304047 301.073517,253.886917 
	C303.450500,258.762360 307.527588,262.794464 312.917572,262.587952 
	C317.961731,262.394684 321.947327,262.593964 326.087585,265.983093 
	C329.223267,268.549957 334.845673,266.577393 337.160065,263.269501 
	C339.321472,260.180237 338.235321,257.883698 335.416138,255.883530 
	C336.907684,259.581268 336.233154,262.572418 332.754059,264.520294 
	C330.218475,265.939880 328.007874,265.184204 326.077240,263.063293 
	C322.255188,258.864624 324.630981,255.541260 328.110809,252.296188 
	C323.658051,250.025467 319.928558,247.652100 315.098633,246.288925 
	C316.748138,250.834702 317.056946,254.786026 312.079926,256.561676 
	C308.269836,257.921051 304.593201,257.244507 302.630646,253.360275 
	C299.812439,247.782425 304.622162,245.785355 308.317719,243.381134 
	C306.097015,242.138351 304.139191,242.111618 301.464539,242.845367 
M318.633636,491.066681 
	C319.267456,488.493561 319.951050,485.931427 320.523651,483.344757 
	C321.412964,479.327515 319.692352,477.476898 315.633545,477.243011 
	C305.997467,476.687714 302.932159,480.733154 306.219086,489.879303 
	C306.498871,490.657806 306.780945,491.446747 307.170319,492.172699 
	C308.698486,495.022125 309.448822,499.399109 313.164276,499.356964 
	C317.117432,499.312073 317.216736,494.792542 318.633636,491.066681 
M390.794250,505.751740 
	C396.759155,505.389496 401.943970,502.937164 407.404510,499.748444 
	C405.052124,496.232056 402.867676,492.949493 400.661224,489.681793 
	C400.168091,488.951477 399.373840,488.335999 398.555511,488.670746 
	C393.498199,490.739410 387.606781,489.742676 382.444611,493.002136 
	C384.057983,497.885284 384.366486,503.290924 390.794250,505.751740 
M431.860535,510.677765 
	C423.020355,504.511871 415.537842,506.743744 408.878418,514.343872 
	C408.271667,515.036316 407.379700,515.478882 406.053558,516.454163 
	C417.190979,518.607727 427.145081,516.924866 437.003021,512.813354 
	C435.519501,512.193298 434.035980,511.573242 431.860535,510.677765 
M249.609756,700.254333 
	C247.574753,700.682556 244.399918,699.229370 244.275940,702.964478 
	C244.153122,706.664795 247.367340,706.427979 249.677917,706.617432 
	C253.810699,706.956238 257.976929,706.959412 262.129486,706.969421 
	C269.912964,706.988159 270.673492,706.032166 269.673218,697.636230 
	C263.279327,698.504150 256.888031,699.371765 249.609756,700.254333 
M378.893280,366.771515 
	C378.510773,364.995850 379.612640,362.730804 377.269989,361.554077 
	C374.890564,362.179688 374.987366,364.270294 374.578857,365.927673 
	C373.551239,370.097076 372.664215,374.301331 371.735535,378.494843 
	C370.192719,385.461212 371.626251,387.252106 379.436279,387.886139 
	C380.576874,381.114868 378.675873,374.409454 378.893280,366.771515 
M325.357391,447.702515 
	C328.028473,447.418030 330.822815,448.156982 333.385071,446.614380 
	C315.681091,444.614166 298.016083,444.829803 280.347687,447.253967 
	C295.004364,449.309418 309.726044,447.010803 325.357391,447.702515 
M369.076874,725.204468 
	C365.454468,725.486084 361.831787,725.764526 358.209686,726.049988 
	C351.821381,726.553589 351.386597,727.173828 352.950012,734.026245 
	C359.148712,733.419739 365.207092,731.951050 371.214966,730.245117 
	C372.958801,729.750000 375.049469,729.243103 374.666870,726.806274 
	C374.159058,723.571899 371.650055,725.284119 369.076874,725.204468 
M215.641235,596.745239 
	C213.684296,596.543396 212.298431,597.127258 212.427185,599.377197 
	C212.538513,601.322937 214.057816,601.544067 215.600128,601.817200 
	C222.157516,602.978455 228.779297,602.890259 235.394318,602.919739 
	C238.977249,602.935730 240.386368,601.144592 239.752548,597.042114 
	C231.802399,598.716125 224.138687,597.222534 215.641235,596.745239 
M327.416718,274.444519 
	C327.264709,273.989136 327.212189,273.208038 326.945923,273.126709 
	C322.028931,271.625000 318.417633,266.203583 312.143982,268.512146 
	C310.423248,269.145325 308.169525,267.913086 306.619812,266.682007 
	C302.999847,263.806244 300.428253,264.944794 297.512970,269.008636 
	C307.532562,272.156067 317.018707,274.993744 327.416718,274.444519 
M233.001099,736.254822 
	C240.235138,737.307861 247.507874,736.558777 254.761307,736.707825 
	C256.186981,736.737122 257.506561,736.328735 257.426483,734.546265 
	C257.352142,732.890442 256.114410,732.332214 254.671204,732.321777 
	C248.226837,732.275146 241.778427,732.154968 235.339905,732.345886 
	C233.604416,732.397339 230.950577,732.671875 233.001099,736.254822 
M328.249237,703.027039 
	C328.062836,704.007019 328.455994,704.809814 329.437408,704.740967 
	C334.863892,704.360352 340.324402,704.138123 345.686432,703.303650 
	C348.333710,702.891602 349.248169,700.722473 347.681366,697.767151 
	C341.100861,698.917419 334.535248,699.427490 328.249237,703.027039 
M474.925507,477.786377 
	C475.657318,475.642090 474.255157,475.149780 472.640656,474.925140 
	C469.523346,474.491272 466.393524,474.146790 463.276703,473.709625 
	C462.074280,473.540955 460.840454,473.316803 460.381226,474.785034 
	C459.908142,476.297546 460.647858,477.338043 462.068451,477.921967 
	C464.216339,478.804871 466.458954,479.511108 468.492218,480.606354 
	C471.500732,482.226990 473.532471,481.722870 474.925507,477.786377 
M345.254059,731.783691 
	C345.471191,730.198364 346.291351,728.308105 344.285736,727.425537 
	C342.436615,726.611755 339.918152,726.479248 338.635284,727.811768 
	C336.423248,730.109436 337.312256,733.199646 337.816132,736.313477 
	C340.856262,735.750061 344.271851,736.761841 345.254059,731.783691 
M292.213226,262.519653 
	C298.159363,259.330811 295.243042,255.359390 293.017548,250.976761 
	C290.888367,255.539001 289.337952,259.796326 289.388916,265.653046 
	C290.705811,264.153534 291.231201,263.555267 292.213226,262.519653 
M266.035522,732.329041 
	C265.000610,734.201782 265.259460,735.781799 267.637695,735.617065 
	C270.440430,735.422974 273.475464,735.233459 275.500427,732.335999 
	C272.536285,728.652893 269.482269,731.435791 266.035522,732.329041 
M494.684906,445.499603 
	C494.721191,443.705414 493.912384,442.520813 492.054749,442.794800 
	C489.776398,443.130859 489.835876,445.384796 489.185120,446.978760 
	C488.794464,447.935577 488.815430,449.024017 489.981567,449.485413 
	C491.960541,450.268402 493.037567,448.944580 493.993103,447.533630 
	C494.264038,447.133575 494.397003,446.640076 494.684906,445.499603 
M247.649323,616.398560 
	C246.827316,613.500000 246.005310,610.601379 245.183304,607.702820 
	C244.292633,610.700256 244.059982,613.496155 244.365265,616.232056 
	C244.615616,618.475464 245.714432,619.852417 247.649323,616.398560 
M329.580536,724.811646 
	C329.211334,724.520386 328.842133,724.229126 328.472900,723.937927 
	C328.467499,727.062073 325.552032,730.720398 330.154846,733.370728 
	C331.887482,730.379883 332.777008,727.778076 329.580536,724.811646 
M232.983017,637.749878 
	C233.286469,636.759399 234.624847,635.991150 233.659225,634.718567 
	C229.450256,635.363770 228.825851,636.516907 230.217804,641.068665 
	C231.739059,640.778137 232.002090,639.349915 232.983017,637.749878 
M473.224335,442.077454 
	C472.286224,443.684906 470.587280,444.980194 471.080139,447.427521 
	C474.635986,448.176300 475.060608,445.557281 475.595459,443.246277 
	C475.962006,441.662476 475.670654,440.479767 473.224335,442.077454 
M218.033936,635.323486 
	C217.562958,632.474365 215.604706,633.021545 214.052368,633.911255 
	C212.929626,634.554749 213.170593,636.056091 214.132202,636.886597 
	C215.683609,638.226379 217.102249,638.123291 218.033936,635.323486 
z"/>
<path fill="#000000" opacity="1.000000" stroke="none" 
	d="
M381.113464,276.435242 
	C377.784332,277.087646 375.928986,278.496216 376.153870,281.891632 
	C376.261414,283.514954 376.221497,285.268585 374.441315,286.284607 
	C371.525543,285.841431 371.885620,283.523621 371.929443,281.656311 
	C372.005615,278.410858 370.904022,276.959137 367.476379,277.789276 
	C365.981812,278.151306 364.171387,278.033112 363.740509,276.242676 
	C363.210144,274.038727 365.163391,273.143524 366.755127,273.121490 
	C371.419434,273.056946 372.034210,270.240417 372.044006,266.512268 
	C372.048584,264.758606 372.309448,262.343811 374.663269,262.343781 
	C377.148407,262.343719 377.055420,264.740997 377.049194,266.534515 
	C377.039276,269.403381 377.228119,271.555023 381.024078,272.111267 
	C383.976715,272.543915 384.536499,274.548279 381.113464,276.435242 
z"/>
<path fill="#000000" opacity="1.000000" stroke="none" 
	d="
M235.732513,262.753204 
	C235.826920,261.521088 235.814270,260.676331 235.997513,259.876465 
	C236.299957,258.556366 236.783203,257.078400 238.411865,257.184113 
	C240.292862,257.306213 240.617249,258.983063 240.732361,260.502502 
	C240.843552,261.970215 240.756424,263.452972 240.756424,264.944244 
	C243.214508,266.641571 246.626785,264.135773 248.706146,267.052246 
	C248.788437,269.533905 246.866592,270.544312 244.999268,270.921570 
	C241.235992,271.681915 239.777191,273.782654 239.797226,277.487305 
	C239.805557,279.032288 239.496933,280.814453 237.849014,281.528107 
	C236.034042,281.282043 235.821014,280.076599 235.846146,278.917511 
	C235.924500,275.305573 236.085892,271.761932 230.887878,271.773315 
	C230.110489,271.775024 229.395798,271.013855 229.310287,270.085785 
	C229.175385,268.621613 230.243301,268.047028 231.369949,267.678131 
	C233.640976,266.934479 235.914246,266.255585 235.732513,262.753204 
z"/>
<path fill="#000000" opacity="1.000000" stroke="none" 
	d="
M172.799316,608.707825 
	C173.061569,610.089050 173.325668,611.095581 173.217209,612.060242 
	C172.812424,615.660095 173.572632,618.283142 177.850189,618.567627 
	C178.857788,618.634644 179.697357,619.295166 179.925354,621.228394 
	C174.299423,622.399658 170.831360,625.920715 171.929077,632.172852 
	C168.553757,632.248840 168.143890,630.461853 168.033356,628.885315 
	C167.862961,626.454651 167.554459,624.371399 164.994644,623.186829 
	C163.756912,622.614136 163.506653,620.805237 164.547989,620.280579 
	C168.899780,618.088196 167.436081,614.112061 167.969559,610.688782 
	C168.388397,608.001221 169.129730,605.265503 172.799316,608.707825 
z"/>
<path fill="#000000" opacity="1.000000" stroke="none" 
	d="
M433.080261,334.228760 
	C434.567352,335.201752 436.285034,335.186066 437.290466,337.634033 
	C428.952148,340.019562 433.388306,348.116699 430.967712,353.734894 
	C426.702606,352.149323 427.908691,348.969940 427.839783,346.468231 
	C427.752106,343.287872 428.376984,339.937714 422.928253,339.273987 
	C425.803253,335.787140 428.400208,333.016510 429.196625,329.045258 
	C429.560272,327.232056 431.771698,327.883240 432.390167,329.625336 
	C432.864136,330.960358 432.711182,332.517914 433.080261,334.228760 
z"/>
<path fill="#000000" opacity="1.000000" stroke="none" 
	d="
M345.370483,481.347168 
	C345.658295,479.496765 345.997406,477.922760 344.460297,476.930542 
	C341.443115,474.982849 341.265564,473.246338 344.751678,471.747528 
	C347.167267,470.708984 346.542206,468.489563 346.905334,466.631134 
	C347.190430,465.172211 347.404755,463.371490 349.294342,463.367096 
	C351.432709,463.362091 351.489685,465.392334 351.174225,466.695343 
	C349.919556,471.877655 354.836731,471.537323 356.999725,473.225952 
	C357.263702,474.770660 356.616455,475.783173 355.642822,475.852844 
	C351.395599,476.156738 349.629272,478.602875 349.194672,482.541382 
	C349.067322,483.695038 348.476929,484.953613 347.025482,484.775909 
	C345.277679,484.561951 345.304504,483.065552 345.370483,481.347168 
z"/>
<path fill="#000000" opacity="1.000000" stroke="none" 
	d="
M186.295776,445.973022 
	C183.971237,444.835419 183.362518,443.291046 184.609741,441.444458 
	C185.515930,440.102722 187.021210,439.847504 188.559219,440.336212 
	C190.147736,440.840973 191.121826,441.982361 190.811874,443.638794 
	C190.396637,445.857880 188.655014,446.265137 186.295776,445.973022 
z"/>
<path fill="#000000" opacity="1.000000" stroke="none" 
	d="
M411.406982,438.169647 
	C412.052277,435.898224 413.320862,435.110809 415.165375,436.137451 
	C416.755890,437.022736 417.164856,438.648804 416.992096,440.385925 
	C416.885223,441.460358 416.325897,442.340820 415.173645,442.327576 
	C412.725128,442.299438 411.958099,440.464508 411.406982,438.169647 
z"/>
<path fill="#000000" opacity="1.000000" stroke="none" 
	d="
M409.831299,304.788055 
	C412.735748,305.062225 412.545776,306.525513 411.681183,308.253967 
	C411.063751,309.488342 411.059967,311.349091 408.984039,311.187164 
	C407.690247,311.086212 406.929749,310.209015 406.654724,309.005585 
	C406.116608,306.651215 407.062531,305.218597 409.831299,304.788055 
z"/>
<path fill="#000000" opacity="1.000000" stroke="none" 
	d="
M252.966599,255.035767 
	C255.247528,255.478088 256.750458,256.425354 256.362885,258.655090 
	C256.112915,260.093109 254.804840,260.751129 253.440369,260.804443 
	C252.006226,260.860504 250.967941,259.985718 250.474686,258.668640 
	C249.722000,256.658905 250.812637,255.626495 252.966599,255.035767 
z"/>
<path fill="#000000" opacity="1.000000" stroke="none" 
	d="
M415.060120,349.059570 
	C412.144867,348.078339 411.272125,346.372833 412.963531,344.117218 
	C414.195801,342.473938 416.058990,342.712616 417.174164,344.214233 
	C418.809204,346.415863 418.121155,348.197083 415.060120,349.059570 
z"/>
<path fill="#000000" opacity="1.000000" stroke="none" 
	d="
M178.454956,429.332306 
	C179.342026,432.739136 177.734146,433.676025 175.072250,433.184570 
	C173.368958,432.870087 172.395020,431.394257 173.073410,429.816010 
	C174.230896,427.123138 176.213791,427.299316 178.454956,429.332306 
z"/>
<path fill="#000000" opacity="1.000000" stroke="none" 
	d="
M368.590942,490.443054 
	C368.964417,492.921387 367.832916,493.868866 365.867340,493.828430 
	C364.397400,493.798157 363.437469,492.859833 363.083527,491.454590 
	C362.773834,490.224884 363.123047,489.136169 364.344086,488.568695 
	C366.188446,487.711639 367.495544,488.468689 368.590942,490.443054 
z"/>
<path fill="#000000" opacity="1.000000" stroke="none" 
	d="
M400.858704,273.038147 
	C398.536041,273.058563 396.848907,272.480347 396.612213,270.262726 
	C396.475677,268.983154 397.387970,268.164520 398.636139,267.883636 
	C399.994110,267.578064 401.272888,267.789276 402.186066,268.923706 
	C403.554199,270.623413 402.884888,271.912415 400.858704,273.038147 
z"/>
<path fill="#000000" opacity="1.000000" stroke="none" 
	d="
M386.596436,300.477142 
	C389.084137,299.729706 391.132843,299.980927 391.200806,302.617462 
	C391.250458,304.542053 389.332397,305.421204 387.639771,304.969574 
	C385.348175,304.358063 384.355042,302.843750 386.596436,300.477142 
z"/>
<path fill="#000000" opacity="1.000000" stroke="none" 
	d="
M389.297577,265.920288 
	C387.844971,268.464661 386.163177,268.892120 384.508820,266.723755 
	C383.419983,265.296600 383.936798,263.669952 385.471619,262.929291 
	C388.026917,261.696228 389.156372,263.095612 389.297577,265.920288 
z"/>
<path fill="#000000" opacity="1.000000" stroke="none" 
	d="
M382.330841,250.628860 
	C381.702911,248.187103 382.128052,246.435303 384.675110,246.647766 
	C386.670929,246.814240 387.638977,248.450211 386.914948,250.274994 
	C386.000427,252.579758 384.263000,252.408508 382.330841,250.628860 
z"/>
<path fill="#000000" opacity="1.000000" stroke="none" 
	d="
M164.245789,657.627197 
	C164.753754,660.764954 163.166229,661.116760 161.111145,660.259094 
	C159.709305,659.674072 158.383774,658.290771 159.417892,656.757507 
	C161.041733,654.350098 162.718491,655.558594 164.245789,657.627197 
z"/>
<path fill="#000000" opacity="1.000000" stroke="none" 
	d="
M260.294189,255.379608 
	C262.894836,254.081848 264.555756,254.841843 264.707611,257.351440 
	C264.810211,259.047241 263.089966,259.957672 261.590668,259.659912 
	C259.322632,259.209473 258.862732,257.605896 260.294189,255.379608 
z"/>
<path fill="#000000" opacity="1.000000" stroke="none" 
	d="
M362.695221,497.920563 
	C364.755035,498.317078 365.822662,499.178772 365.049377,501.041748 
	C364.551910,502.240234 363.360046,502.549927 362.171051,502.528534 
	C361.108795,502.509521 360.240051,501.972382 359.993286,500.889618 
	C359.564880,499.009735 360.608398,498.170807 362.695221,497.920563 
z"/>
<path fill="#000000" opacity="1.000000" stroke="none" 
	d="
M196.351746,612.705383 
	C198.184372,614.172485 199.315155,615.865356 197.525757,617.467957 
	C196.072006,618.770020 194.644821,617.487427 193.996811,616.027466 
	C193.143936,614.105957 193.027405,612.319763 196.351746,612.705383 
z"/>
<path fill="#000000" opacity="1.000000" stroke="none" 
	d="
M404.902893,463.186462 
	C403.762299,460.914825 404.490112,459.665314 406.590820,459.482727 
	C407.863159,459.372131 408.937683,460.273529 408.721558,461.618927 
	C408.401031,463.614502 407.148865,464.419830 404.902893,463.186462 
z"/>
<path fill="#000000" opacity="1.000000" stroke="none" 
	d="
M255.001984,275.440918 
	C256.911530,277.236481 256.647552,278.565918 254.520538,279.249329 
	C252.825714,279.793915 251.401215,278.912750 251.327942,277.209106 
	C251.228561,274.898621 252.878326,274.700134 255.001984,275.440918 
z"/>
<path fill="#000000" opacity="1.000000" stroke="none" 
	d="
M264.581360,392.435577 
	C268.840149,398.621307 273.145996,404.350189 276.455475,410.717224 
	C277.294189,412.330811 277.920715,414.062012 278.552551,415.773224 
	C278.985046,416.944550 278.958862,418.106628 277.640533,418.769501 
	C276.355896,419.415436 275.315155,418.846771 274.621582,417.815308 
	C264.363556,402.559509 251.920334,388.533203 247.574997,369.939178 
	C247.127579,368.024689 246.140060,365.486237 248.703201,364.801880 
	C251.271133,364.116302 251.569183,366.893341 252.285965,368.696564 
	C255.548935,376.905273 259.327606,384.849884 264.581360,392.435577 
z"/>
<path fill="#000000" opacity="1.000000" stroke="none" 
	d="
M280.043213,426.893066 
	C278.483032,424.642181 279.199402,423.186188 281.127625,422.258484 
	C282.449646,421.622437 283.725708,422.082520 284.700684,423.119507 
	C285.579315,424.053955 285.725037,425.226959 285.017548,426.285583 
	C283.788452,428.124695 282.134338,428.224365 280.043213,426.893066 
z"/>
<path fill="#000000" opacity="1.000000" stroke="none" 
	d="
M267.710815,304.618347 
	C271.278625,303.122803 274.453888,301.626160 277.758881,300.515625 
	C281.023132,299.418823 284.260590,299.436920 286.848450,302.269653 
	C286.287231,304.744873 284.248718,304.815216 282.567291,305.251831 
	C276.269470,306.887146 270.110901,308.879486 264.310944,311.880402 
	C262.988617,312.564514 261.465881,313.551941 260.350433,311.814941 
	C259.295715,310.172455 260.557373,308.913818 261.788757,308.065033 
	C263.561737,306.842896 265.504669,305.867218 267.710815,304.618347 
z"/>
<path fill="#000000" opacity="1.000000" stroke="none" 
	d="
M295.474884,301.503845 
	C297.479370,303.267975 297.426544,304.852966 295.679810,306.273560 
	C294.549683,307.192688 293.243805,307.146790 292.004822,306.365082 
	C290.773834,305.588470 290.005951,304.489502 290.650116,303.061646 
	C291.530518,301.109985 293.147186,300.601379 295.474884,301.503845 
z"/>
<path fill="#000000" opacity="1.000000" stroke="none" 
	d="
M292.312347,489.090210 
	C286.867004,490.156616 281.749878,490.406708 276.605103,490.216522 
	C275.270142,490.167175 273.726044,490.140869 273.455902,488.477844 
	C273.182861,486.796692 274.562683,486.178314 275.916473,485.938477 
	C280.985352,485.040405 286.105194,484.428406 291.229553,485.162506 
	C293.427246,485.477325 296.024353,486.279205 292.312347,489.090210 
z"/>
<path fill="#000000" opacity="1.000000" stroke="none" 
	d="
M218.068726,537.959961 
	C218.033356,541.275024 218.120575,544.106506 217.920502,546.917419 
	C217.803345,548.563477 217.347061,550.519714 215.347427,550.718018 
	C212.851105,550.965393 212.416336,548.697144 212.248550,546.972900 
	C211.443024,538.694397 211.509323,530.392395 212.158905,522.103760 
	C212.326752,519.962036 212.656601,517.801819 213.214706,515.731750 
	C213.647095,514.128052 213.366882,511.495178 215.938858,511.687866 
	C218.442062,511.875366 218.043182,514.297241 218.074463,516.039856 
	C218.131088,519.193970 217.983551,522.351196 217.981873,525.507080 
	C217.979767,529.493958 218.038300,533.480774 218.068726,537.959961 
z"/>
<path fill="#000000" opacity="1.000000" stroke="none" 
	d="
M218.921753,406.560547 
	C218.782425,407.991333 218.747849,408.997284 218.500000,409.947632 
	C218.114944,411.424011 217.516281,412.969330 215.663254,412.857147 
	C214.022202,412.757782 213.753296,411.204468 213.488434,409.925354 
	C212.300293,404.187042 212.606461,398.407013 213.340012,392.663116 
	C213.574097,390.830139 214.686264,389.043274 216.944016,389.339630 
	C219.086670,389.620880 219.112701,391.499695 219.090942,393.211121 
	C219.036255,397.511017 218.984100,401.810944 218.921753,406.560547 
z"/>
<path fill="#000000" opacity="1.000000" stroke="none" 
	d="
M210.566223,493.010864 
	C209.211746,486.910614 208.509674,481.140472 208.884018,475.287231 
	C209.000458,473.466522 209.167770,471.163818 211.524384,471.141357 
	C213.921661,471.118561 214.030563,473.374634 214.144089,475.239349 
	C214.487625,480.882599 215.520065,486.485840 215.136368,492.171173 
	C215.045135,493.523010 214.945633,495.083801 213.515869,495.561188 
	C211.853149,496.116394 211.287140,494.591064 210.566223,493.010864 
z"/>
<path fill="#000000" opacity="1.000000" stroke="none" 
	d="
M209.756195,451.634277 
	C209.765274,445.370331 209.717667,439.562225 209.837326,433.757568 
	C209.879379,431.718048 209.382980,428.611969 212.252731,428.583740 
	C215.363663,428.553131 215.093567,431.791656 215.125366,433.990540 
	C215.211624,439.960266 215.122528,445.935028 214.968002,451.904297 
	C214.918945,453.799927 215.209610,456.527618 212.525085,456.605133 
	C209.897934,456.681030 210.006256,454.044281 209.756195,451.634277 
z"/>
<path fill="#000000" opacity="1.000000" stroke="none" 
	d="
M217.550201,583.851074 
	C216.245651,579.620117 216.207718,575.687500 216.824661,571.729675 
	C217.035980,570.374023 217.487473,569.032227 219.167068,569.032166 
	C220.709778,569.032043 221.633942,570.150330 221.829712,571.516968 
	C222.416595,575.613770 222.652267,579.800293 221.684280,583.813477 
	C221.050873,586.439636 219.355545,587.690491 217.550201,583.851074 
z"/>
<path fill="#000000" opacity="1.000000" stroke="none" 
	d="
M370.205933,427.581299 
	C368.982605,423.570526 367.858551,419.928406 366.897003,416.243896 
	C366.593628,415.081421 366.924591,413.827393 368.294922,413.420898 
	C369.617004,413.028717 370.621460,413.767120 371.076904,414.923004 
	C372.597870,418.783173 374.008453,422.691254 374.132385,426.908020 
	C374.161316,427.892181 374.139771,429.023376 373.051392,429.473206 
	C371.609985,430.068939 370.995026,428.921997 370.205933,427.581299 
z"/>
<path fill="#000000" opacity="1.000000" stroke="none" 
	d="
M227.328735,334.443970 
	C224.105789,329.375122 223.637695,324.490723 226.656357,319.579437 
	C228.484573,316.604889 229.727737,316.306122 233.675079,317.425964 
	C234.307678,318.843903 233.098022,319.495575 232.446869,320.388855 
	C229.581604,324.319366 229.759827,327.983643 233.154556,331.603760 
	C235.147736,333.729279 239.411667,336.067810 236.546402,339.068573 
	C234.165710,341.561829 231.469604,337.484680 229.008606,336.108887 
	C228.448868,335.795990 228.045242,335.203857 227.328735,334.443970 
z"/>
<path fill="#000000" opacity="1.000000" stroke="none" 
	d="
M243.879150,342.238281 
	C242.633270,339.732971 243.376602,338.398285 245.770676,338.292358 
	C247.026093,338.236786 248.124893,339.213196 247.965714,340.460236 
	C247.684311,342.664520 246.336548,343.568176 243.879150,342.238281 
z"/>
<path fill="#000000" opacity="1.000000" stroke="none" 
	d="
M290.235260,456.670868 
	C293.886993,455.732117 297.182800,454.714783 300.758850,457.523315 
	C297.067810,460.280212 293.154449,460.328827 289.326660,460.545105 
	C288.543396,460.589355 287.704834,459.983032 287.639832,459.031494 
	C287.536682,457.521240 288.830627,457.250061 290.235260,456.670868 
z"/>
<path fill="#000000" opacity="1.000000" stroke="none" 
	d="
M340.057465,557.633667 
	C339.994781,554.031616 339.878967,550.886719 339.977905,547.748596 
	C340.043610,545.664734 339.843628,542.764099 342.699188,542.765503 
	C345.207397,542.766724 345.103699,545.511292 345.180328,547.453003 
	C345.310699,550.756042 345.286499,554.065125 345.324982,557.371704 
	C345.346039,559.181641 345.146240,561.014832 347.054840,562.215393 
	C348.191284,562.930237 349.332062,564.032349 348.344910,565.463440 
	C347.324341,566.942932 345.472198,566.928650 343.839813,567.083679 
	C342.315155,567.228638 341.221191,566.506042 340.968811,564.978699 
	C340.591919,562.697876 340.378540,560.390015 340.057465,557.633667 
z"/>
<path fill="#000000" opacity="1.000000" stroke="none" 
	d="
M374.511688,325.542603 
	C379.475525,326.921783 382.125092,330.973785 381.492126,335.927643 
	C381.221985,338.041779 380.602814,340.116089 380.072754,342.190735 
	C379.670258,343.766022 378.784485,345.021759 376.961365,344.630615 
	C375.141724,344.240265 373.554077,342.329956 374.207886,341.088806 
	C376.908478,335.962158 375.009247,331.275604 373.653839,326.450928 
	C373.599976,326.259094 374.006714,325.937866 374.511688,325.542603 
z"/>
<path fill="#000000" opacity="1.000000" stroke="none" 
	d="
M386.412842,498.112854 
	C390.678833,495.347382 392.500427,498.148499 394.506683,500.927673 
	C390.581177,503.680267 388.553650,503.006836 386.412842,498.112854 
z"/>
</svg>