<svg version="1.1" id="Layer_1" xmlns="http://www.w3.org/2000/svg" xmlns:xlink="http://www.w3.org/1999/xlink" x="0px" y="0px"
	 width="100%" viewBox="0 0 736 736" enable-background="new 0 0 736 736" xml:space="preserve">
<path fill="#000000" opacity="1.000000" stroke="none" 
	d="
M466.600281,359.023071 
	C469.970642,359.686523 469.970642,359.686523 471.724915,361.792175 
	C470.544525,363.905457 468.525726,363.156403 466.816498,363.100830 
	C459.962067,362.877838 453.174866,363.456787 446.409302,364.491974 
	C442.298248,365.121002 439.651947,367.071198 439.618286,372.378876 
	C450.748230,375.189728 463.612915,371.960938 473.938965,379.735443 
	C472.217346,382.354340 470.447144,381.525055 469.042450,380.941925 
	C460.828613,377.532043 452.135284,377.538147 443.495148,377.168884 
	C437.083313,376.894836 436.835052,377.072083 432.366943,383.335754 
	C442.069824,388.337585 454.035492,388.564453 462.096252,396.769562 
	C460.311249,399.614929 458.683319,398.084869 457.100616,397.421906 
	C449.267548,394.140778 441.496216,390.702850 433.207214,388.649292 
	C429.842834,387.815735 426.867249,387.855591 423.825684,390.090515 
	C419.111023,393.554810 413.854645,396.153076 408.095337,397.475250 
	C404.085114,398.395874 402.942474,400.807587 403.141998,404.758850 
	C403.673035,415.274780 405.867035,425.513031 407.772491,435.809235 
	C410.533630,450.729095 414.173920,465.409058 419.473236,479.650299 
	C421.766418,485.812927 421.963043,492.360229 422.893951,498.769836 
	C423.294464,501.527344 421.829681,502.814453 419.197845,502.900085 
	C416.700592,502.981354 414.200500,503.001892 411.701660,503.002441 
	C375.708740,503.010010 339.715851,503.010284 303.722931,503.008636 
	C302.556702,503.008575 301.390564,502.956787 300.224274,502.951019 
	C297.015442,502.935181 295.702087,501.621979 296.496246,498.246124 
	C299.174866,486.859650 302.929016,475.886658 308.287506,465.460785 
	C318.718933,445.164520 328.311707,424.503510 335.744354,402.877899 
	C337.309784,398.323273 336.545074,395.631348 331.819305,394.088898 
	C329.631500,393.374817 327.372681,392.339813 325.641571,390.867676 
	C320.731506,386.692230 315.960266,386.769867 310.575165,389.998779 
	C305.157227,393.247345 299.428070,395.975830 293.846985,398.954102 
	C292.116180,399.877716 290.496857,401.139526 288.112000,400.565613 
	C287.071594,397.638214 288.824280,396.242889 290.935791,395.064331 
	C296.750519,391.818817 302.590820,388.618988 308.395111,385.355072 
	C309.957977,384.476257 311.699341,383.754974 312.662506,381.853943 
	C311.383087,378.571472 308.896545,377.925720 305.825439,378.645874 
	C299.181488,380.203857 292.552185,381.824158 285.917816,383.422821 
	C285.270111,383.578918 284.636200,383.800537 283.983124,383.924561 
	C282.337677,384.237000 280.367462,384.770111 279.720306,382.656067 
	C279.003021,380.312836 281.162201,380.012604 282.711700,379.592499 
	C288.657074,377.980530 294.624329,376.449341 300.579895,374.874481 
	C302.321228,374.414001 304.050720,373.908539 305.932281,373.382690 
	C305.056396,368.631287 303.127289,366.127747 297.835327,366.966522 
	C292.598724,367.796539 287.235016,367.856720 281.921295,368.149963 
	C280.113770,368.249756 277.848236,368.383270 277.707916,365.827484 
	C277.570190,363.318726 279.862885,363.933014 281.382751,363.612396 
	C285.489777,362.746094 289.652344,362.753326 293.817139,362.690796 
	C296.114410,362.656342 298.509125,362.848358 300.688751,360.566956 
	C297.580994,352.668335 299.416779,344.558807 300.314148,336.275574 
	C300.962158,330.294067 299.211639,324.081757 298.823608,317.953857 
	C297.217743,292.592529 303.738983,268.802338 313.084137,245.589142 
	C316.507629,237.085297 320.356262,228.778152 324.967529,220.840073 
	C326.743164,217.783356 328.485870,214.708878 332.611847,214.481491 
	C337.201324,214.228577 339.775909,217.070267 341.311676,220.753937 
	C349.627747,240.700455 359.127258,260.254608 363.016388,281.746155 
	C363.663330,285.321259 365.096252,286.110382 368.260132,285.883698 
	C371.577301,285.646088 374.939484,285.486786 378.244141,285.756653 
	C382.951813,286.141083 385.272522,283.903931 386.548523,279.658417 
	C389.805725,268.820862 393.278351,258.048126 396.554596,247.216110 
	C398.924988,239.379150 401.948456,231.812042 405.735565,224.570236 
	C407.803894,220.615250 410.708374,217.046417 415.537933,217.015305 
	C420.690460,216.982132 423.511658,220.876877 425.418182,225.077148 
	C432.951813,241.674774 437.513550,259.199432 441.261993,276.967834 
	C444.701477,293.271576 444.420441,309.649567 442.239532,326.048065 
	C441.532166,331.366852 443.555817,336.234161 444.251251,341.314362 
	C445.093658,347.467957 445.391693,353.559601 443.390900,360.166931 
	C451.360321,359.759857 458.759399,359.381927 466.600281,359.023071 
M347.216125,314.159698 
	C346.551422,314.164917 345.886627,314.165253 345.222015,314.176117 
	C335.064270,314.342285 327.088013,319.975311 323.906555,329.228119 
	C320.856445,338.098877 323.744659,347.993683 331.104950,353.889282 
	C335.910248,357.738312 351.189178,358.346466 356.964539,354.821808 
	C358.063507,354.151093 359.011963,353.136322 359.831329,352.120209 
	C366.696655,343.606110 365.706085,327.245361 357.839417,319.492981 
	C355.114044,316.807190 352.363922,314.049133 347.216125,314.159698 
M395.699890,351.689514 
	C402.932770,360.325470 415.347534,360.315918 422.517975,351.668854 
	C428.934357,343.931244 427.659393,325.764252 420.214172,318.841370 
	C413.255920,312.371307 404.896912,312.906128 398.817932,320.210358 
	C391.571472,328.917389 390.172882,341.210205 395.699890,351.689514 
z"/>
<path fill="#000000" opacity="1.000000" stroke="none" 
	d="
M353.213196,327.843384 
	C357.543365,332.590271 358.325562,338.286743 355.617889,343.131958 
	C354.665161,344.836792 353.494659,346.123047 351.293915,345.715332 
	C348.288422,345.158600 345.697601,340.405640 345.966034,335.938690 
	C346.275604,330.787537 348.733398,327.849396 353.213196,327.843384 
z"/>
<path fill="#000000" opacity="1.000000" stroke="none" 
	d="
M400.252899,337.041321 
	C400.320404,336.144379 400.366394,335.649384 400.451904,335.161346 
	C400.995239,332.059937 401.253784,328.118835 405.312347,328.245972 
	C409.485779,328.376709 410.604309,332.231018 411.041992,335.801086 
	C411.889709,342.715424 410.366486,346.519928 406.418396,346.678436 
	C399.710968,346.947693 401.160614,341.309662 400.252899,337.041321 
z"/>
</svg>