<svg version="1.1" id="Layer_1" xmlns="http://www.w3.org/2000/svg" xmlns:xlink="http://www.w3.org/1999/xlink" x="0px" y="0px"
	 width="100%" viewBox="0 0 736 824" enable-background="new 0 0 736 824" xml:space="preserve">
<path fill="none" opacity="1.000000" stroke="#000000" stroke-linecap="round" stroke-linejoin="round" stroke-width="3.000000"
	d="
M95.750000,289.000000 
	C94.707199,291.739868 96.283745,293.899902 97.534248,295.979401 
	C106.406868,310.733795 117.334473,323.925323 129.068695,336.435577 
	C132.780212,340.392517 134.489487,344.978577 135.471603,350.005554 
	C137.009583,357.877747 140.025436,364.986633 146.045471,370.449890 
	C148.332138,372.525055 149.016510,376.150146 152.935013,377.317993 
	C154.321777,369.821777 162.801422,369.421967 166.231323,363.637146 
	C166.984482,362.366913 170.660599,362.780762 173.001205,362.510437 
	C178.689529,361.853363 183.123611,359.824188 184.597473,353.522797 
	C185.102997,351.361420 187.434128,350.501648 189.458389,349.421997 
	C208.726532,339.145203 229.443481,334.284058 250.991592,331.923248 
	C271.502533,329.676117 291.633911,331.240631 311.484955,336.556152 
	C318.867645,338.532990 325.610291,342.254883 332.460510,345.581329 
	C333.755737,346.210327 334.558838,346.667053 336.017639,346.041077 
	C355.261230,337.784363 373.288116,327.347504 390.449341,315.427094 
	C394.787445,312.413849 398.542053,308.546539 402.485016,304.983398 
	C405.049408,302.666016 405.857269,300.243744 404.734711,296.430908 
	C403.650970,292.749969 404.500000,288.500000 404.500000,284.500000 
	C404.500000,281.166656 404.607941,277.829193 404.480042,274.500763 
	C404.074249,263.940033 396.310272,260.192505 387.975616,257.577698 
	C373.072693,252.902222 358.110626,248.648209 342.541016,246.235413 
	C328.701111,244.090683 314.842468,243.106110 301.003113,243.266998 
	C290.096588,243.393799 280.513702,246.217590 274.415344,262.969177 
	C268.864624,278.216400 265.196472,293.692688 265.481140,310.000336 
	C265.595734,316.565979 270.312439,321.721985 276.998413,322.513397 
	C293.767426,324.498322 310.521332,326.662323 326.482819,332.546631 
	C332.648407,334.819641 338.996826,336.885773 344.000000,341.500000 
"/>
<path fill="none" opacity="1.000000" stroke="#000000" stroke-linecap="round" stroke-linejoin="round" stroke-width="3.000000"
	d="
M174.500000,349.000000 
	C175.536041,344.423706 179.699951,342.914001 183.056595,341.105011 
	C196.873367,333.658691 211.251205,327.670166 226.986633,325.407074 
	C230.743393,324.866791 234.396317,323.331818 237.985779,321.962708 
	C243.900558,319.706665 244.487457,313.861023 245.349564,308.973450 
	C248.255661,292.497894 250.490631,275.927917 255.911667,259.970001 
	C258.455994,252.480270 253.891312,244.689835 243.994858,245.431396 
	C232.013306,246.329193 219.945297,245.847305 207.999969,247.499771 
	C191.658401,249.760406 176.018219,253.999664 162.520187,264.027161 
	C158.625381,266.920563 156.369812,271.372925 154.664673,275.566956 
	C148.967972,289.579010 142.606415,303.409454 139.965942,318.494049 
	C139.465652,321.352203 139.619675,324.390900 138.000000,327.000000 
"/>
<path fill="none" opacity="1.000000" stroke="#000000" stroke-linecap="round" stroke-linejoin="round" stroke-width="3.000000"
	d="
M445.500000,257.500000 
	C436.109314,261.426117 428.471527,267.777008 421.517212,275.016541 
	C416.622528,280.111938 417.487000,286.544739 418.616150,292.477905 
	C421.958282,310.039673 425.913330,327.484009 429.415131,345.016968 
	C429.950500,347.697540 430.578461,350.196075 431.982758,352.562225 
	C436.920685,352.070862 440.664886,348.869232 444.381073,346.326233 
	C450.225586,342.326782 456.305176,338.762146 462.592041,335.688263 
	C465.553284,334.240356 466.035645,332.667328 466.018250,329.999878 
	C465.935730,317.349243 462.991394,305.169159 459.986237,293.003418 
	C457.898132,284.550293 455.588654,276.161407 452.527405,267.989746 
	C451.085114,264.139648 449.500519,260.428284 446.500000,257.500000 
"/>
<path fill="none" opacity="1.000000" stroke="#000000" stroke-linecap="round" stroke-linejoin="round" stroke-width="3.000000"
	d="
M455.000000,564.000000 
	C460.588776,572.872192 469.018585,573.036804 477.999878,571.499268 
	C493.058380,568.921387 507.580139,570.379028 521.523010,576.951172 
	C525.246155,578.706177 529.378113,581.766235 533.405396,579.342773 
	C538.930115,576.018127 542.168762,570.545837 542.978638,563.997375 
	C544.870422,548.700745 531.046997,532.524536 520.087341,527.797485 
	C494.103180,516.590149 465.657257,533.611145 456.972473,554.488525 
	C456.519470,555.577454 455.666656,556.500000 455.000000,557.500000 
"/>
<path fill="none" opacity="1.000000" stroke="#000000" stroke-linecap="round" stroke-linejoin="round" stroke-width="4.000000"
	d="
M569.500000,311.500000 
	C576.501404,311.804443 583.570251,310.692017 590.752258,312.565613 
	C593.156616,307.653961 593.277710,302.256042 593.421143,296.997864 
	C593.693604,287.005280 593.386597,276.998077 593.555603,267.000946 
	C593.623657,262.975464 591.674500,259.423035 591.458130,255.502304 
	C591.429626,254.985474 590.946838,254.321915 590.483093,254.026520 
	C582.542419,248.968124 574.223694,244.725800 564.992981,242.529449 
	C564.714905,242.463287 564.333191,242.833023 563.432739,243.282730 
	C565.139099,249.671494 566.522644,256.296875 567.526733,262.996002 
	C569.917480,278.946716 569.889832,294.956573 569.000000,311.000000 
"/>
<path fill="none" opacity="1.000000" stroke="#000000" stroke-linecap="round" stroke-linejoin="round" stroke-width="3.000000"
	d="
M421.750000,166.000000 
	C416.264191,164.410843 410.572571,164.970520 404.993347,164.600159 
	C380.818665,162.995346 356.682678,162.317078 332.479095,165.332077 
	C315.080811,167.499359 297.675781,169.436783 280.505280,173.025284 
	C270.809326,175.051697 261.073822,176.997787 251.537720,179.636322 
	C246.491226,181.032608 241.870102,183.923569 236.967972,185.921371 
	C236.024384,186.305923 234.666672,187.242264 233.500000,186.000000 
"/>
<path fill="none" opacity="1.000000" stroke="#000000" stroke-linecap="round" stroke-linejoin="round" stroke-width="3.000000"
	d="
M477.500000,172.500000 
	C497.061615,175.506165 515.946838,180.428238 534.090332,188.804321 
	C551.903992,197.028091 568.404236,206.826675 582.492493,220.507721 
	C600.206299,237.709457 613.849243,257.732910 624.612000,279.945740 
	C631.627380,294.424316 636.030273,309.709015 640.441284,325.016907 
	C646.318420,345.412781 648.302002,366.484528 650.503052,387.499664 
	C651.987000,401.668030 653.608276,415.822968 654.968994,430.002991 
	C656.279114,443.655884 657.209290,457.345367 658.531738,470.996918 
	C660.143372,487.633392 660.459412,504.297974 660.656494,520.998169 
	C660.752930,529.175476 662.523438,537.330505 663.494019,545.500732 
	C664.677734,555.464844 666.135864,565.300781 665.334229,575.526184 
	C664.832703,581.922852 664.696411,588.500671 664.521912,595.000610 
	C664.200073,606.988708 661.474487,618.438660 656.957092,629.482422 
	C656.089111,631.604614 654.666687,633.500000 653.500000,635.500000 
"/>
<path fill="none" opacity="1.000000" stroke="#000000" stroke-linecap="round" stroke-linejoin="round" stroke-width="3.000000"
	d="
M320.000000,208.000000 
	C315.351685,198.741653 306.794281,194.920319 297.473755,193.700607 
	C285.938080,192.191010 274.267792,192.299988 262.976929,196.437012 
	C256.399902,198.846848 250.622955,202.395462 246.159256,207.635651 
	C244.878571,209.139145 242.307007,211.011307 244.286819,214.617050 
	C246.264267,218.218491 249.503967,218.709885 251.969269,218.310379 
	C270.399536,215.323685 289.070679,217.676498 307.491699,215.431793 
	C312.561890,214.813980 318.427856,215.032669 320.500000,208.500000 
"/>
<path fill="none" opacity="1.000000" stroke="#000000" stroke-linecap="round" stroke-linejoin="round" stroke-width="3.000000"
	d="
M474.500000,329.500000 
	C479.394318,329.182922 483.426575,326.294769 487.987549,324.957520 
	C491.218506,324.010193 494.258453,322.051178 497.518799,321.654541 
	C501.667969,321.149811 502.651978,318.879242 502.464935,315.501953 
	C502.167542,310.131622 501.507477,304.802094 500.542419,299.492279 
	C498.630737,288.974213 497.339417,278.352844 494.552521,267.985870 
	C492.395020,259.960388 490.574982,251.921967 486.663971,244.414581 
	C484.794861,240.826813 482.920135,240.941925 479.997650,241.993469 
	C470.987091,245.235565 462.046509,248.642365 452.891144,253.030106 
	C457.829773,260.759949 460.713806,269.148254 463.405945,277.530212 
	C468.569000,293.605255 473.548706,309.789154 472.973785,326.999115 
	C472.941803,327.956543 473.399841,328.466736 474.000000,329.000000 
"/>
<path fill="none" opacity="1.000000" stroke="#000000" stroke-linecap="round" stroke-linejoin="round" stroke-width="3.000000"
	d="
M133.500000,619.000000 
	C138.589828,619.526001 142.893646,616.930542 147.506073,615.519836 
	C159.064590,611.984863 170.333084,614.186707 181.495392,617.515442 
	C189.178635,619.806641 194.471878,617.635559 197.454773,610.481140 
	C198.863998,607.101135 198.063248,601.480591 195.494263,599.507507 
	C185.269669,591.654541 174.285934,585.451111 160.998459,585.051331 
	C152.417633,584.793152 144.950653,588.273743 137.999176,592.998779 
	C137.005234,593.674377 136.000000,594.333313 135.000000,595.000000 
"/>
<path fill="none" opacity="1.000000" stroke="#000000" stroke-linecap="round" stroke-linejoin="round" stroke-width="3.000000"
	d="
M382.500000,482.000000 
	C381.756561,478.257172 385.406769,476.316650 386.127045,473.027832 
	C387.253479,467.884369 385.769440,465.336060 380.501221,465.532837 
	C374.137634,465.770569 368.343475,468.088715 362.465179,470.411896 
	C349.717712,475.449829 336.631744,479.531281 323.545044,483.643372 
	C309.097931,488.182953 294.237030,490.461121 279.513489,493.564026 
	C267.115540,496.176788 254.592331,497.575745 241.998260,498.475739 
	C221.325485,499.953033 200.539566,499.174408 180.045929,497.453125 
	C166.216843,496.291626 152.000839,494.072540 138.444656,489.670410 
	C135.800400,488.811768 132.179993,488.528351 129.497086,490.996826 
	C126.716751,493.554932 127.324615,496.528992 128.516281,499.493469 
	C130.847672,505.293060 134.433960,510.364594 138.546143,514.958679 
	C148.805725,526.420654 160.597107,536.259338 173.585159,544.363525 
	C186.564240,552.462158 200.591293,558.551575 215.486420,562.550598 
	C231.190323,566.766602 246.942230,567.221924 263.015411,565.117737 
	C274.369385,563.631409 285.462280,560.954712 295.850372,556.639771 
	C301.169098,554.430420 308.413025,553.447205 311.000000,546.500000 
"/>
<path fill="none" opacity="1.000000" stroke="#000000" stroke-linecap="round" stroke-linejoin="round" stroke-width="3.000000"
	d="
M652.000000,390.500000 
	C654.500000,390.166656 657.060425,390.068939 659.486450,389.447052 
	C663.539307,388.408142 666.452148,389.761993 669.578308,392.407440 
	C675.543762,397.455536 682.215393,401.750153 686.477112,408.514435 
	C698.468872,427.547943 700.738525,447.541473 691.989197,468.495483 
	C688.739258,476.278656 684.212280,483.211395 678.025696,489.027344 
	C676.891479,490.093628 675.138184,490.919708 675.500000,493.000000 
"/>
<path fill="none" opacity="1.000000" stroke="#000000" stroke-linecap="round" stroke-linejoin="round" stroke-width="3.000000"
	d="
M400.000000,480.500000 
	C408.042389,485.476288 416.652496,489.701294 422.976166,497.020599 
	C428.076965,502.924469 432.863861,509.051727 434.522217,516.995361 
	C435.283813,520.643372 435.616028,524.226440 431.965149,526.442566 
	C428.746460,528.396423 426.214752,526.579346 423.446808,524.573425 
	C409.310150,514.329041 393.494598,508.429199 375.997925,507.540588 
	C364.968353,506.980469 354.380859,509.617828 344.025421,513.076172 
	C341.042755,514.072266 338.326355,515.841492 335.000000,515.500000 
"/>
<path fill="none" opacity="1.000000" stroke="#000000" stroke-linecap="round" stroke-linejoin="round" stroke-width="3.000000"
	d="
M92.500000,305.500000 
	C97.432869,305.832733 100.331467,308.409058 101.003571,312.999481 
	C102.731926,324.804077 103.155617,336.764130 105.438583,348.511932 
	C106.534248,354.150146 108.657539,359.478241 109.908142,365.020721 
	C112.686890,377.335693 119.577614,387.528015 126.000000,398.000000 
"/>
<path fill="none" opacity="1.000000" stroke="#000000" stroke-linecap="round" stroke-linejoin="round" stroke-width="3.000000"
	d="
M554.500000,216.000000 
	C549.916931,213.518890 544.837769,215.428391 539.951721,214.190659 
	C528.545898,211.301376 516.931091,209.085266 504.999207,209.989624 
	C491.313049,211.026947 477.864685,213.023209 465.511353,219.521606 
	C463.597931,220.528168 461.988312,222.070892 460.917267,218.524979 
	C460.264526,216.363907 458.030090,217.574051 457.046082,218.088181 
	C444.130280,224.836166 431.370117,231.846558 421.997833,243.498276 
	C420.309784,245.596909 419.090393,248.480240 415.500000,247.500000 
"/>
<path fill="none" opacity="1.000000" stroke="#000000" stroke-linecap="round" stroke-linejoin="round" stroke-width="4.000000"
	d="
M537.000000,237.000000 
	C541.333313,237.500000 545.656311,238.272263 550.002380,238.437805 
	C556.960693,238.702850 559.107544,243.692459 560.417297,249.020340 
	C563.154114,260.153564 565.212158,271.401154 564.559143,283.003326 
	C564.222534,288.984375 564.507751,295.000000 564.496887,301.000000 
	C564.491089,304.199310 564.775024,307.432465 563.269104,310.473816 
	C557.140869,312.831390 550.473694,310.821869 543.970642,311.805817 
	C541.781677,312.137054 541.593689,308.952148 541.536926,306.998932 
	C541.416016,302.835785 541.534851,298.666321 541.493347,294.500061 
	C541.376892,282.821899 539.473816,271.404327 537.152161,259.969116 
	C535.608398,252.365112 533.643616,244.924149 531.232727,237.704651 
	C533.022278,235.889648 534.744873,236.282181 536.500000,237.000000 
"/>
<path fill="none" opacity="1.000000" stroke="#000000" stroke-linecap="round" stroke-linejoin="round" stroke-width="3.000000"
	d="
M414.000000,307.000000 
	C415.807373,310.593994 413.596039,314.027344 413.320709,317.485718 
	C412.481659,328.025085 411.208954,338.564850 409.410156,348.984497 
	C406.839874,363.873383 404.923401,379.124512 394.000000,391.000000 
"/>
<path fill="none" opacity="1.000000" stroke="#000000" stroke-linecap="round" stroke-linejoin="round" stroke-width="3.000000"
	d="
M548.500000,550.500000 
	C560.032837,552.002258 568.989014,547.111267 574.538330,536.520081 
	C576.254944,533.243896 578.159180,530.053772 580.963562,527.460632 
	C583.132446,525.455078 583.109863,522.856201 581.465088,520.524597 
	C579.539307,517.794678 576.906921,517.119690 574.019653,519.029724 
	C572.246765,520.202515 570.360046,521.419556 569.052429,523.042236 
	C563.046692,530.495361 555.631470,534.021179 546.000000,532.000000 
"/>
<path fill="none" opacity="1.000000" stroke="#000000" stroke-linecap="round" stroke-linejoin="round" stroke-width="3.000000"
	d="
M395.000000,395.500000 
	C390.724426,397.681610 385.972656,396.371887 381.457123,397.288879 
	C376.988159,398.196442 372.406189,398.699310 368.006561,400.021851 
	C365.024780,400.918213 362.484192,400.600983 360.339569,397.654175 
	C362.284912,389.617218 369.405457,386.470642 376.090332,384.879547 
	C381.642395,383.558044 384.338989,380.549469 387.351532,376.378967 
	C382.666656,374.633606 378.333344,378.483429 373.811035,376.755920 
	C374.294006,374.823975 374.705566,373.177582 375.225250,371.098785 
	C371.213654,370.551788 367.356842,370.025879 363.500000,369.499969 
"/>
<path fill="none" opacity="1.000000" stroke="#000000" stroke-linecap="round" stroke-linejoin="round" stroke-width="3.000000"
	d="
M535.500000,281.500000 
	C536.798950,291.802185 536.494385,302.156097 536.492676,312.573425 
	C527.002258,314.510864 517.320068,315.645447 507.830078,318.749023 
	C506.663239,316.167358 506.512085,313.618378 506.482788,311.000183 
	C506.221039,287.612305 501.735016,265.163361 491.507019,243.996613 
	C489.579498,240.007660 490.195892,239.130905 494.494965,238.467316 
	C502.787537,237.187302 511.072662,236.311417 519.500916,236.372498 
	C523.527771,236.401688 525.284363,237.766968 526.587524,241.469193 
	C530.933289,253.815063 533.151062,266.554871 534.535400,279.496216 
	C534.592102,280.025818 535.166687,280.500000 535.500000,281.000000 
"/>
<path fill="none" opacity="1.000000" stroke="#000000" stroke-linecap="round" stroke-linejoin="round" stroke-width="3.000000"
	d="
M661.500000,496.000000 
	C678.980835,494.913696 694.312683,489.365906 706.077209,475.565796 
	C710.681091,470.165344 716.364990,465.550568 718.450439,458.485382 
	C723.536194,441.254974 722.149902,424.731873 711.955688,409.529694 
	C708.541321,404.437897 703.884460,401.134064 698.251831,398.041351 
	C691.986328,394.601196 685.996521,391.353973 679.000427,389.997711 
	C675.497925,389.318756 672.000000,389.134216 668.500000,390.000000 
"/>
<path fill="none" opacity="1.000000" stroke="#000000" stroke-linecap="round" stroke-linejoin="round" stroke-width="3.000000"
	d="
M435.500000,587.500000 
	C441.034607,597.123230 443.745087,607.663208 445.489502,618.501709 
	C447.044037,628.160339 447.324341,637.867859 445.432709,647.486755 
	C444.337555,653.055542 442.863068,658.654358 437.500000,662.000000 
"/>
<path fill="none" opacity="1.000000" stroke="#000000" stroke-linecap="round" stroke-linejoin="round" stroke-width="3.000000"
	d="
M613.500000,398.500000 
	C603.166687,403.616516 592.830017,400.047119 582.500854,398.494507 
	C569.089172,396.478546 555.943481,396.681091 543.500732,403.001465 
	C541.735840,403.897949 540.428711,404.890411 539.325928,406.904694 
	C537.154785,410.870331 532.593506,411.605865 528.493835,412.470825 
	C518.284424,414.624908 507.863831,415.829071 497.995544,419.487946 
	C492.769135,421.425751 487.747314,423.587799 483.962097,427.967224 
	C482.290497,429.901184 481.594910,431.710266 483.150299,434.242920 
	C481.472229,436.738098 477.457764,437.194336 476.837708,440.973389 
	C476.694122,441.848602 474.461243,441.981689 473.001312,442.035492 
	C457.364410,442.611786 442.197418,445.654572 427.530243,451.081757 
	C426.704742,451.387238 425.924622,452.377960 425.016266,451.964294 
	C417.696777,448.630890 409.390594,449.931519 402.001190,446.997009 
	C398.987701,445.800293 396.754181,443.675690 395.000000,441.000000 
"/>
<path fill="none" opacity="1.000000" stroke="#000000" stroke-linecap="round" stroke-linejoin="round" stroke-width="3.000000"
	d="
M221.500000,582.500000 
	C221.083145,589.281494 219.087494,595.534912 214.986313,600.989685 
	C206.100616,612.808044 200.260254,626.095886 195.391937,639.962036 
	C193.313858,645.880981 190.292389,651.781372 184.909302,655.363708 
	C180.687820,658.173096 175.804108,659.950256 170.512238,660.599792 
	C164.210907,661.373169 158.033478,660.903687 152.040955,659.342773 
	C149.137177,658.586426 146.078430,656.676636 144.109222,654.405273 
	C137.963242,647.316345 134.118591,639.281067 133.316635,629.515076 
	C132.378372,618.089478 132.876190,606.861206 133.691162,595.477905 
	C134.102859,589.727600 134.420700,583.835083 134.465988,577.999756 
	C134.473343,577.050903 134.899841,576.533264 135.500000,576.000000 
"/>
<path fill="none" opacity="1.000000" stroke="#000000" stroke-linecap="round" stroke-linejoin="round" stroke-width="3.000000"
	d="
M260.500000,455.000000 
	C258.280945,450.706665 254.249741,448.739929 249.982254,447.564392 
	C237.365250,444.088989 224.649948,445.251617 212.010681,447.558472 
	C208.441360,448.209961 205.212936,450.023346 202.521942,452.523621 
	C200.689102,454.226501 198.261002,456.045380 200.059479,458.963348 
	C201.689529,461.608032 204.266281,462.764496 207.504990,462.021759 
	C208.808014,461.722961 210.171036,461.695496 211.499161,461.494446 
	C215.164261,460.939728 218.404694,461.330292 221.046417,464.460846 
	C223.392685,467.241241 226.955704,467.755249 229.391251,465.388092 
	C234.678619,460.249298 240.988953,460.378632 247.500259,460.484161 
	C252.473648,460.564789 257.134247,459.682343 260.500000,455.500000 
"/>
<path fill="none" opacity="1.000000" stroke="#000000" stroke-linecap="round" stroke-linejoin="round" stroke-width="3.000000"
	d="
M355.000000,420.000000 
	C353.046631,435.138214 338.545990,448.630066 323.541046,450.785736 
	C314.350250,452.106171 306.620300,450.252197 299.020172,445.964233 
	C293.474976,442.835571 290.915039,437.951569 291.492126,431.499298 
	C292.621979,418.866699 296.920380,407.943237 306.937469,399.426422 
	C317.278381,390.634338 328.948730,393.049652 339.457031,400.064362 
	C345.328674,403.983978 349.268616,409.790802 352.468842,416.016022 
	C353.806763,418.618622 355.225739,420.548553 358.500000,419.000000 
"/>
<path fill="none" opacity="1.000000" stroke="#000000" stroke-linecap="round" stroke-linejoin="round" stroke-width="3.000000"
	d="
M699.500000,400.000000 
	C699.091064,401.674194 700.116211,402.830383 701.008423,403.993561 
	C705.963745,410.454315 709.446106,417.766418 711.367371,425.532806 
	C714.407166,437.820648 714.850952,450.232361 710.607544,462.537079 
	C709.698242,465.174042 707.835266,467.872894 709.000000,471.000000 
"/>
<path fill="none" opacity="1.000000" stroke="#000000" stroke-linecap="round" stroke-linejoin="round" stroke-width="3.000000"
	d="
M182.500000,359.000000 
	C184.697159,361.166656 182.625793,363.331787 182.504242,365.500244 
	C181.229721,388.240051 187.903046,408.066315 203.957886,424.541046 
	C206.072708,426.711212 207.789230,427.362549 210.053162,424.501434 
	C212.636307,429.172852 214.260483,433.758087 215.500000,438.500000 
"/>
<path fill="none" opacity="1.000000" stroke="#000000" stroke-linecap="round" stroke-linejoin="round" stroke-width="3.000000"
	d="
M472.500000,500.500000 
	C467.797516,508.470795 462.650360,516.198914 459.489807,524.996338 
	C455.821991,535.205811 451.710236,545.721863 453.008453,556.438416 
	C453.662476,561.837097 453.109985,567.166382 453.831299,572.522705 
	C455.997528,588.607971 459.291107,604.619141 458.507904,621.000366 
	C458.306885,625.204285 460.090576,628.604065 463.000000,631.500000 
"/>
<path fill="none" opacity="1.000000" stroke="#000000" stroke-linecap="round" stroke-linejoin="round" stroke-width="3.000000"
	d="
M374.500000,364.000000 
	C369.333344,363.333344 364.180786,362.497101 358.994568,362.065308 
	C356.009094,361.816711 352.820190,364.903412 350.338348,361.333252 
	C346.878693,362.723358 345.301147,365.876434 343.021332,367.308716 
	C341.042877,367.914246 339.998230,367.009064 339.554077,365.976746 
	C337.546143,361.309570 333.935822,360.878784 329.489899,361.416626 
	C326.040405,361.833923 322.481598,361.726715 319.004517,361.444427 
	C314.329773,361.064911 310.669922,362.736115 307.492737,365.992889 
	C290.749420,383.155548 275.220642,401.166809 266.461365,423.985168 
	C266.096924,424.934540 265.166656,425.666656 264.500000,426.500000 
"/>
<path fill="none" opacity="1.000000" stroke="#000000" stroke-linecap="round" stroke-linejoin="round" stroke-width="3.000000"
	d="
M237.000000,500.500000 
	C236.311020,512.659485 234.349152,524.812683 236.521210,536.996216 
	C237.877731,544.605225 239.385757,552.186829 241.975052,559.508850 
	C242.659943,561.445496 243.700226,563.324951 243.500000,565.500000 
"/>
<path fill="none" opacity="1.000000" stroke="#000000" stroke-linecap="round" stroke-linejoin="round" stroke-width="3.000000"
	d="
M158.500000,267.000000 
	C152.906921,262.492279 152.917236,255.583084 151.121002,247.953415 
	C145.919891,252.771027 143.497787,258.169800 140.565765,263.039612 
	C132.418777,276.570953 127.195763,291.337952 122.970291,306.491730 
	C122.370102,308.644104 121.985550,310.992767 120.000000,312.500000 
"/>
<path fill="none" opacity="1.000000" stroke="#000000" stroke-linecap="round" stroke-linejoin="round" stroke-width="3.000000"
	d="
M339.500000,577.000000 
	C347.137390,574.324951 354.921204,572.645386 362.985687,574.560364 
	C366.044128,575.286560 368.770905,575.073547 370.412109,572.445129 
	C372.078888,569.775757 371.774719,566.304260 369.906158,564.078796 
	C360.521332,552.901306 349.357269,544.772949 334.004425,543.920349 
	C327.648895,543.567383 321.558350,544.301880 315.498169,545.993408 
	C311.511414,547.106140 309.915833,545.627319 309.591248,538.995544 
	C309.254242,532.110107 308.446503,525.297729 307.458282,518.506042 
	C306.069580,508.962250 305.934998,499.189758 302.500000,490.000000 
"/>
<path fill="none" opacity="1.000000" stroke="#000000" stroke-linecap="round" stroke-linejoin="round" stroke-width="3.000000"
	d="
M664.500000,576.500000 
	C663.175171,576.180847 662.655945,577.303284 662.018738,578.016724 
	C646.607849,595.270813 627.368530,602.225952 604.496399,599.530518 
	C603.858215,599.455322 603.166687,599.833313 602.500000,600.000000 
"/>
<path fill="none" opacity="1.000000" stroke="#000000" stroke-linecap="round" stroke-linejoin="round" stroke-width="3.000000"
	d="
M410.000000,297.500000 
	C412.819000,304.567535 409.985107,310.743561 406.420685,316.450470 
	C401.004791,325.121857 393.546265,331.967590 384.971344,337.455231 
	C376.313171,342.996124 368.014648,348.915192 360.982391,356.483643 
	C359.606232,357.964783 358.093231,359.289276 358.000000,361.500000 
"/>
<path fill="none" opacity="1.000000" stroke="#000000" stroke-linecap="round" stroke-linejoin="round" stroke-width="3.000000"
	d="
M596.500000,257.500000 
	C599.707581,262.338806 597.831238,267.861725 598.327820,273.016602 
	C599.501831,285.203094 597.793030,297.383331 596.329407,309.479370 
	C595.974121,312.415436 596.574219,313.464508 599.004761,313.977448 
	C602.140198,314.639160 605.309937,315.138214 608.593323,315.730469 
	C611.708679,299.782684 611.422668,284.257385 606.010193,268.996399 
	C604.753113,265.451996 602.260864,263.134308 599.000000,261.500000 
"/>
<path fill="none" opacity="1.000000" stroke="#000000" stroke-linecap="round" stroke-linejoin="round" stroke-width="3.000000"
	d="
M104.999992,486.500000 
	C107.666656,492.333344 110.029770,498.332611 113.098785,503.945984 
	C115.434479,508.218079 118.775543,511.927887 121.480850,516.012695 
	C132.222992,532.232422 146.861618,544.757507 162.712860,555.176147 
	C179.605927,566.279480 197.937088,575.285278 217.983582,580.068787 
	C231.009048,583.176880 244.036087,585.785034 257.500214,585.510193 
	C260.832153,585.442200 264.170410,585.399353 267.499115,585.523621 
	C272.527374,585.711243 277.373199,585.031189 282.000000,583.000000 
"/>
<path fill="none" opacity="1.000000" stroke="#000000" stroke-linecap="round" stroke-linejoin="round" stroke-width="3.000000"
	d="
M477.000000,173.000000 
	C473.329681,181.995132 464.907990,184.708694 456.981506,187.954865 
	C452.367828,189.844345 447.511963,190.711182 442.499329,189.502792 
	C440.972778,189.134796 439.982788,189.934311 438.980865,190.981705 
	C436.281677,193.803329 433.101898,196.052689 429.480133,197.448471 
	C425.548035,198.963837 420.725128,197.221344 419.535126,193.987076 
	C418.124786,190.154068 419.789490,185.579559 422.985352,183.970886 
	C424.795898,183.059540 426.458832,181.854889 428.255951,180.740356 
	C420.889343,173.822632 419.864105,167.842010 425.000000,163.000000 
	C428.939880,159.285553 432.165100,160.277939 438.534821,167.616150 
	C444.117432,162.028793 450.782196,158.793228 459.003632,159.454788 
	C467.753693,160.158875 473.961121,164.066635 477.000000,172.500000 
"/>
<path fill="none" opacity="1.000000" stroke="#000000" stroke-linecap="round" stroke-linejoin="round" stroke-width="3.000000"
	d="
M163.500000,399.000000 
	C172.571259,399.686951 179.385406,404.422760 184.438477,411.543671 
	C192.184036,422.458893 194.504440,434.600311 190.389694,447.464722 
	C188.907684,452.098083 184.177795,454.350739 179.962158,455.338470 
	C164.144806,459.044586 148.165344,453.299255 141.699158,436.423706 
	C140.023438,432.050354 141.254700,426.742584 142.530228,422.008148 
	C144.860077,413.360413 147.731903,405.105377 156.435059,400.380371 
	C158.596436,399.207031 160.334167,398.838379 162.500000,399.500000 
"/>
<path fill="none" opacity="1.000000" stroke="#000000" stroke-linecap="round" stroke-linejoin="round" stroke-width="3.000000"
	d="
M110.000000,372.500000 
	C107.424591,380.123535 107.753464,388.180725 106.480545,395.996826 
	C104.672691,407.097534 105.883919,418.409393 104.072365,429.511810 
	C103.974327,430.112610 104.924789,430.884552 105.797165,432.190613 
	C115.843193,416.340729 125.369675,400.568909 138.450089,387.800262 
	C138.829224,385.178284 134.616959,382.532166 139.000000,380.500000 
"/>
<path fill="none" opacity="1.000000" stroke="#000000" stroke-linecap="round" stroke-linejoin="round" stroke-width="3.000000"
	d="
M335.000000,619.500000 
	C334.948395,617.100708 337.223480,616.689209 338.534515,615.539368 
	C342.188995,612.334167 342.674438,609.833374 339.453278,606.545776 
	C336.771423,603.808655 333.532288,602.095581 329.522430,601.375183 
	C324.098907,600.400818 318.813904,599.726990 313.504791,601.514221 
	C306.423553,603.897888 305.618164,605.510315 307.000000,613.000000 
"/>
<path fill="none" opacity="1.000000" stroke="#000000" stroke-linecap="round" stroke-linejoin="round" stroke-width="3.000000"
	d="
M573.500000,341.000000 
	C564.769165,340.387695 556.128906,341.090271 547.493347,342.458008 
	C539.247681,343.764038 531.366028,345.994598 523.972534,349.948639 
	C522.491821,350.740509 521.078613,351.309540 519.327515,349.139160 
	C517.472351,346.839722 514.352539,348.523102 512.019531,349.544678 
	C503.137695,353.433868 494.423401,357.719086 485.460419,361.403656 
	C481.244293,363.136902 477.532379,366.519470 472.500000,366.000000 
"/>
<path fill="none" opacity="1.000000" stroke="#000000" stroke-linecap="round" stroke-linejoin="round" stroke-width="3.000000"
	d="
M199.000000,203.500000 
	C196.842224,207.636124 192.503036,209.133331 188.948715,211.420288 
	C175.429260,220.119049 163.595490,230.550980 153.942429,243.456940 
	C152.625381,245.217789 151.451920,246.941284 150.750000,249.000000 
"/>
<path fill="none" opacity="1.000000" stroke="#000000" stroke-linecap="round" stroke-linejoin="round" stroke-width="3.000000"
	d="
M113.000000,505.500000 
	C110.128044,509.736450 111.248337,514.581055 111.651970,518.986084 
	C112.870087,532.280151 116.293663,544.885132 123.322495,556.606445 
	C127.989853,564.389709 133.509323,571.394958 139.000000,578.500000 
"/>
<path fill="none" opacity="1.000000" stroke="#000000" stroke-linecap="round" stroke-linejoin="round" stroke-width="3.000000"
	d="
M390.000000,636.250000 
	C396.520752,633.379578 403.759216,632.416016 409.585083,627.602966 
	C415.387665,622.809143 420.617584,617.860413 423.007874,610.502563 
	C425.073547,604.143982 424.096283,601.355896 418.500000,598.000000 
"/>
<path fill="none" opacity="1.000000" stroke="#000000" stroke-linecap="round" stroke-linejoin="round" stroke-width="3.000000"
	d="
M622.500000,483.000000 
	C630.196045,486.688232 631.095032,493.930176 629.245422,500.427551 
	C625.427612,513.839294 625.856506,527.379517 625.350830,540.994446 
	C625.056396,548.922852 624.137207,557.110474 617.500000,563.000000 
"/>
<path fill="none" opacity="1.000000" stroke="#000000" stroke-linecap="round" stroke-linejoin="round" stroke-width="3.000000"
	d="
M470.500000,417.000031 
	C453.769287,421.782135 437.038544,426.564270 420.440125,431.308563 
	C423.202271,437.914124 424.274292,444.048523 423.000000,450.500000 
"/>
<path fill="none" opacity="1.000000" stroke="#000000" stroke-linecap="round" stroke-linejoin="round" stroke-width="3.000000"
	d="
M592.500000,537.500000 
	C600.854370,539.486328 610.843445,532.210815 612.975952,526.491028 
	C614.117920,523.428223 614.030334,520.601013 610.717590,519.052307 
	C604.613586,520.954407 599.069031,524.276001 592.500000,523.500000 
"/>
<path fill="none" opacity="1.000000" stroke="#000000" stroke-linecap="round" stroke-linejoin="round" stroke-width="3.000000"
	d="
M251.000000,179.500000 
	C251.107330,168.958496 244.998734,164.143265 235.556046,161.313034 
	C229.798355,159.587296 224.964111,160.976700 220.605377,163.670517 
	C216.406570,166.265488 212.315475,169.621826 210.948578,174.986893 
	C210.838348,175.419525 210.000000,175.666656 209.500000,176.000000 
"/>
<path fill="none" opacity="1.000000" stroke="#000000" stroke-linecap="round" stroke-linejoin="round" stroke-width="3.000000"
	d="
M469.500000,368.500000 
	C471.012909,367.376099 473.391022,366.636017 471.499634,364.000275 
	C470.893616,363.155731 470.375092,363.186859 467.502563,364.505615 
	C453.984711,370.711365 441.142303,378.063232 430.095612,388.105164 
	C427.550659,390.418701 424.492462,391.767700 422.000000,394.000000 
"/>
<path fill="none" opacity="1.000000" stroke="#000000" stroke-linecap="round" stroke-linejoin="round" stroke-width="3.000000"
	d="
M537.500000,514.500000 
	C539.374329,519.789246 542.431213,524.519287 544.156433,529.950317 
	C546.353882,536.867798 547.677307,543.950439 547.824707,551.003662 
	C548.132568,565.736145 545.326477,580.054260 538.963806,593.482849 
	C536.907349,597.822998 539.553589,602.911133 536.229980,606.851013 
	C540.717407,609.327454 546.956543,607.292297 547.528564,603.504333 
	C548.156555,599.345276 545.539001,596.400330 541.031921,598.085388 
	C540.129883,598.422729 539.333008,598.331787 538.500000,598.500000 
"/>
<path fill="none" opacity="1.000000" stroke="#000000" stroke-linecap="round" stroke-linejoin="round" stroke-width="4.000000"
	d="
M179.500000,498.500000 
	C177.209930,505.144531 177.005905,512.116028 176.565720,519.004211 
	C175.997650,527.893127 176.530853,536.764954 178.500000,545.500000 
"/>
<path fill="none" opacity="1.000000" stroke="#000000" stroke-linecap="round" stroke-linejoin="round" stroke-width="3.000000"
	d="
M617.000000,282.750000 
	C615.209595,283.141785 614.718323,283.645325 614.819519,286.007721 
	C615.263428,296.367767 614.776428,306.738251 613.092102,317.301727 
	C616.740295,319.192596 620.394104,321.615692 625.226868,321.567474 
	C626.442993,311.840454 623.672668,302.645538 621.268005,293.561432 
	C620.382874,290.217896 620.154724,286.088715 617.000000,283.500000 
"/>
<path fill="none" opacity="1.000000" stroke="#000000" stroke-linecap="round" stroke-linejoin="round" stroke-width="4.000000"
	d="
M424.500000,455.500000 
	C438.833740,455.632446 453.174957,455.121307 467.500000,456.000000 
"/>
<path fill="none" opacity="1.000000" stroke="#000000" stroke-linecap="round" stroke-linejoin="round" stroke-width="3.000000"
	d="
M417.750000,597.000000 
	C412.226440,600.770142 405.528534,599.803345 399.443909,601.266846 
	C389.110474,603.752258 379.831512,608.143005 370.393036,612.782349 
	C361.628906,617.090332 352.055664,619.989990 342.000000,619.983948 
	C330.488739,619.977112 318.873291,620.908752 308.429810,614.107788 
	C305.182312,611.992859 300.886780,612.133606 297.413696,609.619202 
	C289.731537,604.057739 285.005371,597.243286 284.959869,587.500183 
	C284.941864,583.644470 282.095795,581.759827 279.000000,580.250000 
"/>
<path fill="none" opacity="1.000000" stroke="#000000" stroke-linecap="round" stroke-linejoin="round" stroke-width="4.000000"
	d="
M58.500000,463.500000 
	C65.718765,465.426910 73.188019,464.425659 80.516418,465.373016 
	C86.602913,466.159821 92.833336,465.833313 99.000000,465.999969 
"/>
<path fill="none" opacity="1.000000" stroke="#000000" stroke-linecap="round" stroke-linejoin="round" stroke-width="3.000000"
	d="
M411.000000,600.000000 
	C409.144897,605.177734 403.820374,605.994934 399.918640,608.366089 
	C393.098724,612.510925 385.715729,615.579163 377.505035,616.082153 
	C376.135986,616.166077 374.833344,617.333313 373.500000,618.000000 
"/>
<path fill="none" opacity="1.000000" stroke="#000000" stroke-linecap="round" stroke-linejoin="round" stroke-width="3.000000"
	d="
M537.500000,598.500000 
	C532.443909,603.650879 527.569702,608.985779 526.548340,616.506592 
	C525.724548,622.572205 522.807190,627.592468 519.500916,632.500610 
	C518.829529,633.497375 517.252075,633.890259 517.500000,635.500000 
"/>
<path fill="none" opacity="1.000000" stroke="#000000" stroke-linecap="round" stroke-linejoin="round" stroke-width="3.000000"
	d="
M642.500000,348.500000 
	C638.002319,345.180573 632.488159,345.506012 627.487366,345.226379 
	C620.546265,344.838257 613.477844,344.139618 606.469543,345.877045 
	C603.621460,346.583038 600.962524,343.303009 597.452393,344.895020 
	C592.945374,346.939178 587.917786,347.408783 583.009155,346.909912 
	C579.507690,346.554077 575.835999,347.148102 572.367188,345.770966 
	C572.888611,342.504822 574.496094,340.617645 577.500000,340.000000 
"/>
<path fill="none" opacity="1.000000" stroke="#000000" stroke-linecap="round" stroke-linejoin="round" stroke-width="3.000000"
	d="
M94.500000,284.500000 
	C94.454018,285.626434 94.613792,286.530151 95.454674,287.537811 
	C113.002022,308.566071 133.631714,326.069824 156.516907,340.974030 
	C164.987350,346.490540 174.485168,349.797882 184.000000,353.000000 
"/>
<path fill="none" opacity="1.000000" stroke="#000000" stroke-linecap="round" stroke-linejoin="round" stroke-width="3.000000"
	d="
M105.500000,432.000000 
	C105.333336,433.000000 105.310081,434.050659 104.977570,434.992065 
	C102.015182,443.379303 102.419502,444.347015 109.452095,450.554260 
	C112.529282,453.270264 116.436401,455.300812 118.195335,459.828217 
	C112.459007,464.949310 106.402443,461.376068 100.500000,460.500000 
"/>
<path fill="none" opacity="1.000000" stroke="#000000" stroke-linecap="round" stroke-linejoin="round" stroke-width="3.000000"
	d="
M650.500000,399.500000 
	C639.615906,397.225159 628.739807,395.006470 617.490173,396.421722 
	C616.112061,396.595093 615.320801,397.141602 614.500000,398.000000 
"/>
<path fill="none" opacity="1.000000" stroke="#000000" stroke-linecap="round" stroke-linejoin="round" stroke-width="3.000000"
	d="
M447.000000,391.000000 
	C434.768738,397.073090 422.720154,403.483337 410.610748,410.666656 
	C416.032440,416.548431 418.587799,423.865601 421.500000,431.000000 
"/>
<path fill="none" opacity="1.000000" stroke="#000000" stroke-linecap="round" stroke-linejoin="round" stroke-width="3.000000"
	d="
M579.500000,502.500000 
	C591.003235,509.443085 592.287354,520.627869 592.013184,532.500305 
	C591.833557,540.276733 590.373535,547.734131 587.553955,555.020874 
	C583.878723,564.519165 584.318604,574.546021 584.497803,584.500061 
	C584.569031,588.454895 583.776489,592.181458 581.500000,595.500000 
"/>
<path fill="none" opacity="1.000000" stroke="#000000" stroke-linecap="round" stroke-linejoin="round" stroke-width="3.000000"
	d="
M592.500000,565.000000 
	C594.361694,574.529114 594.585144,584.435059 598.548096,593.478943 
	C601.298157,599.755127 604.697144,605.746887 607.448425,612.022583 
	C610.654419,619.335449 613.312866,626.860413 613.500000,635.000000 
"/>
<path fill="none" opacity="1.000000" stroke="#000000" stroke-linecap="round" stroke-linejoin="round" stroke-width="3.000000"
	d="
M451.000000,182.500000 
	C455.078522,183.230972 459.157013,181.201538 460.448364,177.482071 
	C461.191864,175.340622 459.128204,170.048798 456.502808,168.495239 
	C454.216278,167.142166 448.997437,168.767975 446.475525,171.477219 
	C445.114532,172.939301 444.450043,174.641693 444.000000,176.500000 
"/>
<path fill="none" opacity="1.000000" stroke="#000000" stroke-linecap="round" stroke-linejoin="round" stroke-width="3.000000"
	d="
M329.000000,570.500000 
	C322.287689,566.724487 315.199066,565.036499 307.493134,566.462952 
	C306.409241,566.663635 304.739990,566.253357 304.578094,567.510071 
	C303.606903,575.048523 298.972260,570.916809 295.061401,570.427979 
	C292.052460,573.566528 288.512543,576.545288 286.000000,580.500000 
"/>
<path fill="none" opacity="1.000000" stroke="#000000" stroke-linecap="round" stroke-linejoin="round" stroke-width="3.000000"
	d="
M661.000000,533.500000 
	C658.261841,534.190674 656.073608,532.276917 653.517090,531.887756 
	C645.343201,530.643677 637.352356,530.475830 629.483093,533.455261 
	C628.608459,533.786438 627.500000,533.500000 626.500000,533.500000 
"/>
<path fill="none" opacity="1.000000" stroke="#000000" stroke-linecap="round" stroke-linejoin="round" stroke-width="3.000000"
	d="
M217.500000,175.500000 
	C221.175491,170.015274 226.771881,167.817627 230.976456,170.536423 
	C238.266068,175.250122 237.528641,181.060791 230.957993,186.953156 
	C224.817184,192.460052 216.237854,193.495087 209.499817,197.999741 
	C208.001114,199.001663 206.507477,200.011414 204.998611,200.997864 
	C200.483109,203.950012 197.681076,203.546280 194.500000,199.500000 
	C191.474823,195.651993 191.682068,190.895721 195.561081,188.084274 
	C198.417236,186.014191 201.543320,183.885681 205.500000,184.500000 
"/>
<path fill="none" opacity="1.000000" stroke="#000000" stroke-linecap="round" stroke-linejoin="round" stroke-width="5.000000"
	d="
M312.500000,413.500000 
	C311.021942,425.003296 312.854553,436.263153 315.000000,447.500000 
"/>
<path fill="none" opacity="1.000000" stroke="#000000" stroke-linecap="round" stroke-linejoin="round" stroke-width="3.000000"
	d="
M158.500000,554.000000 
	C148.147446,558.853882 137.604095,561.207458 126.482971,556.540588 
	C126.117317,556.387146 125.500008,556.833374 125.000008,557.000000 
"/>
<path fill="none" opacity="1.000000" stroke="#000000" stroke-linecap="round" stroke-linejoin="round" stroke-width="3.000000"
	d="
M342.500000,591.500000 
	C340.889130,587.768188 338.682495,585.054138 333.994568,585.432800 
	C331.722321,585.616272 330.286224,586.016357 329.401794,588.464539 
	C328.445923,591.110413 330.052917,592.320557 331.536499,593.452148 
	C335.768585,596.680115 339.243378,596.127197 342.500000,592.000000 
"/>
<path fill="none" opacity="1.000000" stroke="#000000" stroke-linecap="round" stroke-linejoin="round" stroke-width="3.000000"
	d="
M311.000000,385.000000 
	C298.863770,389.712830 292.168365,399.243439 288.038635,411.013550 
	C287.900726,411.406708 288.333313,412.000000 288.500000,412.500000 
"/>
<path fill="none" opacity="1.000000" stroke="#000000" stroke-linecap="round" stroke-linejoin="round" stroke-width="3.000000"
	d="
M102.500000,443.000000 
	C99.243195,448.446442 98.141739,454.011017 99.270981,460.539612 
	C100.187958,465.841034 100.259819,471.307953 101.999191,476.500275 
	C103.003639,479.498779 103.999825,482.500061 105.060852,485.683472 
	C94.883690,489.951538 84.682541,494.204010 74.521324,498.549866 
	C73.857613,498.833740 73.500000,499.833344 73.000000,500.500000 
"/>
<path fill="none" opacity="1.000000" stroke="#000000" stroke-linecap="round" stroke-linejoin="round" stroke-width="3.000000"
	d="
M399.750000,479.000000 
	C395.277924,479.956879 390.884766,481.488403 386.465210,482.313782 
	C375.591980,484.344360 366.139374,489.272217 357.031281,495.049316 
	C349.908234,499.567383 343.258392,504.950836 337.645721,511.132294 
	C329.771790,519.804199 321.178741,527.995605 315.444580,538.469666 
	C314.505310,540.185364 312.833374,541.500000 311.500031,543.000000 
"/>
<path fill="none" opacity="1.000000" stroke="#000000" stroke-linecap="round" stroke-linejoin="round" stroke-width="3.000000"
	d="
M212.250000,171.250000 
	C211.833328,170.666672 211.486725,170.013992 210.988968,169.510925 
	C206.839294,165.316910 203.997101,164.475098 201.000000,166.500000 
	C197.070236,169.154999 195.788361,174.181763 198.041412,178.980560 
	C198.957413,180.931580 200.333328,182.666672 201.499985,184.500000 
"/>
<path fill="none" opacity="1.000000" stroke="#000000" stroke-linecap="round" stroke-linejoin="round" stroke-width="3.000000"
	d="
M585.000000,225.000000 
	C581.561951,226.304565 578.863037,224.038803 576.025757,222.933884 
	C569.701721,220.471069 562.631653,221.103317 556.500000,218.000000 
"/>
<path fill="none" opacity="1.000000" stroke="#000000" stroke-linecap="round" stroke-linejoin="round" stroke-width="3.000000"
	d="
M451.000000,560.000000 
	C447.396301,563.614807 446.560150,568.675903 444.675446,573.075195 
	C440.282196,583.329712 432.274963,589.463379 422.974792,594.453003 
	C421.457642,595.266968 419.713806,595.651489 418.500000,597.000000 
"/>
<path fill="none" opacity="1.000000" stroke="#000000" stroke-linecap="round" stroke-linejoin="round" stroke-width="3.000000"
	d="
M409.500000,411.000000 
	C400.500000,417.000000 391.500000,423.000000 382.500000,429.000000 
"/>
<path fill="none" opacity="1.000000" stroke="#000000" stroke-linecap="round" stroke-linejoin="round" stroke-width="3.000000"
	d="
M158.500000,661.500000 
	C158.469772,666.155579 157.816330,670.978943 162.862473,674.670837 
	C166.035065,671.098145 167.551300,666.630676 167.500000,661.500000 
"/>
<path fill="none" opacity="1.000000" stroke="#000000" stroke-linecap="round" stroke-linejoin="round" stroke-width="3.000000"
	d="
M623.000000,455.500000 
	C623.679993,462.487793 625.421204,469.288422 623.667908,476.540588 
	C621.838867,484.105988 617.736511,489.174347 611.000000,492.500000 
"/>
<path fill="none" opacity="1.000000" stroke="#000000" stroke-linecap="round" stroke-linejoin="round" stroke-width="5.000000"
	d="
M163.500000,421.500000 
	C160.817001,430.076294 161.420380,438.778992 162.500000,447.500000 
"/>
<path fill="none" opacity="1.000000" stroke="#000000" stroke-linecap="round" stroke-linejoin="round" stroke-width="3.000000"
	d="
M414.000000,417.500000 
	C407.852234,420.830963 402.505219,425.071716 397.920532,430.432007 
	C395.373535,433.409821 394.696533,436.402588 395.500000,440.000000 
"/>
<path fill="none" opacity="1.000000" stroke="#000000" stroke-linecap="round" stroke-linejoin="round" stroke-width="3.000000"
	d="
M77.500000,407.000000 
	C84.729614,412.374512 90.774391,419.066101 97.513855,424.984222 
	C99.468086,426.700317 100.754738,429.227661 103.500000,430.000000 
"/>
<path fill="none" opacity="1.000000" stroke="#000000" stroke-linecap="round" stroke-linejoin="round" stroke-width="3.000000"
	d="
M230.500000,418.500000 
	C230.737732,424.243866 226.752350,427.876160 223.304520,433.356628 
	C222.249832,431.250153 221.499146,429.750793 221.012070,428.777985 
	C217.545502,430.927307 218.324509,434.794708 215.500000,436.500000 
"/>
<path fill="none" opacity="1.000000" stroke="#000000" stroke-linecap="round" stroke-linejoin="round" stroke-width="3.000000"
	d="
M291.000000,603.000000 
	C298.017548,601.367188 300.444366,597.446899 297.499969,592.500000 
	C295.526703,589.184753 293.356506,588.515320 290.518280,590.525818 
	C289.080170,591.544617 287.833344,592.833313 286.500000,594.000000 
"/>
<path fill="none" opacity="1.000000" stroke="#000000" stroke-linecap="round" stroke-linejoin="round" stroke-width="3.000000"
	d="
M420.000000,432.000000 
	C409.628571,434.905243 399.472229,438.435211 389.500000,442.500000 
"/>
<path fill="none" opacity="1.000000" stroke="#000000" stroke-linecap="round" stroke-linejoin="round" stroke-width="3.000000"
	d="
M180.000000,397.500000 
	C174.380676,389.798309 166.387527,388.031158 157.500000,388.500000 
"/>
<path fill="none" opacity="1.000000" stroke="#000000" stroke-linecap="round" stroke-linejoin="round" stroke-width="3.000000"
	d="
M370.500000,614.000000 
	C375.207062,622.560730 381.971649,629.354187 388.923889,636.078674 
	C392.751434,639.780823 395.564026,644.434998 397.757629,649.716675 
	C395.216034,652.480530 393.130371,655.550354 393.000000,659.500000 
	C388.513672,660.059021 386.845459,663.624023 384.404785,667.958008 
	C391.981415,669.304565 399.945312,665.573975 406.500000,670.500000 
"/>
<path fill="none" opacity="1.000000" stroke="#000000" stroke-linecap="round" stroke-linejoin="round" stroke-width="3.000000"
	d="
M617.500000,563.500000 
	C617.394714,567.651672 618.786133,572.115173 615.041443,575.527771 
	C609.634277,571.906433 608.414795,567.148315 609.598572,564.544800 
	C611.150513,561.131714 614.074097,561.370422 617.000000,563.000000 
"/>
<path fill="none" opacity="1.000000" stroke="#000000" stroke-linecap="round" stroke-linejoin="round" stroke-width="3.000000"
	d="
M125.500000,447.500000 
	C118.437935,443.616211 112.687912,437.904938 106.000000,433.500000 
"/>
<path fill="none" opacity="1.000000" stroke="#000000" stroke-linecap="round" stroke-linejoin="round" stroke-width="3.000000"
	d="
M125.000000,405.500000 
	C128.970490,409.129303 130.482971,413.790619 130.476120,418.999969 
	C130.470718,423.107605 128.959534,424.370789 124.999329,424.007355 
	C121.002396,423.640533 117.000000,423.333313 113.000000,423.000000 
"/>
<path fill="none" opacity="1.000000" stroke="#000000" stroke-linecap="round" stroke-linejoin="round" stroke-width="3.000000"
	d="
M185.000000,656.500000 
	C185.615967,660.252991 186.370667,664.018555 184.053726,667.755615 
	C180.485168,666.168396 179.356857,662.768494 177.500000,660.000000 
"/>
<path fill="none" opacity="1.000000" stroke="#000000" stroke-linecap="round" stroke-linejoin="round" stroke-width="3.000000"
	d="
M565.000000,606.000000 
	C563.082581,609.117981 562.856567,613.215210 559.264587,616.062927 
	C557.286255,612.305908 553.235962,609.941711 554.974121,604.990906 
	C555.714905,602.880859 556.460999,600.991882 558.995605,600.478394 
	C561.598267,599.951111 562.278381,602.092407 563.492920,603.506042 
	C564.034790,604.136719 564.500000,604.833313 565.000000,605.500000 
"/>
<path fill="none" opacity="1.000000" stroke="#000000" stroke-linecap="round" stroke-linejoin="round" stroke-width="3.000000"
	d="
M437.500000,662.500000 
	C437.091278,668.040222 435.384003,672.577026 429.042389,673.573547 
	C426.868317,669.800354 427.295776,663.199707 430.021332,660.521729 
	C432.660156,657.928894 434.883148,659.651306 437.000000,661.500000 
"/>
<path fill="none" opacity="1.000000" stroke="#000000" stroke-linecap="round" stroke-linejoin="round" stroke-width="3.000000"
	d="
M417.000000,669.500000 
	C416.899597,667.786743 417.336914,666.044617 416.026062,664.478210 
	C413.397491,661.337219 410.419952,661.770935 408.467377,665.482849 
	C406.323608,669.558167 407.531708,673.500000 408.120300,678.186462 
	C412.208191,675.991516 414.643280,673.040161 417.000000,670.000000 
"/>
<path fill="none" opacity="1.000000" stroke="#000000" stroke-linecap="round" stroke-linejoin="round" stroke-width="3.000000"
	d="
M494.000000,642.500000 
	C492.724854,641.065857 494.225922,639.010559 492.580658,637.416748 
	C490.910187,635.798523 489.911346,633.603577 486.990997,634.980896 
	C483.922150,636.428284 482.997955,639.766907 483.773041,641.900818 
	C484.750092,644.590759 484.938538,647.947388 487.612274,650.071472 
	C490.948059,648.907837 491.674225,645.482666 493.500000,643.000000 
"/>
<path fill="none" opacity="1.000000" stroke="#000000" stroke-linecap="round" stroke-linejoin="round" stroke-width="3.000000"
	d="
M337.000000,575.000000 
	C338.452759,571.422913 338.676575,567.904297 336.571838,564.222046 
	C333.459747,565.675293 331.896362,568.573547 329.492920,570.487000 
	C329.894318,574.881287 332.000000,576.866699 336.500000,575.500000 
"/>
<path fill="none" opacity="1.000000" stroke="#000000" stroke-linecap="round" stroke-linejoin="round" stroke-width="3.000000"
	d="
M358.500000,473.000000 
	C361.268097,478.518646 361.428772,484.782257 363.500000,490.500000 
"/>
<path fill="none" opacity="1.000000" stroke="#000000" stroke-linecap="round" stroke-linejoin="round" stroke-width="3.000000"
	d="
M430.500000,476.000000 
	C420.089905,472.899139 410.259430,475.594208 400.500000,479.000000 
"/>
<path fill="none" opacity="1.000000" stroke="#000000" stroke-linecap="round" stroke-linejoin="round" stroke-width="3.000000"
	d="
M423.000000,392.500000 
	C421.839600,389.635345 419.945801,389.572479 418.029938,391.529327 
	C413.991974,395.653595 409.280670,398.860840 404.500000,402.000000 
"/>
<path fill="none" opacity="1.000000" stroke="#000000" stroke-linecap="round" stroke-linejoin="round" stroke-width="4.000000"
	d="
M423.000000,457.000000 
	C422.498260,462.852997 419.446014,467.933136 418.000000,473.500000 
"/>
<path fill="none" opacity="1.000000" stroke="#000000" stroke-linecap="round" stroke-linejoin="round" stroke-width="3.000000"
	d="
M653.500000,636.000000 
	C655.628174,639.727539 655.473999,643.053955 652.018982,646.022095 
	C649.422913,648.252319 647.690735,648.040588 646.000000,645.000000 
	C644.752319,642.756287 647.152649,635.479370 649.505371,634.513062 
	C650.878601,633.949097 651.860413,635.071838 653.000000,635.500000 
"/>
<path fill="none" opacity="1.000000" stroke="#000000" stroke-linecap="round" stroke-linejoin="round" stroke-width="3.000000"
	d="
M257.000000,439.500000 
	C257.166656,439.166656 257.558777,438.630310 257.467651,438.529144 
	C253.143433,433.727631 252.481430,426.533020 247.000000,422.500000 
"/>
<path fill="none" opacity="1.000000" stroke="#000000" stroke-linecap="round" stroke-linejoin="round" stroke-width="3.000000"
	d="
M638.000000,645.500000 
	C639.183411,642.014526 638.785950,638.948425 634.978516,637.558838 
	C631.461670,636.275269 628.756104,637.759216 627.001465,641.000793 
	C625.646118,643.504700 624.887939,646.124817 625.862671,650.004333 
	C632.500061,649.666931 638.318665,645.214111 645.000000,644.500000 
"/>
<path fill="none" opacity="1.000000" stroke="#000000" stroke-linecap="round" stroke-linejoin="round" stroke-width="3.000000"
	d="
M384.000000,384.000000 
	C392.666656,392.500000 401.333344,401.000000 410.000000,409.500000 
"/>
<path fill="none" opacity="1.000000" stroke="#000000" stroke-linecap="round" stroke-linejoin="round" stroke-width="3.000000"
	d="
M507.000000,641.500000 
	C511.643951,645.200684 516.710022,646.720337 522.617676,644.456238 
	C521.402527,640.011902 519.531921,636.336731 514.515564,634.943970 
	C508.871521,633.376831 506.731689,634.833008 506.500000,641.000000 
"/>
<path fill="none" opacity="1.000000" stroke="#000000" stroke-linecap="round" stroke-linejoin="round" stroke-width="4.000000"
	d="
M114.500000,466.500000 
	C109.666664,466.500000 104.833336,466.500000 100.000000,466.500000 
"/>
<path fill="none" opacity="1.000000" stroke="#000000" stroke-linecap="round" stroke-linejoin="round" stroke-width="3.000000"
	d="
M463.000000,632.000000 
	C460.432220,636.224243 457.768402,640.420532 458.744965,646.076172 
	C464.069672,645.172241 467.157196,640.935120 471.397156,638.796143 
	C471.966431,638.508972 473.478485,635.637695 472.415222,634.057007 
	C471.094696,632.093872 469.190125,630.388062 466.502594,630.544495 
	C465.486633,630.603638 464.500000,631.166687 463.500000,631.500000 
"/>
<path fill="none" opacity="1.000000" stroke="#000000" stroke-linecap="round" stroke-linejoin="round" stroke-width="3.000000"
	d="
M621.000000,644.000000 
	C621.217041,642.166687 623.470886,640.375793 621.009277,638.487915 
	C618.629944,636.663147 616.198914,634.615540 613.026733,635.587158 
	C610.796936,636.270142 609.178406,638.272461 608.583008,640.521973 
	C608.041626,642.567383 609.453796,643.167053 611.478699,643.599670 
	C615.792297,644.521240 620.461243,642.918640 624.500000,645.500000 
"/>
<path fill="none" opacity="1.000000" stroke="#000000" stroke-linecap="round" stroke-linejoin="round" stroke-width="3.000000"
	d="
M581.000000,595.500000 
	C578.012878,594.340088 574.911194,594.761169 573.694153,597.583679 
	C572.742554,599.790527 573.327637,602.703918 575.965820,604.548828 
	C578.199036,606.110535 579.553101,609.115356 583.564636,608.313721 
	C583.115723,604.259460 583.720947,599.960144 581.500000,596.000000 
"/>
<path fill="none" opacity="1.000000" stroke="#000000" stroke-linecap="round" stroke-linejoin="round" stroke-width="4.000000"
	d="
M260.500000,419.500000 
	C260.666656,420.500000 261.339386,421.888275 260.918182,422.437225 
	C258.098938,426.111481 258.483856,430.316132 258.455109,434.499695 
	C258.451660,435.001953 257.833313,435.500000 257.500000,436.000000 
"/>
<path fill="none" opacity="1.000000" stroke="#000000" stroke-linecap="round" stroke-linejoin="round" stroke-width="3.000000"
	d="
M595.000000,573.500000 
	C599.841248,575.242859 599.577637,570.574219 600.854431,568.414001 
	C601.913330,566.622437 601.054321,564.224792 599.493652,562.505798 
	C598.490479,561.400879 596.438538,561.683044 596.107788,562.088074 
	C591.638489,567.560303 589.842468,562.752747 587.500000,560.000000 
"/>
<path fill="none" opacity="1.000000" stroke="#000000" stroke-linecap="round" stroke-linejoin="round" stroke-width="3.000000"
	d="
M506.000000,641.000000 
	C502.285736,642.412720 498.560852,643.744385 494.500000,642.500000 
"/>
<path fill="none" opacity="1.000000" stroke="#000000" stroke-linecap="round" stroke-linejoin="round" stroke-width="4.000000"
	d="
M149.000000,375.500000 
	C148.333328,375.833313 147.427155,376.629608 147.037277,376.427948 
	C143.391418,374.541779 139.670364,376.085175 136.000000,376.000000 
"/>
<path fill="none" opacity="1.000000" stroke="#000000" stroke-linecap="round" stroke-linejoin="round" stroke-width="3.000000"
	d="
M144.500000,656.000000 
	C141.625259,659.435608 142.255981,663.189941 143.140961,667.120056 
	C146.997665,665.830994 149.040085,663.206726 150.500000,660.000000 
"/>
<path fill="none" opacity="1.000000" stroke="#000000" stroke-linecap="round" stroke-linejoin="round" stroke-width="5.000000"
	d="
M611.500000,271.500000 
	C613.262756,275.059174 615.190735,278.550781 616.000000,282.500000 
"/>
<path fill="none" opacity="1.000000" stroke="#000000" stroke-linecap="round" stroke-linejoin="round" stroke-width="4.000000"
	d="
M472.000000,639.000000 
	C475.284424,640.738708 478.706818,641.898010 482.500000,641.500000 
"/>
<path fill="none" opacity="1.000000" stroke="#000000" stroke-linecap="round" stroke-linejoin="round" stroke-width="3.000000"
	d="
M244.000000,430.000000 
	C242.251648,429.227936 241.810059,427.475800 240.557648,425.199554 
	C238.299911,428.531311 234.228821,429.933533 234.000000,434.500000 
"/>
<path fill="none" opacity="1.000000" stroke="#000000" stroke-linecap="round" stroke-linejoin="round" stroke-width="3.000000"
	d="
M337.500000,575.500000 
	C340.648743,579.276550 344.439423,582.598450 346.000000,587.500000 
"/>
<path fill="none" opacity="1.000000" stroke="#000000" stroke-linecap="round" stroke-linejoin="round" stroke-width="4.000000"
	d="
M410.000000,290.500000 
	C408.963287,293.314972 410.783051,297.558197 406.000000,298.500000 
"/>
<path fill="none" opacity="1.000000" stroke="#000000" stroke-linecap="round" stroke-linejoin="round" stroke-width="3.000000"
	d="
M306.000000,553.000000 
	C306.092316,556.630493 303.903259,559.420532 302.500000,562.500000 
"/>
<path fill="none" opacity="1.000000" stroke="#000000" stroke-linecap="round" stroke-linejoin="round" stroke-width="4.000000"
	d="
M426.500000,668.500061 
	C423.500000,668.833374 420.500000,669.166687 417.500000,669.500061 
"/>
<path fill="none" opacity="1.000000" stroke="#000000" stroke-linecap="round" stroke-linejoin="round" stroke-width="3.000000"
	d="
M573.500000,603.500000 
	C570.860046,604.273621 568.446411,605.952209 565.500000,605.500000 
"/>
<path fill="none" opacity="1.000000" stroke="#000000" stroke-linecap="round" stroke-linejoin="round" stroke-width="3.000000"
	d="
M608.500000,567.500000 
	C606.166687,567.833313 603.833313,568.166626 601.500000,568.500000 
"/>
<path fill="none" opacity="1.000000" stroke="#000000" stroke-linecap="round" stroke-linejoin="round" stroke-width="4.000000"
	d="
M245.500000,422.500000 
	C247.472000,422.347351 246.590149,424.175385 246.422531,424.453278 
	C244.702271,427.305084 245.036316,430.422729 245.000000,433.500000 
"/>
<path fill="none" opacity="1.000000" stroke="#000000" stroke-linecap="round" stroke-linejoin="round" stroke-width="3.000000"
	d="
M231.000000,423.500000 
	C233.234055,425.304443 231.765945,428.695557 234.000000,430.500000 
"/>
<path fill="none" opacity="1.000000" stroke="#000000" stroke-linecap="round" stroke-linejoin="round" stroke-width="3.000000"
	d="
M393.500000,660.000000 
	C395.255005,661.849854 396.130493,664.173340 397.000000,666.500000 
"/>
<path fill="none" opacity="1.000000" stroke="#000000" stroke-linecap="round" stroke-linejoin="round" stroke-width="3.000000"
	d="
M297.000000,560.500000 
	C294.973602,563.488464 296.396667,566.840027 296.000000,570.000000 
"/>
<path fill="none" opacity="1.000000" stroke="#000000" stroke-linecap="round" stroke-linejoin="round" stroke-width="3.000000"
	d="
M296.500000,557.500000 
	C296.418274,558.998962 297.040100,560.025696 298.499725,560.500793 
	C301.264435,561.400818 302.765167,563.568176 304.000000,566.000000 
"/>
<path fill="none" opacity="1.000000" stroke="#000000" stroke-linecap="round" stroke-linejoin="round" stroke-width="3.000000"
	d="
M261.500000,423.000000 
	C264.385223,424.697998 264.339111,427.763977 265.000000,430.500000 
"/>
<path fill="none" opacity="1.000000" stroke="#000000" stroke-linecap="round" stroke-linejoin="round" stroke-width="3.000000"
	d="
M306.000000,580.500000 
	C302.670532,581.902832 299.442932,583.917664 300.646118,587.956482 
	C301.856628,592.019836 306.252563,591.297607 309.513062,591.933044 
	C310.766296,592.177246 312.546143,592.127808 313.422974,591.406311 
	C315.397430,589.781616 318.274323,588.419250 317.484497,585.003601 
	C316.762268,581.880249 314.239471,580.923889 311.494202,580.541687 
	C309.859222,580.314087 308.166656,580.500000 306.500000,580.500000 
"/>
</svg>