<svg version="1.1" id="Layer_1" xmlns="http://www.w3.org/2000/svg" xmlns:xlink="http://www.w3.org/1999/xlink" x="0px" y="0px"
	 width="100%" viewBox="0 0 560 368" enable-background="new 0 0 560 368" xml:space="preserve">
<path fill="#000000" opacity="1.000000" stroke="none" 
	d="
M367.468658,369.000000 
	C358.961914,359.132111 352.979584,348.412018 352.339905,335.279938 
	C352.161133,331.610046 351.098175,328.531616 345.967377,329.397705 
	C331.311584,331.871674 316.771576,329.670074 302.243042,327.781342 
	C285.436157,325.596436 268.627075,323.428284 251.816605,321.270996 
	C250.699539,321.127625 249.508881,320.672211 248.371231,321.742096 
	C250.031296,327.192383 248.753082,333.173309 251.234711,338.610748 
	C252.058731,340.416260 251.264328,343.173767 254.544281,343.222229 
	C254.809982,343.226166 255.347397,343.999420 255.282867,344.319275 
	C254.321091,349.087891 255.573349,353.777069 255.630951,358.494476 
	C255.660187,360.888184 253.994171,362.844971 251.264740,363.238739 
	C248.591263,363.624451 248.002594,361.484253 247.087860,359.732727 
	C245.392181,356.485870 243.610062,353.407654 240.677216,350.940308 
	C236.740417,347.628326 238.984863,343.719330 240.132172,340.320496 
	C242.053787,338.715179 242.745789,342.017975 244.597931,340.616608 
	C244.548126,337.650391 243.643753,335.955109 240.134583,337.528503 
	C237.733292,338.605164 235.416840,339.991211 232.295395,339.892639 
	C230.971436,336.905426 231.203720,334.238098 233.657318,331.874268 
	C234.737183,330.833923 235.940659,329.910004 236.939865,328.799866 
	C240.743210,324.574219 238.951660,318.726929 233.495193,317.582520 
	C229.265884,316.695496 225.002487,315.972015 220.768127,315.107971 
	C214.549591,313.839050 209.904846,318.968811 211.899582,325.110992 
	C213.455536,329.902130 216.093384,334.161896 218.998627,338.254395 
	C220.156311,339.885193 221.272903,341.511719 221.352585,343.658539 
	C221.444992,346.148285 220.492188,347.522644 217.882019,347.287445 
	C213.806488,346.920258 210.047455,345.775116 207.141861,342.656097 
	C203.395660,338.634705 199.702423,334.560852 195.858810,330.634460 
	C192.816025,327.526154 193.298477,324.861633 196.318832,322.115906 
	C198.403305,320.220978 201.013412,318.839691 202.459045,316.310120 
	C203.757187,314.038574 204.337143,311.785156 200.798355,311.011780 
	C192.509476,309.200226 184.426849,306.723541 175.765350,302.887390 
	C177.009125,314.682709 165.658691,313.126526 160.778671,318.225800 
	C160.778671,318.775055 160.639542,319.269501 160.798599,319.399719 
	C169.379578,326.425049 162.996124,335.349823 163.780975,343.349792 
	C163.860809,344.163635 163.023758,345.187439 162.396042,345.931427 
	C157.813202,351.363007 142.489487,354.488922 136.214508,351.339081 
	C134.518188,350.487549 132.809433,349.465698 132.819916,347.391571 
	C132.851547,341.124634 132.029160,334.937622 134.188644,328.636993 
	C139.305801,313.707001 138.923599,298.948181 130.802856,284.899963 
	C129.092743,281.941559 126.286522,280.541168 123.367142,279.297180 
	C118.141449,277.070526 113.538246,273.954803 108.828644,270.761536 
	C101.321777,265.671631 92.423256,263.740723 83.248154,263.847687 
	C62.643337,264.087891 49.378777,276.850311 37.172001,291.176453 
	C31.270372,298.102783 25.754015,305.369507 21.862827,313.753510 
	C19.984074,312.531158 20.145550,311.118591 20.182152,309.822693 
	C20.977331,281.670044 20.652544,253.514816 20.346405,225.360626 
	C20.312399,222.233276 21.579903,220.502838 24.064955,218.457672 
	C35.124096,209.356201 48.664062,204.638412 60.565109,197.082443 
	C63.406898,195.278198 66.217934,194.381058 69.471199,196.015442 
	C71.985718,197.278687 74.593071,196.987411 77.267601,196.298477 
	C82.222115,195.022263 87.192093,193.381210 91.931633,195.683395 
	C93.215790,194.641800 92.839172,193.860306 92.538704,193.087769 
	C90.590889,188.080002 91.389198,185.727951 96.644211,184.017532 
	C100.223572,182.852539 100.994637,181.092972 100.116699,177.726974 
	C98.986572,173.394089 99.781906,169.067825 101.137680,164.934189 
	C104.236244,155.486908 106.344460,145.556290 113.482063,137.950027 
	C114.583687,136.776077 114.167877,135.580383 113.812263,134.239319 
	C112.424171,129.004669 112.752548,123.644768 113.036926,118.328995 
	C113.167061,115.896378 113.500473,113.277588 116.740341,111.841278 
	C122.207726,118.099037 122.847549,126.432114 125.881897,133.825500 
	C124.587685,126.944199 124.763832,120.267563 126.778877,112.330833 
	C132.593384,118.293091 135.459457,124.421944 136.186462,131.438919 
	C136.502518,134.489609 137.201553,136.808975 139.797379,138.604065 
	C142.386200,140.394287 143.491653,143.296661 144.356018,146.181732 
	C146.011978,151.708908 148.386017,155.377777 155.159622,156.548309 
	C164.926468,158.236099 171.001572,158.182663 180.195847,152.675583 
	C180.872238,149.378830 177.038895,147.752502 177.024063,144.697342 
	C177.260422,144.431396 177.561005,143.946121 177.674652,143.986526 
	C182.251801,145.614120 186.924698,146.748215 191.742676,147.484436 
	C193.295334,147.721710 194.365021,149.592377 194.057144,151.477722 
	C193.705276,153.632339 192.438034,155.378662 190.218262,155.531311 
	C183.894058,155.966217 178.490875,159.565292 172.153839,160.232361 
	C161.945816,161.306915 155.185806,168.354050 153.502686,178.347061 
	C152.152130,186.365646 148.896011,193.130829 141.645538,197.681412 
	C136.424377,200.958374 136.878967,206.057053 142.473206,208.627167 
	C146.407745,210.434799 148.338287,212.808060 146.664322,217.231857 
	C146.061646,218.824570 146.269974,220.509262 146.891968,222.124008 
	C148.249985,225.649643 148.171982,229.180710 147.545975,232.912994 
	C146.583008,238.654343 154.792587,248.416428 160.485107,248.523026 
	C161.853195,248.548630 163.238815,247.639404 165.218689,246.950546 
	C166.609695,253.003510 170.962570,256.448303 176.360168,259.729950 
	C179.921188,255.811188 182.930466,251.135666 188.879868,248.529800 
	C180.444687,242.646271 182.137314,234.671173 183.224121,227.256729 
	C184.601410,217.860504 191.341782,215.114731 200.347900,216.802979 
	C199.837036,210.917023 194.617493,209.707428 192.881882,205.758606 
	C191.135864,201.786087 191.338760,194.519257 194.481873,191.468567 
	C195.079422,190.888580 195.664474,190.293228 196.222275,189.675201 
	C208.122070,176.491119 217.945129,175.550949 232.800613,186.167007 
	C233.189407,186.444839 233.670914,186.592926 234.613007,187.041321 
	C238.483307,169.601852 230.002563,154.646942 224.421738,138.516342 
	C228.555511,138.927338 229.015350,141.066513 229.885635,142.710678 
	C240.018906,161.854874 245.551590,182.617493 251.103973,203.363266 
	C252.133026,207.208267 252.482773,211.259766 256.261749,213.746506 
	C256.836365,214.124619 257.236145,215.190460 257.243439,215.942795 
	C257.310089,222.837143 263.192078,225.589508 267.084991,229.685776 
	C268.736938,231.424026 271.170959,230.885162 273.192627,229.877960 
	C275.141907,228.906799 274.459412,227.064651 274.358673,225.439346 
	C272.813721,200.512299 278.777191,177.637299 292.971741,156.974350 
	C298.062134,149.564270 302.751556,141.864151 309.404938,135.658035 
	C310.839111,134.320267 311.493713,132.671280 310.410706,130.469376 
	C302.651825,129.199158 294.966553,132.743408 287.012726,131.379608 
	C295.098724,126.747040 304.660400,127.614990 313.185638,124.116516 
	C304.511780,120.181091 294.998047,122.182564 286.115967,119.990929 
	C289.951965,117.901947 293.969238,117.890762 297.992523,118.309509 
	C303.154022,118.846725 308.313690,118.723473 313.472870,118.489189 
	C315.336212,118.404572 317.339691,117.967209 317.547241,115.633095 
	C317.734039,113.533012 315.890839,112.976891 314.335144,112.365662 
	C309.455933,110.448586 304.570404,108.547539 299.210724,106.454140 
	C301.257965,103.965042 303.025482,104.808342 304.674652,105.203682 
	C308.718689,106.173103 312.775269,107.105034 316.777771,108.226997 
	C319.189972,108.903175 320.865570,108.501556 322.250732,106.237885 
	C326.075897,99.986870 330.962097,94.292160 334.285767,87.912170 
	C336.197571,84.242470 336.899933,78.610237 333.491028,73.906715 
	C324.359741,61.307529 324.843079,47.733238 330.698090,34.096634 
	C333.330994,27.964436 338.423920,27.507435 342.213715,32.886425 
	C348.399750,41.666553 353.127747,51.203064 355.042358,61.901390 
	C355.570099,64.850410 355.541656,67.833763 354.719604,70.813286 
	C354.034149,73.297752 355.140778,75.298424 357.693359,75.625397 
	C360.629120,76.001457 360.931610,73.549721 360.576202,71.554245 
	C359.116547,63.359306 360.949066,55.638142 363.874481,48.139736 
	C367.475616,38.909176 365.194611,30.150187 362.457367,21.305389 
	C361.079254,16.852327 358.836945,12.578699 359.200928,7.628091 
	C366.450745,17.907259 365.739838,31.789812 374.293121,41.270340 
	C376.091187,41.046547 376.306732,39.685383 377.087952,38.889698 
	C379.262665,36.674835 381.654724,36.780895 382.243439,39.903122 
	C384.154358,50.038364 388.681519,59.481133 389.969055,69.744797 
	C390.482910,73.840927 393.568054,76.293747 398.429260,75.758591 
	C403.313873,75.220879 401.754150,71.333328 401.367706,68.776817 
	C399.484528,56.318481 403.062317,44.957138 408.783020,34.361225 
	C412.306000,27.836023 419.891083,28.288418 423.204498,35.138859 
	C429.904816,48.991940 432.789581,63.525833 427.289917,78.601166 
	C425.573151,83.307083 426.117157,87.067497 429.941742,90.389854 
	C435.410431,95.140404 439.643433,100.931259 443.261688,107.141136 
	C445.058228,110.224457 447.202148,110.907440 450.689911,110.322113 
	C459.466156,108.849251 468.238129,106.655449 477.355713,108.593063 
	C468.258636,112.776871 457.944580,111.872353 448.421387,114.864838 
	C448.888275,118.835167 450.180908,120.548164 454.266052,120.145554 
	C464.689484,119.118256 475.131927,118.018661 485.644775,118.506851 
	C486.639343,118.553040 487.654480,118.408302 488.670624,119.345657 
	C487.935120,121.563705 485.910828,121.154823 484.257843,121.330200 
	C474.999023,122.312607 465.737854,123.273941 456.472748,124.195152 
	C454.373230,124.403893 452.424774,124.556892 452.379669,127.405716 
	C452.335236,130.212677 454.139374,130.471436 456.310852,130.743988 
	C463.571259,131.655319 470.818542,132.679184 478.056366,133.757080 
	C479.882263,134.029007 482.113953,133.549332 483.659851,136.565384 
	C474.467346,137.516754 465.752808,135.167953 456.995453,135.463104 
	C456.634155,138.558441 458.635010,139.785828 460.133667,141.192749 
	C480.461304,160.275864 490.821808,184.119324 494.486908,211.437347 
	C496.791779,228.616730 494.495605,244.573914 484.789337,259.187012 
	C484.064514,260.278229 483.404236,261.561066 483.210510,262.830597 
	C482.348969,268.477966 482.218872,274.443176 474.883026,276.113464 
	C474.269623,276.253113 473.717834,278.046173 474.323456,279.567841 
	C477.363098,279.180481 479.798950,277.396881 482.258698,275.826477 
	C486.176453,273.325256 490.375275,272.471222 494.654449,274.131836 
	C502.377899,277.129089 508.587372,274.521729 514.407593,269.607910 
	C516.056030,268.216217 517.706482,266.663940 519.630554,265.788788 
	C530.676575,260.764587 539.173096,252.696655 547.009705,243.694092 
	C550.082031,240.164688 553.203552,235.342911 558.903564,240.336960 
	C559.133728,240.538605 559.850464,240.184982 560.670227,240.045044 
	C561.000000,243.692902 561.000000,247.385818 560.717163,251.716660 
	C550.033386,260.322266 539.921692,268.843018 530.539978,277.776245 
	C524.038269,283.967194 516.568481,288.058746 509.768250,293.389099 
	C508.727203,294.205139 507.753052,295.128571 506.854370,296.100739 
	C499.812012,303.718658 492.353394,311.042389 482.070465,313.770111 
	C472.473236,316.315826 462.828674,318.706055 453.239594,321.307434 
	C450.205261,322.130585 447.028809,322.657623 443.851837,322.265625 
	C440.741180,321.881836 438.414856,323.009827 436.364868,325.273773 
	C432.445465,329.602234 427.541382,331.721375 421.659912,331.196259 
	C418.265808,330.893250 416.246429,331.997101 416.017517,335.691406 
	C415.243835,348.176483 410.794403,359.247437 403.000000,369.000000 
	C391.312439,369.000000 379.624878,369.000000 367.468658,369.000000 
M149.000992,167.006836 
	C149.000992,167.006836 149.024872,167.042526 148.784973,166.399857 
	C144.452530,159.881912 138.769592,157.184387 132.901215,158.860321 
	C124.277496,161.323151 119.751976,166.544785 119.182564,174.468765 
	C118.933838,177.930099 119.030067,181.609695 116.716751,184.473495 
	C115.193375,186.359390 113.613487,187.798798 115.008148,190.550659 
	C116.458939,193.413330 118.782906,193.944870 121.613052,194.021439 
	C126.898163,194.164459 132.314087,193.288467 137.326370,195.864349 
	C138.329239,196.379730 139.252014,195.858917 140.162674,195.409851 
	C148.721329,191.189423 153.583023,175.516205 149.000992,167.006836 
M451.376343,178.759933 
	C449.465607,176.267578 448.003693,173.161636 445.571289,171.382462 
	C429.770935,159.825165 413.443481,149.247177 392.825317,149.087173 
	C385.503265,149.030334 378.174683,149.573151 370.855377,149.455063 
	C356.276642,149.219879 342.938599,153.171173 330.684814,160.884293 
	C320.782776,167.117126 313.637939,176.186646 306.589447,185.245667 
	C303.122162,189.701981 299.820282,194.543671 298.704895,200.167969 
	C296.201080,212.793518 295.503723,225.619980 296.574341,238.433762 
	C296.919952,242.569931 297.996307,247.157166 303.432129,248.302185 
	C311.025909,249.901764 311.709229,250.904053 310.941010,258.603546 
	C310.577728,262.244537 312.171722,263.518066 315.522766,262.027344 
	C320.330597,259.888641 325.160889,259.938263 330.140839,261.251709 
	C346.023224,265.440613 353.837402,276.804291 357.333435,291.906982 
	C358.266449,295.937408 358.701172,300.088165 359.265900,304.197266 
	C359.750824,307.725769 361.472046,308.802368 365.105957,308.374359 
	C376.054474,307.084717 387.003601,308.149109 397.864319,309.506256 
	C404.407654,310.323883 404.727966,310.468048 404.853302,304.018250 
	C404.882446,302.519623 404.864258,301.019684 404.913391,299.521851 
	C405.417999,284.134674 416.394714,268.661957 430.759918,263.405518 
	C435.264526,261.757233 439.827423,260.373474 444.851776,261.903809 
	C455.460571,265.135071 459.924683,270.808197 461.402161,282.508118 
	C462.042664,287.580231 461.024872,292.419556 460.488068,297.477051 
	C464.372711,294.386353 466.564575,289.866058 467.552704,285.955505 
	C470.051605,276.065704 473.101868,266.135529 471.914154,255.522186 
	C471.308807,250.112686 470.570801,244.547913 470.897919,239.121536 
	C471.773010,224.604019 466.656036,211.642792 461.219574,198.745972 
	C459.425110,194.488983 458.548096,189.679581 455.166351,186.243759 
	C453.201477,184.247467 452.075867,182.028305 451.376343,178.759933 
M331.125702,63.096806 
	C332.939087,66.806297 334.164368,70.866806 337.865662,73.378761 
	C344.192841,77.672852 344.424103,84.358032 338.848145,89.513832 
	C332.568207,95.320534 328.122375,102.364807 325.552185,110.307793 
	C327.991364,112.726913 331.851257,112.527618 332.516296,116.261749 
	C329.767426,118.246246 326.636414,115.549728 323.921814,117.223442 
	C325.683838,119.099686 329.117432,118.276970 330.014160,121.661148 
	C327.240753,123.109070 327.995026,128.294327 323.697296,128.177002 
	C319.077423,128.050858 316.861176,130.732285 314.677643,134.077362 
	C312.495087,137.420959 310.050415,140.598709 307.634796,143.784058 
	C297.256958,157.468887 286.699585,171.021973 282.309082,188.150772 
	C280.069214,196.889297 279.431183,205.875000 277.774170,214.695557 
	C276.880005,219.455490 277.909271,223.992065 278.970428,228.499100 
	C280.092255,233.264053 284.560211,233.574188 288.173584,233.848236 
	C291.778534,234.121643 291.163300,230.166214 291.401886,228.138809 
	C293.387207,211.270538 295.832306,194.507874 300.363403,178.095917 
	C301.203522,175.052994 301.174316,171.773026 302.514587,168.685715 
	C304.618469,170.018600 304.108246,171.829575 304.306610,173.410446 
	C304.506073,175.000305 303.795258,177.093674 305.681183,177.891266 
	C307.904999,178.831757 308.802887,176.539078 310.058990,175.371033 
	C315.541412,170.272827 319.987854,164.077164 326.213562,159.775970 
	C339.568970,150.549026 354.258392,145.437241 370.644501,145.651382 
	C374.638519,145.703583 378.679016,145.860443 382.623840,145.370728 
	C398.115448,143.447632 412.376404,146.729385 425.668152,154.780273 
	C428.573364,156.539993 431.349213,158.733673 435.382172,159.311584 
	C434.626617,155.663971 432.196503,153.440811 430.895691,150.656082 
	C428.674438,145.900925 426.331970,140.892548 428.345276,135.805283 
	C431.446533,127.969078 427.458557,121.328972 426.483154,113.792175 
	C418.225830,120.357735 414.078644,121.226364 408.643158,117.390289 
	C404.953735,114.786507 402.149109,111.421448 403.547974,106.424843 
	C406.122711,97.228050 413.417908,97.002525 421.540009,98.040199 
	C419.412994,93.426125 416.008179,91.037003 412.769073,88.503029 
	C411.260773,87.323074 409.870453,86.154129 410.981171,83.939140 
	C412.396942,81.115799 413.324463,77.919838 415.238129,75.497261 
	C421.640198,67.392601 420.428192,58.169445 419.119995,49.177162 
	C418.361694,43.964687 417.458588,38.417995 413.304138,32.857395 
	C405.072174,48.476456 401.691010,63.726734 407.339722,80.207268 
	C403.741730,80.999031 401.245087,79.960548 398.672974,79.460892 
	C383.903229,76.591705 369.175262,74.145943 354.596405,80.647346 
	C351.780151,81.903259 347.333557,82.931389 345.660004,80.598953 
	C343.257080,77.250076 340.624115,71.815102 341.774048,68.580688 
	C345.569885,57.904266 341.910736,48.982197 337.699860,39.837074 
	C337.079071,38.488831 336.407318,36.890194 334.605682,36.983482 
	C332.803894,37.076778 332.278107,38.768013 331.800323,40.144253 
	C329.269897,47.433132 329.821228,54.884666 331.125702,63.096806 
M332.280670,268.156158 
	C323.472473,260.723389 312.010437,264.355530 309.132599,275.337677 
	C306.513763,285.331238 309.338074,294.398926 313.609131,303.171631 
	C315.253845,306.549896 316.888885,310.198639 320.222687,312.584076 
	C324.284698,306.552673 324.260345,300.406982 322.715240,294.263947 
	C325.893799,293.852020 326.953339,295.633545 328.418335,296.606354 
	C329.738068,297.482697 331.106720,298.152557 332.562531,297.134644 
	C333.902771,296.197479 333.420349,294.845978 333.166504,293.499329 
	C332.771942,291.406311 330.244904,288.920288 333.050690,287.256195 
	C335.586273,285.752380 336.271637,289.495789 338.215576,290.144745 
	C338.506500,290.241852 338.857758,290.158264 339.462067,290.158264 
	C340.945129,288.493591 340.871704,286.263794 340.840912,284.170868 
	C340.745544,277.697235 337.178497,272.944366 332.280670,268.156158 
M434.338135,291.315491 
	C434.510315,292.864807 433.828979,294.753540 435.950867,295.527252 
	C438.068665,295.534729 438.350891,293.368927 439.699097,292.496918 
	C441.024109,291.639893 442.444214,290.921570 443.825806,291.957245 
	C445.156189,292.954529 444.339539,294.356476 443.966187,295.620087 
	C443.388184,297.576233 441.768585,299.351624 442.764587,301.692505 
	C449.119904,297.023590 450.931061,284.257324 446.089935,276.226074 
	C444.674896,273.878601 444.197083,270.847168 441.748474,269.200562 
	C437.281586,266.196686 428.100769,266.604797 423.800201,270.236420 
	C416.109680,276.730560 410.823364,284.816711 408.677795,294.761383 
	C408.324615,296.398468 407.804352,298.202850 409.149811,299.734650 
	C414.170441,295.115753 418.858459,290.601379 418.327026,283.228790 
	C422.090668,283.819061 422.254486,286.491150 423.214447,288.463135 
	C423.791016,289.647522 423.987610,291.192108 425.556244,291.403229 
	C427.381042,291.648804 428.031982,290.111084 428.843018,288.841492 
	C430.074341,286.914062 430.409393,283.996002 433.644135,283.982239 
	C434.993591,286.213806 434.150757,288.409119 434.338135,291.315491 
M107.800133,154.280869 
	C103.658287,166.316162 107.412430,181.041855 115.079285,181.763046 
	C117.177536,175.661621 113.653015,168.399658 120.620201,162.853195 
	C126.427689,158.229950 132.404266,155.715652 139.786316,155.394669 
	C138.208817,151.361343 134.608078,152.944016 132.941559,150.486618 
	C133.147247,149.491486 133.448944,148.228470 133.665771,146.951035 
	C135.125977,138.348770 133.775314,136.770065 125.067749,137.115326 
	C122.351250,137.223022 120.783676,136.225464 121.156281,133.395874 
	C121.889076,127.830971 119.463226,123.286674 116.739288,118.762527 
	C116.869720,124.560532 113.908638,130.632370 118.566765,135.948822 
	C119.321724,136.810471 118.972191,138.089203 118.022667,138.560608 
	C111.782463,141.658691 110.534264,147.997986 107.800133,154.280869 
M355.492981,335.867157 
	C355.952423,342.963409 358.144623,349.488464 361.599670,355.698547 
	C364.651245,361.183563 368.178467,362.379974 373.724060,359.322113 
	C379.609589,356.076813 384.796356,340.396057 382.143127,334.017212 
	C381.418152,332.274231 380.287506,331.364288 378.364288,331.380127 
	C372.370453,331.429474 366.374542,331.361694 360.383057,331.497589 
	C358.081879,331.549835 356.167297,332.519714 355.492981,335.867157 
M148.886932,280.047119 
	C145.625931,278.118805 141.951645,276.951965 138.590546,278.814789 
	C134.284393,281.201416 134.787491,292.971863 139.356354,295.131653 
	C142.553543,296.643066 144.708359,298.907410 146.946640,301.337433 
	C148.027313,302.510712 149.021698,304.099457 151.176102,303.075409 
	C152.661087,299.925507 150.925797,296.962494 150.513290,293.926178 
	C150.110703,290.962769 148.313522,288.130859 149.479904,284.729614 
	C151.674149,287.444305 151.733521,287.568359 152.303848,290.440063 
	C154.540253,301.700836 154.535172,301.636597 165.793991,300.745087 
	C168.315704,300.545380 170.211945,299.605865 170.435333,297.174042 
	C170.743225,293.822601 172.119720,290.230438 169.590271,287.139923 
	C169.181702,286.640717 167.840927,286.289459 167.340485,286.578552 
	C163.619614,288.727997 161.422882,285.996033 159.016266,284.104279 
	C156.246750,281.927246 153.587555,279.611969 148.886932,280.047119 
M227.170944,259.318909 
	C230.684311,262.319305 232.793503,266.995819 238.861893,269.257904 
	C238.614838,249.280563 237.602020,230.415924 236.275253,211.296326 
	C230.165771,213.643051 226.881470,218.697128 229.359833,221.759674 
	C232.799377,226.010010 232.107712,230.722885 232.406448,235.513367 
	C232.740906,240.876785 231.204620,244.829224 227.227081,248.700195 
	C222.382874,253.414581 222.764969,255.237671 227.170944,259.318909 
M239.328323,188.663300 
	C241.296707,211.627869 240.045013,234.778214 242.518616,259.036560 
	C245.619675,255.115997 249.719894,253.112839 246.512894,248.699081 
	C243.211380,244.155304 245.495010,240.330490 248.825912,237.906723 
	C252.457047,235.264496 251.900513,232.397247 251.171249,229.180359 
	C250.611084,226.709335 248.847458,224.851166 247.363098,222.828110 
	C245.637604,220.476425 243.422562,217.597702 246.028030,214.774918 
	C248.400314,212.204773 247.947067,209.655197 247.278885,206.901016 
	C245.711731,200.441452 244.171219,193.971451 242.386597,187.570724 
	C241.744110,185.266327 241.947647,182.481003 239.336960,180.403046 
	C239.336960,183.218964 239.336960,185.533630 239.328323,188.663300 
M258.898651,241.493423 
	C257.218811,246.782089 259.255219,250.507996 263.790863,253.213242 
	C268.923065,256.274323 274.336304,256.941742 279.991364,255.024155 
	C280.658661,254.797867 281.162598,253.879120 281.589111,253.187012 
	C284.788177,247.995514 281.338165,237.562668 275.457733,234.559204 
	C270.054199,231.799347 261.970764,234.867920 258.898651,241.493423 
M369.527222,62.079594 
	C368.550446,60.014511 366.651459,59.708824 364.892487,60.297863 
	C363.300537,60.830978 363.334290,62.692181 363.235718,64.176849 
	C363.125824,65.832191 363.106079,67.494316 363.076447,69.154015 
	C363.018066,72.427261 364.528137,74.122032 367.912506,73.945251 
	C372.385803,73.711578 376.872040,73.634132 381.330811,73.240952 
	C385.247253,72.895599 386.944489,70.468117 386.102661,66.672615 
	C384.431244,59.136810 381.040771,52.104046 379.601898,44.386604 
	C378.059540,47.246227 376.119049,49.808537 378.793884,52.980331 
	C380.197601,54.644836 380.351654,56.962498 378.401581,58.307468 
	C376.063477,59.920109 374.164307,61.562321 372.674713,64.149765 
	C371.462921,66.254585 370.354034,64.148987 369.527222,62.079594 
M230.811966,283.204895 
	C232.837433,279.115265 230.951477,276.721863 227.196182,274.756073 
	C221.845352,279.615479 219.482330,286.393799 215.158173,291.797516 
	C210.533783,297.576416 208.804825,307.540588 210.151001,311.754425 
	C217.495712,302.757660 222.927567,292.526855 230.811966,283.204895 
M343.465942,299.349396 
	C340.179108,300.156281 337.033051,301.585083 333.874298,301.252533 
	C332.442993,303.336578 335.009613,305.523956 332.925293,307.153198 
	C322.877502,306.674500 323.605408,309.950806 328.286957,320.472351 
	C331.166473,321.113739 332.178711,319.000641 332.793213,316.974426 
	C334.503967,311.333496 338.644775,308.862213 344.000061,307.738678 
	C345.130676,307.501495 346.266815,307.209167 347.337891,306.784485 
	C350.892670,305.375000 351.169098,303.583923 348.257294,301.093689 
	C347.098541,300.102692 345.780212,299.444824 343.465942,299.349396 
M155.415192,347.004333 
	C160.367126,345.128571 162.120300,341.430359 161.486786,336.364441 
	C161.066925,333.006927 159.658127,331.681122 156.143448,333.190308 
	C152.217117,334.876282 148.478699,337.110199 144.077408,337.592743 
	C142.988403,341.802887 143.485886,345.819550 143.781097,350.317810 
	C147.728577,349.234985 151.221725,348.276794 155.415192,347.004333 
M251.403351,249.683456 
	C252.226074,257.618225 261.346710,266.197693 271.758698,268.222565 
	C277.927216,269.422180 284.135712,269.476624 289.049805,264.176758 
	C287.867279,263.051361 286.869751,263.504425 285.923828,263.597778 
	C278.556854,264.324768 271.349487,263.550720 264.490540,260.766266 
	C259.006897,258.540131 255.486526,254.677277 255.601547,248.291962 
	C255.626923,246.883591 255.949692,245.240784 254.213577,244.240250 
	C251.863403,244.934265 251.770264,247.009918 251.403351,249.683456 
M186.751297,241.482925 
	C191.884399,243.841492 195.308701,243.315948 195.573257,239.879547 
	C195.966965,234.765427 195.117401,229.681992 193.710617,224.751999 
	C193.278198,223.236572 192.528671,221.415894 190.446594,221.559021 
	C188.741409,221.676239 188.052902,223.230270 187.484314,224.595383 
	C185.302704,229.833084 185.897141,235.282394 186.751297,241.482925 
M428.711121,307.728333 
	C430.010864,309.245880 431.313599,310.760864 432.609436,312.281769 
	C433.736603,313.604736 435.027222,314.088165 436.502289,312.887756 
	C437.991852,311.675476 439.703522,309.259491 438.303741,308.326202 
	C434.718536,305.935883 435.021637,301.907806 433.678009,298.618164 
	C426.897491,302.108459 426.897491,302.108459 424.901886,295.983185 
	C422.508423,296.063751 422.508728,301.068787 419.041962,298.913818 
	C414.826294,296.293304 414.577820,299.453583 413.701477,302.508972 
	C418.956055,303.556671 424.652740,302.300964 428.711121,307.728333 
M410.801788,101.079720 
	C407.034943,103.351532 405.622131,106.733711 406.906281,110.845612 
	C408.230042,115.084206 411.750214,116.623764 415.899048,116.542755 
	C419.624176,116.470024 422.209473,114.353966 423.262115,110.857239 
	C424.504639,106.729828 422.228790,103.811424 419.150787,101.497391 
	C416.820709,99.745628 414.126465,100.112206 410.801788,101.079720 
M148.721512,333.055145 
	C152.986465,331.049866 157.678848,329.828491 161.365982,326.756073 
	C158.136993,320.929321 157.007599,320.519653 151.791077,322.940369 
	C148.817398,324.320282 145.849503,325.712677 142.565811,327.245667 
	C143.905899,329.881073 143.128296,333.997101 148.721512,333.055145 
M190.548080,257.959564 
	C188.338867,256.198608 186.075653,253.768036 183.425278,257.122101 
	C181.443008,259.630646 182.062119,262.420105 184.382339,264.210144 
	C188.961853,267.743164 194.557022,268.883270 200.080002,270.313629 
	C197.801926,265.548096 194.683624,261.791656 190.548080,257.959564 
M292.504852,266.600922 
	C290.430359,273.168274 290.316345,279.533325 293.926941,285.927673 
	C298.908386,281.481995 300.348877,273.077362 297.190186,268.449554 
	C296.281494,267.118256 295.473236,264.945831 292.504852,266.600922 
M198.141998,261.289642 
	C200.733505,263.831940 202.171097,267.643311 207.158279,269.277771 
	C204.082977,262.081604 201.538422,255.711014 198.599594,249.527832 
	C197.812912,247.872650 195.900833,246.486343 193.281403,248.379074 
	C194.642319,252.487427 194.730164,257.065857 198.141998,261.289642 
M221.135803,220.790863 
	C223.388916,218.522003 223.003754,215.978607 221.720291,213.483841 
	C220.869339,211.829773 221.789185,208.984436 219.193832,208.590591 
	C216.687698,208.210312 215.534836,210.354538 214.461258,212.287354 
	C213.010635,214.898926 210.972137,215.589676 208.245758,214.121063 
	C207.328232,213.626816 206.450470,212.437500 204.808823,213.767105 
	C206.039322,216.371979 207.857727,218.602036 209.634720,220.453690 
	C214.535995,220.343292 217.603195,217.686340 219.215225,213.708832 
	C222.675522,216.141937 216.916565,218.938171 221.135803,220.790863 
M218.391037,261.790955 
	C221.669785,252.643021 221.593750,251.432632 217.585999,248.976501 
	C213.340836,255.079987 210.767395,265.992371 212.916962,269.442169 
	C215.931290,268.061951 216.464706,264.856171 218.391037,261.790955 
M264.406281,305.433044 
	C264.246185,307.982758 265.747437,309.092194 268.000397,309.292877 
	C269.994202,309.470459 270.806641,307.922760 270.611542,306.387543 
	C269.910461,300.870422 273.189880,297.412018 276.490479,293.796265 
	C278.239136,291.880646 279.951874,289.629700 277.001068,286.112091 
	C271.718658,291.892334 270.766449,300.287262 264.406281,305.433044 
M111.845093,200.710007 
	C112.731270,198.652863 111.195335,198.548584 109.888046,198.338959 
	C107.131592,197.896942 104.278503,197.805939 101.625626,197.025299 
	C97.005592,195.665802 96.152023,197.967880 96.180038,201.649658 
	C105.080215,205.211273 105.080215,205.211273 111.845093,200.710007 
M255.419571,275.217163 
	C253.958755,272.999268 254.366745,270.414215 253.946548,267.984802 
	C253.286392,264.168213 251.587418,261.219696 247.140594,260.967651 
	C245.342270,268.209442 248.846466,274.571442 256.396790,277.719971 
	C256.124634,276.917114 255.928635,276.338928 255.419571,275.217163 
M264.367279,270.357666 
	C263.179932,271.584259 260.733276,271.392975 260.513000,273.923279 
	C262.023529,276.268829 264.369324,277.784912 266.956329,278.797913 
	C269.207184,279.679291 271.845428,279.584473 273.126740,277.364594 
	C274.660248,274.707764 272.473816,273.158630 270.354980,272.015320 
	C268.658813,271.100037 267.124847,269.658722 264.367279,270.357666 
M196.997070,277.615448 
	C203.573410,282.224426 209.292480,284.483337 213.465775,283.715759 
	C207.634705,278.626343 201.587433,275.075745 194.421814,273.155334 
	C193.808838,275.638000 195.491898,276.200745 196.997070,277.615448 
M243.776932,282.421936 
	C247.050354,284.742462 249.753052,283.535156 252.682632,281.106903 
	C249.553467,277.414276 246.631516,273.966187 243.457886,270.221100 
	C241.790833,274.330170 243.515121,278.016357 243.776932,282.421936 
M213.913147,236.078873 
	C213.694397,235.835846 213.509018,235.547882 213.251755,235.356674 
	C210.455948,233.278732 207.582123,232.714157 205.942627,236.415512 
	C204.938629,238.682220 203.820786,242.228195 206.500320,243.609634 
	C209.867447,245.345581 211.780807,242.174942 213.235519,239.493164 
	C213.693192,238.649399 213.822311,237.627411 213.913147,236.078873 
M144.254181,323.368958 
	C147.351074,322.338287 150.305069,321.060516 153.066757,318.555481 
	C149.645157,316.645660 146.005692,316.103302 143.204193,312.936920 
	C142.462280,316.935364 141.152100,320.175262 144.254181,323.368958 
M135.263733,342.597717 
	C135.040054,346.235229 135.523407,349.271423 140.721786,348.809937 
	C140.804504,344.907684 141.482513,341.209564 140.401520,337.445709 
	C137.575058,337.985657 134.896576,338.170349 135.263733,342.597717 
M167.320831,266.885895 
	C170.031754,268.237946 171.656204,266.410400 172.234970,264.438904 
	C173.079926,261.560669 170.055237,260.829315 168.362015,259.501984 
	C167.187988,258.581665 165.751328,257.884766 164.466644,259.442993 
	C163.350159,260.797272 162.750122,262.369843 163.881912,263.930695 
	C164.627686,264.959198 165.747437,265.716553 167.320831,266.885895 
M224.636765,237.247849 
	C224.181519,234.197784 227.464462,230.759338 223.490952,227.492157 
	C221.340469,231.952103 221.239639,236.417770 220.510162,240.717300 
	C220.361420,241.593948 220.882126,242.354538 221.811707,242.522614 
	C222.710083,242.685043 223.467682,242.239456 223.759628,241.379318 
	C224.125595,240.301071 224.329407,239.167770 224.636765,237.247849 
M207.249344,227.229782 
	C205.987946,225.004791 204.724380,222.781906 201.912857,221.474640 
	C200.869034,226.137466 202.489990,229.297104 205.410706,232.137482 
	C207.478638,231.036972 208.103989,229.718521 207.249344,227.229782 
M348.146729,316.452423 
	C346.083344,316.486359 344.331879,317.373016 342.721191,318.543121 
	C341.740082,319.255859 340.893616,320.320831 341.803741,321.458862 
	C343.591064,323.693787 345.821533,322.682465 347.506439,321.457886 
	C349.001038,320.371643 352.401031,319.193604 348.146729,316.452423 
M255.621231,226.628662 
	C255.060349,226.260941 253.963516,225.961624 253.992218,226.567429 
	C254.155182,230.006073 253.408554,233.859146 257.530060,236.373825 
	C262.044556,232.310272 258.081909,229.803909 255.621231,226.628662 
M288.667145,282.047577 
	C288.558868,280.289398 289.157379,278.331329 287.058441,276.892212 
	C284.662018,277.761230 282.508789,279.060425 280.722961,281.684814 
	C283.478577,282.782074 285.385101,286.448212 288.667145,282.047577 
M413.340851,315.867981 
	C414.071625,319.585663 415.932770,321.785797 420.821594,321.707581 
	C418.943878,317.808289 418.350647,314.071045 413.340851,315.867981 
M311.008026,305.507751 
	C310.240784,304.424713 310.026489,302.540771 307.621735,303.329773 
	C308.079224,306.611664 308.486481,309.754272 310.622437,312.423492 
	C314.494476,310.415283 312.237946,308.199493 311.008026,305.507751 
M104.515984,178.188644 
	C104.210236,177.849106 103.906776,177.315491 103.545959,178.128082 
	C103.489494,178.255249 103.537773,178.462799 103.601479,178.604477 
	C105.062096,181.852951 105.314911,185.987305 109.932686,187.439972 
	C110.276054,182.946884 106.330879,181.512436 104.515984,178.188644 
M130.734238,128.512634 
	C130.469345,126.233330 129.995850,124.023148 128.636581,121.903000 
	C127.871674,129.135391 127.883461,129.216736 130.395096,132.842621 
	C130.549438,131.402924 130.665451,130.320663 130.734238,128.512634 
z"/>
<path fill="#000000" opacity="1.000000" stroke="none" 
	d="
M346.142029,167.618790 
	C349.045410,169.312363 351.607605,170.846603 354.140045,172.428482 
	C355.250397,173.122040 356.618195,173.772705 355.963013,175.486923 
	C355.472382,176.770508 354.631927,177.909836 353.194977,178.101334 
	C351.732788,178.296188 350.117004,178.541245 348.761566,178.129166 
	C342.490814,176.222641 337.405121,178.291473 332.685944,182.295990 
	C331.248199,183.516006 329.484741,185.559540 327.502533,184.008545 
	C325.593842,182.515030 326.369965,180.024567 327.043549,177.972275 
	C329.534485,170.382401 338.531006,165.378616 346.142029,167.618790 
M335.863434,175.477371 
	C338.514038,174.097412 341.850220,174.120392 344.264954,171.690674 
	C340.089203,169.921417 334.875946,171.770981 333.827667,175.318085 
	C333.575134,176.172562 334.718658,175.839218 335.863434,175.477371 
z"/>
<path fill="#000000" opacity="1.000000" stroke="none" 
	d="
M425.354004,181.641113 
	C421.813171,181.106247 418.660278,180.810684 415.574188,180.185303 
	C412.669952,179.596741 412.263000,177.691437 413.745514,175.348724 
	C416.009430,171.771164 419.683990,170.542953 423.558319,170.245865 
	C431.002319,169.675079 443.085419,178.612915 444.999908,185.842758 
	C445.258698,186.820068 445.356476,187.820816 444.027557,189.076218 
	C437.718048,187.793472 432.922150,181.562317 425.354004,181.641113 
M430.711090,179.215530 
	C432.167297,179.372726 433.555756,180.719879 435.300781,179.723572 
	C429.951111,173.085159 422.527954,171.686264 418.143524,176.279205 
	C418.373901,176.498581 418.576111,176.864807 418.838928,176.915222 
	C422.547668,177.626984 426.264648,178.295807 430.711090,179.215530 
z"/>
<path fill="#000000" opacity="1.000000" stroke="none" 
	d="
M392.044312,165.817245 
	C394.700439,167.877121 397.044189,169.747894 398.790802,172.220764 
	C399.539093,173.280182 400.593079,174.383087 399.814606,175.814697 
	C398.964020,177.378998 397.308685,177.539688 395.866333,177.209793 
	C393.619324,176.695816 391.337891,176.050797 389.283752,175.032318 
	C384.640717,172.730270 380.077515,172.590317 375.354065,174.664673 
	C373.997467,175.260422 372.528809,175.637085 371.078857,175.973511 
	C369.719299,176.288986 368.359558,176.133118 367.557190,174.802444 
	C366.839355,173.611938 367.478638,172.486374 368.212494,171.606918 
	C376.255402,161.968414 380.218933,157.844574 392.044312,165.817245 
M389.006775,167.337555 
	C381.129181,163.823914 376.204010,165.024277 372.894104,172.032547 
	C380.412354,169.365387 387.307404,170.863525 394.961517,173.559402 
	C393.506042,170.128510 391.480774,169.003281 389.006775,167.337555 
z"/>
<path fill="#000000" opacity="1.000000" stroke="none" 
	d="
M321.110657,191.894791 
	C327.080719,189.030289 335.207336,192.058884 337.578217,197.760269 
	C338.963257,201.090958 336.416382,202.664383 334.251923,202.099503 
	C327.253510,200.273041 321.693237,202.838501 316.228638,206.560730 
	C315.112183,207.321198 313.680756,207.600266 312.549347,206.530380 
	C311.401550,205.444992 311.864594,204.091034 312.332581,202.829086 
	C313.996490,198.341705 316.836731,194.775772 321.110657,191.894791 
M319.806854,197.096405 
	C319.045410,198.070099 317.672394,198.780914 318.652466,201.105316 
	C322.286377,199.194443 326.008423,197.483154 330.552521,196.894928 
	C326.679230,191.718018 323.477020,193.897217 319.806854,197.096405 
z"/>
<path fill="#000000" opacity="1.000000" stroke="none" 
	d="
M399.824463,199.000183 
	C396.124481,199.739075 391.730164,202.416489 389.905731,198.697968 
	C388.208313,195.238312 392.742279,192.847824 395.253326,190.772827 
	C402.508728,184.777390 415.542664,189.852737 417.853516,199.670639 
	C411.824646,203.121399 406.160248,195.901474 399.824463,199.000183 
M404.129578,191.505005 
	C400.289368,191.745575 396.672699,192.456146 394.435059,196.296234 
	C399.004547,195.534439 403.447021,194.351791 408.277985,194.542908 
	C407.501587,192.173325 406.043213,192.093796 404.129578,191.505005 
z"/>
<path fill="#000000" opacity="1.000000" stroke="none" 
	d="
M363.382629,185.051483 
	C369.644897,184.713409 373.555786,188.477142 377.666199,191.784668 
	C378.575775,192.516571 379.299286,193.529495 378.588776,194.816528 
	C377.824799,196.200439 376.656281,197.409576 375.040558,197.013092 
	C369.017792,195.535126 363.231598,196.593140 357.410828,198.119064 
	C355.339264,198.662155 353.382782,197.845734 352.172607,196.064896 
	C350.772766,194.005005 352.574554,192.708160 353.717072,191.376526 
	C356.226898,188.451309 358.967041,185.828156 363.382629,185.051483 
M358.324066,191.264694 
	C357.746033,191.848480 357.048798,192.377670 357.394287,193.494400 
	C359.714630,194.489624 361.824707,193.108734 364.053955,192.785446 
	C366.475677,192.434235 368.949463,192.441956 371.450470,192.290146 
	C368.322296,188.366699 364.154694,187.900925 358.324066,191.264694 
z"/>
<path fill="#000000" opacity="1.000000" stroke="none" 
	d="
M453.537720,210.323166 
	C451.567017,210.593826 450.343414,209.602768 449.165222,208.736053 
	C444.716003,205.463058 439.850739,203.824127 434.272400,204.330872 
	C432.665863,204.476822 430.679047,204.598160 430.012146,202.600433 
	C429.429779,200.855957 430.491089,199.378860 431.637787,198.121155 
	C435.489685,193.896301 442.145905,193.555893 446.314423,197.495560 
	C448.606049,199.661392 450.862915,201.926926 452.745422,204.439697 
	C453.922729,206.011154 455.564972,207.915695 453.537720,210.323166 
M436.403015,199.047943 
	C434.695312,200.589005 435.917450,200.966370 437.269196,200.938614 
	C440.114014,200.880249 442.955078,200.642380 445.742828,201.668930 
	C443.186829,199.286392 440.643555,197.112366 436.403015,199.047943 
z"/>
<path fill="#000000" opacity="1.000000" stroke="none" 
	d="
M344.316711,119.777390 
	C337.524994,119.023384 334.229980,116.235672 333.177216,110.680336 
	C332.323975,106.178108 334.504608,101.250206 338.279205,99.150497 
	C342.778717,96.647537 348.328430,97.108818 351.688812,100.418114 
	C354.780670,103.462997 355.844818,107.253090 354.680817,111.398109 
	C353.286835,116.362274 349.903320,119.235641 344.316711,119.777390 
M338.131927,114.464478 
	C340.909180,116.590767 344.084747,116.231422 347.190430,115.737686 
	C350.205536,115.258347 351.546539,112.847710 352.351624,110.257217 
	C353.036011,108.054977 352.027924,106.338150 350.190796,104.734024 
	C348.978790,107.728088 350.034851,111.647324 345.757111,112.046021 
	C343.982819,112.211395 342.496674,111.267197 341.824005,109.569626 
	C340.248077,105.592621 343.226227,103.770668 346.925873,101.595726 
	C342.739746,100.738045 339.782654,100.523277 337.699310,103.251999 
	C335.106628,106.647797 335.324310,110.309662 338.131927,114.464478 
z"/>
<path fill="#000000" opacity="1.000000" stroke="none" 
	d="
M372.601715,113.985046 
	C368.092804,113.836548 367.902496,109.895493 365.843445,107.780449 
	C373.599060,101.935745 387.891571,102.262894 392.522217,108.726768 
	C389.196259,108.530464 387.472473,109.848747 385.310638,112.403038 
	C382.670959,115.521896 377.324127,114.455513 372.601715,113.985046 
z"/>
<path fill="#000000" opacity="1.000000" stroke="none" 
	d="
M376.310303,141.033325 
	C374.853241,140.357773 373.363495,140.180664 373.350159,138.088196 
	C375.843811,137.131775 378.193695,137.088333 380.723846,139.141632 
	C379.780029,140.920883 378.371552,141.286087 376.310303,141.033325 
z"/>
<path fill="#000000" opacity="1.000000" stroke="none" 
	d="
M148.987549,166.990204 
	C148.940781,169.533417 147.785217,170.687302 145.248764,169.708801 
	C143.727890,169.122086 141.250443,169.882950 141.033203,167.290131 
	C140.898636,165.684036 141.945694,164.393326 143.500381,164.035339 
	C145.761047,163.514771 147.032471,165.301193 148.735748,166.835327 
	C149.024872,167.042526 149.000992,167.006836 148.987549,166.990204 
z"/>
<path fill="#000000" opacity="1.000000" stroke="none" 
	d="
M129.864655,168.306122 
	C130.242218,165.494873 132.017822,164.054031 134.222092,164.108490 
	C136.395920,164.162186 138.102585,165.634644 138.374741,168.468292 
	C135.559738,169.768616 132.798721,169.791000 129.864655,168.306122 
z"/>
<path fill="#000000" opacity="1.000000" stroke="none" 
	d="
M121.594490,170.610733 
	C120.654320,168.109756 121.991798,166.791809 123.820808,166.312607 
	C125.839165,165.783783 127.238770,166.886490 127.695412,169.110153 
	C126.113907,170.974655 124.102959,171.205841 121.594490,170.610733 
z"/>
<path fill="#000000" opacity="1.000000" stroke="none" 
	d="
M122.021469,142.939178 
	C125.198891,141.217834 126.694733,142.704132 127.624207,145.198471 
	C128.519760,147.601791 129.167618,150.177139 126.537254,151.860672 
	C124.919930,152.895828 122.856041,153.851074 121.078773,152.026489 
	C119.072556,149.966843 118.176720,147.576797 119.970070,144.893173 
	C120.417786,144.223206 121.111237,143.717438 122.021469,142.939178 
z"/>
<path fill="#000000" opacity="1.000000" stroke="none" 
	d="
M409.624878,106.620453 
	C411.276611,104.128304 413.235779,102.813622 415.624969,104.549210 
	C417.507477,105.916740 418.067566,108.181137 416.919434,110.345825 
	C415.937531,112.197159 414.005310,112.592163 412.150543,112.015190 
	C409.753479,111.269547 408.772980,109.500427 409.624878,106.620453 
z"/>
</svg>