<svg version="1.1" id="Layer_1" xmlns="http://www.w3.org/2000/svg" xmlns:xlink="http://www.w3.org/1999/xlink" x="0px" y="0px"
	 width="100%" viewBox="0 0 640 640" enable-background="new 0 0 640 640" xml:space="preserve">
<path fill="none" opacity="1.000000" stroke="#000000" stroke-linecap="round" stroke-linejoin="round" stroke-width="5.000000"
	d="
M322.000000,373.500000 
	C318.127960,375.077637 313.964142,375.608429 310.421326,378.400177 
	C303.788208,383.627136 301.433594,390.941528 300.690369,398.518677 
	C299.720703,408.403778 300.910950,418.100922 306.367920,427.080261 
	C310.233612,433.441162 315.156616,437.468872 322.498779,437.388550 
	C329.955475,437.306976 335.188477,432.671417 338.399017,426.447906 
	C344.276611,415.054413 345.234283,402.827698 341.913116,390.523438 
	C339.286560,380.792542 332.270691,375.415009 322.500000,373.500000 
"/>
<path fill="none" opacity="1.000000" stroke="#000000" stroke-linecap="round" stroke-linejoin="round" stroke-width="6.000000"
	d="
M425.500000,200.500000 
	C424.429993,204.027161 422.530060,206.924377 418.499878,206.931015 
	C413.792816,206.938751 409.621368,209.153625 405.005157,209.558670 
	C389.784729,210.894135 374.602325,211.760468 359.500000,208.500000 
"/>
<path fill="none" opacity="1.000000" stroke="#000000" stroke-linecap="round" stroke-linejoin="round" stroke-width="6.000000"
	d="
M283.500000,209.000000 
	C278.161163,212.453232 272.097443,210.480942 266.488342,210.696472 
	C260.735657,210.917511 254.824677,210.506699 249.001190,210.586533 
	C242.976105,210.669159 237.196976,209.612747 231.537231,207.878479 
	C230.320190,207.505539 228.858383,207.208389 228.031769,207.392563 
	C223.795471,208.336426 221.788162,205.507019 219.500000,203.000000 
"/>
<path fill="none" opacity="1.000000" stroke="#000000" stroke-linecap="round" stroke-linejoin="round" stroke-width="6.000000"
	d="
M434.500000,431.500000 
	C436.700775,433.288727 439.259918,433.546356 442.000183,433.531311 
	C454.833130,433.460815 467.666656,433.509735 480.500000,433.493164 
	C483.737823,433.488953 487.082550,433.993927 489.990845,431.986725 
	C491.047668,431.257324 491.883606,431.594604 493.020630,431.930145 
	C497.400879,433.222687 501.922974,433.693115 506.500000,433.500000 
"/>
<path fill="none" opacity="1.000000" stroke="#000000" stroke-linecap="round" stroke-linejoin="round" stroke-width="6.000000"
	d="
M373.000000,470.500000 
	C370.194641,468.783203 368.644775,465.490204 368.735199,463.008575 
	C369.043091,454.557037 363.284943,448.000732 362.449768,440.005249 
	C362.080963,436.474152 361.062286,433.015961 360.524200,429.496307 
	C359.695496,424.075745 362.725616,421.172729 367.954010,419.821960 
	C373.429230,418.407349 378.885681,419.948486 383.942749,419.141388 
	C393.022247,417.692261 402.151581,421.478516 411.017334,418.044769 
	C412.358704,417.525208 413.367340,418.900330 414.534241,419.423676 
	C419.339844,421.579010 424.899170,418.417725 425.410004,412.991516 
	C425.845459,408.365875 425.856232,403.631622 425.401642,399.009674 
	C424.930298,394.217712 422.836975,390.073273 417.797668,388.066711 
	C415.483734,389.302124 412.783112,389.524353 409.999939,389.516296 
	C397.166718,389.479370 384.333252,389.476929 371.500092,389.522430 
	C369.332855,389.530121 367.166656,389.833313 365.000000,389.999969 
"/>
<path fill="none" opacity="1.000000" stroke="#000000" stroke-linecap="round" stroke-linejoin="round" stroke-width="6.000000"
	d="
M345.000000,209.000000 
	C341.860718,199.478867 332.182159,192.000000 323.000000,192.000000 
	C312.202209,192.000000 303.329712,198.557922 300.000000,209.000000 
"/>
<path fill="none" opacity="1.000000" stroke="#000000" stroke-linecap="round" stroke-linejoin="round" stroke-width="6.000000"
	d="
M227.500000,406.500000 
	C208.333328,406.500000 189.166672,406.500000 170.000000,406.500000 
	C161.113251,406.500000 159.874344,408.359070 162.998383,417.000580 
	C163.177521,417.496063 163.333344,418.000000 163.500000,418.500000 
"/>
<path fill="none" opacity="1.000000" stroke="#000000" stroke-linecap="round" stroke-linejoin="round" stroke-width="6.000000"
	d="
M144.000000,266.500000 
	C145.133362,262.179169 148.289352,258.958618 149.797958,254.603210 
	C153.880920,242.815384 142.455093,227.789093 130.485794,231.959229 
	C129.594040,232.269928 128.500000,232.000000 127.500000,232.000000 
"/>
<path fill="none" opacity="1.000000" stroke="#000000" stroke-linecap="round" stroke-linejoin="round" stroke-width="6.000000"
	d="
M491.000000,431.000000 
	C489.555237,426.560303 483.669281,423.737335 478.987640,424.414429 
	C470.238281,425.679810 461.318359,427.754913 452.981934,422.528809 
	C452.623016,422.303772 451.982635,422.414917 451.502625,422.512848 
	C445.192169,423.800507 438.300690,423.850677 434.484100,430.490875 
	C434.061188,431.226685 433.511444,431.858368 432.503723,432.022827 
	C428.520355,432.672821 424.626434,434.011414 420.500000,433.500000 
"/>
<path fill="none" opacity="1.000000" stroke="#000000" stroke-linecap="round" stroke-linejoin="round" stroke-width="7.000000"
	d="
M357.500000,485.500000 
	C358.500000,500.833344 359.500000,516.166687 360.500000,531.500000 
"/>
<path fill="none" opacity="1.000000" stroke="#000000" stroke-linecap="round" stroke-linejoin="round" stroke-width="7.000000"
	d="
M286.500000,485.500000 
	C287.140656,495.557037 286.369751,505.526245 285.089966,515.511536 
	C284.414764,520.779663 284.666656,526.166687 284.499969,531.500000 
"/>
<path fill="none" opacity="1.000000" stroke="#000000" stroke-linecap="round" stroke-linejoin="round" stroke-width="6.000000"
	d="
M523.000000,251.000000 
	C516.722656,247.052185 509.928894,245.557129 503.041687,248.594543 
	C494.573334,252.329300 489.940857,262.811371 492.000000,272.000000 
	C492.922852,276.118011 501.897858,281.329315 507.500000,281.000000 
"/>
<path fill="none" opacity="1.000000" stroke="#000000" stroke-linecap="round" stroke-linejoin="round" stroke-width="6.000000"
	d="
M138.500000,433.500000 
	C147.969971,432.310883 157.466522,433.705566 167.027756,432.789886 
	C177.070389,431.828064 187.332687,433.187866 197.500183,433.493958 
	C207.330963,433.789948 217.182114,432.922241 227.000000,434.000000 
"/>
<path fill="none" opacity="1.000000" stroke="#000000" stroke-linecap="round" stroke-linejoin="round" stroke-width="7.000000"
	d="
M300.500000,209.500000 
	C303.169464,210.928619 306.045868,211.046402 309.000183,211.024673 
	C318.166351,210.957260 327.333649,211.044174 336.499878,210.983093 
	C341.833862,210.947540 347.127563,208.911118 352.516510,210.956482 
	C355.205231,211.976974 356.615326,208.766541 358.977295,208.817307 
	C359.101685,207.209045 358.909912,206.080704 358.024139,204.980560 
	C351.309692,196.641113 344.920074,187.849655 334.952484,183.099731 
	C329.364868,180.437027 323.122223,180.842743 316.996979,181.197830 
	C311.985626,181.488342 307.887695,183.567261 303.985413,186.480453 
	C296.000916,192.441147 289.809204,200.035690 283.599976,207.868973 
	C288.807495,212.211456 294.096863,211.443573 299.500000,209.500000 
"/>
<path fill="none" opacity="1.000000" stroke="#000000" stroke-linecap="round" stroke-linejoin="round" stroke-width="7.000000"
	d="
M295.000000,378.000000 
	C292.010986,377.434052 289.185547,375.814789 286.002380,376.510925 
	C283.872650,376.976654 280.933899,377.555206 281.175964,379.982452 
	C281.581329,384.046661 280.914734,388.116730 280.651886,391.976288 
	C280.060120,400.665894 282.895081,409.448120 279.964996,417.987976 
	C279.165619,420.317749 280.199799,422.026215 281.549194,423.453491 
	C283.576447,425.597748 283.614349,427.857452 283.033264,430.507294 
	C281.759216,436.317108 280.461090,442.135315 279.565613,448.010010 
	C278.859985,452.639252 276.709259,456.834564 273.328369,459.260834 
	C269.882019,461.734131 269.174164,465.438507 269.376099,467.970001 
	C269.676117,471.730408 268.230133,475.633392 270.676422,479.694885 
	C272.340576,482.457886 271.740997,487.210480 269.000000,490.500000 
"/>
<path fill="none" opacity="1.000000" stroke="#000000" stroke-linecap="round" stroke-linejoin="round" stroke-width="6.000000"
	d="
M279.500000,389.500000 
	C271.232239,391.472809 262.830933,390.103882 254.499435,390.487640 
	C252.669983,390.571930 250.833328,390.500000 249.000000,390.500000 
	C242.441040,390.500000 242.441040,390.500000 240.995529,397.020203 
	C243.167374,399.490082 245.763809,396.603363 247.989685,397.524933 
	C254.349487,400.158142 261.187164,395.263245 267.579590,398.858459 
	C268.505524,399.379211 270.467896,397.760498 272.007263,397.554169 
	C274.543701,397.214203 277.088623,397.501923 279.500000,398.500000 
"/>
<path fill="none" opacity="1.000000" stroke="#000000" stroke-linecap="round" stroke-linejoin="round" stroke-width="6.000000"
	d="
M132.000000,362.500000 
	C132.532425,360.130035 133.887482,358.127899 135.545654,356.547913 
	C140.249649,352.065948 137.880310,346.922028 136.273865,342.583740 
	C134.556564,337.946106 130.589874,334.845642 125.004044,334.443787 
	C117.637115,333.913757 112.093529,336.465881 108.500000,343.000000 
"/>
<path fill="none" opacity="1.000000" stroke="#000000" stroke-linecap="round" stroke-linejoin="round" stroke-width="6.000000"
	d="
M489.500000,456.000000 
	C481.196747,455.503265 473.146759,453.380341 464.972809,452.186066 
	C455.431610,450.792023 445.787811,449.305420 435.980347,450.877472 
	C431.742584,451.556732 426.951508,450.487183 423.127930,449.503021 
	C417.845856,448.143463 413.922668,450.383392 409.535828,451.193878 
	C406.968109,451.668274 404.591583,452.013794 401.995941,451.798859 
	C397.511414,451.427429 393.123871,451.829010 389.500000,455.000000 
"/>
<path fill="none" opacity="1.000000" stroke="#000000" stroke-linecap="round" stroke-linejoin="round" stroke-width="6.000000"
	d="
M254.500000,455.000000 
	C250.610306,451.253601 245.694824,452.096680 240.999786,452.011841 
	C238.555573,451.967651 236.293716,451.946625 233.929565,450.626099 
	C231.278702,449.145447 228.544022,447.828979 224.880875,449.775848 
	C221.972214,451.321716 218.084244,449.036072 214.481659,449.925720 
	C207.909378,451.548767 201.146759,449.960785 194.503998,450.545471 
	C187.319641,451.177826 179.811508,451.093414 173.103622,453.313110 
	C166.862228,455.378510 160.564484,454.369873 154.500000,456.000000 
"/>
<path fill="none" opacity="1.000000" stroke="#000000" stroke-linecap="round" stroke-linejoin="round" stroke-width="6.000000"
	d="
M334.500000,342.000000 
	C332.611847,336.161774 326.738464,333.723297 323.418060,329.058319 
	C321.606995,326.513916 319.917725,324.556091 320.850891,320.961304 
	C321.710144,317.651093 319.904327,315.625610 316.006287,315.394257 
	C312.699493,315.198029 309.576263,315.971558 306.531647,316.643402 
	C302.086731,317.624237 300.511353,320.486298 300.509796,325.500000 
	C300.508179,330.685455 300.176178,335.897247 301.500000,341.000000 
"/>
<path fill="none" opacity="1.000000" stroke="#000000" stroke-linecap="round" stroke-linejoin="round" stroke-width="6.000000"
	d="
M226.500000,515.000000 
	C238.333328,515.688721 250.165298,515.892700 262.000702,515.009460 
	C266.440918,514.677979 268.099762,516.393250 268.544098,520.995728 
	C268.884064,524.517151 267.094788,528.000000 268.500000,531.500000 
"/>
<path fill="none" opacity="1.000000" stroke="#000000" stroke-linecap="round" stroke-linejoin="round" stroke-width="6.000000"
	d="
M417.500000,515.000000 
	C405.833344,515.758545 394.169006,515.839478 382.497345,515.038757 
	C380.849884,514.925659 379.166656,515.333313 377.500000,515.500000 
"/>
<path fill="none" opacity="1.000000" stroke="#000000" stroke-linecap="round" stroke-linejoin="round" stroke-width="6.000000"
	d="
M339.500000,341.000000 
	C341.517426,334.736420 340.355377,328.342224 340.206512,322.001007 
	C340.153046,319.723267 338.389435,318.229462 336.477448,317.564850 
	C331.422455,315.807709 326.266357,314.076263 321.000000,317.000000 
"/>
<path fill="none" opacity="1.000000" stroke="#000000" stroke-linecap="round" stroke-linejoin="round" stroke-width="7.000000"
	d="
M415.500000,502.000000 
	C404.333344,502.000000 393.166565,501.977509 382.000092,502.022400 
	C380.166107,502.029755 378.333344,502.333344 376.500000,502.500000 
"/>
<path fill="none" opacity="1.000000" stroke="#000000" stroke-linecap="round" stroke-linejoin="round" stroke-width="5.000000"
	d="
M210.500000,239.000000 
	C205.790451,240.071426 203.566742,242.637222 203.999985,246.500000 
	C204.414688,250.197418 207.101044,252.500000 211.000000,252.500000 
	C214.640335,252.500000 217.605453,249.958466 218.000000,246.500000 
	C218.404068,242.958145 216.111328,240.312683 211.500000,239.000000 
"/>
<path fill="none" opacity="1.000000" stroke="#000000" stroke-linecap="round" stroke-linejoin="round" stroke-width="5.000000"
	d="
M445.500000,183.000000 
	C440.479279,184.429230 438.543976,186.556046 439.029877,190.496323 
	C439.488281,194.213379 441.701141,196.246231 445.499542,196.506516 
	C449.499329,196.780609 452.099640,195.068604 453.000031,191.500000 
	C453.920288,187.852432 451.241821,184.349823 446.500000,183.000000 
"/>
<path fill="none" opacity="1.000000" stroke="#000000" stroke-linecap="round" stroke-linejoin="round" stroke-width="6.000000"
	d="
M511.000000,349.500000 
	C507.711884,346.252808 505.226135,342.054352 500.498291,340.505219 
	C491.304474,337.492798 478.178558,340.538239 478.400787,357.501312 
	C478.486969,364.082397 482.530579,366.707947 487.500000,369.000000 
"/>
<path fill="none" opacity="1.000000" stroke="#000000" stroke-linecap="round" stroke-linejoin="round" stroke-width="6.000000"
	d="
M424.500000,321.500000 
	C422.792542,317.799530 420.873260,314.639038 416.006073,314.384033 
	C413.192200,314.236633 411.466522,311.743866 411.589813,309.004028 
	C411.794556,304.454590 409.031006,303.425995 405.498901,303.009399 
	C396.018341,301.891205 386.499023,302.662048 376.999298,302.579987 
	C374.505707,302.558441 372.421265,304.982086 369.483154,304.053253 
	C364.292542,302.412262 359.894745,300.013397 358.000000,294.500000 
"/>
<path fill="none" opacity="1.000000" stroke="#000000" stroke-linecap="round" stroke-linejoin="round" stroke-width="7.000000"
	d="
M228.500000,369.000000 
	C229.210510,379.991760 230.051590,391.050018 228.789322,401.975647 
	C228.110367,407.852356 231.402145,415.055786 224.186951,419.052917 
	C227.573441,423.722351 231.164093,427.833893 227.500000,433.500000 
	C230.259445,438.099609 228.919571,443.123260 229.000000,448.000000 
"/>
<path fill="none" opacity="1.000000" stroke="#000000" stroke-linecap="round" stroke-linejoin="round" stroke-width="7.000000"
	d="
M267.000000,515.500000 
	C267.722839,513.687073 269.150879,512.259644 269.062012,509.997559 
	C268.826813,504.009949 270.145538,501.713501 261.499054,501.967682 
	C251.169754,502.271423 240.833328,502.333344 230.500000,502.500000 
"/>
<path fill="none" opacity="1.000000" stroke="#000000" stroke-linecap="round" stroke-linejoin="round" stroke-width="6.000000"
	d="
M182.500000,365.000000 
	C180.953583,361.606537 180.251083,357.982788 177.617233,354.899841 
	C172.751953,349.204956 160.953583,348.875153 156.036148,354.531433 
	C153.247803,357.738739 150.858841,358.943268 146.878922,355.908813 
	C144.725525,354.267029 141.333328,354.250000 138.500000,353.500000 
"/>
<path fill="none" opacity="1.000000" stroke="#000000" stroke-linecap="round" stroke-linejoin="round" stroke-width="6.000000"
	d="
M278.500000,238.000000 
	C282.500000,239.549988 286.519714,239.442642 290.493500,237.982285 
	C293.438690,236.899902 296.192963,236.003571 299.049805,238.441635 
	C300.495209,239.675125 302.578918,239.526321 304.500061,239.519791 
	C316.166595,239.480118 327.833527,239.465912 339.499878,239.525543 
	C342.198425,239.539337 344.666748,239.233536 346.500000,237.000000 
"/>
<path fill="none" opacity="1.000000" stroke="#000000" stroke-linecap="round" stroke-linejoin="round" stroke-width="6.000000"
	d="
M224.000000,347.500000 
	C225.081345,344.448547 226.403748,341.573853 229.362885,339.971954 
	C238.823715,343.178772 248.568909,340.351440 257.912323,341.920807 
	C258.952484,344.671448 258.724335,347.185455 257.000000,349.500000 
"/>
<path fill="none" opacity="1.000000" stroke="#000000" stroke-linecap="round" stroke-linejoin="round" stroke-width="6.000000"
	d="
M385.500000,259.000000 
	C392.034760,264.388336 400.292969,265.264893 408.021301,267.423737 
	C412.278717,268.613037 416.806244,268.898376 420.000000,272.500000 
"/>
<path fill="none" opacity="1.000000" stroke="#000000" stroke-linecap="round" stroke-linejoin="round" stroke-width="7.000000"
	d="
M371.999969,305.000000 
	C372.333313,305.500000 372.571350,306.114960 373.014557,306.482391 
	C378.045563,310.653198 378.093964,316.982635 379.965149,322.511780 
	C380.218201,323.259491 380.300232,324.328674 379.951935,324.974060 
	C377.435211,329.637878 378.674500,334.649872 378.549347,339.501282 
	C378.345398,347.407318 379.432251,347.811127 385.971344,346.812378 
	C391.279144,346.001709 396.408813,347.763458 401.477844,346.873779 
	C406.140503,346.055450 410.516205,346.648834 415.006287,347.465454 
	C416.550385,347.746246 417.630676,347.376740 418.616882,345.563568 
	C420.791992,341.564606 421.792267,337.476379 421.499420,333.000031 
	C421.335815,330.499847 421.166687,328.000000 421.000000,325.500000 
"/>
<path fill="none" opacity="1.000000" stroke="#000000" stroke-linecap="round" stroke-linejoin="round" stroke-width="6.000000"
	d="
M294.500000,261.500000 
	C286.833344,261.500000 279.165497,261.420288 271.500458,261.532288 
	C267.430725,261.591766 263.525482,261.249512 259.854004,258.727295 
	C249.615723,266.785919 235.662918,264.964264 224.201050,272.297668 
	C230.721527,277.409515 227.428940,284.716705 229.000000,291.000000 
"/>
<path fill="none" opacity="1.000000" stroke="#000000" stroke-linecap="round" stroke-linejoin="round" stroke-width="6.000000"
	d="
M383.500000,259.000000 
	C381.666748,261.233551 379.198730,261.546082 376.499817,261.525726 
	C367.500305,261.457794 358.500000,261.500000 349.500000,261.500000 
"/>
<path fill="none" opacity="1.000000" stroke="#000000" stroke-linecap="round" stroke-linejoin="round" stroke-width="6.000000"
	d="
M286.000000,294.500000 
	C282.229095,303.212799 274.033661,306.491272 264.981323,303.049164 
	C263.615417,302.529785 261.993103,302.476990 260.501129,302.531281 
	C251.825195,302.846832 243.082748,301.551178 234.479568,303.925964 
	C231.639557,304.709900 228.849014,301.816803 228.486115,298.501526 
	C228.254654,296.386932 228.978836,294.468689 229.500000,292.500000 
"/>
<path fill="none" opacity="1.000000" stroke="#000000" stroke-linecap="round" stroke-linejoin="round" stroke-width="6.000000"
	d="
M147.500000,288.500000 
	C148.279846,287.559692 149.570709,287.685913 150.579636,287.149872 
	C152.592972,286.080109 152.915756,282.668396 155.481613,283.107483 
	C158.724442,283.662384 162.062225,284.566772 164.950943,286.092865 
	C170.464066,289.005432 172.944702,294.819305 171.130585,300.964752 
	C170.082458,304.515442 169.991806,309.652924 165.937500,310.773956 
	C160.127472,312.380432 153.699646,313.769165 148.500000,308.500000 
"/>
<path fill="none" opacity="1.000000" stroke="#000000" stroke-linecap="round" stroke-linejoin="round" stroke-width="7.000000"
	d="
M412.000000,312.500000 
	C409.358093,314.622437 406.342072,314.955688 403.004272,315.099487 
	C393.492096,315.509369 384.027313,314.429291 374.491516,314.738251 
	C366.602661,314.993805 358.240570,314.565216 352.341858,307.125366 
	C350.523926,304.832458 347.161316,304.429382 343.447693,305.268585 
	C337.430176,306.628418 331.040955,307.158722 325.000000,304.500000 
"/>
<path fill="none" opacity="1.000000" stroke="#000000" stroke-linecap="round" stroke-linejoin="round" stroke-width="6.000000"
	d="
M242.000000,398.500000 
	C241.833344,402.333344 241.509796,406.167664 241.534027,409.999786 
	C241.578674,417.057922 245.691284,420.224670 252.487259,418.451202 
	C254.176392,418.010406 255.572433,417.784485 257.028809,418.964447 
	C257.512787,419.356567 258.415314,419.619873 258.987488,419.456207 
	C265.673676,417.543915 272.333344,419.773895 279.000000,419.500000 
"/>
<path fill="none" opacity="1.000000" stroke="#000000" stroke-linecap="round" stroke-linejoin="round" stroke-width="6.000000"
	d="
M268.500000,476.500000 
	C266.183380,477.539001 264.197510,479.275604 261.501984,479.521606 
	C257.207703,479.913483 253.242615,480.911377 249.375977,483.299164 
	C246.832001,484.870087 243.599640,486.770477 239.983444,485.549042 
	C239.435593,485.363983 238.535721,485.652740 238.019562,486.026978 
	C229.829666,491.965210 221.016190,496.493805 211.016144,498.577484 
	C209.731598,498.845154 208.552551,500.047424 207.527420,501.028625 
	C206.083374,502.410797 204.783310,503.899933 202.500000,503.500000 
"/>
<path fill="none" opacity="1.000000" stroke="#000000" stroke-linecap="round" stroke-linejoin="round" stroke-width="6.000000"
	d="
M358.000000,313.000000 
	C355.572693,317.807281 356.695099,322.976501 356.530914,328.001007 
	C356.384003,332.496216 356.500000,337.000000 356.500000,341.500000 
"/>
<path fill="none" opacity="1.000000" stroke="#000000" stroke-linecap="round" stroke-linejoin="round" stroke-width="6.000000"
	d="
M533.500000,323.500000 
	C524.158447,325.618591 520.360779,330.725708 519.539917,337.005219 
	C518.079041,348.180542 519.012451,346.426208 529.012817,352.980469 
	C529.748535,353.462677 530.666687,353.666656 531.500000,353.999969 
"/>
<path fill="none" opacity="1.000000" stroke="#000000" stroke-linecap="round" stroke-linejoin="round" stroke-width="6.000000"
	d="
M346.000000,234.000000 
	C342.693420,230.990402 338.210876,228.802979 334.457428,228.439545 
	C329.632416,227.972336 324.506805,227.736176 319.497894,227.950851 
	C315.332397,228.129364 311.253296,228.912430 306.990265,228.738113 
	C303.308746,228.587570 301.049774,232.462601 298.500153,235.000153 
	C297.998962,235.498962 297.500031,236.000015 297.000031,236.500015 
"/>
<path fill="none" opacity="1.000000" stroke="#000000" stroke-linecap="round" stroke-linejoin="round" stroke-width="6.000000"
	d="
M375.500000,476.000000 
	C377.995514,478.015717 380.689850,479.798553 383.998718,479.704956 
	C389.873260,479.538757 394.032715,484.126862 399.499237,485.004761 
	C407.631104,486.310699 413.942413,491.846680 421.486389,494.538147 
	C422.584473,494.929901 423.431671,496.255951 424.511230,496.430511 
	C430.867035,497.458008 436.327393,500.380127 441.500000,504.000000 
"/>
<path fill="none" opacity="1.000000" stroke="#000000" stroke-linecap="round" stroke-linejoin="round" stroke-width="6.000000"
	d="
M330.000000,293.500000 
	C329.666656,294.166656 329.368073,294.853546 328.994049,295.496552 
	C327.341217,298.337921 326.174561,302.971313 323.891357,303.613861 
	C319.513336,304.845886 314.867798,306.870331 310.002350,305.739838 
	C305.883209,304.782715 301.542297,305.133728 297.479950,304.954651 
	C292.138763,304.719086 287.641449,309.376556 284.162842,313.633087 
	C283.249603,314.750519 284.461334,317.498993 284.477112,319.500183 
	C284.534943,326.833069 284.500000,334.166656 284.500000,341.500000 
"/>
<path fill="none" opacity="1.000000" stroke="#000000" stroke-linecap="round" stroke-linejoin="round" stroke-width="6.000000"
	d="
M407.500000,470.000000 
	C415.995483,469.648865 424.085236,472.718048 432.500977,472.967468 
	C434.966614,473.040558 436.201996,474.476471 435.913330,476.487549 
	C435.146332,481.830780 435.564331,487.170197 435.588867,492.499603 
	C435.599304,494.762756 434.154388,496.413605 434.000000,498.500000 
"/>
<path fill="none" opacity="1.000000" stroke="#000000" stroke-linecap="round" stroke-linejoin="round" stroke-width="6.000000"
	d="
M236.500000,470.000000 
	C226.636444,470.795166 217.022278,472.205505 207.398514,475.170624 
	C198.575363,477.889099 189.734177,480.250580 181.500000,484.500000 
"/>
<path fill="none" opacity="1.000000" stroke="#000000" stroke-linecap="round" stroke-linejoin="round" stroke-width="6.000000"
	d="
M436.500000,475.500000 
	C445.912109,476.346466 454.289154,480.183136 462.500000,484.500000 
"/>
<path fill="none" opacity="1.000000" stroke="#000000" stroke-linecap="round" stroke-linejoin="round" stroke-width="6.000000"
	d="
M491.500000,273.000000 
	C490.166656,273.666656 488.875305,274.440247 487.493225,274.982697 
	C478.343658,278.573730 475.526581,284.840393 479.000000,294.000000 
"/>
<path fill="none" opacity="1.000000" stroke="#000000" stroke-linecap="round" stroke-linejoin="round" stroke-width="7.000000"
	d="
M219.500000,347.500000 
	C224.344849,348.083191 229.386826,347.854706 233.945160,349.640045 
	C236.262360,350.547546 237.581863,348.673920 239.504974,348.967346 
	C244.156296,349.677032 248.829926,349.581146 253.501450,349.011932 
	C255.800644,348.731842 257.318573,349.946960 257.968445,352.009949 
	C259.217712,355.975830 258.346375,360.044098 257.856506,363.982147 
	C257.595947,366.076813 255.477188,367.365387 253.000381,366.997437 
	C248.665680,366.353516 244.320480,366.917480 240.004044,366.820312 
	C236.520874,366.741882 233.176331,366.001587 229.996414,367.994293 
	C227.455139,369.586761 226.376633,367.272247 225.013870,365.985321 
	C217.903152,359.270203 205.962601,359.603088 198.943314,366.441803 
	C196.155884,369.157501 197.854691,372.644806 196.500000,375.500000 
"/>
<path fill="none" opacity="1.000000" stroke="#000000" stroke-linecap="round" stroke-linejoin="round" stroke-width="7.000000"
	d="
M452.500000,230.500000 
	C452.403503,233.833328 451.424011,237.161362 452.480225,240.506241 
	C452.623779,240.960907 452.711884,241.766571 452.468323,241.960144 
	C448.628235,245.012283 447.157684,251.418671 440.500000,250.500000 
"/>
<path fill="none" opacity="1.000000" stroke="#000000" stroke-linecap="round" stroke-linejoin="round" stroke-width="7.000000"
	d="
M420.000000,208.000000 
	C421.205688,212.128448 417.854523,214.325455 415.914520,216.936493 
	C413.838715,219.730377 411.375122,221.943207 409.579987,225.273605 
	C407.233063,229.627640 403.792816,234.360001 398.049316,236.157593 
	C396.005371,236.797333 394.673553,238.842361 395.348816,242.032013 
	C396.851624,249.130280 395.463135,250.894867 388.507782,253.520615 
	C387.120483,254.044342 385.833313,254.833313 384.197174,255.651367 
	C381.776154,252.983902 378.455322,252.914932 374.999481,252.953491 
	C371.289368,252.994873 367.607300,253.340714 363.934784,251.640884 
	C361.708923,250.610641 358.982086,251.982422 356.496185,252.481018 
	C349.701752,253.843765 342.833130,252.842896 336.001129,253.038849 
	C331.774719,253.160080 327.360443,251.985107 323.430573,254.906586 
	C322.571808,255.544998 320.630707,255.437592 319.532806,254.929169 
	C312.279755,251.570297 304.897003,252.644897 297.507233,254.038315 
	C295.603027,254.397369 294.168732,253.252502 292.524933,252.887695 
	C285.653290,251.362762 278.837097,251.587646 272.004181,252.774048 
	C268.157684,253.441910 264.305664,253.034882 260.327271,254.544937 
	C258.156555,255.368866 253.553329,253.496796 250.493042,251.510712 
	C247.849274,249.794922 249.233749,247.198639 249.037460,244.996658 
	C248.338516,237.155487 247.562439,229.295654 249.500000,221.500000 
"/>
<path fill="none" opacity="1.000000" stroke="#000000" stroke-linecap="round" stroke-linejoin="round" stroke-width="7.000000"
	d="
M234.000000,305.000000 
	C233.460724,308.480377 233.107315,312.013885 229.523972,314.042358 
	C228.715210,314.500153 227.738922,315.365540 228.029297,316.492462 
	C229.983215,324.075134 228.499405,331.865967 229.500000,339.500000 
"/>
<path fill="none" opacity="1.000000" stroke="#000000" stroke-linecap="round" stroke-linejoin="round" stroke-width="7.000000"
	d="
M208.000000,476.000000 
	C209.736786,481.076111 208.851791,486.326508 208.950226,491.500946 
	C208.996078,493.911407 209.118011,496.245056 210.000000,498.500000 
"/>
<path fill="none" opacity="1.000000" stroke="#000000" stroke-linecap="round" stroke-linejoin="round" stroke-width="6.000000"
	d="
M343.000000,368.500000 
	C349.577179,364.753632 356.326965,366.222870 362.977081,368.081940 
	C365.053711,368.662476 366.513062,373.922363 364.901611,375.392120 
	C362.441162,377.636139 362.042725,380.739990 362.686493,382.945557 
	C365.399689,392.240906 362.147003,401.330170 362.449310,410.501678 
	C362.559387,413.841461 362.871765,417.035767 364.500000,420.000000 
"/>
<path fill="none" opacity="1.000000" stroke="#000000" stroke-linecap="round" stroke-linejoin="round" stroke-width="6.000000"
	d="
M301.500000,368.500000 
	C295.159668,365.053009 288.504822,366.009796 282.022461,367.592041 
	C276.525513,368.933807 270.932892,365.415863 271.000031,360.000000 
	C271.064880,354.766937 272.921265,353.471588 278.010895,354.170624 
	C282.317657,354.762146 286.783997,355.310455 290.979279,353.453217 
	C292.115875,352.950043 292.881622,353.083710 294.020020,353.435120 
	C299.642700,355.170868 305.373413,355.217407 310.971191,353.410736 
	C312.331543,352.971680 313.330811,353.098816 314.500458,353.498657 
	C318.832672,354.979767 323.297394,353.463013 327.472107,353.823334 
	C335.533600,354.519073 343.526001,353.392670 351.491943,354.091888 
	C356.455811,354.527649 361.279724,354.972778 366.000000,353.020538 
	C366.000000,351.666656 365.871582,350.318298 366.025665,349.002991 
	C366.390472,345.888947 365.242035,344.578766 362.056396,343.571625 
	C358.107086,342.323090 354.469238,341.704651 351.044128,344.064056 
	C347.814911,346.288483 345.378326,344.066864 343.058777,342.884674 
	C339.221222,340.928833 336.012482,341.049896 332.463013,343.445221 
	C328.963928,345.806580 329.386017,349.128662 329.500000,352.500000 
"/>
<path fill="none" opacity="1.000000" stroke="#000000" stroke-linecap="round" stroke-linejoin="round" stroke-width="7.000000"
	d="
M209.000000,452.000000 
	C209.343582,459.166199 207.811630,466.419617 210.000000,473.500000 
"/>
<path fill="none" opacity="1.000000" stroke="#000000" stroke-linecap="round" stroke-linejoin="round" stroke-width="6.000000"
	d="
M467.500000,321.500000 
	C464.748871,319.159698 465.206665,313.957947 460.004181,313.673431 
	C455.328461,313.417725 450.716400,312.303528 446.457458,315.442261 
	C445.248840,316.332977 444.332275,317.332275 443.500000,318.500000 
"/>
<path fill="none" opacity="1.000000" stroke="#000000" stroke-linecap="round" stroke-linejoin="round" stroke-width="6.000000"
	d="
M243.000000,312.250000 
	C248.846802,313.109497 254.663727,311.886383 260.500061,311.996796 
	C261.666290,312.018890 263.305176,311.496948 263.925842,312.079071 
	C269.202148,317.027832 275.245850,314.399292 280.982880,313.827972 
	C281.937805,313.732880 282.666656,314.535889 283.500000,314.000000 
"/>
<path fill="none" opacity="1.000000" stroke="#000000" stroke-linecap="round" stroke-linejoin="round" stroke-width="6.000000"
	d="
M435.000000,452.000000 
	C435.824707,459.023590 435.754639,466.025909 434.500000,473.000000 
"/>
<path fill="none" opacity="1.000000" stroke="#000000" stroke-linecap="round" stroke-linejoin="round" stroke-width="6.000000"
	d="
M417.000000,348.000000 
	C418.332825,351.381012 418.496887,354.925262 418.508179,358.499969 
	C418.517883,361.575226 418.127960,364.735809 420.007202,367.495087 
	C420.708923,368.525360 420.251221,369.552338 419.971252,370.491425 
	C418.259521,376.233093 417.944733,382.076202 418.500000,388.000000 
"/>
<path fill="none" opacity="1.000000" stroke="#000000" stroke-linecap="round" stroke-linejoin="round" stroke-width="6.000000"
	d="
M194.500000,316.500000 
	C188.388885,309.744446 181.393173,310.242676 174.000000,314.000000 
"/>
<path fill="none" opacity="1.000000" stroke="#000000" stroke-linecap="round" stroke-linejoin="round" stroke-width="7.000000"
	d="
M323.000000,255.500000 
	C325.385773,259.552826 327.713898,263.550842 332.990875,264.548279 
	C337.103790,265.325684 335.736023,268.851227 336.000000,271.500000 
"/>
<path fill="none" opacity="1.000000" stroke="#000000" stroke-linecap="round" stroke-linejoin="round" stroke-width="6.000000"
	d="
M322.000000,166.000000 
	C324.640991,167.264999 326.341522,169.632385 329.399872,170.769363 
	C334.796509,172.775650 335.384552,173.761459 334.000000,181.500000 
"/>
<path fill="none" opacity="1.000000" stroke="#000000" stroke-linecap="round" stroke-linejoin="round" stroke-width="4.000000"
	d="
M454.000000,420.500000 
	C456.762970,418.137054 456.534821,414.463989 454.802979,412.692627 
	C452.138855,409.967621 448.010986,411.935822 444.082550,411.399414 
	C444.066406,414.998077 443.234802,418.066406 446.000000,420.500000 
"/>
<path fill="none" opacity="1.000000" stroke="#000000" stroke-linecap="round" stroke-linejoin="round" stroke-width="6.000000"
	d="
M407.000000,326.000000 
	C406.391846,332.500000 406.140503,339.000000 407.000000,345.500000 
"/>
<path fill="none" opacity="1.000000" stroke="#000000" stroke-linecap="round" stroke-linejoin="round" stroke-width="6.000000"
	d="
M321.500000,163.500000 
	C320.679535,167.412003 317.551453,169.304337 314.468597,170.940857 
	C309.180542,173.748001 308.007141,176.260361 310.000000,182.000000 
"/>
<path fill="none" opacity="1.000000" stroke="#000000" stroke-linecap="round" stroke-linejoin="round" stroke-width="6.000000"
	d="
M392.000000,326.000000 
	C392.716248,332.333344 392.716248,338.666656 392.000000,345.000000 
"/>
<path fill="none" opacity="1.000000" stroke="#000000" stroke-linecap="round" stroke-linejoin="round" stroke-width="6.000000"
	d="
M319.500000,255.500000 
	C316.796570,259.199890 315.326508,263.858002 309.531830,264.715210 
	C306.775391,265.122955 307.179626,269.029358 306.500000,271.500000 
"/>
<path fill="none" opacity="1.000000" stroke="#000000" stroke-linecap="round" stroke-linejoin="round" stroke-width="6.000000"
	d="
M261.500000,162.500000 
	C268.499359,162.050705 273.199951,166.595901 273.032959,173.500793 
	C272.984741,175.495605 273.333344,177.500000 273.500000,179.500000 
"/>
<path fill="none" opacity="1.000000" stroke="#000000" stroke-linecap="round" stroke-linejoin="round" stroke-width="6.000000"
	d="
M424.000000,397.000000 
	C417.334869,397.228088 410.732025,398.005890 403.998047,397.978485 
	C397.507050,397.952057 390.839264,396.551788 384.543365,397.731415 
	C377.685760,399.016327 371.166656,397.375366 364.500000,397.500000 
"/>
<path fill="none" opacity="1.000000" stroke="#000000" stroke-linecap="round" stroke-linejoin="round" stroke-width="7.000000"
	d="
M254.000000,399.500000 
	C254.020889,405.504059 252.997040,411.537109 254.500000,417.500000 
"/>
<path fill="none" opacity="1.000000" stroke="#000000" stroke-linecap="round" stroke-linejoin="round" stroke-width="6.000000"
	d="
M298.000000,304.000000 
	C298.465759,299.371765 301.838104,297.009521 305.538940,295.602386 
	C311.501404,293.335297 317.275238,289.340668 323.976959,290.620636 
	C331.232147,292.006287 338.730133,293.366791 344.016907,299.485382 
	C345.168640,300.818298 346.096985,302.160614 346.000000,304.000000 
"/>
<path fill="none" opacity="1.000000" stroke="#000000" stroke-linecap="round" stroke-linejoin="round" stroke-width="6.000000"
	d="
M411.500000,399.500000 
	C411.500000,405.500000 411.500000,411.500000 411.500000,417.500000 
"/>
<path fill="none" opacity="1.000000" stroke="#000000" stroke-linecap="round" stroke-linejoin="round" stroke-width="7.000000"
	d="
M268.000000,399.500000 
	C268.000000,405.500000 268.000000,411.500000 268.000000,417.500000 
"/>
<path fill="none" opacity="1.000000" stroke="#000000" stroke-linecap="round" stroke-linejoin="round" stroke-width="7.000000"
	d="
M447.500000,328.500000 
	C445.944397,318.636963 438.752502,314.735077 429.536072,319.076599 
	C426.309845,320.596344 423.677521,324.137177 420.444092,324.641937 
	C417.833893,325.049408 414.236633,323.225128 411.569794,324.192413 
	C407.632935,325.620422 404.120514,323.564270 400.510071,324.071655 
	C393.974518,324.990173 387.500000,323.906769 381.000000,324.000000 
"/>
<path fill="none" opacity="1.000000" stroke="#000000" stroke-linecap="round" stroke-linejoin="round" stroke-width="6.000000"
	d="
M480.500000,405.500000 
	C480.500000,411.500000 480.500000,417.500000 480.500000,423.500000 
"/>
<path fill="none" opacity="1.000000" stroke="#000000" stroke-linecap="round" stroke-linejoin="round" stroke-width="8.000000"
	d="
M366.500000,353.500000 
	C372.649353,358.861969 371.994263,363.775085 364.500000,368.500000 
"/>
<path fill="none" opacity="1.000000" stroke="#000000" stroke-linecap="round" stroke-linejoin="round" stroke-width="6.000000"
	d="
M224.000000,208.000000 
	C223.026825,213.198959 227.273575,215.415527 230.000580,218.499481 
	C231.357269,220.033752 232.695206,221.372421 233.683182,223.411224 
	C236.493362,229.210251 240.663284,234.074020 247.000000,236.500000 
"/>
<path fill="none" opacity="1.000000" stroke="#000000" stroke-linecap="round" stroke-linejoin="round" stroke-width="6.000000"
	d="
M376.000000,400.000000 
	C375.260437,405.833344 375.774414,411.666656 376.000000,417.500000 
"/>
<path fill="none" opacity="1.000000" stroke="#000000" stroke-linecap="round" stroke-linejoin="round" stroke-width="7.000000"
	d="
M395.000000,400.000000 
	C395.000000,405.833344 395.000000,411.666656 395.000000,417.500000 
"/>
<path fill="none" opacity="1.000000" stroke="#000000" stroke-linecap="round" stroke-linejoin="round" stroke-width="6.000000"
	d="
M134.500000,268.500000 
	C141.387360,265.901031 147.251053,267.225128 152.008163,272.993256 
	C154.302551,275.775269 152.892792,279.682983 155.000000,282.500000 
"/>
<path fill="none" opacity="1.000000" stroke="#000000" stroke-linecap="round" stroke-linejoin="round" stroke-width="7.000000"
	d="
M312.500000,352.500000 
	C311.862915,341.689270 307.233704,338.974365 297.477753,343.451477 
	C294.217529,344.947601 290.806946,345.583099 287.455505,343.059082 
	C285.882111,341.874176 284.138214,341.974945 281.942963,342.858246 
	C275.303070,345.529877 275.202271,345.279358 275.000000,353.000000 
"/>
<path fill="none" opacity="1.000000" stroke="#000000" stroke-linecap="round" stroke-linejoin="round" stroke-width="6.000000"
	d="
M448.000000,357.250000 
	C454.862335,357.162903 459.951416,360.217010 463.500000,366.000000 
"/>
<path fill="none" opacity="1.000000" stroke="#000000" stroke-linecap="round" stroke-linejoin="round" stroke-width="7.000000"
	d="
M168.000000,456.000000 
	C170.040466,460.768707 168.544281,465.658600 168.523376,470.500092 
	C168.520493,471.166016 168.833344,471.833344 169.000015,472.500000 
"/>
<path fill="none" opacity="1.000000" stroke="#000000" stroke-linecap="round" stroke-linejoin="round" stroke-width="6.000000"
	d="
M168.500000,310.000000 
	C170.090607,312.678009 174.491592,313.182892 174.035706,317.503754 
	C173.528992,322.306335 172.814941,326.925232 168.500000,330.000000 
"/>
<path fill="none" opacity="1.000000" stroke="#000000" stroke-linecap="round" stroke-linejoin="round" stroke-width="6.000000"
	d="
M181.000000,431.500000 
	C180.946243,427.162323 180.863525,422.809967 180.784134,418.494781 
	C180.733444,415.739380 179.582535,415.246796 177.978622,414.832825 
	C176.239624,414.384033 174.329514,414.463013 172.500671,414.521118 
	C165.027512,414.758453 153.910889,425.027771 153.500000,432.000000 
"/>
<path fill="none" opacity="1.000000" stroke="#000000" stroke-linecap="round" stroke-linejoin="round" stroke-width="7.000000"
	d="
M227.500000,316.000000 
	C224.054626,314.686279 220.571793,314.759827 216.995041,315.475220 
	C210.188660,316.836517 208.583374,319.112427 209.500000,326.500000 
"/>
<path fill="none" opacity="1.000000" stroke="#000000" stroke-linecap="round" stroke-linejoin="round" stroke-width="7.000000"
	d="
M350.000000,222.500000 
	C349.760590,226.947540 348.471863,231.193298 347.218475,235.469254 
	C352.894379,239.406067 358.776855,239.895355 365.000000,238.000000 
"/>
<path fill="none" opacity="1.000000" stroke="#000000" stroke-linecap="round" stroke-linejoin="round" stroke-width="7.000000"
	d="
M270.000000,460.500000 
	C267.230286,457.871490 264.982788,454.772461 260.509155,454.392334 
	C255.298782,453.949554 254.000671,454.519806 254.031219,459.499817 
	C254.073120,466.333923 254.333344,473.166656 254.500000,480.000000 
"/>
<path fill="none" opacity="1.000000" stroke="#000000" stroke-linecap="round" stroke-linejoin="round" stroke-width="6.000000"
	d="
M406.000000,453.000000 
	C406.777374,458.333344 406.747528,463.666656 406.000000,469.000000 
"/>
<path fill="none" opacity="1.000000" stroke="#000000" stroke-linecap="round" stroke-linejoin="round" stroke-width="6.000000"
	d="
M320.000000,326.500000 
	C315.885590,331.543549 310.801270,335.778839 307.500000,341.500000 
"/>
<path fill="none" opacity="1.000000" stroke="#000000" stroke-linecap="round" stroke-linejoin="round" stroke-width="6.000000"
	d="
M487.500000,295.000000 
	C484.139923,295.065857 480.850525,292.916931 477.416901,295.904480 
	C473.075348,299.681915 471.716675,304.408112 472.705414,309.459808 
	C473.315216,312.575348 476.822327,314.141327 480.009094,314.964844 
	C481.455566,315.338654 483.000000,315.333344 484.500000,315.500000 
"/>
<path fill="none" opacity="1.000000" stroke="#000000" stroke-linecap="round" stroke-linejoin="round" stroke-width="6.000000"
	d="
M238.000000,453.000000 
	C237.304276,458.333344 237.346603,463.666656 238.000000,469.000000 
"/>
<path fill="none" opacity="1.000000" stroke="#000000" stroke-linecap="round" stroke-linejoin="round" stroke-width="6.000000"
	d="
M365.500000,222.500000 
	C365.500000,226.500000 365.629700,230.505753 365.452820,234.497910 
	C365.341583,237.008301 365.703827,239.109512 368.000000,240.500000 
"/>
<path fill="none" opacity="1.000000" stroke="#000000" stroke-linecap="round" stroke-linejoin="round" stroke-width="7.000000"
	d="
M402.000000,290.500000 
	C402.000000,287.166656 401.323456,283.646637 402.178253,280.549194 
	C403.156311,277.005096 400.668823,276.427277 398.976379,276.138489 
	C394.663788,275.402679 390.204651,277.145081 386.025940,276.735504 
	C381.799561,276.321198 377.663666,275.583954 373.510986,276.547302 
	C369.248779,277.536011 364.907043,276.683746 361.651184,274.746002 
	C358.067017,272.612823 354.965820,273.116852 351.500000,273.500000 
"/>
<path fill="none" opacity="1.000000" stroke="#000000" stroke-linecap="round" stroke-linejoin="round" stroke-width="7.000000"
	d="
M249.000000,222.000000 
	C243.985519,219.307877 238.795670,219.333694 233.500000,221.000000 
"/>
<path fill="none" opacity="1.000000" stroke="#000000" stroke-linecap="round" stroke-linejoin="round" stroke-width="6.000000"
	d="
M476.000000,456.000000 
	C474.741882,461.131470 475.781921,466.337036 475.500000,471.500000 
"/>
<path fill="none" opacity="1.000000" stroke="#000000" stroke-linecap="round" stroke-linejoin="round" stroke-width="7.000000"
	d="
M379.000000,468.000000 
	C383.666656,468.166656 388.334351,468.309784 392.999725,468.506714 
	C397.511200,468.697205 402.020355,468.943115 407.051392,469.190277 
	C406.687286,475.011597 406.343658,480.505798 406.000000,486.000000 
"/>
<path fill="none" opacity="1.000000" stroke="#000000" stroke-linecap="round" stroke-linejoin="round" stroke-width="6.000000"
	d="
M210.750000,317.500000 
	C207.786209,315.550476 204.522995,314.672638 201.001358,315.013977 
	C192.789841,315.809998 189.194214,322.596436 192.990005,330.005127 
	C193.397491,330.800476 193.666656,331.666656 194.000000,332.500000 
"/>
<path fill="none" opacity="1.000000" stroke="#000000" stroke-linecap="round" stroke-linejoin="round" stroke-width="7.000000"
	d="
M288.000000,278.000000 
	C285.231476,276.291718 282.323303,275.148682 279.001801,276.006927 
	C274.161499,277.257599 269.209900,275.144714 264.528412,276.134399 
	C257.166748,277.690643 249.797363,274.544403 242.460419,276.875397 
	C240.003433,277.655975 237.325790,275.553284 234.489456,275.918030 
	C232.461319,276.178833 230.407333,276.110687 228.500000,277.000000 
"/>
<path fill="none" opacity="1.000000" stroke="#000000" stroke-linecap="round" stroke-linejoin="round" stroke-width="7.000000"
	d="
M380.500000,222.500000 
	C379.455627,227.470749 380.243073,232.502548 380.000000,237.500000 
"/>
<path fill="none" opacity="1.000000" stroke="#000000" stroke-linecap="round" stroke-linejoin="round" stroke-width="6.000000"
	d="
M263.500000,218.500000 
	C263.500000,224.833328 263.500000,231.166672 263.500000,237.500000 
"/>
<path fill="none" opacity="1.000000" stroke="#000000" stroke-linecap="round" stroke-linejoin="round" stroke-width="6.000000"
	d="
M222.000000,421.000000 
	C217.363159,425.131653 212.199905,423.999054 207.000000,422.500000 
"/>
<path fill="none" opacity="1.000000" stroke="#000000" stroke-linecap="round" stroke-linejoin="round" stroke-width="7.000000"
	d="
M347.500000,286.000000 
	C350.685547,292.422424 355.668274,294.189880 362.537811,292.671082 
	C366.338562,291.830750 370.328674,289.661102 374.544281,291.917297 
	C375.580719,292.472015 377.166779,292.011108 378.499969,291.998047 
	C383.833374,291.945862 389.197357,291.906616 394.492188,291.744568 
	C401.024872,291.544678 407.500000,292.277191 414.000000,292.000000 
"/>
<path fill="none" opacity="1.000000" stroke="#000000" stroke-linecap="round" stroke-linejoin="round" stroke-width="6.000000"
	d="
M246.500000,350.500000 
	C246.500000,355.500000 246.500000,360.500000 246.500000,365.500000 
"/>
<path fill="none" opacity="1.000000" stroke="#000000" stroke-linecap="round" stroke-linejoin="round" stroke-width="6.000000"
	d="
M253.500000,468.500000 
	C248.162918,468.500000 242.825836,468.500000 236.623322,468.500000 
	C238.199448,474.647369 236.288559,480.047333 239.000000,485.000000 
"/>
<path fill="none" opacity="1.000000" stroke="#000000" stroke-linecap="round" stroke-linejoin="round" stroke-width="6.000000"
	d="
M235.500000,350.500000 
	C235.500000,355.500000 235.500000,360.500000 235.500000,365.500000 
"/>
<path fill="none" opacity="1.000000" stroke="#000000" stroke-linecap="round" stroke-linejoin="round" stroke-width="7.000000"
	d="
M375.000000,491.000000 
	C373.906525,494.233002 372.797455,497.405121 375.458588,500.535217 
	C376.405182,501.648590 375.978668,503.102234 375.544037,504.513550 
	C374.669434,507.353851 374.310181,510.330933 376.047363,512.968811 
	C377.066406,514.516235 377.218628,515.874817 376.509613,517.504150 
	C374.656982,521.761414 376.475525,526.178528 376.000000,530.500000 
"/>
<path fill="none" opacity="1.000000" stroke="#000000" stroke-linecap="round" stroke-linejoin="round" stroke-width="6.000000"
	d="
M447.500000,355.500000 
	C447.731232,357.064545 447.017914,357.802826 445.505371,357.475220 
	C443.648285,357.072968 441.925354,357.726044 440.538666,358.563965 
	C433.647064,362.728394 433.693146,365.809296 440.500000,372.000000 
"/>
<path fill="none" opacity="1.000000" stroke="#000000" stroke-linecap="round" stroke-linejoin="round" stroke-width="7.000000"
	d="
M416.000000,277.500000 
	C415.698608,282.168945 416.912262,286.984100 414.906158,291.457916 
	C414.549194,292.253998 414.927521,292.688019 415.059814,292.972137 
	C417.545593,298.310150 415.468689,302.045135 411.000000,305.000000 
"/>
<path fill="none" opacity="1.000000" stroke="#000000" stroke-linecap="round" stroke-linejoin="round" stroke-width="6.000000"
	d="
M222.500000,418.000000 
	C218.642334,414.109497 213.881439,413.596039 209.053543,415.164795 
	C207.543289,415.655487 206.606903,415.389771 205.512375,414.967896 
	C203.197754,414.075714 200.601318,413.994781 198.543335,414.638519 
	C192.694519,416.468048 186.686646,412.599701 181.000000,415.500000 
"/>
<path fill="none" opacity="1.000000" stroke="#000000" stroke-linecap="round" stroke-linejoin="round" stroke-width="6.000000"
	d="
M362.500000,276.000000 
	C359.647034,283.952179 358.461029,284.686371 352.000000,282.500000 
"/>
<path fill="none" opacity="1.000000" stroke="#000000" stroke-linecap="round" stroke-linejoin="round" stroke-width="6.000000"
	d="
M184.000000,197.500000 
	C185.169052,201.833328 184.129089,206.175415 183.931290,210.496857 
	C183.804413,213.268707 181.337753,214.850693 179.417557,216.397675 
	C178.437012,217.187576 177.900452,217.953690 177.500000,219.000000 
"/>
<path fill="none" opacity="1.000000" stroke="#000000" stroke-linecap="round" stroke-linejoin="round" stroke-width="7.000000"
	d="
M268.500000,468.000031 
	C263.833344,468.166687 259.166656,468.333374 254.500000,468.500031 
"/>
<path fill="none" opacity="1.000000" stroke="#000000" stroke-linecap="round" stroke-linejoin="round" stroke-width="6.000000"
	d="
M176.000000,376.500000 
	C176.550476,372.461090 178.483337,368.877167 181.601318,366.641296 
	C184.742126,364.389038 188.805161,365.229980 192.494507,366.025482 
	C194.110519,366.373932 195.666672,366.999969 197.250000,367.499969 
"/>
<path fill="none" opacity="1.000000" stroke="#000000" stroke-linecap="round" stroke-linejoin="round" stroke-width="5.000000"
	d="
M478.000000,362.999969 
	C476.333313,363.333313 474.676331,363.890106 472.998383,363.962799 
	C463.785309,364.362091 461.084290,367.194336 459.500000,378.500000 
"/>
<path fill="none" opacity="1.000000" stroke="#000000" stroke-linecap="round" stroke-linejoin="round" stroke-width="7.000000"
	d="
M363.500000,251.000000 
	C366.846252,240.851227 372.960693,237.286087 383.509857,238.936935 
	C387.114349,239.500992 390.833344,239.333344 394.500000,239.500000 
"/>
<path fill="none" opacity="1.000000" stroke="#000000" stroke-linecap="round" stroke-linejoin="round" stroke-width="6.000000"
	d="
M224.500000,349.000000 
	C224.091370,353.703522 225.320969,358.641083 222.500000,363.000000 
"/>
<path fill="none" opacity="1.000000" stroke="#000000" stroke-linecap="round" stroke-linejoin="round" stroke-width="7.000000"
	d="
M273.000000,140.500000 
	C273.677856,148.526642 273.904022,156.416718 266.500000,162.000000 
"/>
<path fill="none" opacity="1.000000" stroke="#000000" stroke-linecap="round" stroke-linejoin="round" stroke-width="6.000000"
	d="
M418.500000,421.000000 
	C418.126953,427.833344 420.505371,434.619659 418.608398,441.529755 
	C418.066986,443.502045 418.833313,445.833344 418.999969,448.000000 
"/>
<path fill="none" opacity="1.000000" stroke="#000000" stroke-linecap="round" stroke-linejoin="round" stroke-width="7.000000"
	d="
M374.500000,472.500000 
	C374.906830,474.224030 375.458435,475.734650 374.083649,477.562897 
	C372.122162,480.171387 372.840576,483.515808 373.107483,486.490356 
	C373.334412,489.019165 374.568054,490.870911 378.009552,490.646057 
	C380.795868,490.463959 383.666656,489.130035 386.500000,490.500000 
"/>
<path fill="none" opacity="1.000000" stroke="#000000" stroke-linecap="round" stroke-linejoin="round" stroke-width="6.000000"
	d="
M291.500000,222.500000 
	C291.433594,227.227356 291.237091,231.968643 293.000000,236.500000 
"/>
<path fill="none" opacity="1.000000" stroke="#000000" stroke-linecap="round" stroke-linejoin="round" stroke-width="8.000000"
	d="
M327.500000,279.000000 
	C330.512268,282.132935 334.330750,283.462860 338.483002,282.879120 
	C340.693298,282.568420 341.957306,283.931183 343.440735,284.626465 
	C346.614227,286.113708 349.378510,285.832825 350.871338,282.933746 
	C352.376587,280.010620 352.041443,276.456696 350.423065,273.542725 
	C348.803314,270.626282 346.459930,271.503418 343.951202,272.913147 
	C342.139801,273.931030 340.326508,273.856995 337.881287,272.766083 
	C333.890137,270.985443 329.824188,273.160431 326.500000,276.000000 
"/>
<path fill="none" opacity="1.000000" stroke="#000000" stroke-linecap="round" stroke-linejoin="round" stroke-width="7.000000"
	d="
M429.500000,270.500000 
	C428.833344,270.833313 428.175751,271.433899 427.498535,271.456970 
	C422.828156,271.616089 418.852081,273.114990 416.388794,277.164154 
	C411.455811,275.973175 406.903748,274.734253 402.500000,277.500000 
"/>
<path fill="none" opacity="1.000000" stroke="#000000" stroke-linecap="round" stroke-linejoin="round" stroke-width="6.000000"
	d="
M362.500000,377.500000 
	C358.290924,376.606384 354.084503,375.779419 350.000000,378.000000 
"/>
<path fill="none" opacity="1.000000" stroke="#000000" stroke-linecap="round" stroke-linejoin="round" stroke-width="6.000000"
	d="
M371.000000,278.000000 
	C369.861053,282.166656 371.075287,286.333344 371.000000,290.500000 
"/>
<path fill="none" opacity="1.000000" stroke="#000000" stroke-linecap="round" stroke-linejoin="round" stroke-width="6.000000"
	d="
M273.500000,277.500000 
	C273.500000,281.666656 273.500000,285.833344 273.500000,290.000000 
"/>
<path fill="none" opacity="1.000000" stroke="#000000" stroke-linecap="round" stroke-linejoin="round" stroke-width="6.000000"
	d="
M257.000000,278.000000 
	C257.747162,282.166656 257.647644,286.333344 257.000000,290.500000 
"/>
<path fill="none" opacity="1.000000" stroke="#000000" stroke-linecap="round" stroke-linejoin="round" stroke-width="6.000000"
	d="
M395.500000,222.000000 
	C391.059570,220.224686 386.521423,219.535065 382.027649,221.561325 
	C380.361084,222.312790 379.364075,221.603394 377.973663,221.068420 
	C375.083069,219.956207 371.886566,220.010956 369.040283,220.881668 
	C366.838501,221.555252 365.151337,221.656250 362.954773,220.877625 
	C361.003723,220.186035 358.524048,220.058929 356.527679,220.601807 
	C351.279114,222.029083 346.166931,220.447266 340.999939,220.491623 
	C334.427094,220.548065 334.000000,220.948807 334.000000,227.500000 
"/>
<path fill="none" opacity="1.000000" stroke="#000000" stroke-linecap="round" stroke-linejoin="round" stroke-width="7.000000"
	d="
M377.500031,457.000031 
	C378.333344,456.333344 379.077148,455.480286 380.014496,455.030121 
	C386.290009,452.016174 390.559845,454.578796 390.450470,461.499207 
	C390.352905,467.669586 389.833344,473.833344 389.500000,480.000000 
"/>
<path fill="none" opacity="1.000000" stroke="#000000" stroke-linecap="round" stroke-linejoin="round" stroke-width="7.000000"
	d="
M256.500000,490.000000 
	C259.000000,490.166656 261.511444,490.571228 263.997681,490.451538 
	C269.536499,490.184845 269.932831,490.513489 270.032837,495.999390 
	C270.077454,498.448303 269.585663,500.616089 268.000000,502.500000 
"/>
<path fill="none" opacity="1.000000" stroke="#000000" stroke-linecap="round" stroke-linejoin="round" stroke-width="5.000000"
	d="
M316.500000,425.000000 
	C320.500000,425.000000 324.500000,425.000000 328.500000,425.000000 
"/>
<path fill="none" opacity="1.000000" stroke="#000000" stroke-linecap="round" stroke-linejoin="round" stroke-width="5.000000"
	d="
M458.500000,250.500000 
	C452.320190,254.900253 451.851135,261.252808 452.472382,268.002533 
	C452.516602,268.483124 452.166656,269.000000 451.999969,269.500000 
"/>
<path fill="none" opacity="1.000000" stroke="#000000" stroke-linecap="round" stroke-linejoin="round" stroke-width="9.000000"
	d="
M316.500000,279.000000 
	C313.788361,281.887573 310.242615,282.708282 306.498993,282.986603 
	C305.338776,283.072845 303.714142,282.498138 303.070648,283.078369 
	C297.251953,288.325043 294.055542,283.546387 290.500000,280.000000 
"/>
<path fill="none" opacity="1.000000" stroke="#000000" stroke-linecap="round" stroke-linejoin="round" stroke-width="7.000000"
	d="
M296.500000,286.000000 
	C293.082306,292.744995 289.730865,293.460144 281.955139,292.300873 
	C278.045593,291.718018 273.926086,289.312958 269.387634,291.794464 
	C267.206390,292.987122 263.656158,292.603699 261.047516,291.838074 
	C258.172577,290.994293 255.664230,291.814972 253.000458,291.808563 
	C245.174118,291.789703 237.312607,292.640564 229.500000,291.500000 
"/>
<path fill="none" opacity="1.000000" stroke="#000000" stroke-linecap="round" stroke-linejoin="round" stroke-width="6.000000"
	d="
M182.500000,424.000000 
	C188.505020,424.014099 194.411560,422.799225 200.513123,423.356323 
	C207.361359,423.981506 207.500000,423.405334 207.500000,416.500000 
"/>
<path fill="none" opacity="1.000000" stroke="#000000" stroke-linecap="round" stroke-linejoin="round" stroke-width="7.000000"
	d="
M410.500000,221.000000 
	C405.514679,219.129288 400.708099,219.850891 396.000000,222.000000 
"/>
<path fill="none" opacity="1.000000" stroke="#000000" stroke-linecap="round" stroke-linejoin="round" stroke-width="5.000000"
	d="
M310.500000,410.500000 
	C310.666687,414.166656 310.833344,417.833344 311.000000,421.500000 
"/>
<path fill="none" opacity="1.000000" stroke="#000000" stroke-linecap="round" stroke-linejoin="round" stroke-width="6.000000"
	d="
M195.500000,218.500000 
	C188.437332,218.953354 184.500000,223.248627 184.500000,230.500000 
	C184.500000,232.500000 184.500000,234.500000 184.500000,236.500000 
"/>
<path fill="none" opacity="1.000000" stroke="#000000" stroke-linecap="round" stroke-linejoin="round" stroke-width="6.000000"
	d="
M434.500000,365.500000 
	C429.969971,366.550873 425.193268,366.650177 421.000000,369.000000 
"/>
<path fill="none" opacity="1.000000" stroke="#000000" stroke-linecap="round" stroke-linejoin="round" stroke-width="8.000000"
	d="
M304.000000,282.500000 
	C304.110962,279.108307 301.400146,274.535461 305.608521,272.756714 
	C308.958984,271.340576 313.151794,272.780182 316.493073,275.010406 
	C316.877594,275.267059 317.166656,275.666656 317.500000,276.000000 
"/>
<path fill="none" opacity="1.000000" stroke="#000000" stroke-linecap="round" stroke-linejoin="round" stroke-width="6.000000"
	d="
M519.000000,346.500000 
	C512.398865,347.964111 508.129303,351.876099 506.540985,358.509827 
	C506.399048,359.102570 506.833313,359.833344 507.000000,360.500000 
"/>
<path fill="none" opacity="1.000000" stroke="#000000" stroke-linecap="round" stroke-linejoin="round" stroke-width="6.000000"
	d="
M369.500000,457.500000 
	C375.632812,455.639038 377.191925,456.084503 378.249969,460.000000 
	C379.819824,465.809448 377.902618,470.552155 373.500000,471.750000 
"/>
<path fill="none" opacity="1.000000" stroke="#000000" stroke-linecap="round" stroke-linejoin="round" stroke-width="5.000000"
	d="
M333.500000,412.000000 
	C332.517975,415.123749 333.086273,418.329102 333.000000,421.500000 
"/>
<path fill="none" opacity="1.000000" stroke="#000000" stroke-linecap="round" stroke-linejoin="round" stroke-width="7.000000"
	d="
M296.500000,254.500000 
	C294.493805,260.000000 296.125916,265.500000 296.500000,271.000000 
"/>
<path fill="none" opacity="1.000000" stroke="#000000" stroke-linecap="round" stroke-linejoin="round" stroke-width="7.000000"
	d="
M347.500000,254.500000 
	C349.441986,260.000000 348.076294,265.500000 347.500000,271.000000 
"/>
<path fill="none" opacity="1.000000" stroke="#000000" stroke-linecap="round" stroke-linejoin="round" stroke-width="5.000000"
	d="
M172.500000,219.500000 
	C175.518250,218.223221 177.947510,219.029785 180.016190,221.486374 
	C181.251846,222.953720 182.674728,224.251541 184.500000,225.000000 
"/>
<path fill="none" opacity="1.000000" stroke="#000000" stroke-linecap="round" stroke-linejoin="round" stroke-width="5.000000"
	d="
M273.500031,154.999985 
	C275.594330,157.078812 277.688629,159.157639 279.710327,161.164429 
	C278.311829,164.212570 275.936584,165.920715 274.000000,168.000000 
"/>
<path fill="none" opacity="1.000000" stroke="#000000" stroke-linecap="round" stroke-linejoin="round" stroke-width="3.000000"
	d="
M396.000000,132.000000 
	C393.090210,132.700592 392.211548,136.041672 389.500000,137.000000 
"/>
<path fill="none" opacity="1.000000" stroke="#000000" stroke-linecap="round" stroke-linejoin="round" stroke-width="3.000000"
	d="
M494.500000,197.000000 
	C492.500000,198.666656 490.500000,200.333328 488.500000,202.000000 
"/>
<path fill="none" opacity="1.000000" stroke="#000000" stroke-linecap="round" stroke-linejoin="round" stroke-width="5.000000"
	d="
M453.000000,244.000000 
	C456.030731,246.924698 458.282715,251.107391 463.500000,250.500000 
"/>
<path fill="none" opacity="1.000000" stroke="#000000" stroke-linecap="round" stroke-linejoin="round" stroke-width="4.000000"
	d="
M194.500000,285.000000 
	C197.152756,288.495636 201.137970,290.728943 203.500000,294.500000 
"/>
<path fill="none" opacity="1.000000" stroke="#000000" stroke-linecap="round" stroke-linejoin="round" stroke-width="4.000000"
	d="
M401.000000,126.500000 
	C399.240814,127.898445 397.481598,129.296890 395.427612,130.929657 
	C397.348541,132.660477 398.924286,134.080246 400.500000,135.500015 
"/>
<path fill="none" opacity="1.000000" stroke="#000000" stroke-linecap="round" stroke-linejoin="round" stroke-width="5.000000"
	d="
M364.000000,147.500000 
	C359.507568,149.321976 356.748596,152.468369 357.049133,157.497070 
	C357.265442,161.117172 358.795807,163.962128 362.473114,165.561829 
	C366.310760,167.231323 369.740479,167.076355 372.990540,164.488129 
	C375.686066,162.341537 377.844757,156.528549 376.417450,154.047485 
	C374.479462,150.678680 372.304199,147.180908 367.499390,147.490692 
	C366.503540,147.554901 365.500000,147.500000 364.500000,147.500000 
"/>
</svg>