<svg version="1.1" id="Layer_1" xmlns="http://www.w3.org/2000/svg" xmlns:xlink="http://www.w3.org/1999/xlink" x="0px" y="0px"
	 width="100%" viewBox="0 0 736 736" enable-background="new 0 0 736 736" xml:space="preserve">
<path fill="#FEFEFE" opacity="1.000000" stroke="none" 
	d="
M403.000000,737.000000 
	C268.666656,737.000000 134.833328,737.000000 1.000000,737.000000 
	C1.000000,491.666656 1.000000,246.333328 1.000000,1.000000 
	C246.333328,1.000000 491.666656,1.000000 737.000000,1.000000 
	C737.000000,246.333328 737.000000,491.666656 737.000000,737.000000 
	C625.833313,737.000000 514.666687,737.000000 403.000000,737.000000 
M688.146240,727.076050 
	C688.056335,721.385803 687.966431,715.695496 688.013977,709.364136 
	C687.951355,708.934265 687.888672,708.504395 687.994446,707.488831 
	C687.693726,707.232849 687.393066,706.976807 686.401611,706.241089 
	C679.319641,706.070740 672.231812,705.661438 665.158264,705.834778 
	C661.809204,705.916809 661.306396,708.253723 662.839172,711.770569 
	C662.813110,712.838867 662.786987,713.907104 662.336792,715.596863 
	C662.477844,718.071228 662.618958,720.545654 662.793335,723.768188 
	C662.787354,724.517273 662.781433,725.266418 662.147827,726.045959 
	C661.730530,726.081909 661.313171,726.117920 660.474548,725.426086 
	C660.241516,720.258850 660.008484,715.091614 659.775452,709.924438 
	C659.266663,709.927246 658.757812,709.930054 658.248962,709.932922 
	C657.665955,712.512512 657.082886,715.092102 656.499878,717.671692 
	C656.033691,717.749939 655.567444,717.828186 655.101257,717.906433 
	C654.307739,715.039551 653.514160,712.172668 652.720642,709.305847 
	C652.210327,709.435852 651.700012,709.565918 651.189758,709.695984 
	C651.058594,715.822388 649.540955,722.034302 652.538574,728.023865 
	C653.604492,726.152100 653.627136,724.244019 654.044373,722.426514 
	C654.248474,721.537170 655.186401,720.816223 655.792175,720.019104 
	C656.424683,720.841064 657.332275,721.580688 657.610107,722.508789 
	C657.872681,723.386169 657.380188,724.461731 657.382751,725.449707 
	C657.391357,728.707092 658.681946,728.978149 661.412964,727.151062 
	C661.846802,727.776917 662.280579,728.402771 662.819946,729.654114 
	C663.258362,729.968567 663.696777,730.283020 664.754700,730.784607 
	C665.182495,730.755615 665.610352,730.726624 666.789856,730.976013 
	C667.840454,730.884155 668.891052,730.792297 670.823364,730.834778 
	C672.901123,730.798218 674.978943,730.761658 677.666870,730.979370 
	C678.091064,730.896484 678.515198,730.813599 679.800415,730.877869 
	C681.543945,730.832764 683.287476,730.787720 685.762268,730.993286 
	C686.504578,729.995972 687.246826,728.998718 688.146240,727.076050 
M716.666870,711.392822 
	C714.654907,710.789917 712.340088,709.304688 710.725464,709.859009 
	C709.395752,710.315491 708.454712,713.117310 708.144348,715.011292 
	C707.785645,717.200195 708.588074,719.560425 708.371826,721.796509 
	C708.122192,724.377502 707.504944,727.018250 710.677490,728.011414 
	C713.502563,728.895691 715.957031,728.129944 717.635071,725.030273 
	C717.980164,725.030945 718.325317,725.031616 718.797241,725.788940 
	C719.185364,726.522705 719.573425,727.256409 720.404724,728.828186 
	C721.044739,726.362915 721.428955,724.882690 721.569885,724.339722 
	C724.073547,723.572205 725.873657,723.020325 727.603455,722.489990 
	C727.960144,724.122498 728.393738,726.107117 728.827332,728.091736 
	C729.162598,728.018555 729.497864,727.945312 729.833130,727.872131 
	C729.833130,721.647583 729.833130,715.423035 729.833130,709.198486 
	C729.304626,709.105652 728.776123,709.012817 728.247681,708.919983 
	C727.079529,711.685791 725.911377,714.451660 724.277405,718.320557 
	C723.383423,715.283264 722.974426,713.349976 722.240723,711.549072 
	C721.461121,709.635559 720.355042,707.975525 718.266174,711.225037 
	C717.865784,711.478638 717.465393,711.732239 716.666870,711.392822 
M409.895508,651.552490 
	C411.002350,649.936096 412.109192,648.319702 413.429504,646.391541 
	C415.415619,647.672058 417.251343,648.531738 418.673187,649.840942 
	C421.483429,652.428650 423.860596,655.520630 426.827972,657.889038 
	C428.275574,659.044373 430.861176,659.772705 432.518738,659.286621 
	C433.491058,659.001404 434.032013,655.960693 434.091156,654.137634 
	C434.187958,651.154053 433.733765,648.152527 433.511963,645.158569 
	C433.989410,644.959412 434.466827,644.760254 434.944244,644.561096 
	C437.146088,646.207886 439.356567,647.843262 441.547607,649.504150 
	C444.488251,651.733398 447.608124,653.096008 451.265350,651.332703 
	C454.880554,649.589722 455.981201,646.387207 456.030670,642.664185 
	C456.067719,639.875061 456.037964,637.085022 456.037964,632.525391 
	C460.024750,635.183472 463.230255,636.800537 465.775543,639.136841 
	C469.814606,642.844238 473.015259,647.549500 477.320831,650.855652 
	C480.863892,653.576355 485.326965,655.659668 489.690033,656.604797 
	C494.753967,657.701843 497.781769,654.047424 497.313629,648.873535 
	C497.219025,647.828003 497.112335,646.783508 496.999023,645.612915 
	C506.294128,648.225281 510.706757,645.205750 511.965454,635.813171 
	C512.361450,632.858582 512.603638,629.800110 513.585938,627.026367 
	C515.153442,622.599854 517.293396,621.863647 521.160034,624.481018 
	C524.586975,626.800659 527.543945,629.802612 530.824707,632.353821 
	C533.959656,634.791626 536.988586,637.572754 540.515869,639.256775 
	C548.322693,642.984253 554.522705,639.597534 555.875305,631.093933 
	C556.525757,627.004517 556.548462,622.808716 556.742432,618.655762 
	C556.860840,616.120361 556.764343,613.574829 556.764343,611.033875 
	C557.329529,610.915100 557.894714,610.796265 558.459900,610.677490 
	C559.419678,612.582764 560.386841,614.484314 561.337708,616.394043 
	C564.001770,621.744324 566.383179,627.261353 569.420532,632.390198 
	C571.295227,635.555908 574.911133,637.601318 578.418945,635.905945 
	C580.693604,634.806519 582.835754,631.850159 583.489990,629.324951 
	C584.688354,624.699585 584.928833,619.789429 585.233398,614.976807 
	C585.859741,605.080872 586.264893,595.170959 586.761047,585.266785 
	C587.185791,585.032043 587.610474,584.797241 588.035217,584.562500 
	C588.574402,585.359070 588.953369,586.619690 589.680908,586.870911 
	C592.633789,587.890686 596.241150,589.968811 598.560547,589.040833 
	C600.891235,588.108215 602.804810,584.237976 603.398010,581.346680 
	C604.110474,577.874573 603.085144,574.075684 603.102722,570.419678 
	C603.112915,568.298462 603.693665,566.179993 604.017639,564.060242 
	C604.522461,563.974243 605.027222,563.888245 605.531982,563.802246 
	C607.730469,566.640869 610.008240,569.422302 612.108276,572.332031 
	C615.028870,576.378784 617.648560,580.655823 620.760498,584.543335 
	C621.719543,585.741516 624.226074,586.898743 625.377930,586.442688 
	C626.827454,585.868774 628.407654,583.682312 628.533264,582.081848 
	C628.869324,577.799988 628.672974,573.440674 628.295471,569.146606 
	C627.708618,562.471191 626.796875,555.824280 626.022827,549.165283 
	C626.451111,549.058777 626.879395,548.952271 627.307617,548.845764 
	C628.029419,550.394226 628.707642,551.964905 629.481506,553.486877 
	C631.513550,557.483215 633.250122,561.693787 635.794250,565.337280 
	C636.971802,567.023560 639.756165,567.587891 641.812073,568.660828 
	C642.798340,566.424255 644.775085,564.101746 644.589722,561.966919 
	C643.972107,554.852600 642.774109,547.768555 641.436340,540.741821 
	C639.508057,530.613037 637.629578,520.517334 639.070435,509.051422 
	C643.389038,511.255585 647.314087,512.951050 650.918030,515.168335 
	C656.729248,518.743652 662.218201,522.849976 668.086121,526.321472 
	C669.813171,527.343201 672.973267,527.911926 674.364441,526.997009 
	C675.858704,526.014282 677.052673,522.785461 676.596497,520.989075 
	C675.561279,516.912598 673.983215,512.733276 671.608582,509.299103 
	C668.700439,505.093292 664.666077,501.681458 661.287903,497.779785 
	C659.230408,495.403442 657.156860,492.929413 655.691345,490.179077 
	C653.657471,486.361969 655.019226,484.308868 659.271301,484.738098 
	C662.717773,485.085999 666.062622,486.519196 669.505981,486.789124 
	C671.317444,486.931152 674.147522,486.109192 674.861572,484.811340 
	C675.564392,483.533936 674.621338,480.803497 673.582642,479.261536 
	C672.426636,477.545502 670.353394,476.443939 668.668701,475.088226 
	C664.783203,471.961578 660.784729,468.962189 657.070557,465.644165 
	C656.037720,464.721497 655.025269,462.490662 655.465881,461.532318 
	C656.005920,460.357727 658.152100,459.132416 659.481201,459.255341 
	C663.737488,459.649109 668.106384,460.162323 672.119324,461.539886 
	C678.242615,463.641846 684.016418,466.759552 690.135132,468.878571 
	C691.822327,469.462830 694.894348,468.639252 696.050293,467.330536 
	C696.943176,466.319672 696.481567,463.101776 695.485596,461.638641 
	C693.253967,458.360077 690.357361,455.523895 687.653625,452.579132 
	C682.139832,446.573853 676.359436,440.796204 671.127808,434.556763 
	C668.771118,431.745972 665.849121,427.537415 669.323425,424.450256 
	C670.838196,423.104279 675.723022,424.809235 678.690796,426.051971 
	C681.573364,427.259094 684.144287,428.445496 686.172729,425.457245 
	C688.418945,422.148254 686.153625,420.126068 683.558533,418.078644 
	C680.112732,415.360138 677.007690,412.209625 673.756287,409.244720 
	C673.932739,408.757233 674.109192,408.269745 674.285645,407.782257 
	C677.637268,407.210114 681.096619,406.973999 684.301941,405.946045 
	C686.390991,405.276062 688.110901,403.455048 689.996155,402.149628 
	C688.530151,400.452240 687.325867,398.376587 685.540283,397.140991 
	C682.415588,394.978760 678.587646,393.746277 675.710876,391.339478 
	C673.388245,389.396271 672.032349,386.297394 670.247620,383.711182 
	C673.393250,383.399384 676.637146,382.445618 679.664124,382.908813 
	C686.054565,383.886749 692.282104,385.987915 698.681580,386.817841 
	C700.982666,387.116211 703.585632,385.086548 706.050842,384.119354 
	C705.064331,381.665283 704.746277,378.460297 702.977112,376.885406 
	C694.737732,369.550812 685.729065,363.283539 675.123169,359.669464 
	C674.000671,359.286926 672.186890,358.253845 672.238403,357.655701 
	C672.350159,356.360046 673.155212,354.627075 674.221680,354.000061 
	C678.079773,351.731903 682.248230,349.995819 686.134766,347.770996 
	C689.262817,345.980377 692.639099,344.228638 695.045471,341.655579 
	C699.853271,336.514740 698.873840,332.212585 692.624207,328.857361 
	C687.049255,325.864349 681.264587,323.249542 675.779480,320.106506 
	C673.008301,318.518585 670.695374,316.130920 667.341431,313.434570 
	C671.996765,311.864624 675.623840,311.083710 678.786072,309.419373 
	C680.892273,308.310852 683.712402,305.948914 683.721252,304.135895 
	C683.731812,301.946320 681.577576,298.970886 679.519043,297.719971 
	C676.025818,295.597260 671.890015,294.514954 667.994263,293.076569 
	C664.172913,291.665588 660.314209,290.355804 655.304382,288.590149 
	C657.858032,286.863739 659.318298,285.883698 660.771179,284.892792 
	C664.765076,282.168945 669.642334,279.681824 668.105469,273.727386 
	C666.614685,267.951447 661.214050,268.369415 656.635193,267.823364 
	C650.093872,267.043335 643.553772,266.253479 636.655884,265.424866 
	C638.835754,259.399231 636.626770,255.505920 632.368652,253.715744 
	C628.446838,252.066956 623.851379,252.020462 619.553040,251.268234 
	C623.970154,246.042130 628.702637,240.928085 632.859131,235.382355 
	C636.665405,230.303833 635.249939,226.346832 628.986877,225.270020 
	C623.143066,224.265305 617.082092,224.542053 611.119812,224.200912 
	C607.436401,223.990158 603.758728,223.678787 598.887024,223.326416 
	C602.774414,218.780228 605.852234,215.549149 608.494385,211.994247 
	C611.554749,207.876602 610.355408,204.585037 605.359131,203.593109 
	C599.486084,202.427094 593.504578,201.817200 587.584290,200.876831 
	C583.455933,200.221115 579.351562,199.415192 574.308350,198.509720 
	C578.794495,194.654816 582.537231,191.841507 585.733093,188.504471 
	C587.111816,187.064926 588.384033,184.181610 587.832275,182.612656 
	C587.281250,181.045929 584.485962,179.602402 582.505676,179.329330 
	C576.575439,178.511566 570.548279,178.428192 564.586243,177.799622 
	C559.247498,177.236725 553.944885,176.330750 547.661865,175.439316 
	C550.514832,170.414230 552.644775,166.484665 554.951965,162.662079 
	C556.465637,160.154236 558.133972,157.689163 555.760132,154.944824 
	C553.346985,152.155060 550.695740,153.486282 548.096130,154.853424 
	C545.152954,156.401199 542.226501,158.004776 539.181702,159.328491 
	C536.325928,160.570007 533.325073,161.477829 530.388000,162.532486 
	C533.129822,156.885117 536.753113,152.525848 539.685608,147.743042 
	C540.875427,145.802505 541.692200,141.738983 540.668762,140.774719 
	C539.088989,139.286316 535.497253,138.700195 533.262207,139.381836 
	C527.557434,141.121643 522.159973,143.847977 516.581665,146.031754 
	C513.473877,147.248398 510.250366,148.169510 506.324493,149.474655 
	C506.987488,147.584381 507.156525,146.748993 507.549957,146.037766 
	C510.126556,141.380035 512.946411,136.842773 515.247803,132.055145 
	C515.983704,130.524200 516.109863,127.781143 515.200806,126.635269 
	C514.279907,125.474533 511.571838,124.926712 509.934448,125.317329 
	C507.076141,125.999222 504.410156,127.547081 501.715698,128.840546 
	C498.331055,130.465317 494.998871,132.199249 491.644073,133.886093 
	C491.218750,133.571472 490.793457,133.256866 490.368164,132.942261 
	C491.340118,129.705490 492.081207,126.375465 493.341766,123.255295 
	C494.959045,119.252075 497.313110,115.525803 498.692657,111.457390 
	C499.248535,109.818138 498.649872,106.492867 497.529297,105.893753 
	C495.983521,105.067253 493.303650,105.721001 491.380524,106.452820 
	C489.956299,106.994812 489.053650,108.782936 487.763367,109.823296 
	C482.554474,114.023163 477.285339,118.148308 472.038483,122.301048 
	C471.606842,121.973427 471.175201,121.645798 470.743561,121.318176 
	C470.743561,118.716858 470.644348,116.111023 470.762421,113.515068 
	C471.095459,106.192467 471.680389,98.877319 471.833069,91.552299 
	C471.904327,88.132515 473.435425,83.583221 468.497711,82.201172 
	C463.543701,80.814575 462.706726,85.604530 460.786163,88.459076 
	C456.123383,95.389221 451.577209,102.397827 446.984070,109.374825 
	C446.514374,109.168121 446.044708,108.961418 445.575043,108.754715 
	C445.710205,106.168465 445.848938,103.582390 445.979767,100.995911 
	C446.265686,95.345276 446.614960,89.696693 446.804993,84.042793 
	C446.912811,80.834831 446.108582,77.796425 442.438812,77.168480 
	C438.689545,76.526939 437.377228,79.430229 436.088562,82.301331 
	C432.411591,90.493492 428.784424,98.717361 424.764191,106.741676 
	C423.054810,110.153587 420.415375,113.099541 417.442413,117.334412 
	C415.971344,112.629677 414.754364,109.520164 414.037628,106.299324 
	C411.833588,96.395088 409.919037,86.426003 407.675385,76.531235 
	C406.984192,73.483002 405.976807,69.912109 401.797150,70.295830 
	C397.541229,70.686577 397.636017,74.516724 397.226868,77.565208 
	C396.580261,82.383423 396.193695,87.236549 395.697083,92.074898 
	C394.462952,91.300529 394.216583,90.421501 393.835449,89.605392 
	C391.112640,83.774605 388.659912,77.783211 385.431732,72.244827 
	C384.514496,70.671150 380.897827,69.302666 379.280273,69.900299 
	C377.742889,70.468300 376.486664,73.689163 376.364441,75.815849 
	C376.078857,80.785248 376.815735,85.808113 376.627777,90.790062 
	C376.473083,94.891388 375.584137,98.965012 375.020569,103.050911 
	C374.497894,103.040871 373.975220,103.030830 373.452515,103.020790 
	C372.568695,100.916626 371.401367,98.883652 370.851959,96.695518 
	C368.867554,88.791893 367.237396,80.796715 365.122009,72.930611 
	C364.655884,71.197311 362.747589,69.851837 361.503387,68.327774 
	C359.919495,69.731377 357.743622,70.848892 356.893860,72.607277 
	C355.692291,75.093521 355.620544,78.098732 354.800690,80.801666 
	C352.537659,88.262466 350.788483,95.974136 347.615753,103.038498 
	C344.121277,110.819168 338.447601,111.920082 331.926971,106.468369 
	C326.979919,102.332260 322.933319,97.136398 318.304413,92.597351 
	C314.164124,88.537483 309.988617,84.448959 305.380829,80.965469 
	C303.766815,79.745270 300.820038,80.287933 298.481873,80.025589 
	C298.316223,82.500343 297.582336,85.100395 298.095001,87.425583 
	C299.452209,93.580963 301.348785,99.617416 303.030731,105.701202 
	C302.606781,105.916389 302.182831,106.131584 301.758881,106.346771 
	C297.334412,100.989006 292.891693,95.646172 288.490204,90.269585 
	C283.283752,83.909721 277.826233,77.798676 269.865997,74.865044 
	C268.068542,74.202629 265.435394,73.987930 263.980164,74.872345 
	C263.047699,75.439034 263.045746,78.548439 263.538086,80.255066 
	C264.918457,85.039993 266.821320,89.671684 268.422760,94.396141 
	C269.707794,98.187271 270.853546,102.025620 272.061096,105.843018 
	C268.070129,104.735123 265.014679,103.084709 262.108124,101.204247 
	C258.473907,98.853012 255.078690,96.110107 251.338654,93.955795 
	C249.889832,93.121246 247.780121,93.434013 245.971481,93.224113 
	C245.995071,95.187111 245.433380,97.412216 246.169571,99.056099 
	C247.515732,102.062065 249.691040,104.687286 251.405975,107.540146 
	C253.204102,110.531372 255.009567,113.533493 256.550964,116.659492 
	C258.159729,119.922157 257.101959,122.702744 253.381668,122.543701 
	C248.901474,122.352173 244.051910,121.863091 240.126404,119.941658 
	C235.433868,117.644814 231.676697,113.503593 227.238480,110.580093 
	C225.904404,109.701324 223.012543,109.460838 221.994934,110.313354 
	C220.975067,111.167747 220.738098,114.015846 221.334625,115.525024 
	C222.670395,118.904503 224.862686,121.933731 226.468506,125.221680 
	C227.879364,128.110504 228.966751,131.157318 230.197021,134.134354 
	C229.844330,134.621643 229.491653,135.108917 229.138962,135.596207 
	C225.594452,134.579987 221.775742,134.095505 218.561844,132.438171 
	C211.621048,128.858948 205.087097,124.492973 198.161850,120.879807 
	C196.535965,120.031517 194.016907,120.895210 191.908752,120.971298 
	C192.160141,123.068298 191.684448,125.726189 192.792404,127.162430 
	C196.954514,132.557892 201.734955,137.471115 206.069916,142.740921 
	C207.891632,144.955460 209.180542,147.608322 211.567688,151.433746 
	C207.796646,151.433746 205.424164,151.929504 203.361649,151.340302 
	C197.305939,149.610306 191.345505,147.528458 185.400070,145.435699 
	C178.819016,143.119186 172.377045,140.359543 165.694122,138.411804 
	C163.872223,137.880798 161.401169,139.577133 159.228027,140.251266 
	C160.314911,142.225586 160.929657,144.823929 162.570831,146.065613 
	C169.470871,151.285950 176.810043,155.925659 183.713226,161.142120 
	C186.900009,163.550262 189.454361,166.795303 193.151245,170.524033 
	C189.536606,171.230118 187.481796,171.763397 185.393036,172.015442 
	C178.405731,172.858658 171.941254,171.010345 165.472015,168.486130 
	C158.994781,165.958786 152.316162,163.877182 145.600769,162.063126 
	C142.662903,161.269485 138.411362,160.679123 137.540451,164.578003 
	C137.071838,166.675934 139.164322,170.202164 141.136520,171.828369 
	C147.030899,176.688675 153.569397,180.759689 159.585587,185.483780 
	C162.588715,187.841919 165.001587,190.951767 168.750046,194.826080 
	C164.190689,196.242188 161.224533,198.025818 158.342499,197.898895 
	C149.243011,197.498169 140.115891,196.778198 131.110901,195.434769 
	C121.386681,193.984024 111.755798,191.556427 101.897545,193.696884 
	C98.241943,194.490601 92.765503,193.830261 92.337456,199.045654 
	C91.932671,203.977783 97.379158,203.994812 100.595535,205.590286 
	C108.326233,209.425003 116.283295,212.817596 123.903709,216.851944 
	C126.255096,218.096802 127.814644,220.837311 130.646530,223.865997 
	C126.867653,224.345886 124.744942,224.924454 122.656555,224.819595 
	C117.507126,224.561020 112.363365,223.525131 107.235474,223.636581 
	C95.616203,223.889053 83.999573,224.528061 72.406227,225.352539 
	C71.050842,225.448929 69.848534,227.697830 68.575264,228.948853 
	C70.057320,229.933716 71.459473,231.090683 73.054871,231.831436 
	C73.862625,232.206482 75.019325,231.802063 76.018509,231.796921 
	C88.195702,231.734222 100.401833,231.720856 112.063522,235.845505 
	C114.903442,236.849976 117.312012,239.074020 119.918907,240.737305 
	C119.762108,241.356781 119.605309,241.976257 119.448509,242.595718 
	C117.005638,243.398346 114.613396,244.625900 112.110420,244.924133 
	C104.511696,245.829483 96.836189,246.123245 89.256386,247.143906 
	C83.539810,247.913681 77.826851,249.116638 72.320297,250.805191 
	C70.548347,251.348541 69.439034,254.052826 68.026566,255.768524 
	C70.172699,256.427582 72.353783,257.741211 74.458725,257.628815 
	C82.261192,257.212219 90.029655,256.183838 97.830269,255.693680 
	C100.495705,255.526199 103.218170,256.266357 105.914581,256.591827 
	C104.745728,258.655853 103.481712,259.668854 102.065292,260.377045 
	C94.771194,264.024078 87.245232,267.255798 80.179947,271.296478 
	C74.606384,274.484070 69.442345,278.458801 64.425766,282.493439 
	C63.330162,283.374603 63.633755,285.995483 63.292965,287.815155 
	C65.082344,287.954620 67.078094,288.676331 68.623848,288.128448 
	C74.058228,286.202209 79.382141,285.553558 85.585068,287.708832 
	C77.553993,293.798340 69.771912,299.170441 62.627182,305.286987 
	C57.103111,310.016113 52.223511,315.542542 47.407661,321.022339 
	C46.240002,322.351044 45.513401,325.494385 46.291695,326.709473 
	C47.088482,327.953400 50.038055,328.424774 51.945755,328.234741 
	C57.232162,327.708191 62.446339,326.485229 67.727959,325.873138 
	C72.299080,325.343475 77.811905,324.099518 80.614822,328.613617 
	C83.769745,333.694641 79.902237,338.254913 76.706482,342.025116 
	C69.817039,350.153015 62.429474,357.858093 55.520126,365.969910 
	C51.326115,370.893799 47.485722,376.146057 43.844776,381.494690 
	C42.936092,382.829559 43.412720,385.107422 43.252625,386.951874 
	C45.075241,387.006805 46.955841,387.363342 48.703300,387.027374 
	C50.281170,386.723938 51.684551,385.594635 53.215469,384.949615 
	C57.393482,383.189240 61.598206,381.492249 65.792358,379.770172 
	C66.287148,380.335480 66.781929,380.900787 67.276711,381.466064 
	C64.550400,385.438660 61.928852,389.488373 59.073772,393.366150 
	C54.538692,399.525665 49.551693,405.378662 45.404182,411.781281 
	C44.169968,413.686554 44.062271,417.846313 45.344448,419.425262 
	C46.610329,420.984131 50.363579,421.199219 52.887821,420.887573 
	C55.982079,420.505554 58.933182,418.964111 61.946178,417.923920 
	C62.316704,418.314178 62.687233,418.704407 63.057758,419.094666 
	C59.832359,424.254395 56.641602,429.436188 53.372112,434.567841 
	C49.893101,440.028351 46.193600,445.356049 42.929661,450.940033 
	C42.190350,452.204803 42.190105,455.159668 43.021576,455.789490 
	C44.267185,456.733032 46.777935,456.919678 48.342560,456.335449 
	C51.427769,455.183350 54.190964,453.197357 57.164612,451.710815 
	C60.783051,449.901917 64.481155,448.252350 69.647049,445.829163 
	C69.055199,451.267975 69.320564,455.233063 68.106087,458.676208 
	C65.458916,466.181213 62.025402,473.406799 58.980888,480.774567 
	C57.657078,483.978210 55.930855,487.173523 55.476784,490.520416 
	C55.196354,492.587433 56.382736,495.873413 57.992165,496.876038 
	C59.458195,497.789307 62.888969,497.056824 64.572121,495.835114 
	C69.952362,491.929993 74.843445,487.358856 80.089218,483.256897 
	C82.316467,481.515320 84.955757,480.300690 87.902557,478.553192 
	C89.127136,486.641754 85.974739,492.634613 83.340134,498.679016 
	C79.952110,506.451965 76.029724,514.000183 72.856796,521.855042 
	C71.431244,525.384155 69.367805,529.995972 73.199661,533.006470 
	C77.281342,536.213257 80.513779,532.151001 83.776749,530.099548 
	C87.586731,527.704163 91.379242,525.280945 96.436638,522.072083 
	C96.436638,525.963379 96.656319,528.043579 96.392242,530.060547 
	C95.787682,534.678040 94.377937,539.269104 94.413963,543.862122 
	C94.435783,546.643982 95.843903,550.634277 97.923737,551.830078 
	C99.914650,552.974731 103.845413,551.778809 106.438171,550.570251 
	C109.385529,549.196350 111.731331,546.576965 114.459824,544.672668 
	C116.284866,543.398865 118.321175,542.427673 120.262939,541.321045 
	C120.860085,541.623413 121.457237,541.925781 122.054382,542.228149 
	C120.848640,547.406128 119.349854,552.538757 118.539490,557.777893 
	C117.993286,561.309265 116.946579,566.741394 118.721786,568.234680 
	C122.226875,571.183044 125.302063,566.464844 128.451782,564.596680 
	C130.956070,563.111389 133.577744,561.823914 136.147293,560.448608 
	C136.593384,560.859497 137.039459,561.270325 137.485550,561.681213 
	C137.215118,564.421387 137.093765,567.186279 136.643906,569.896729 
	C135.635254,575.973877 134.247452,581.994385 133.412262,588.092468 
	C132.360580,595.771240 132.288239,603.436829 136.616348,610.372864 
	C139.118713,614.383118 141.930328,614.895569 144.994705,611.302612 
	C148.318146,607.405823 151.032623,602.981262 153.920471,598.724304 
	C156.090683,595.525269 158.115311,592.227417 160.204742,588.973572 
	C160.791519,589.070068 161.378296,589.166565 161.965073,589.263123 
	C162.800186,597.487915 163.463959,605.735718 164.560486,613.925476 
	C164.960876,616.915955 162.619537,621.487793 167.146439,622.580261 
	C171.799911,623.703247 172.814682,618.798462 174.693909,615.926819 
	C177.267548,611.994019 179.410721,607.779602 181.738388,603.685852 
	C182.363297,603.783386 182.988190,603.880920 183.613098,603.978516 
	C184.513657,611.495850 185.288666,619.032104 186.411926,626.516052 
	C186.661560,628.179321 188.138351,629.658508 189.050125,631.222412 
	C190.576736,630.046143 192.558105,629.164673 193.546478,627.639587 
	C196.788895,622.636475 199.215195,617.052551 202.805832,612.340088 
	C207.322983,606.411682 210.615250,606.804077 212.594391,613.819763 
	C215.100479,622.703369 216.246094,631.971558 217.961487,641.077148 
	C218.752609,645.276489 219.134109,649.606445 220.472046,653.620422 
	C220.943115,655.033752 223.711685,655.681335 225.431259,656.678528 
	C226.305893,655.058594 227.697281,653.518188 227.960831,651.804260 
	C228.844803,646.055603 228.848038,640.135376 230.139725,634.498901 
	C230.925232,631.071228 233.461594,628.044861 235.211456,624.838196 
	C237.661621,627.120178 240.378662,629.180603 242.500168,631.735535 
	C245.780701,635.686218 248.235825,640.384827 251.800354,644.022095 
	C256.897736,649.223572 263.006042,648.087891 266.810791,641.883362 
	C267.505371,640.750671 267.903442,639.408386 268.714111,638.380310 
	C270.573547,636.022339 272.603088,633.798462 274.563568,631.520142 
	C276.766052,633.804504 279.175537,635.929688 281.098328,638.429199 
	C282.382355,640.098450 282.941132,642.316223 283.882843,644.260254 
	C285.188263,646.955139 286.349579,649.747070 287.923370,652.279480 
	C292.281097,659.291626 298.904236,659.537292 303.389557,652.573303 
	C305.789398,648.847412 307.239532,644.498962 309.023315,640.390259 
	C310.456055,637.089966 311.745941,633.727661 313.491211,629.426941 
	C315.485382,632.045166 316.980377,633.749817 318.182037,635.640930 
	C320.501831,639.291626 322.511932,643.143677 324.909607,646.739380 
	C329.587372,653.754395 335.214264,653.888062 339.748566,646.722412 
	C342.658752,642.123291 344.625702,636.925232 346.989410,631.983215 
	C347.959778,629.954346 348.861572,627.892761 350.397430,624.523499 
	C354.409912,629.262756 357.750824,633.074402 360.938995,637.009827 
	C364.596436,641.524475 367.780823,646.474670 371.794800,650.633240 
	C375.747284,654.728210 378.242676,653.693115 379.595856,648.147400 
	C380.603973,644.015686 381.619171,639.885742 383.015930,634.184570 
	C386.458435,638.072632 388.710114,640.867676 391.226685,643.399414 
	C395.073120,647.268860 398.931396,651.161316 403.111267,654.653015 
	C406.128967,657.173950 408.676880,656.364502 409.895508,651.552490 
M607.828613,710.814575 
	C607.732544,714.445007 607.412048,718.088684 607.624695,721.700928 
	C607.752686,723.875244 608.710876,726.000610 609.296082,728.148010 
	C610.109985,726.287354 610.923950,724.426697 611.691162,722.672852 
	C612.856750,724.407898 614.202637,726.411377 615.548584,728.414917 
	C616.272278,728.158264 616.996033,727.901611 617.719727,727.645020 
	C614.379822,721.839233 611.515442,716.006653 616.704102,709.719299 
	C615.919556,709.365173 615.134949,709.011047 614.350342,708.656982 
	C613.538574,710.384583 612.726807,712.112183 612.392639,712.823303 
	C610.425903,711.565735 609.254761,710.816833 607.828613,710.814575 
M645.791382,712.990967 
	C646.683777,713.369507 647.576233,713.748047 648.468628,714.126587 
	C648.769226,713.587830 649.069763,713.049072 649.370300,712.510315 
	C647.647400,711.478577 645.984985,709.798828 644.181519,709.630615 
	C642.860840,709.507385 640.245361,711.251648 640.127197,712.367004 
	C639.660095,716.775513 639.412842,721.352966 640.129700,725.695007 
	C640.700562,729.152283 644.226746,728.644470 646.677368,727.775879 
	C647.724182,727.404846 648.168396,725.333679 648.886414,724.035034 
	C648.458618,723.844116 648.030884,723.653198 647.603088,723.462280 
	C646.250977,724.376282 644.898926,725.290283 642.255371,727.077271 
	C642.535706,721.580566 642.689392,717.559509 643.031433,713.554504 
	C643.062622,713.189636 644.301575,712.927917 645.791382,712.990967 
M597.534180,723.001587 
	C597.842651,724.372803 598.042419,726.881958 598.477966,726.923584 
	C600.676392,727.133667 603.359497,727.376831 605.059998,726.311401 
	C606.904541,725.155823 604.904541,719.289307 602.917725,717.646118 
	C601.681885,716.624207 601.053223,714.868164 600.152100,713.441650 
	C601.667725,713.209595 603.183411,712.977600 605.199341,712.669006 
	C604.936584,709.452515 602.689209,708.408508 599.976318,709.714539 
	C598.439697,710.454346 596.789612,712.938721 596.876465,714.546387 
	C596.974976,716.371826 598.606384,719.118713 600.188477,719.659485 
	C603.957397,720.947510 603.728577,722.615173 602.156799,725.836548 
	C600.574341,724.609741 599.472717,723.755798 597.534180,723.001587 
M621.897339,728.237244 
	C623.845764,728.237244 625.794189,728.237244 627.742615,728.237244 
	C627.752197,727.643860 627.761780,727.050415 627.771362,726.457031 
	C625.970032,726.207153 624.168701,725.957275 622.057983,725.664429 
	C622.057983,723.973328 622.057983,722.259094 622.057983,720.651611 
	C623.764771,720.111816 625.162109,719.669861 626.559509,719.227905 
	C623.253967,717.509277 620.383545,716.326904 622.295532,712.125366 
	C623.676758,711.699036 625.034180,711.280029 626.391663,710.861084 
	C626.308655,710.547791 626.225586,710.234558 626.142578,709.921326 
	C623.943176,709.921326 621.743774,709.921326 618.813416,709.921326 
	C618.813416,714.951721 618.652100,719.733215 618.919495,724.490540 
	C618.992188,725.784912 620.356873,727.006592 621.897339,728.237244 
M705.471252,723.512512 
	C703.997681,724.336731 702.524048,725.160950 700.345093,726.379700 
	C700.345093,721.415588 700.345093,717.093506 700.345093,712.143677 
	C702.641418,713.053528 704.158508,713.654602 705.675598,714.255676 
	C706.001953,713.754456 706.328369,713.253235 706.654724,712.752014 
	C704.957886,711.622864 703.113953,709.435547 701.603271,709.645630 
	C699.904785,709.881714 697.538635,712.079895 697.184509,713.782532 
	C696.492615,717.109619 696.533020,720.780029 697.210144,724.117554 
	C697.533325,725.710510 699.814575,727.593445 701.551636,728.054932 
	C704.316650,728.789490 706.379517,727.403442 705.471252,723.512512 
M631.708496,712.162048 
	C632.288086,717.467651 632.867676,722.773254 633.447266,728.078796 
	C637.761169,722.545898 631.783875,715.132080 638.793823,709.842041 
	C635.686707,709.668335 633.421143,709.503784 631.156982,709.521729 
	C631.038330,709.522644 630.932007,711.073975 631.708496,712.162048 
z"/>
<path fill="#010101" opacity="1.000000" stroke="none" 
	d="
M409.778809,651.910156 
	C408.676880,656.364502 406.128967,657.173950 403.111267,654.653015 
	C398.931396,651.161316 395.073120,647.268860 391.226685,643.399414 
	C388.710114,640.867676 386.458435,638.072632 383.015930,634.184570 
	C381.619171,639.885742 380.603973,644.015686 379.595856,648.147400 
	C378.242676,653.693115 375.747284,654.728210 371.794800,650.633240 
	C367.780823,646.474670 364.596436,641.524475 360.938995,637.009827 
	C357.750824,633.074402 354.409912,629.262756 350.397430,624.523499 
	C348.861572,627.892761 347.959778,629.954346 346.989410,631.983215 
	C344.625702,636.925232 342.658752,642.123291 339.748566,646.722412 
	C335.214264,653.888062 329.587372,653.754395 324.909607,646.739380 
	C322.511932,643.143677 320.501831,639.291626 318.182037,635.640930 
	C316.980377,633.749817 315.485382,632.045166 313.491211,629.426941 
	C311.745941,633.727661 310.456055,637.089966 309.023315,640.390259 
	C307.239532,644.498962 305.789398,648.847412 303.389557,652.573303 
	C298.904236,659.537292 292.281097,659.291626 287.923370,652.279480 
	C286.349579,649.747070 285.188263,646.955139 283.882843,644.260254 
	C282.941132,642.316223 282.382355,640.098450 281.098328,638.429199 
	C279.175537,635.929688 276.766052,633.804504 274.563568,631.520142 
	C272.603088,633.798462 270.573547,636.022339 268.714111,638.380310 
	C267.903442,639.408386 267.505371,640.750671 266.810791,641.883362 
	C263.006042,648.087891 256.897736,649.223572 251.800354,644.022095 
	C248.235825,640.384827 245.780701,635.686218 242.500168,631.735535 
	C240.378662,629.180603 237.661621,627.120178 235.211456,624.838196 
	C233.461594,628.044861 230.925232,631.071228 230.139725,634.498901 
	C228.848038,640.135376 228.844803,646.055603 227.960831,651.804260 
	C227.697281,653.518188 226.305893,655.058594 225.431244,656.678589 
	C223.711685,655.681335 220.943115,655.033752 220.472046,653.620422 
	C219.134109,649.606445 218.752609,645.276489 217.961487,641.077148 
	C216.246094,631.971558 215.100479,622.703369 212.594391,613.819763 
	C210.615250,606.804077 207.322983,606.411682 202.805832,612.340088 
	C199.215195,617.052551 196.788895,622.636475 193.546478,627.639587 
	C192.558105,629.164673 190.576736,630.046143 189.050125,631.222412 
	C188.138351,629.658508 186.661560,628.179321 186.411926,626.516052 
	C185.288666,619.032104 184.513657,611.495850 183.613098,603.978516 
	C182.988190,603.880920 182.363297,603.783386 181.738388,603.685852 
	C179.410721,607.779602 177.267548,611.994019 174.693909,615.926819 
	C172.814682,618.798462 171.799911,623.703247 167.146439,622.580261 
	C162.619537,621.487793 164.960876,616.915955 164.560486,613.925476 
	C163.463959,605.735718 162.800186,597.487915 161.965073,589.263123 
	C161.378296,589.166565 160.791519,589.070068 160.204742,588.973572 
	C158.115311,592.227417 156.090683,595.525269 153.920471,598.724304 
	C151.032623,602.981262 148.318146,607.405823 144.994705,611.302612 
	C141.930328,614.895569 139.118713,614.383118 136.616348,610.372864 
	C132.288239,603.436829 132.360580,595.771240 133.412262,588.092468 
	C134.247452,581.994385 135.635254,575.973877 136.643906,569.896729 
	C137.093765,567.186279 137.215118,564.421387 137.485550,561.681213 
	C137.039459,561.270325 136.593384,560.859497 136.147293,560.448608 
	C133.577744,561.823914 130.956070,563.111389 128.451782,564.596680 
	C125.302063,566.464844 122.226875,571.183044 118.721786,568.234680 
	C116.946579,566.741394 117.993286,561.309265 118.539490,557.777893 
	C119.349854,552.538757 120.848640,547.406128 122.054382,542.228149 
	C121.457237,541.925781 120.860085,541.623413 120.262939,541.321045 
	C118.321175,542.427673 116.284866,543.398865 114.459824,544.672668 
	C111.731331,546.576965 109.385529,549.196350 106.438171,550.570251 
	C103.845413,551.778809 99.914650,552.974731 97.923737,551.830078 
	C95.843903,550.634277 94.435783,546.643982 94.413963,543.862122 
	C94.377937,539.269104 95.787682,534.678040 96.392242,530.060547 
	C96.656319,528.043579 96.436638,525.963379 96.436638,522.072083 
	C91.379242,525.280945 87.586731,527.704163 83.776749,530.099548 
	C80.513779,532.151001 77.281342,536.213257 73.199661,533.006470 
	C69.367805,529.995972 71.431244,525.384155 72.856796,521.855042 
	C76.029724,514.000183 79.952110,506.451965 83.340134,498.679016 
	C85.974739,492.634613 89.127136,486.641754 87.902557,478.553192 
	C84.955757,480.300690 82.316467,481.515320 80.089218,483.256897 
	C74.843445,487.358856 69.952362,491.929993 64.572121,495.835114 
	C62.888969,497.056824 59.458195,497.789307 57.992165,496.876038 
	C56.382736,495.873413 55.196354,492.587433 55.476784,490.520416 
	C55.930855,487.173523 57.657078,483.978210 58.980888,480.774567 
	C62.025402,473.406799 65.458916,466.181213 68.106087,458.676208 
	C69.320564,455.233063 69.055199,451.267975 69.647049,445.829163 
	C64.481155,448.252350 60.783051,449.901917 57.164612,451.710815 
	C54.190964,453.197357 51.427769,455.183350 48.342560,456.335449 
	C46.777935,456.919678 44.267185,456.733032 43.021576,455.789490 
	C42.190105,455.159668 42.190350,452.204803 42.929661,450.940033 
	C46.193600,445.356049 49.893101,440.028351 53.372112,434.567841 
	C56.641602,429.436188 59.832359,424.254395 63.057758,419.094666 
	C62.687233,418.704407 62.316704,418.314178 61.946178,417.923920 
	C58.933182,418.964111 55.982079,420.505554 52.887821,420.887573 
	C50.363579,421.199219 46.610329,420.984131 45.344448,419.425262 
	C44.062271,417.846313 44.169968,413.686554 45.404182,411.781281 
	C49.551693,405.378662 54.538692,399.525665 59.073772,393.366150 
	C61.928852,389.488373 64.550400,385.438660 67.276711,381.466064 
	C66.781929,380.900787 66.287148,380.335480 65.792358,379.770172 
	C61.598206,381.492249 57.393482,383.189240 53.215469,384.949615 
	C51.684551,385.594635 50.281170,386.723938 48.703300,387.027374 
	C46.955841,387.363342 45.075241,387.006805 43.252625,386.951874 
	C43.412720,385.107422 42.936092,382.829559 43.844776,381.494690 
	C47.485722,376.146057 51.326115,370.893799 55.520126,365.969910 
	C62.429474,357.858093 69.817039,350.153015 76.706482,342.025116 
	C79.902237,338.254913 83.769745,333.694641 80.614822,328.613617 
	C77.811905,324.099518 72.299080,325.343475 67.727959,325.873138 
	C62.446339,326.485229 57.232162,327.708191 51.945755,328.234741 
	C50.038055,328.424774 47.088482,327.953400 46.291695,326.709473 
	C45.513401,325.494385 46.240002,322.351044 47.407661,321.022339 
	C52.223511,315.542542 57.103111,310.016113 62.627182,305.286987 
	C69.771912,299.170441 77.553993,293.798340 85.585068,287.708832 
	C79.382141,285.553558 74.058228,286.202209 68.623848,288.128448 
	C67.078094,288.676331 65.082344,287.954620 63.292961,287.815155 
	C63.633755,285.995483 63.330162,283.374603 64.425766,282.493439 
	C69.442345,278.458801 74.606384,274.484070 80.179947,271.296478 
	C87.245232,267.255798 94.771194,264.024078 102.065292,260.377045 
	C103.481712,259.668854 104.745728,258.655853 105.914581,256.591827 
	C103.218170,256.266357 100.495705,255.526199 97.830269,255.693680 
	C90.029655,256.183838 82.261192,257.212219 74.458725,257.628815 
	C72.353783,257.741211 70.172699,256.427582 68.026566,255.768524 
	C69.439034,254.052826 70.548347,251.348541 72.320297,250.805191 
	C77.826851,249.116638 83.539810,247.913681 89.256386,247.143906 
	C96.836189,246.123245 104.511696,245.829483 112.110420,244.924133 
	C114.613396,244.625900 117.005638,243.398346 119.448509,242.595718 
	C119.605309,241.976257 119.762108,241.356781 119.918907,240.737305 
	C117.312012,239.074020 114.903442,236.849976 112.063522,235.845505 
	C100.401833,231.720856 88.195702,231.734222 76.018509,231.796921 
	C75.019325,231.802063 73.862625,232.206482 73.054871,231.831436 
	C71.459473,231.090683 70.057320,229.933716 68.575256,228.948853 
	C69.848534,227.697830 71.050842,225.448929 72.406227,225.352539 
	C83.999573,224.528061 95.616203,223.889053 107.235474,223.636581 
	C112.363365,223.525131 117.507126,224.561020 122.656555,224.819595 
	C124.744942,224.924454 126.867653,224.345886 130.646530,223.865997 
	C127.814644,220.837311 126.255096,218.096802 123.903709,216.851944 
	C116.283295,212.817596 108.326233,209.425003 100.595535,205.590286 
	C97.379158,203.994812 91.932671,203.977783 92.337456,199.045654 
	C92.765503,193.830261 98.241943,194.490601 101.897545,193.696884 
	C111.755798,191.556427 121.386681,193.984024 131.110901,195.434769 
	C140.115891,196.778198 149.243011,197.498169 158.342499,197.898895 
	C161.224533,198.025818 164.190689,196.242188 168.750046,194.826080 
	C165.001587,190.951767 162.588715,187.841919 159.585587,185.483780 
	C153.569397,180.759689 147.030899,176.688675 141.136520,171.828369 
	C139.164322,170.202164 137.071838,166.675934 137.540451,164.578003 
	C138.411362,160.679123 142.662903,161.269485 145.600769,162.063126 
	C152.316162,163.877182 158.994781,165.958786 165.472015,168.486130 
	C171.941254,171.010345 178.405731,172.858658 185.393036,172.015442 
	C187.481796,171.763397 189.536606,171.230118 193.151245,170.524033 
	C189.454361,166.795303 186.900009,163.550262 183.713226,161.142120 
	C176.810043,155.925659 169.470871,151.285950 162.570831,146.065613 
	C160.929657,144.823929 160.314911,142.225586 159.228027,140.251266 
	C161.401169,139.577133 163.872223,137.880798 165.694122,138.411804 
	C172.377045,140.359543 178.819016,143.119186 185.400070,145.435699 
	C191.345505,147.528458 197.305939,149.610306 203.361649,151.340302 
	C205.424164,151.929504 207.796646,151.433746 211.567688,151.433746 
	C209.180542,147.608322 207.891632,144.955460 206.069916,142.740921 
	C201.734955,137.471115 196.954514,132.557892 192.792404,127.162430 
	C191.684448,125.726189 192.160141,123.068298 191.908752,120.971298 
	C194.016907,120.895210 196.535965,120.031517 198.161850,120.879807 
	C205.087097,124.492973 211.621048,128.858948 218.561844,132.438171 
	C221.775742,134.095505 225.594452,134.579987 229.138962,135.596207 
	C229.491653,135.108917 229.844330,134.621643 230.197021,134.134354 
	C228.966751,131.157318 227.879364,128.110504 226.468506,125.221680 
	C224.862686,121.933731 222.670395,118.904503 221.334625,115.525024 
	C220.738098,114.015846 220.975067,111.167747 221.994934,110.313354 
	C223.012543,109.460838 225.904404,109.701324 227.238480,110.580093 
	C231.676697,113.503593 235.433868,117.644814 240.126404,119.941658 
	C244.051910,121.863091 248.901474,122.352173 253.381668,122.543701 
	C257.101959,122.702744 258.159729,119.922157 256.550964,116.659492 
	C255.009567,113.533493 253.204102,110.531372 251.405975,107.540146 
	C249.691040,104.687286 247.515732,102.062065 246.169571,99.056099 
	C245.433380,97.412216 245.995071,95.187111 245.971481,93.224106 
	C247.780121,93.434013 249.889832,93.121246 251.338654,93.955795 
	C255.078690,96.110107 258.473907,98.853012 262.108124,101.204247 
	C265.014679,103.084709 268.070129,104.735123 272.061096,105.843018 
	C270.853546,102.025620 269.707794,98.187271 268.422760,94.396141 
	C266.821320,89.671684 264.918457,85.039993 263.538086,80.255066 
	C263.045746,78.548439 263.047699,75.439034 263.980164,74.872345 
	C265.435394,73.987930 268.068542,74.202629 269.865997,74.865044 
	C277.826233,77.798676 283.283752,83.909721 288.490204,90.269585 
	C292.891693,95.646172 297.334412,100.989006 301.758881,106.346771 
	C302.182831,106.131584 302.606781,105.916389 303.030731,105.701202 
	C301.348785,99.617416 299.452209,93.580963 298.095001,87.425583 
	C297.582336,85.100395 298.316223,82.500343 298.481873,80.025589 
	C300.820038,80.287933 303.766815,79.745270 305.380829,80.965469 
	C309.988617,84.448959 314.164124,88.537483 318.304413,92.597351 
	C322.933319,97.136398 326.979919,102.332260 331.926971,106.468369 
	C338.447601,111.920082 344.121277,110.819168 347.615753,103.038498 
	C350.788483,95.974136 352.537659,88.262466 354.800690,80.801666 
	C355.620544,78.098732 355.692291,75.093521 356.893860,72.607277 
	C357.743622,70.848892 359.919495,69.731377 361.503387,68.327774 
	C362.747589,69.851837 364.655884,71.197311 365.122009,72.930611 
	C367.237396,80.796715 368.867554,88.791893 370.851959,96.695518 
	C371.401367,98.883652 372.568695,100.916626 373.452515,103.020790 
	C373.975220,103.030830 374.497894,103.040871 375.020569,103.050911 
	C375.584137,98.965012 376.473083,94.891388 376.627777,90.790062 
	C376.815735,85.808113 376.078857,80.785248 376.364441,75.815849 
	C376.486664,73.689163 377.742889,70.468300 379.280273,69.900299 
	C380.897827,69.302666 384.514496,70.671150 385.431732,72.244827 
	C388.659912,77.783211 391.112640,83.774605 393.835449,89.605392 
	C394.216583,90.421501 394.462952,91.300529 395.697083,92.074898 
	C396.193695,87.236549 396.580261,82.383423 397.226868,77.565208 
	C397.636017,74.516724 397.541229,70.686577 401.797150,70.295830 
	C405.976807,69.912109 406.984192,73.483002 407.675385,76.531235 
	C409.919037,86.426003 411.833588,96.395088 414.037628,106.299324 
	C414.754364,109.520164 415.971344,112.629677 417.442413,117.334412 
	C420.415375,113.099541 423.054810,110.153587 424.764191,106.741676 
	C428.784424,98.717361 432.411591,90.493492 436.088562,82.301331 
	C437.377228,79.430229 438.689545,76.526939 442.438812,77.168480 
	C446.108582,77.796425 446.912811,80.834831 446.804993,84.042793 
	C446.614960,89.696693 446.265686,95.345276 445.979767,100.995911 
	C445.848938,103.582390 445.710205,106.168465 445.575043,108.754715 
	C446.044708,108.961418 446.514374,109.168121 446.984070,109.374825 
	C451.577209,102.397827 456.123383,95.389221 460.786163,88.459076 
	C462.706726,85.604530 463.543701,80.814575 468.497711,82.201172 
	C473.435425,83.583221 471.904327,88.132515 471.833069,91.552299 
	C471.680389,98.877319 471.095459,106.192467 470.762421,113.515068 
	C470.644348,116.111023 470.743561,118.716858 470.743561,121.318176 
	C471.175201,121.645798 471.606842,121.973427 472.038483,122.301048 
	C477.285339,118.148308 482.554474,114.023163 487.763367,109.823296 
	C489.053650,108.782936 489.956299,106.994812 491.380524,106.452820 
	C493.303650,105.721001 495.983521,105.067253 497.529297,105.893753 
	C498.649872,106.492867 499.248535,109.818138 498.692657,111.457390 
	C497.313110,115.525803 494.959045,119.252075 493.341766,123.255295 
	C492.081207,126.375465 491.340118,129.705490 490.368164,132.942261 
	C490.793457,133.256866 491.218750,133.571472 491.644073,133.886093 
	C494.998871,132.199249 498.331055,130.465317 501.715698,128.840546 
	C504.410156,127.547081 507.076141,125.999222 509.934448,125.317329 
	C511.571838,124.926712 514.279907,125.474533 515.200806,126.635269 
	C516.109863,127.781143 515.983704,130.524200 515.247803,132.055145 
	C512.946411,136.842773 510.126556,141.380035 507.549957,146.037766 
	C507.156525,146.748993 506.987488,147.584381 506.324493,149.474655 
	C510.250366,148.169510 513.473877,147.248398 516.581665,146.031754 
	C522.159973,143.847977 527.557434,141.121643 533.262207,139.381836 
	C535.497253,138.700195 539.088989,139.286316 540.668762,140.774719 
	C541.692200,141.738983 540.875427,145.802505 539.685608,147.743042 
	C536.753113,152.525848 533.129822,156.885117 530.388000,162.532486 
	C533.325073,161.477829 536.325928,160.570007 539.181702,159.328491 
	C542.226501,158.004776 545.152954,156.401199 548.096130,154.853424 
	C550.695740,153.486282 553.346985,152.155060 555.760132,154.944824 
	C558.133972,157.689163 556.465637,160.154236 554.951965,162.662079 
	C552.644775,166.484665 550.514832,170.414230 547.661865,175.439316 
	C553.944885,176.330750 559.247498,177.236725 564.586243,177.799622 
	C570.548279,178.428192 576.575439,178.511566 582.505676,179.329330 
	C584.485962,179.602402 587.281250,181.045929 587.832275,182.612656 
	C588.384033,184.181610 587.111816,187.064926 585.733093,188.504471 
	C582.537231,191.841507 578.794495,194.654816 574.308350,198.509720 
	C579.351562,199.415192 583.455933,200.221115 587.584290,200.876831 
	C593.504578,201.817200 599.486084,202.427094 605.359131,203.593109 
	C610.355408,204.585037 611.554749,207.876602 608.494385,211.994247 
	C605.852234,215.549149 602.774414,218.780228 598.887024,223.326416 
	C603.758728,223.678787 607.436401,223.990158 611.119812,224.200912 
	C617.082092,224.542053 623.143066,224.265305 628.986877,225.270020 
	C635.249939,226.346832 636.665405,230.303833 632.859131,235.382355 
	C628.702637,240.928085 623.970154,246.042130 619.553040,251.268234 
	C623.851379,252.020462 628.446838,252.066956 632.368652,253.715744 
	C636.626770,255.505920 638.835754,259.399231 636.655884,265.424866 
	C643.553772,266.253479 650.093872,267.043335 656.635193,267.823364 
	C661.214050,268.369415 666.614685,267.951447 668.105469,273.727386 
	C669.642334,279.681824 664.765076,282.168945 660.771179,284.892792 
	C659.318298,285.883698 657.858032,286.863739 655.304382,288.590149 
	C660.314209,290.355804 664.172913,291.665588 667.994263,293.076569 
	C671.890015,294.514954 676.025818,295.597260 679.519043,297.719971 
	C681.577576,298.970886 683.731812,301.946320 683.721252,304.135895 
	C683.712402,305.948914 680.892273,308.310852 678.786072,309.419373 
	C675.623840,311.083710 671.996765,311.864624 667.341431,313.434570 
	C670.695374,316.130920 673.008301,318.518585 675.779480,320.106506 
	C681.264587,323.249542 687.049255,325.864349 692.624207,328.857361 
	C698.873840,332.212585 699.853271,336.514740 695.045471,341.655579 
	C692.639099,344.228638 689.262817,345.980377 686.134766,347.770996 
	C682.248230,349.995819 678.079773,351.731903 674.221680,354.000061 
	C673.155212,354.627075 672.350159,356.360046 672.238403,357.655701 
	C672.186890,358.253845 674.000671,359.286926 675.123169,359.669464 
	C685.729065,363.283539 694.737732,369.550812 702.977112,376.885406 
	C704.746277,378.460297 705.064331,381.665283 706.050842,384.119354 
	C703.585632,385.086548 700.982666,387.116211 698.681580,386.817841 
	C692.282104,385.987915 686.054565,383.886749 679.664124,382.908813 
	C676.637146,382.445618 673.393250,383.399384 670.247620,383.711182 
	C672.032349,386.297394 673.388245,389.396271 675.710876,391.339478 
	C678.587646,393.746277 682.415588,394.978760 685.540283,397.140991 
	C687.325867,398.376587 688.530151,400.452240 689.996155,402.149658 
	C688.110901,403.455048 686.390991,405.276062 684.301941,405.946045 
	C681.096619,406.973999 677.637268,407.210114 674.285645,407.782257 
	C674.109192,408.269745 673.932739,408.757233 673.756287,409.244720 
	C677.007690,412.209625 680.112732,415.360138 683.558533,418.078644 
	C686.153625,420.126068 688.418945,422.148254 686.172729,425.457245 
	C684.144287,428.445496 681.573364,427.259094 678.690796,426.051971 
	C675.723022,424.809235 670.838196,423.104279 669.323425,424.450256 
	C665.849121,427.537415 668.771118,431.745972 671.127808,434.556763 
	C676.359436,440.796204 682.139832,446.573853 687.653625,452.579132 
	C690.357361,455.523895 693.253967,458.360077 695.485596,461.638641 
	C696.481567,463.101776 696.943176,466.319672 696.050293,467.330536 
	C694.894348,468.639252 691.822327,469.462830 690.135132,468.878571 
	C684.016418,466.759552 678.242615,463.641846 672.119324,461.539886 
	C668.106384,460.162323 663.737488,459.649109 659.481201,459.255341 
	C658.152100,459.132416 656.005920,460.357727 655.465881,461.532318 
	C655.025269,462.490662 656.037720,464.721497 657.070557,465.644165 
	C660.784729,468.962189 664.783203,471.961578 668.668701,475.088226 
	C670.353394,476.443939 672.426636,477.545502 673.582642,479.261536 
	C674.621338,480.803497 675.564392,483.533936 674.861572,484.811340 
	C674.147522,486.109192 671.317444,486.931152 669.505981,486.789124 
	C666.062622,486.519196 662.717773,485.085999 659.271301,484.738098 
	C655.019226,484.308868 653.657471,486.361969 655.691345,490.179077 
	C657.156860,492.929413 659.230408,495.403442 661.287903,497.779785 
	C664.666077,501.681458 668.700439,505.093292 671.608582,509.299103 
	C673.983215,512.733276 675.561279,516.912598 676.596497,520.989075 
	C677.052673,522.785461 675.858704,526.014282 674.364441,526.997009 
	C672.973267,527.911926 669.813171,527.343201 668.086121,526.321472 
	C662.218201,522.849976 656.729248,518.743652 650.918030,515.168335 
	C647.314087,512.951050 643.389038,511.255585 639.070435,509.051422 
	C637.629578,520.517334 639.508057,530.613037 641.436340,540.741821 
	C642.774109,547.768555 643.972107,554.852600 644.589722,561.966919 
	C644.775085,564.101746 642.798340,566.424255 641.812073,568.660828 
	C639.756165,567.587891 636.971802,567.023560 635.794250,565.337280 
	C633.250122,561.693787 631.513550,557.483215 629.481506,553.486877 
	C628.707642,551.964905 628.029419,550.394226 627.307617,548.845764 
	C626.879395,548.952271 626.451111,549.058777 626.022827,549.165283 
	C626.796875,555.824280 627.708618,562.471191 628.295471,569.146606 
	C628.672974,573.440674 628.869324,577.799988 628.533264,582.081848 
	C628.407654,583.682312 626.827454,585.868774 625.377930,586.442688 
	C624.226074,586.898743 621.719543,585.741516 620.760498,584.543335 
	C617.648560,580.655823 615.028870,576.378784 612.108276,572.332031 
	C610.008240,569.422302 607.730469,566.640869 605.531982,563.802246 
	C605.027222,563.888245 604.522461,563.974243 604.017639,564.060242 
	C603.693665,566.179993 603.112915,568.298462 603.102722,570.419678 
	C603.085144,574.075684 604.110474,577.874573 603.398010,581.346680 
	C602.804810,584.237976 600.891235,588.108215 598.560547,589.040833 
	C596.241150,589.968811 592.633789,587.890686 589.680908,586.870911 
	C588.953369,586.619690 588.574402,585.359070 588.035217,584.562500 
	C587.610474,584.797241 587.185791,585.032043 586.761047,585.266785 
	C586.264893,595.170959 585.859741,605.080872 585.233398,614.976807 
	C584.928833,619.789429 584.688354,624.699585 583.489990,629.324951 
	C582.835754,631.850159 580.693604,634.806519 578.418945,635.905945 
	C574.911133,637.601318 571.295227,635.555908 569.420532,632.390198 
	C566.383179,627.261353 564.001770,621.744324 561.337708,616.394043 
	C560.386841,614.484314 559.419678,612.582764 558.459900,610.677490 
	C557.894714,610.796265 557.329529,610.915100 556.764343,611.033875 
	C556.764343,613.574829 556.860840,616.120361 556.742432,618.655762 
	C556.548462,622.808716 556.525757,627.004517 555.875305,631.093933 
	C554.522705,639.597534 548.322693,642.984253 540.515869,639.256775 
	C536.988586,637.572754 533.959656,634.791626 530.824707,632.353821 
	C527.543945,629.802612 524.586975,626.800659 521.160034,624.481018 
	C517.293396,621.863647 515.153442,622.599854 513.585938,627.026367 
	C512.603638,629.800110 512.361450,632.858582 511.965454,635.813171 
	C510.706757,645.205750 506.294128,648.225281 496.999023,645.612915 
	C497.112335,646.783508 497.219025,647.828003 497.313629,648.873535 
	C497.781769,654.047424 494.753967,657.701843 489.690033,656.604797 
	C485.326965,655.659668 480.863892,653.576355 477.320831,650.855652 
	C473.015259,647.549500 469.814606,642.844238 465.775543,639.136841 
	C463.230255,636.800537 460.024750,635.183472 456.037964,632.525391 
	C456.037964,637.085022 456.067719,639.875061 456.030670,642.664185 
	C455.981201,646.387207 454.880554,649.589722 451.265350,651.332703 
	C447.608124,653.096008 444.488251,651.733398 441.547607,649.504150 
	C439.356567,647.843262 437.146088,646.207886 434.944244,644.561096 
	C434.466827,644.760254 433.989410,644.959412 433.511963,645.158569 
	C433.733765,648.152527 434.187958,651.154053 434.091156,654.137634 
	C434.032013,655.960693 433.491058,659.001404 432.518738,659.286621 
	C430.861176,659.772705 428.275574,659.044373 426.827972,657.889038 
	C423.860596,655.520630 421.483429,652.428650 418.673187,649.840942 
	C417.251343,648.531738 415.415619,647.672058 413.429504,646.391541 
	C412.109192,648.319702 411.002350,649.936096 409.778809,651.910156 
M495.394165,336.165344 
	C493.799011,333.832764 492.318512,331.411377 490.591248,329.181152 
	C470.193970,302.843811 435.035126,295.169067 409.330292,312.955688 
	C386.577423,328.699707 375.544861,351.874023 374.721985,379.365204 
	C374.188934,397.174103 378.471283,414.008850 391.966431,426.749908 
	C399.654572,434.008453 407.906830,441.008026 416.909302,446.468597 
	C438.524750,459.579651 461.730560,456.337585 480.017181,438.857758 
	C488.482422,430.765991 494.579712,421.093201 498.523254,410.167450 
	C507.467255,385.387634 508.822479,360.792145 495.394165,336.165344 
M236.267731,339.767303 
	C228.794235,355.365173 224.961014,371.699249 226.043365,389.089478 
	C228.286484,425.129852 261.107635,449.263306 296.023315,440.077576 
	C316.504486,434.689392 330.581543,420.977173 339.802856,402.541718 
	C352.424286,377.308594 352.422791,352.493073 334.431030,329.351654 
	C328.608948,321.863129 321.899170,315.048920 316.288086,307.417023 
	C311.541931,300.961487 305.037048,298.576813 297.839630,298.133362 
	C292.126495,297.781403 286.094482,298.187561 280.588287,299.677338 
	C259.438721,305.399750 246.315170,320.420654 236.267731,339.767303 
z"/>
<path fill="#1F1F1F" opacity="1.000000" stroke="none" 
	d="
M718.695496,711.014465 
	C720.355042,707.975525 721.461121,709.635559 722.240723,711.549072 
	C722.974426,713.349976 723.383423,715.283264 724.277405,718.320557 
	C725.911377,714.451660 727.079529,711.685791 728.247681,708.919983 
	C728.776123,709.012817 729.304626,709.105652 729.833130,709.198486 
	C729.833130,715.423035 729.833130,721.647583 729.833130,727.872131 
	C729.497864,727.945312 729.162598,728.018555 728.827332,728.091736 
	C728.393738,726.107117 727.960144,724.122498 727.603455,722.489990 
	C725.873657,723.020325 724.073547,723.572205 721.569885,724.339722 
	C721.428955,724.882690 721.044739,726.362915 720.404724,728.828186 
	C719.573425,727.256409 719.185364,726.522705 718.850952,724.956238 
	C718.835022,719.753845 718.765259,715.384155 718.695496,711.014465 
z"/>
<path fill="#C81E22" opacity="1.000000" stroke="none" 
	d="
M687.825989,708.074585 
	C687.888672,708.504395 687.951355,708.934265 687.674377,709.996765 
	C687.258301,716.442688 687.181824,722.256042 687.049927,728.364319 
	C686.339966,729.353760 685.685486,730.048218 685.031006,730.742676 
	C683.287476,730.787720 681.543945,730.832764 679.237183,730.607422 
	C678.134888,730.466370 677.595825,730.595703 677.056702,730.725037 
	C674.978943,730.761658 672.901123,730.798218 670.166260,730.548645 
	C668.352173,730.407532 667.195129,730.552551 666.038147,730.697632 
	C665.610352,730.726624 665.182495,730.755615 664.371826,730.327576 
	C663.758240,729.434204 663.527527,728.997864 663.546143,728.168579 
	C666.906921,727.498169 670.513977,729.465759 672.923584,726.175659 
	C673.460571,727.305420 673.945618,728.031982 674.430664,728.758545 
	C674.950317,728.072632 675.768250,727.447205 675.922424,726.687195 
	C676.178955,725.422302 675.920410,724.063110 676.036499,722.757629 
	C676.417542,718.471008 676.869385,714.190796 677.348022,710.379517 
	C677.402039,716.465820 677.402039,722.080627 677.402039,727.695435 
	C677.885498,727.723755 678.368896,727.752075 678.852356,727.780396 
	C680.299438,725.732605 682.444519,723.867493 683.039185,721.596497 
	C684.075073,717.639893 684.155273,713.433044 684.852600,709.033447 
	C685.988098,708.515320 686.907043,708.294922 687.825989,708.074585 
z"/>
<path fill="#F6B5AF" opacity="1.000000" stroke="none" 
	d="
M672.871704,725.772461 
	C670.513977,729.465759 666.906921,727.498169 663.410400,728.296875 
	C663.025452,728.818237 662.714417,729.028625 662.714355,729.028625 
	C662.280579,728.402771 661.846802,727.776917 661.075928,726.835266 
	C660.738831,726.519470 660.895874,726.153870 660.895874,726.153870 
	C661.313171,726.117920 661.730530,726.081909 662.866577,725.977905 
	C663.973206,720.945435 664.361084,715.981079 664.748901,711.016724 
	C664.175171,711.007996 663.601440,710.999207 663.027710,710.990479 
	C661.306396,708.253723 661.809204,705.916809 665.158264,705.834778 
	C672.231812,705.661438 679.319641,706.070740 686.295288,706.581299 
	C683.110046,706.998596 680.031189,707.075684 676.648010,707.114624 
	C675.864807,707.373047 675.385925,707.669678 674.542236,707.990356 
	C673.130737,708.347778 672.083984,708.681091 670.654358,709.018433 
	C669.118591,709.103027 667.965698,709.183594 666.812866,709.264160 
	C666.863892,709.531128 666.914917,709.798096 666.966003,710.065063 
	C668.310425,709.691711 669.654907,709.318359 671.269653,709.223511 
	C671.983887,714.925476 672.427734,720.348999 672.871704,725.772461 
M666.677368,724.010864 
	C668.570618,727.202637 669.792908,726.169373 670.122925,723.265137 
	C670.440918,720.467896 670.367310,717.601257 670.174255,714.785095 
	C670.112122,713.879089 669.123901,713.036560 668.559265,712.164978 
	C667.962402,713.149597 666.956726,714.091553 666.848694,715.127258 
	C666.573547,717.765259 666.699463,720.445068 666.677368,724.010864 
z"/>
<path fill="#1B1B1B" opacity="1.000000" stroke="none" 
	d="
M660.685181,725.789978 
	C660.895874,726.153870 660.738831,726.519470 660.820679,726.700134 
	C658.681946,728.978149 657.391357,728.707092 657.382751,725.449707 
	C657.380188,724.461731 657.872681,723.386169 657.610107,722.508789 
	C657.332275,721.580688 656.424683,720.841064 655.792175,720.019104 
	C655.186401,720.816223 654.248474,721.537170 654.044373,722.426514 
	C653.627136,724.244019 653.604492,726.152100 652.538574,728.023865 
	C649.540955,722.034302 651.058594,715.822388 651.189758,709.695984 
	C651.700012,709.565918 652.210327,709.435852 652.720642,709.305847 
	C653.514160,712.172668 654.307739,715.039551 655.101257,717.906433 
	C655.567444,717.828186 656.033691,717.749939 656.499878,717.671692 
	C657.082886,715.092102 657.665955,712.512512 658.248962,709.932922 
	C658.757812,709.930054 659.266663,709.927246 659.775452,709.924438 
	C660.008484,715.091614 660.241516,720.258850 660.685181,725.789978 
z"/>
<path fill="#1A1A1A" opacity="1.000000" stroke="none" 
	d="
M607.956116,710.441284 
	C609.254761,710.816833 610.425903,711.565735 612.392639,712.823303 
	C612.726807,712.112183 613.538574,710.384583 614.350342,708.656982 
	C615.134949,709.011047 615.919556,709.365173 616.704102,709.719299 
	C611.515442,716.006653 614.379822,721.839233 617.719727,727.645020 
	C616.996033,727.901611 616.272278,728.158264 615.548584,728.414917 
	C614.202637,726.411377 612.856750,724.407898 611.691162,722.672852 
	C610.923950,724.426697 610.109985,726.287354 609.296082,728.148010 
	C608.710876,726.000610 607.752686,723.875244 607.624695,721.700928 
	C607.412048,718.088684 607.732544,714.445007 607.956116,710.441284 
z"/>
<path fill="#1E1E1E" opacity="1.000000" stroke="none" 
	d="
M645.385498,712.804626 
	C644.301575,712.927917 643.062622,713.189636 643.031433,713.554504 
	C642.689392,717.559509 642.535706,721.580566 642.255371,727.077271 
	C644.898926,725.290283 646.250977,724.376282 647.603088,723.462280 
	C648.030884,723.653198 648.458618,723.844116 648.886414,724.035034 
	C648.168396,725.333679 647.724182,727.404846 646.677368,727.775879 
	C644.226746,728.644470 640.700562,729.152283 640.129700,725.695007 
	C639.412842,721.352966 639.660095,716.775513 640.127197,712.367004 
	C640.245361,711.251648 642.860840,709.507385 644.181519,709.630615 
	C645.984985,709.798828 647.647400,711.478577 649.370300,712.510315 
	C649.069763,713.049072 648.769226,713.587830 648.468628,714.126587 
	C647.576233,713.748047 646.683777,713.369507 645.385498,712.804626 
z"/>
<path fill="#282828" opacity="1.000000" stroke="none" 
	d="
M597.952637,722.951721 
	C599.472717,723.755798 600.574341,724.609741 602.156799,725.836548 
	C603.728577,722.615173 603.957397,720.947510 600.188477,719.659485 
	C598.606384,719.118713 596.974976,716.371826 596.876465,714.546387 
	C596.789612,712.938721 598.439697,710.454346 599.976318,709.714539 
	C602.689209,708.408508 604.936584,709.452515 605.199341,712.669006 
	C603.183411,712.977600 601.667725,713.209595 600.152100,713.441650 
	C601.053223,714.868164 601.681885,716.624207 602.917725,717.646118 
	C604.904541,719.289307 606.904541,725.155823 605.059998,726.311401 
	C603.359497,727.376831 600.676392,727.133667 598.477966,726.923584 
	C598.042419,726.881958 597.842651,724.372803 597.952637,722.951721 
z"/>
<path fill="#2E2E2E" opacity="1.000000" stroke="none" 
	d="
M717.117004,725.013794 
	C715.957031,728.129944 713.502563,728.895691 710.677490,728.011414 
	C707.504944,727.018250 708.122192,724.377502 708.371826,721.796509 
	C708.588074,719.560425 707.785645,717.200195 708.144348,715.011292 
	C708.454712,713.117310 709.395752,710.315491 710.725464,709.859009 
	C712.340088,709.304688 714.654907,710.789917 716.821045,712.151733 
	C717.022461,716.945068 717.069702,720.979431 717.117004,725.013794 
M710.947815,720.450928 
	C710.921448,721.611694 710.704041,722.814514 710.946289,723.916260 
	C711.074829,724.501099 711.980164,725.269287 712.572021,725.303162 
	C713.223450,725.340332 714.492249,724.646912 714.504517,724.241882 
	C714.628967,720.124695 714.640015,715.996399 714.405212,711.887085 
	C714.379456,711.435242 712.619141,711.082520 710.943970,710.383789 
	C710.943970,713.927612 710.943970,716.703918 710.947815,720.450928 
z"/>
<path fill="#282828" opacity="1.000000" stroke="none" 
	d="
M621.512939,728.249451 
	C620.356873,727.006592 618.992188,725.784912 618.919495,724.490540 
	C618.652100,719.733215 618.813416,714.951721 618.813416,709.921326 
	C621.743774,709.921326 623.943176,709.921326 626.142578,709.921326 
	C626.225586,710.234558 626.308655,710.547791 626.391663,710.861084 
	C625.034180,711.280029 623.676758,711.699036 622.295532,712.125366 
	C620.383545,716.326904 623.253967,717.509277 626.559509,719.227905 
	C625.162109,719.669861 623.764771,720.111816 622.057983,720.651611 
	C622.057983,722.259094 622.057983,723.973328 622.057983,725.664429 
	C624.168701,725.957275 625.970032,726.207153 627.771362,726.457031 
	C627.761780,727.050415 627.752197,727.643860 627.742615,728.237244 
	C625.794189,728.237244 623.845764,728.237244 621.512939,728.249451 
z"/>
<path fill="#282828" opacity="1.000000" stroke="none" 
	d="
M705.717529,723.751587 
	C706.379517,727.403442 704.316650,728.789490 701.551636,728.054932 
	C699.814575,727.593445 697.533325,725.710510 697.210144,724.117554 
	C696.533020,720.780029 696.492615,717.109619 697.184509,713.782532 
	C697.538635,712.079895 699.904785,709.881714 701.603271,709.645630 
	C703.113953,709.435547 704.957886,711.622864 706.654724,712.752014 
	C706.328369,713.253235 706.001953,713.754456 705.675598,714.255676 
	C704.158508,713.654602 702.641418,713.053528 700.345093,712.143677 
	C700.345093,717.093506 700.345093,721.415588 700.345093,726.379700 
	C702.524048,725.160950 703.997681,724.336731 705.717529,723.751587 
z"/>
<path fill="#1A1A1A" opacity="1.000000" stroke="none" 
	d="
M631.264160,712.032715 
	C630.932007,711.073975 631.038330,709.522644 631.156982,709.521729 
	C633.421143,709.503784 635.686707,709.668335 638.793823,709.842041 
	C631.783875,715.132080 637.761169,722.545898 633.447266,728.078796 
	C632.867676,722.773254 632.288086,717.467651 631.264160,712.032715 
z"/>
<path fill="#ECECEC" opacity="1.000000" stroke="none" 
	d="
M717.376038,725.022034 
	C717.069702,720.979431 717.022461,716.945068 717.020142,712.448242 
	C717.465393,711.732239 717.865784,711.478638 718.480835,711.119751 
	C718.765259,715.384155 718.835022,719.753845 718.787598,724.577881 
	C718.325317,725.031616 717.980164,725.030945 717.376038,725.022034 
z"/>
<path fill="#BC4043" opacity="1.000000" stroke="none" 
	d="
M676.952271,707.152771 
	C680.031189,707.075684 683.110046,706.998596 686.640686,706.821167 
	C687.393066,706.976807 687.693726,707.232849 687.910217,707.781738 
	C686.907043,708.294922 685.988098,708.515320 684.541504,709.031982 
	C682.830139,710.429504 681.646423,711.530884 681.175720,711.968872 
	C679.726013,710.994934 678.599915,710.238403 677.307861,709.138306 
	C677.073364,708.549866 677.004883,708.304993 676.956177,707.833496 
	C676.976013,707.606995 676.952271,707.152771 676.952271,707.152771 
z"/>
<path fill="#C25459" opacity="1.000000" stroke="none" 
	d="
M662.933472,711.380493 
	C663.601440,710.999207 664.175171,711.007996 664.748901,711.016724 
	C664.361084,715.981079 663.973206,720.945435 663.180420,725.962646 
	C662.781433,725.266418 662.787354,724.517273 662.875366,722.957153 
	C662.891907,719.755920 662.826416,717.365662 662.760864,714.975403 
	C662.786987,713.907104 662.813110,712.838867 662.933472,711.380493 
z"/>
<path fill="#BC4043" opacity="1.000000" stroke="none" 
	d="
M687.105347,728.069336 
	C687.181824,722.256042 687.258301,716.442688 687.605652,710.317322 
	C687.966431,715.695496 688.056335,721.385803 687.846008,727.546082 
	C687.545776,728.016113 687.105408,728.069336 687.105347,728.069336 
z"/>
<path fill="#F6B5AF" opacity="1.000000" stroke="none" 
	d="
M662.548828,715.286133 
	C662.826416,717.365662 662.891907,719.755920 662.858765,722.583130 
	C662.618958,720.545654 662.477844,718.071228 662.548828,715.286133 
z"/>
<path fill="#C25459" opacity="1.000000" stroke="none" 
	d="
M687.049927,728.364319 
	C687.105408,728.069336 687.545776,728.016113 687.767456,728.008789 
	C687.246826,728.998718 686.504578,729.995972 685.396606,730.867981 
	C685.685486,730.048218 686.339966,729.353760 687.049927,728.364319 
z"/>
<path fill="#C25459" opacity="1.000000" stroke="none" 
	d="
M666.414001,730.836792 
	C667.195129,730.552551 668.352173,730.407532 669.725403,730.481506 
	C668.891052,730.792297 667.840454,730.884155 666.414001,730.836792 
z"/>
<path fill="#C25459" opacity="1.000000" stroke="none" 
	d="
M662.767212,729.341370 
	C662.714417,729.028625 663.025452,728.818237 663.161133,728.689880 
	C663.527527,728.997864 663.758240,729.434204 664.062012,730.234009 
	C663.696777,730.283020 663.258362,729.968567 662.767212,729.341370 
z"/>
<path fill="#C25459" opacity="1.000000" stroke="none" 
	d="
M677.361816,730.852173 
	C677.595825,730.595703 678.134888,730.466370 678.806702,730.533813 
	C678.515198,730.813599 678.091064,730.896484 677.361816,730.852173 
z"/>
<path fill="#FDFDFD" opacity="1.000000" stroke="none" 
	d="
M495.592163,336.474609 
	C508.822479,360.792145 507.467255,385.387634 498.523254,410.167450 
	C494.579712,421.093201 488.482422,430.765991 480.017181,438.857758 
	C461.730560,456.337585 438.524750,459.579651 416.909302,446.468597 
	C407.906830,441.008026 399.654572,434.008453 391.966431,426.749908 
	C378.471283,414.008850 374.188934,397.174103 374.721985,379.365204 
	C375.544861,351.874023 386.577423,328.699707 409.330292,312.955688 
	C435.035126,295.169067 470.193970,302.843811 490.591248,329.181152 
	C492.318512,331.411377 493.799011,333.832764 495.592163,336.474609 
M408.572113,389.086304 
	C427.854156,386.743896 430.488983,367.877563 423.858734,355.916443 
	C421.152039,351.033508 416.670746,348.702789 411.051056,348.664978 
	C401.441193,348.600342 393.669006,355.902618 392.552521,366.051300 
	C391.316711,377.284821 397.660461,386.869904 408.572113,389.086304 
z"/>
<path fill="#FDFDFD" opacity="1.000000" stroke="none" 
	d="
M236.459473,339.447479 
	C246.315170,320.420654 259.438721,305.399750 280.588287,299.677338 
	C286.094482,298.187561 292.126495,297.781403 297.839630,298.133362 
	C305.037048,298.576813 311.541931,300.961487 316.288086,307.417023 
	C321.899170,315.048920 328.608948,321.863129 334.431030,329.351654 
	C352.422791,352.493073 352.424286,377.308594 339.802856,402.541718 
	C330.581543,420.977173 316.504486,434.689392 296.023315,440.077576 
	C261.107635,449.263306 228.286484,425.129852 226.043365,389.089478 
	C224.961014,371.699249 228.794235,355.365173 236.459473,339.447479 
M304.260895,342.491394 
	C290.082123,345.126862 287.122406,363.806824 291.485321,373.333038 
	C296.600037,384.500702 310.615082,386.559357 318.550446,377.162933 
	C323.176270,371.685364 324.365570,365.235779 322.874298,358.411743 
	C320.220734,346.268921 315.041412,341.737091 304.260895,342.491394 
z"/>
<path fill="#F9CDCA" opacity="1.000000" stroke="none" 
	d="
M677.473816,709.481812 
	C678.599915,710.238403 679.726013,710.994934 681.175720,711.968872 
	C681.646423,711.530884 682.830139,710.429504 684.324951,709.329651 
	C684.155273,713.433044 684.075073,717.639893 683.039185,721.596497 
	C682.444519,723.867493 680.299438,725.732605 678.852356,727.780396 
	C678.368896,727.752075 677.885498,727.723755 677.402039,727.695435 
	C677.402039,722.080627 677.402039,716.465820 677.434570,710.291260 
	C677.467041,709.731445 677.473816,709.481812 677.473816,709.481812 
z"/>
<path fill="#E60C0B" opacity="1.000000" stroke="none" 
	d="
M677.307861,709.138306 
	C677.473816,709.481812 677.467041,709.731445 677.380554,709.819763 
	C676.869385,714.190796 676.417542,718.471008 676.036499,722.757629 
	C675.920410,724.063110 676.178955,725.422302 675.922424,726.687195 
	C675.768250,727.447205 674.950317,728.072632 674.430664,728.758545 
	C673.945618,728.031982 673.460571,727.305420 672.923584,726.175659 
	C672.427734,720.348999 671.983887,714.925476 671.262695,709.249939 
	C670.985352,708.997864 671.037292,709.014465 671.037292,709.014465 
	C672.083984,708.681091 673.130737,708.347778 674.880798,708.012695 
	C676.034912,708.027222 676.485596,708.043640 676.936340,708.060059 
	C677.004883,708.304993 677.073364,708.549866 677.307861,709.138306 
z"/>
<path fill="#C71E27" opacity="1.000000" stroke="none" 
	d="
M666.671082,723.559509 
	C666.699463,720.445068 666.573547,717.765259 666.848694,715.127258 
	C666.956726,714.091553 667.962402,713.149597 668.559326,712.165039 
	C669.123901,713.036560 670.112122,713.879089 670.174255,714.785095 
	C670.367310,717.601257 670.440918,720.467896 670.122925,723.265137 
	C669.792908,726.169373 668.570618,727.202637 666.671082,723.559509 
z"/>
<path fill="#C25459" opacity="1.000000" stroke="none" 
	d="
M670.992310,708.971436 
	C669.654907,709.318359 668.310425,709.691711 666.966003,710.065063 
	C666.914917,709.798096 666.863892,709.531128 666.812866,709.264160 
	C667.965698,709.183594 669.118591,709.103027 670.654358,709.018433 
	C671.037292,709.014465 670.985352,708.997864 670.992310,708.971436 
z"/>
<path fill="#C81E22" opacity="1.000000" stroke="none" 
	d="
M676.956177,707.833496 
	C676.485596,708.043640 676.034912,708.027222 675.245605,707.988586 
	C675.385925,707.669678 675.864807,707.373047 676.648010,707.114624 
	C676.952271,707.152771 676.976013,707.606995 676.956177,707.833496 
z"/>
<path fill="#ECECEC" opacity="1.000000" stroke="none" 
	d="
M710.945923,719.965576 
	C710.943970,716.703918 710.943970,713.927612 710.943970,710.383789 
	C712.619141,711.082520 714.379456,711.435242 714.405212,711.887085 
	C714.640015,715.996399 714.628967,720.124695 714.504517,724.241882 
	C714.492249,724.646912 713.223450,725.340332 712.572021,725.303162 
	C711.980164,725.269287 711.074829,724.501099 710.946289,723.916260 
	C710.704041,722.814514 710.921448,721.611694 710.945923,719.965576 
z"/>
<path fill="#050505" opacity="1.000000" stroke="none" 
	d="
M408.159943,389.048401 
	C397.660461,386.869904 391.316711,377.284821 392.552521,366.051300 
	C393.669006,355.902618 401.441193,348.600342 411.051056,348.664978 
	C416.670746,348.702789 421.152039,351.033508 423.858734,355.916443 
	C430.488983,367.877563 427.854156,386.743896 408.159943,389.048401 
z"/>
<path fill="#060606" opacity="1.000000" stroke="none" 
	d="
M304.658020,342.399872 
	C315.041412,341.737091 320.220734,346.268921 322.874298,358.411743 
	C324.365570,365.235779 323.176270,371.685364 318.550446,377.162933 
	C310.615082,386.559357 296.600037,384.500702 291.485321,373.333038 
	C287.122406,363.806824 290.082123,345.126862 304.658020,342.399872 
z"/>
</svg>