<svg version="1.1" id="Layer_1" xmlns="http://www.w3.org/2000/svg" xmlns:xlink="http://www.w3.org/1999/xlink" x="0px" y="0px"
	 width="100%" viewBox="0 0 736 736" enable-background="new 0 0 736 736" xml:space="preserve">
<path fill="none" opacity="1.000000" stroke="#000000" stroke-linecap="round" stroke-linejoin="round" stroke-width="4.000000"
	d="
M472.500000,228.000000 
	C474.196960,230.039001 477.285889,229.492859 479.224426,231.382065 
	C476.010223,234.981934 471.367615,232.403534 468.042114,234.201950 
	C467.800507,235.966446 468.481842,237.043884 469.497253,238.002899 
	C484.124817,251.818069 494.191620,268.727814 501.894928,287.044189 
	C506.462646,297.905029 509.291595,309.404541 511.444672,321.010254 
	C511.833252,323.104828 511.589630,325.337738 511.483734,327.499207 
	C511.117096,334.982819 513.861145,341.124146 518.940857,346.555298 
	C521.931274,349.752563 524.589661,353.339966 526.909668,357.056396 
	C528.450317,359.524414 531.652405,361.759125 529.521484,365.512207 
	C528.911255,366.587036 530.184509,367.196045 530.563660,367.968781 
	C533.616699,374.191193 536.452637,380.573608 540.138123,386.412811 
	C542.470947,390.108887 540.882507,393.883789 541.949036,397.514954 
	C545.687561,410.243195 546.863403,423.351807 545.889404,436.491791 
	C544.674805,452.878082 546.789246,469.163269 546.461365,485.499237 
	C546.402832,488.416107 547.577698,491.045990 547.610657,493.998779 
	C547.818298,512.627991 545.803894,531.044373 543.675598,549.520203 
	C541.752380,566.215271 538.447754,582.553589 533.358276,598.454651 
	C528.442688,613.812256 520.250610,627.633118 510.512085,640.509155 
	C502.431427,651.193298 493.440460,661.043640 483.450256,669.944153 
	C480.608704,672.475769 477.315338,674.614929 473.944397,676.394714 
	C471.913116,677.467041 470.119019,678.482117 469.000000,680.500000 
"/>
<path fill="none" opacity="1.000000" stroke="#000000" stroke-linecap="round" stroke-linejoin="round" stroke-width="3.000000"
	d="
M598.500000,171.000000 
	C595.506165,157.654984 589.726196,145.415787 582.407043,134.059891 
	C564.780701,106.711853 540.530334,86.933632 510.999908,73.500198 
	C495.471710,66.436401 479.196045,61.715641 462.482849,58.591694 
	C455.920837,57.365158 449.066620,57.669113 442.526489,56.366936 
	C435.121155,54.892487 428.043823,54.759369 420.456451,55.612873 
	C413.466614,56.399158 406.166504,55.893806 398.997528,56.469036 
	C370.145355,58.784088 342.120422,64.591919 316.572174,78.631325 
	C293.168854,91.492027 272.930939,108.388268 257.551208,130.535568 
	C254.364975,135.123825 251.819427,140.158585 249.006775,145.003937 
	C247.859573,146.980194 247.302414,149.000000 249.000000,151.000000 
"/>
<path fill="none" opacity="1.000000" stroke="#000000" stroke-linecap="round" stroke-linejoin="round" stroke-width="4.000000"
	d="
M242.500000,326.500000 
	C242.072220,332.015381 241.109528,337.229126 237.035126,341.533264 
	C226.103027,353.081665 216.623199,365.722260 209.520081,380.009979 
	C202.637863,393.853363 196.594604,408.046906 192.504913,423.001343 
	C189.577621,433.705292 187.454742,444.575012 185.402649,455.481689 
	C183.031204,468.085785 182.188004,480.715607 182.455673,493.500916 
	C182.674744,503.964935 184.935532,513.837341 190.049713,522.972168 
	C191.119980,524.883789 191.042374,526.312073 190.746582,528.532837 
	C189.912323,534.796509 190.375168,541.217407 191.567551,547.487183 
	C191.758179,548.489502 192.844696,549.321472 193.460281,550.155334 
	C195.920502,547.971130 195.255524,544.713501 197.000000,542.500000 
"/>
<path fill="none" opacity="1.000000" stroke="#000000" stroke-linecap="round" stroke-linejoin="round" stroke-width="3.000000"
	d="
M242.000000,400.500000 
	C233.267395,417.970245 228.537476,436.869598 223.784256,455.572235 
	C219.069962,474.121674 216.570953,493.213654 215.860214,512.494873 
	C215.484985,522.674377 215.459900,532.977905 212.995789,542.998962 
	C212.297409,545.839111 214.439987,548.666687 213.000000,551.500000 
"/>
<path fill="none" opacity="1.000000" stroke="#000000" stroke-linecap="round" stroke-linejoin="round" stroke-width="3.000000"
	d="
M212.000000,551.750000 
	C215.874771,552.316772 215.070541,555.856934 215.368073,558.018188 
	C217.806854,575.733582 220.945648,593.547729 227.890366,609.833557 
	C235.940308,628.711182 246.409286,646.696716 262.986816,660.016418 
	C269.642731,665.364380 276.005005,671.073975 283.975494,674.556091 
	C286.360474,675.597961 287.304382,678.074829 288.000000,680.500000 
"/>
<path fill="none" opacity="1.000000" stroke="#000000" stroke-linecap="round" stroke-linejoin="round" stroke-width="3.000000"
	d="
M433.000000,218.500000 
	C430.521240,221.007080 429.948730,224.032410 429.943909,227.499924 
	C429.906769,254.169159 428.813202,280.822021 428.862610,307.500244 
	C428.888550,321.488831 427.932770,335.490784 428.012756,349.499939 
	C428.023834,351.441956 428.619934,353.248932 429.148041,355.100403 
	C430.291016,359.107727 429.500000,363.666656 429.500000,368.000000 
"/>
<path fill="none" opacity="1.000000" stroke="#000000" stroke-linecap="round" stroke-linejoin="round" stroke-width="3.000000"
	d="
M335.500000,169.000000 
	C341.559967,164.966522 348.496948,163.745392 355.485748,162.424545 
	C362.653381,161.069901 369.849548,161.269852 376.995636,161.595566 
	C392.025574,162.280594 406.403778,165.880310 420.033630,172.429993 
	C422.701904,173.712189 423.282562,175.276001 423.056244,178.004669 
	C422.339172,186.649796 422.103546,195.468979 422.369293,203.988480 
	C423.368530,236.017212 421.576569,267.996948 421.721771,300.001251 
	C421.796448,316.470306 421.154602,332.996216 420.966003,349.499603 
	C420.947968,351.078278 421.904572,353.089691 419.518158,354.045349 
	C419.058350,354.229462 418.510010,355.027130 418.549347,355.495850 
	C419.010406,360.989929 417.319153,366.611969 419.500000,372.000000 
"/>
<path fill="none" opacity="1.000000" stroke="#000000" stroke-linecap="round" stroke-linejoin="round" stroke-width="3.000000"
	d="
M508.499969,469.500000 
	C509.333313,474.166656 510.779694,478.820953 510.874207,483.502533 
	C511.080017,493.695496 515.124756,503.833099 512.374817,513.966003 
	C509.170929,525.771729 513.087158,537.717529 510.608856,549.522827 
	C508.300262,560.519714 506.798004,571.738159 501.890137,581.947205 
	C499.399200,587.128601 499.180359,592.832092 496.990936,597.996155 
	C492.209137,609.274902 485.791718,619.551636 478.024750,629.020325 
	C475.533447,632.057373 473.990356,636.611816 470.857208,638.222107 
	C465.117401,641.171875 461.347778,646.297363 456.008759,649.514526 
	C449.471954,653.453491 443.351166,658.318604 436.412140,661.295227 
	C427.508972,665.114441 420.535248,671.556396 412.500000,676.500000 
"/>
<path fill="none" opacity="1.000000" stroke="#000000" stroke-linecap="round" stroke-linejoin="round" stroke-width="3.000000"
	d="
M447.000000,58.000000 
	C451.771942,62.877934 458.161407,65.411369 463.542480,69.443298 
	C483.126526,84.117233 496.066406,103.502281 505.079803,125.967987 
	C509.857300,137.875961 513.481140,150.069183 516.605164,162.473511 
	C517.197388,164.824982 516.098572,166.833328 516.616211,169.604553 
	C542.371948,158.554276 568.541138,153.979279 595.500000,165.000000 
"/>
<path fill="none" opacity="1.000000" stroke="#000000" stroke-linecap="round" stroke-linejoin="round" stroke-width="3.000000"
	d="
M417.500000,366.000000 
	C411.782288,364.325592 405.557922,365.321259 400.048798,362.889435 
	C398.399567,362.161438 397.356171,363.274017 395.990143,363.209808 
	C395.331299,363.178833 393.914825,364.444916 393.036438,363.936981 
	C388.301147,361.198944 383.079285,362.027008 378.563660,363.237457 
	C371.654449,365.089508 365.166656,358.863556 358.500000,363.000000 
	C349.132477,360.904694 340.392975,365.715698 330.987122,365.441223 
	C324.888885,365.263245 318.586914,369.134094 312.524261,371.560608 
	C307.308105,373.648224 302.665894,376.946167 297.808380,379.656586 
	C291.781372,383.019592 287.256378,388.476959 281.327057,391.110657 
	C276.657288,393.184875 276.340759,397.542511 273.147034,400.178192 
	C268.467499,404.040070 263.972046,408.314148 260.413544,413.439972 
	C258.891541,415.632355 258.693146,417.166656 260.760529,418.971344 
	C250.947433,429.073975 245.597275,441.621704 240.086044,454.038177 
	C239.170654,456.100494 239.398865,458.518097 239.639679,461.034485 
	C240.009888,464.903351 238.393051,469.156952 236.877914,472.951233 
	C235.625320,476.088074 235.169266,479.391907 233.977844,482.491486 
	C232.904984,485.282593 232.922714,487.649109 234.337341,490.578552 
	C236.138412,494.308258 233.704300,498.446533 233.879425,502.505188 
	C234.035065,506.111664 232.873856,509.341858 235.175873,513.193726 
	C236.989380,516.228149 235.848480,521.034302 235.847198,524.999939 
	C235.842941,538.047302 238.244446,550.528564 241.807755,563.054688 
	C245.017715,574.338623 247.436646,585.826538 252.514297,596.493164 
	C253.720016,599.026062 253.880814,602.185059 257.963409,602.759888 
	C259.360535,602.956482 260.408508,606.123596 261.488312,608.006714 
	C271.817261,626.019409 284.925873,641.301086 304.054993,650.384216 
	C307.155701,651.856506 308.417480,654.992798 311.056976,656.392578 
	C317.042755,659.566956 323.113159,662.948853 329.566040,664.765381 
	C335.259613,666.368164 339.738739,669.525574 344.497253,672.504395 
	C347.553986,674.417847 350.093597,677.109619 353.500000,678.500000 
"/>
<path fill="none" opacity="1.000000" stroke="#000000" stroke-linecap="round" stroke-linejoin="round" stroke-width="3.000000"
	d="
M416.000000,58.000000 
	C399.543854,64.085846 385.404297,73.789703 373.572723,86.567329 
	C358.563965,102.776161 348.619202,122.002502 341.998260,142.999451 
	C340.548798,147.596191 338.630249,152.074234 338.500000,157.000000 
"/>
<path fill="none" opacity="1.000000" stroke="#000000" stroke-linecap="round" stroke-linejoin="round" stroke-width="4.000000"
	d="
M428.000000,686.500000 
	C419.995026,685.196472 411.772705,685.339233 403.975311,682.569458 
	C401.317902,681.625488 398.420685,681.368347 395.498627,681.452393 
	C389.836639,681.615112 384.143677,681.824097 378.505341,681.424438 
	C369.923981,680.816223 361.637543,682.382263 353.532379,684.617371 
	C346.218964,686.634094 338.887787,686.448181 331.499908,686.476990 
	C330.667236,686.480225 329.526001,686.457520 329.049011,685.953613 
	C325.471161,682.173889 320.460754,682.279175 315.985809,681.051697 
	C310.880463,679.651306 305.711212,679.672180 300.475067,680.893127 
	C298.716644,681.303162 298.240997,682.141052 297.426025,683.454102 
	C295.478363,686.592224 295.720215,690.448303 293.653900,693.600891 
	C292.921600,694.718201 292.704285,697.372070 295.159332,698.578247 
	C301.663361,694.363647 306.114319,686.283508 315.500000,687.000000 
"/>
<path fill="none" opacity="1.000000" stroke="#000000" stroke-linecap="round" stroke-linejoin="round" stroke-width="3.000000"
	d="
M513.500000,168.000000 
	C513.630249,166.197037 512.626587,165.713409 511.056458,164.892059 
	C501.005554,159.634186 490.498444,155.842590 479.556244,152.797897 
	C472.567719,150.853363 465.511993,149.236450 458.471832,147.622833 
	C452.273132,146.202072 445.855804,145.423401 439.495911,145.074814 
	C418.102661,143.902130 396.730377,144.512558 375.510254,147.571136 
	C363.874725,149.248230 352.419891,151.931549 341.492737,156.482544 
	C340.380219,156.945892 339.166656,157.166672 338.000000,157.500000 
"/>
<path fill="none" opacity="1.000000" stroke="#000000" stroke-linecap="round" stroke-linejoin="round" stroke-width="3.000000"
	d="
M506.500000,374.000000 
	C499.333344,371.666656 492.295746,368.752777 484.972351,367.124329 
	C470.977966,364.012634 456.722260,363.226715 442.516785,365.600372 
	C436.640350,366.582306 431.081543,368.963165 425.024445,369.700745 
	C420.382294,370.266052 417.302277,374.318481 414.512604,378.009521 
	C413.205322,379.739197 411.595490,380.945953 409.500000,381.500000 
"/>
<path fill="none" opacity="1.000000" stroke="#000000" stroke-linecap="round" stroke-linejoin="round" stroke-width="3.000000"
	d="
M432.000000,411.000000 
	C434.303009,411.696991 435.404663,413.745148 436.445984,415.531494 
	C451.452698,441.275543 473.745300,457.414795 501.968781,466.101440 
	C508.410675,468.084167 514.757996,469.681549 521.500000,469.500000 
"/>
<path fill="none" opacity="1.000000" stroke="#000000" stroke-linecap="round" stroke-linejoin="round" stroke-width="4.000000"
	d="
M286.500000,147.000000 
	C286.020416,154.239288 284.044189,161.249710 283.244415,168.471695 
	C282.748993,172.945511 281.827026,177.578384 281.714966,182.005447 
	C281.470886,191.650406 280.700684,201.351105 282.376923,211.021332 
	C282.995972,214.592514 284.106140,217.199341 286.872894,219.643875 
	C288.546143,221.122253 291.605927,221.085999 291.671661,224.831223 
	C290.696716,227.135040 286.243530,227.345200 285.500000,231.000000 
"/>
<path fill="none" opacity="1.000000" stroke="#000000" stroke-linecap="round" stroke-linejoin="round" stroke-width="3.000000"
	d="
M266.000000,459.000000 
	C259.492615,459.634430 257.325012,465.321411 254.088242,469.567261 
	C252.029739,472.267548 249.739334,475.162170 250.001511,479.000671 
	C251.666672,480.967499 253.545319,480.069061 254.948181,478.935852 
	C256.849579,477.400024 259.068695,476.377075 260.940735,474.923645 
	C264.632721,472.057281 268.261078,471.244080 272.515015,473.471313 
	C274.763519,474.648590 277.166656,473.738770 279.497650,474.089996 
	C279.523743,467.569977 273.421021,460.490845 267.000000,459.000000 
"/>
<path fill="none" opacity="1.000000" stroke="#000000" stroke-linecap="round" stroke-linejoin="round" stroke-width="3.000000"
	d="
M366.000000,294.500000 
	C371.270477,294.121460 376.109314,295.264130 379.959412,299.041382 
	C381.570923,300.622406 383.871521,300.516907 384.891327,299.837006 
	C387.328430,298.212219 389.203094,295.584717 392.033722,294.596619 
	C394.046356,293.894043 396.533936,295.137207 398.644928,293.371399 
	C397.046906,289.048920 392.814301,289.267639 389.477814,288.613129 
	C383.530853,287.446594 377.413727,287.273590 371.522156,289.072601 
	C369.003571,289.841705 366.552185,291.195953 365.500000,294.000000 
"/>
<path fill="none" opacity="1.000000" stroke="#000000" stroke-linecap="round" stroke-linejoin="round" stroke-width="4.000000"
	d="
M479.500000,153.500000 
	C479.833313,165.333328 480.346954,177.165390 480.430695,189.000488 
	C480.479065,195.831116 479.855286,202.667847 479.488312,209.499374 
	C479.356720,211.948944 477.819672,213.409637 476.115936,215.115768 
	C473.783936,217.451080 469.624878,217.958221 468.884888,222.042679 
	C470.992706,222.690430 473.007294,223.309555 475.273682,224.006058 
	C473.725983,226.824432 471.939697,228.697525 468.500000,227.500000 
"/>
<path fill="none" opacity="1.000000" stroke="#000000" stroke-linecap="round" stroke-linejoin="round" stroke-width="3.000000"
	d="
M431.000000,146.000000 
	C431.564850,154.657761 431.649384,163.424103 431.556305,171.995178 
	C431.428284,183.788620 430.453308,195.649155 430.541382,207.499695 
	C430.595673,214.801605 434.389496,219.784180 443.500000,221.500000 
"/>
<path fill="none" opacity="1.000000" stroke="#000000" stroke-linecap="round" stroke-linejoin="round" stroke-width="3.000000"
	d="
M421.500000,203.500000 
	C413.629120,199.210037 405.003937,198.797318 397.103333,201.774246 
	C389.522766,204.630646 383.062592,202.927322 375.976990,201.088623 
	C359.138367,196.719040 344.593933,200.152023 334.000000,213.000000 
	C337.110138,219.108032 339.083466,220.752472 349.237305,225.613602 
	C351.562012,223.743942 353.975403,221.802963 356.158813,220.046936 
	C359.229919,219.683884 359.213623,222.733765 359.288147,223.520081 
	C359.840027,229.343811 364.088074,230.793930 368.512787,231.407883 
	C377.636993,232.673920 386.830292,232.113724 396.001434,231.522156 
	C399.936554,231.268326 399.830353,226.524307 403.072968,225.464630 
	C403.844482,225.655533 404.365845,226.078720 404.511658,226.998154 
	C405.078979,230.576385 407.021729,231.661591 410.511810,230.536652 
	C414.125366,229.371902 417.833344,228.500000 421.500000,227.500000 
"/>
<path fill="none" opacity="1.000000" stroke="#000000" stroke-linecap="round" stroke-linejoin="round" stroke-width="3.000000"
	d="
M414.000000,381.500000 
	C415.870453,385.106262 416.948273,388.812134 417.175079,392.990509 
	C417.337097,395.975555 417.249268,399.090637 419.296814,402.136597 
	C421.623047,405.596985 416.585388,415.397339 412.499969,416.999939 
	C407.617432,418.915314 401.616180,414.461395 400.523743,407.995972 
	C400.049042,405.186523 399.756195,402.339691 399.522522,399.498138 
	C399.305786,396.862335 398.670959,394.715332 395.500397,394.494202 
	C392.580383,394.290558 391.177643,395.516052 390.426666,398.481415 
	C387.475281,410.135712 394.794830,423.643311 405.522644,427.435913 
	C411.645782,429.600647 422.191010,425.131317 426.477203,418.984100 
	C428.035370,416.749420 429.286804,414.303406 430.762604,412.008087 
	C432.360504,409.522827 431.432861,408.012756 428.999176,407.002014 
	C426.169403,405.826752 423.333313,404.666687 420.500000,403.500000 
"/>
<path fill="none" opacity="1.000000" stroke="#000000" stroke-linecap="round" stroke-linejoin="round" stroke-width="3.000000"
	d="
M289.000000,233.000000 
	C288.741058,234.019073 288.482086,235.038162 288.089325,236.583801 
	C288.285980,237.714005 290.663574,237.336426 291.208618,238.981537 
	C290.942505,239.551758 290.830322,240.134048 290.483521,240.483658 
	C285.739594,245.266373 280.812683,249.912109 277.028992,255.519547 
	C269.622314,266.496277 262.139282,277.449646 257.510895,290.004028 
	C257.055450,291.239349 256.929565,292.143036 254.977585,291.577362 
	C244.841675,288.640015 234.346268,287.433136 224.000000,285.500000 
"/>
<path fill="none" opacity="1.000000" stroke="#000000" stroke-linecap="round" stroke-linejoin="round" stroke-width="3.000000"
	d="
M433.500000,452.500000 
	C440.813446,455.820526 444.865967,461.990784 448.034088,468.984558 
	C448.611664,470.259521 449.000671,471.555237 447.943481,472.431824 
	C447.051361,473.171509 445.753174,473.413147 444.475098,472.536285 
	C443.257477,471.700958 441.780151,471.254456 440.509277,470.484680 
	C435.235443,467.290192 430.025940,465.794739 423.914337,468.827362 
	C421.741089,469.905762 418.583344,469.000000 415.700867,469.000000 
	C418.199951,460.645477 424.479523,454.919983 433.000000,452.500000 
"/>
<path fill="none" opacity="1.000000" stroke="#000000" stroke-linecap="round" stroke-linejoin="round" stroke-width="4.000000"
	d="
M461.500000,149.500000 
	C459.202911,155.383408 455.607178,160.555389 452.548889,166.027313 
	C446.641327,176.597321 441.896942,187.734421 437.609985,199.041702 
	C436.884155,200.956146 437.204041,203.462585 438.489960,205.506332 
	C440.082733,208.037827 442.348511,210.242416 442.620819,213.384735 
	C441.207733,215.102692 438.980377,214.367615 437.500000,215.500000 
"/>
<path fill="none" opacity="1.000000" stroke="#000000" stroke-linecap="round" stroke-linejoin="round" stroke-width="4.000000"
	d="
M302.500000,148.500000 
	C310.093231,163.777725 315.591705,179.868912 321.025940,195.991257 
	C322.812561,201.291885 324.223785,206.390289 319.562164,211.062012 
	C319.152039,211.473007 319.598022,212.752930 318.782867,213.370117 
	C321.244110,215.856842 324.757660,213.136032 327.011444,215.504410 
	C326.573334,217.518188 324.367035,218.727432 324.500000,221.000000 
"/>
<path fill="none" opacity="1.000000" stroke="#000000" stroke-linecap="round" stroke-linejoin="round" stroke-width="3.000000"
	d="
M332.000000,467.500000 
	C333.955566,466.712494 334.623627,465.546906 333.522827,463.487793 
	C330.840698,458.470642 327.217773,454.568634 322.055664,451.892609 
	C319.566162,450.602051 317.386841,450.886292 315.551422,452.079132 
	C309.567047,455.968384 304.985260,461.279785 301.533539,467.518555 
	C300.867340,468.722687 300.061554,470.239441 301.518982,471.477661 
	C302.751465,472.524841 303.974762,472.191772 305.012299,471.010803 
	C305.084900,470.928162 305.392242,471.071594 305.491638,470.989838 
	C313.442505,464.449219 322.223267,464.134735 331.500000,467.500000 
"/>
<path fill="none" opacity="1.000000" stroke="#000000" stroke-linecap="round" stroke-linejoin="round" stroke-width="3.000000"
	d="
M389.000000,402.500000 
	C387.166656,400.833344 385.528717,398.855927 383.463745,397.557648 
	C376.984161,393.483612 372.184143,393.729065 365.060852,399.080994 
	C361.883759,401.468079 359.335602,404.673187 356.935394,407.952728 
	C354.960968,410.650482 353.549561,413.597778 351.988281,416.474457 
	C352.808228,419.861450 355.773804,418.453644 356.901459,417.823639 
	C359.242065,416.516052 361.756348,415.469727 364.092773,414.166260 
	C370.490204,410.597290 377.140411,409.389282 384.110291,413.826782 
	C386.385284,415.275208 389.061127,417.725525 392.500000,416.500000 
"/>
<path fill="none" opacity="1.000000" stroke="#000000" stroke-linecap="round" stroke-linejoin="round" stroke-width="3.000000"
	d="
M553.500000,330.500000 
	C542.666687,329.000000 531.840881,327.441437 520.995239,326.036774 
	C517.859558,325.630615 514.666687,325.666656 511.500000,325.500000 
"/>
<path fill="none" opacity="1.000000" stroke="#000000" stroke-linecap="round" stroke-linejoin="round" stroke-width="3.000000"
	d="
M393.500000,464.500000 
	C390.803955,457.006714 385.161163,452.279816 378.503845,448.493225 
	C377.143799,447.719666 375.905365,447.841187 374.487701,448.472412 
	C367.857178,451.424591 362.930450,456.166534 359.527863,462.514923 
	C358.973938,463.548370 357.869202,464.546936 358.968628,466.023376 
	C360.114868,467.562714 361.759583,467.246613 362.973450,466.905487 
	C365.396393,466.224426 367.776978,465.196350 369.977600,463.960175 
	C374.988922,461.145020 379.719543,461.684814 384.516052,464.472382 
	C387.187531,466.024933 390.019836,467.329529 393.000000,465.000000 
"/>
<path fill="none" opacity="1.000000" stroke="#000000" stroke-linecap="round" stroke-linejoin="round" stroke-width="3.000000"
	d="
M435.000000,369.000000 
	C439.026550,371.776001 440.714600,375.669159 441.052155,380.496338 
	C441.589813,388.184021 441.941406,395.608459 438.785522,403.119965 
	C437.502716,406.173126 434.673798,405.840485 433.500000,408.000000 
"/>
<path fill="none" opacity="1.000000" stroke="#000000" stroke-linecap="round" stroke-linejoin="round" stroke-width="3.000000"
	d="
M250.000000,306.500000 
	C241.557358,303.669159 232.691833,303.972443 223.997574,303.022217 
	C221.179688,302.714233 218.333328,302.666656 215.500000,302.500000 
"/>
<path fill="none" opacity="1.000000" stroke="#000000" stroke-linecap="round" stroke-linejoin="round" stroke-width="3.000000"
	d="
M543.500000,306.000000 
	C528.446350,305.867462 513.463074,307.235748 498.520020,308.703766 
	C494.542450,309.094513 490.432861,308.962860 486.500000,310.000000 
"/>
<path fill="none" opacity="1.000000" stroke="#000000" stroke-linecap="round" stroke-linejoin="round" stroke-width="3.000000"
	d="
M538.500000,286.500000 
	C518.140076,288.938995 498.207001,293.426971 478.500000,299.000000 
"/>
<path fill="none" opacity="1.000000" stroke="#000000" stroke-linecap="round" stroke-linejoin="round" stroke-width="4.000000"
	d="
M245.000000,158.500000 
	C246.399231,152.071045 248.241196,150.862045 254.505615,151.439087 
	C258.141418,151.774002 261.837189,151.607590 265.499146,151.476273 
	C271.938965,151.245331 278.219421,152.332138 284.500000,153.500000 
"/>
<path fill="none" opacity="1.000000" stroke="#000000" stroke-linecap="round" stroke-linejoin="round" stroke-width="4.000000"
	d="
M515.500000,168.500000 
	C508.498169,169.048355 501.866211,166.606995 495.009186,165.909729 
	C490.322449,165.433136 485.666412,165.673843 481.000000,165.500000 
"/>
<path fill="none" opacity="1.000000" stroke="#000000" stroke-linecap="round" stroke-linejoin="round" stroke-width="4.000000"
	d="
M273.500000,322.000000 
	C263.888367,323.532043 254.194275,324.266846 244.500000,325.000000 
"/>
<path fill="none" opacity="1.000000" stroke="#000000" stroke-linecap="round" stroke-linejoin="round" stroke-width="3.000000"
	d="
M438.500000,685.500000 
	C436.502014,690.408936 435.617950,695.817261 432.041016,700.030334 
	C428.929321,697.730042 426.937469,688.349487 429.019348,685.514221 
	C430.637970,683.309753 432.826508,682.139038 435.482147,683.533997 
	C439.159698,685.465820 442.453186,686.052002 446.066071,683.080322 
	C448.640228,680.963196 452.087494,681.971313 454.974548,682.614319 
	C458.607605,683.423462 459.471313,686.419312 459.612762,689.995544 
	C459.724091,692.811157 463.057678,695.326538 460.172394,698.793091 
	C454.101959,696.326355 450.094452,690.930664 445.000000,687.000000 
"/>
<path fill="none" opacity="1.000000" stroke="#000000" stroke-linecap="round" stroke-linejoin="round" stroke-width="3.000000"
	d="
M389.000000,203.000000 
	C387.464905,198.166672 389.447266,193.345779 389.045044,188.496262 
	C388.689423,184.208893 388.685913,179.896149 386.382660,175.929077 
	C383.676086,184.840210 386.128052,194.071213 384.500000,203.000000 
"/>
<path fill="none" opacity="1.000000" stroke="#000000" stroke-linecap="round" stroke-linejoin="round" stroke-width="4.000000"
	d="
M423.500000,145.500000 
	C423.500000,153.166672 423.509460,160.833344 423.492706,168.499985 
	C423.488922,170.222763 423.863953,172.039459 422.500000,173.500000 
"/>
<path fill="none" opacity="1.000000" stroke="#000000" stroke-linecap="round" stroke-linejoin="round" stroke-width="3.000000"
	d="
M258.000000,291.500000 
	C266.833344,293.833344 275.666656,296.166687 284.500000,298.500000 
"/>
<path fill="none" opacity="1.000000" stroke="#000000" stroke-linecap="round" stroke-linejoin="round" stroke-width="3.000000"
	d="
M308.000000,157.500000 
	C318.202576,157.536346 326.488922,162.101959 334.000000,168.500000 
"/>
<path fill="none" opacity="1.000000" stroke="#000000" stroke-linecap="round" stroke-linejoin="round" stroke-width="4.000000"
	d="
M490.500000,323.000000 
	C497.166656,323.666656 503.833344,324.333313 510.500000,325.000000 
"/>
<path fill="none" opacity="1.000000" stroke="#000000" stroke-linecap="round" stroke-linejoin="round" stroke-width="3.000000"
	d="
M418.000000,395.000000 
	C420.597351,395.366821 422.442047,397.218933 424.451050,398.572662 
	C428.607269,401.373260 433.511597,401.127533 438.000000,402.500000 
"/>
<path fill="none" opacity="1.000000" stroke="#000000" stroke-linecap="round" stroke-linejoin="round" stroke-width="3.000000"
	d="
M430.500000,35.000000 
	C428.148468,36.993931 428.123871,39.695972 427.938568,42.495937 
	C427.683838,46.345501 427.000000,50.166668 426.500000,54.000000 
"/>
<path fill="none" opacity="1.000000" stroke="#000000" stroke-linecap="round" stroke-linejoin="round" stroke-width="3.000000"
	d="
M198.000000,542.500000 
	C200.092209,546.414917 198.973541,550.925293 200.357269,555.047913 
	C201.067825,557.164978 201.778366,559.161804 203.083908,561.126709 
	C206.791534,559.151917 203.526718,554.813354 206.000000,552.500000 
"/>
<path fill="none" opacity="1.000000" stroke="#000000" stroke-linecap="round" stroke-linejoin="round" stroke-width="3.000000"
	d="
M430.500000,33.500000 
	C433.206024,40.083672 433.656769,46.997383 433.500000,54.000000 
"/>
<path fill="none" opacity="1.000000" stroke="#000000" stroke-linecap="round" stroke-linejoin="round" stroke-width="3.000000"
	d="
M450.500000,167.000000 
	C444.117157,166.968628 438.515686,170.062698 432.500000,171.500000 
"/>
<path fill="none" opacity="1.000000" stroke="#000000" stroke-linecap="round" stroke-linejoin="round" stroke-width="3.000000"
	d="
M460.000000,687.000061 
	C465.949615,689.460327 471.899231,691.920593 478.560211,694.675049 
	C478.290222,687.624329 473.609131,684.035645 469.332367,681.258118 
	C465.989014,679.086792 461.837433,681.792847 458.500000,684.000000 
"/>
<path fill="none" opacity="1.000000" stroke="#000000" stroke-linecap="round" stroke-linejoin="round" stroke-width="3.000000"
	d="
M295.000000,687.500000 
	C290.698486,687.448120 287.741455,690.677307 284.006195,692.017273 
	C281.805603,692.806702 279.666656,694.880493 277.500000,692.000000 
	C285.203613,680.201416 289.555847,677.972229 298.000000,681.500000 
"/>
<path fill="none" opacity="1.000000" stroke="#000000" stroke-linecap="round" stroke-linejoin="round" stroke-width="3.000000"
	d="
M326.000000,685.500000 
	C325.028412,688.116333 325.560120,690.834229 325.538910,693.500305 
	C325.517578,696.185364 325.228271,698.664856 322.602905,700.826660 
	C318.658783,695.430847 314.965729,690.176453 318.000000,683.000000 
"/>
<path fill="none" opacity="1.000000" stroke="#000000" stroke-linecap="round" stroke-linejoin="round" stroke-width="2.000000"
	d="
M393.500000,282.500000 
	C389.141907,282.488495 384.979858,279.928528 380.500000,281.500000 
"/>
<path fill="none" opacity="1.000000" stroke="#000000" stroke-linecap="round" stroke-linejoin="round" stroke-width="4.000000"
	d="
M192.000000,527.000000 
	C194.000000,528.833313 196.294067,530.443787 197.906372,532.570984 
	C199.181610,534.253418 200.314346,535.283875 202.490616,535.571106 
	C205.797653,536.007446 206.784592,538.253052 206.563828,541.504333 
	C206.338806,544.818054 205.309128,548.166687 206.500000,551.500000 
"/>
<path fill="none" opacity="1.000000" stroke="#000000" stroke-linecap="round" stroke-linejoin="round" stroke-width="3.000000"
	d="
M255.500000,292.500000 
	C254.930450,297.155426 251.856003,300.943756 251.000000,305.500000 
"/>
<path fill="none" opacity="1.000000" stroke="#000000" stroke-linecap="round" stroke-linejoin="round" stroke-width="3.000000"
	d="
M427.000000,420.500000 
	C430.833344,423.720673 434.666656,421.552521 438.500000,420.500000 
"/>
<path fill="none" opacity="1.000000" stroke="#000000" stroke-linecap="round" stroke-linejoin="round" stroke-width="3.000000"
	d="
M336.000000,218.500000 
	C331.281860,221.817413 325.879974,221.602158 320.500000,221.500000 
"/>
<path fill="none" opacity="1.000000" stroke="#000000" stroke-linecap="round" stroke-linejoin="round" stroke-width="3.000000"
	d="
M387.500000,338.000000 
	C384.222321,336.833984 380.993805,335.962860 378.500000,339.500000 
"/>
<path fill="none" opacity="1.000000" stroke="#000000" stroke-linecap="round" stroke-linejoin="round" stroke-width="3.000000"
	d="
M213.500000,537.500000 
	C211.238892,536.438965 209.122742,537.262390 207.000000,538.000000 
"/>
<path fill="none" opacity="1.000000" stroke="#000000" stroke-linecap="round" stroke-linejoin="round" stroke-width="3.000000"
	d="
M306.000000,681.000000 
	C307.249420,682.875305 308.592499,684.703735 309.000000,687.000000 
"/>
<path fill="none" opacity="1.000000" stroke="#000000" stroke-linecap="round" stroke-linejoin="round" stroke-width="3.000000"
	d="
M421.500000,353.500000 
	C423.500000,354.181458 425.500000,354.181458 427.500000,353.500000 
"/>
<path fill="none" opacity="1.000000" stroke="#000000" stroke-linecap="round" stroke-linejoin="round" stroke-width="5.000000"
	d="
M291.500000,231.500000 
	C288.269562,233.724564 284.753815,230.243118 281.500000,232.000000 
"/>
<path fill="none" opacity="1.000000" stroke="#000000" stroke-linecap="round" stroke-linejoin="round" stroke-width="3.000000"
	d="
M212.000000,552.500000 
	C209.891342,554.421326 209.893646,556.945801 210.000000,559.500000 
"/>
<path fill="none" opacity="1.000000" stroke="#000000" stroke-linecap="round" stroke-linejoin="round" stroke-width="3.000000"
	d="
M449.000000,263.500000 
	C442.831207,264.295227 438.180237,267.650299 435.613831,273.054077 
	C432.763519,279.055634 432.124939,285.266357 436.963318,291.030792 
	C441.760864,296.746643 447.368591,300.012360 454.993042,297.974030 
	C462.108734,296.071686 465.744904,291.231201 467.079102,284.014618 
	C468.777710,274.827026 459.839844,262.091522 449.500000,263.500000 
"/>
<path fill="none" opacity="1.000000" stroke="#000000" stroke-linecap="round" stroke-linejoin="round" stroke-width="3.000000"
	d="
M317.000000,262.500000 
	C305.278595,264.839813 299.640869,272.714111 300.920959,284.008942 
	C301.893860,292.593231 311.449890,299.740662 321.460571,296.382446 
	C332.303497,292.745087 334.984558,285.797394 333.906921,278.012878 
	C332.879303,270.589874 329.191162,263.242462 317.500000,262.500000 
"/>
<path fill="none" opacity="1.000000" stroke="#000000" stroke-linecap="round" stroke-linejoin="round" stroke-width="3.000000"
	d="
M478.500000,462.000000 
	C473.533081,463.468262 470.036133,466.959991 466.440552,470.438568 
	C464.709991,472.112854 465.134705,473.693604 464.975922,475.411438 
	C469.907379,477.258392 474.099548,474.409332 478.507660,474.936005 
	C483.451263,475.526611 485.845551,481.057892 490.961151,481.115692 
	C493.086182,474.785522 487.503174,465.945740 479.000000,462.000000 
"/>
<path fill="none" opacity="1.000000" stroke="#000000" stroke-linecap="round" stroke-linejoin="round" stroke-width="3.000000"
	d="
M300.500000,407.000000 
	C291.939117,410.414825 286.185760,416.897430 281.530548,424.518677 
	C280.441895,426.300964 279.168427,428.222504 280.426758,430.582733 
	C283.429626,432.148163 285.521332,429.567047 287.982208,428.931152 
	C288.924866,428.687561 289.640808,427.630951 290.504120,427.005676 
	C297.459778,421.967987 304.998596,420.850159 312.978455,424.053711 
	C315.699707,425.146179 318.022583,425.824738 320.121002,422.804626 
	C317.713715,416.864441 313.275940,412.640747 308.057648,408.919159 
	C305.789978,407.301849 303.555634,406.888641 301.000000,407.000000 
"/>
</svg>