<svg version="1.1" id="Layer_1" xmlns="http://www.w3.org/2000/svg" xmlns:xlink="http://www.w3.org/1999/xlink" x="0px" y="0px"
	 width="100%" viewBox="0 0 496 496" enable-background="new 0 0 496 496" xml:space="preserve">
<path fill="#000000" opacity="1.000000" stroke="none" 
	d="
M454.712158,358.546204 
	C448.290070,363.940430 440.987335,364.952484 433.521942,364.347839 
	C432.615875,366.370911 434.852600,366.242432 434.850464,367.776825 
	C430.702545,369.696381 426.214355,369.430481 420.707977,368.510223 
	C423.568420,370.318390 426.405426,369.114044 427.955170,371.506653 
	C426.453522,373.287354 421.194489,371.848022 423.890381,376.688904 
	C419.724304,377.835236 416.036163,376.998566 411.930603,377.432495 
	C413.451111,379.930145 407.818665,380.528931 411.657837,383.986755 
	C398.665558,383.353699 387.513641,380.007721 376.440979,375.871002 
	C361.783966,370.395081 350.858856,360.033264 339.761597,349.640259 
	C322.589172,333.557648 304.227539,318.928497 284.327118,306.303589 
	C283.501343,305.779694 282.593872,305.384552 281.520020,304.822418 
	C278.740295,308.476959 279.667572,312.933167 278.303314,316.737244 
	C277.544189,318.853943 277.620941,321.720490 274.354523,321.592804 
	C271.369720,321.476105 270.714874,319.036377 270.307098,316.679718 
	C269.968109,314.720367 269.751038,312.723511 269.683868,310.736328 
	C269.387634,301.970032 267.110504,299.493256 258.187134,299.361786 
	C245.694504,299.177704 233.197342,299.269897 220.702255,299.297668 
	C216.129410,299.307861 211.761139,298.440308 207.600616,296.579407 
	C200.381836,293.350586 199.167068,290.959778 200.753769,283.320007 
	C201.902298,277.789978 201.900360,277.777527 196.435974,278.618073 
	C194.695969,278.885773 193.098495,278.428101 191.651321,277.593048 
	C188.674393,275.875244 185.544998,275.092072 182.094360,275.312378 
	C179.691650,275.465790 177.462433,275.183899 176.522690,272.268036 
	C175.778381,269.958527 173.308395,270.060791 171.500748,269.546875 
	C128.926895,257.443726 86.331566,245.416138 43.741482,233.370071 
	C42.784088,233.099289 41.796719,232.871857 40.902016,232.455231 
	C39.088718,231.610886 37.943214,230.277435 38.430977,228.113144 
	C38.949318,225.813141 40.701645,225.276871 42.655979,225.671066 
	C45.903625,226.326126 49.123005,227.154907 52.313267,228.055786 
	C92.510353,239.406998 132.691315,250.815414 172.898392,262.131042 
	C181.932098,264.673431 186.320877,262.946503 191.436218,254.976761 
	C194.312683,250.495163 197.051971,245.899841 199.478897,241.164017 
	C201.228333,237.750198 203.411789,234.521820 201.186996,229.972168 
	C199.630356,226.788864 202.216797,223.653671 204.787033,221.292633 
	C210.583176,215.968262 215.905075,210.269653 219.206741,202.982361 
	C219.929138,201.387894 221.513489,199.875946 219.889267,197.987564 
	C218.292053,196.130554 216.425079,196.621048 214.416519,197.302322 
	C205.448029,200.344269 201.679565,198.034058 200.019119,188.515823 
	C199.734726,186.885544 199.819077,185.229767 198.285995,184.032303 
	C197.270889,183.239441 197.103271,181.998962 197.809372,180.873672 
	C201.178986,175.503677 201.503708,168.584625 199.213425,164.121597 
	C195.177811,156.257462 202.481659,151.397385 202.012238,144.731506 
	C201.825409,142.078476 204.588348,142.485703 205.703583,145.490189 
	C207.510635,141.346558 209.846191,138.094360 214.615280,137.588501 
	C217.369919,137.296341 217.148987,134.717026 217.487320,132.936661 
	C218.274796,128.792740 219.629303,124.910362 221.689667,121.248596 
	C222.994064,118.930359 224.955246,117.404488 227.521774,116.932014 
	C229.852295,116.502991 231.689713,117.630539 233.142487,119.460136 
	C234.998032,121.796974 233.635117,123.787468 232.023117,126.615654 
	C235.580002,123.616211 238.657883,121.468498 242.271057,120.301689 
	C246.186661,119.037216 249.487991,120.151016 250.885147,123.991432 
	C251.952682,126.925758 253.822998,128.627274 256.197357,130.267975 
	C262.364655,134.529694 261.831818,140.483017 255.076050,143.758362 
	C252.952438,144.787933 250.715607,145.295425 248.351837,145.486816 
	C246.210205,145.660233 244.094025,146.148315 241.266602,146.612610 
	C247.346283,151.128342 250.993393,157.261780 255.652008,162.532974 
	C257.026367,164.088058 258.939789,164.740723 260.697174,165.682587 
	C261.769318,166.257172 263.625488,166.107162 262.382965,168.754608 
	C261.557281,170.513870 264.168884,170.704376 265.726990,170.330490 
	C267.629395,169.873993 269.123474,168.132263 271.306396,168.489105 
	C272.682922,175.569855 252.508835,190.445084 240.482117,191.383713 
	C254.970123,190.971268 262.258606,200.711838 269.050995,211.177887 
	C271.951965,215.647858 274.896362,220.090164 277.865692,224.515106 
	C284.190247,233.940125 292.232269,235.228210 300.922272,228.138000 
	C303.624695,225.933090 306.289154,223.639664 308.699219,221.126190 
	C316.615570,212.870255 328.396149,213.969162 334.270935,223.666946 
	C335.563171,225.800186 336.935028,227.950089 337.791504,230.269119 
	C339.666840,235.346649 336.717712,239.539749 331.365906,240.102173 
	C328.936615,240.357483 325.266998,238.967087 324.653381,242.599777 
	C324.086761,245.954330 327.847260,246.440918 330.006439,247.654175 
	C338.573639,252.468170 347.321564,256.961487 355.871185,261.805420 
	C360.347198,264.341339 364.591187,264.559448 369.095245,262.117828 
	C371.287048,260.929626 373.568878,259.876251 375.890839,258.968964 
	C377.811676,258.218414 378.927338,257.120117 378.974304,254.959122 
	C379.049805,251.482559 380.957397,249.199585 383.749786,247.250244 
	C388.382477,244.016205 393.222046,241.015762 397.120697,236.823288 
	C398.056519,235.816956 399.220367,234.829315 400.562531,235.887527 
	C401.863251,236.913040 401.158508,238.271561 400.614532,239.521912 
	C399.776245,241.448837 398.457642,243.227325 398.391327,246.021576 
	C401.958130,244.639557 405.110809,243.358871 408.309052,242.204391 
	C409.850037,241.648132 411.644836,240.868637 412.990021,242.330246 
	C414.483215,243.952667 413.396088,245.782761 412.793549,247.486267 
	C411.324036,251.640900 407.461151,253.716721 404.466919,256.729095 
	C405.835449,259.372833 408.400055,259.427551 410.519714,259.503387 
	C416.310150,259.710571 422.123962,260.309570 427.853241,258.392242 
	C431.518646,257.165588 435.450439,257.334534 439.242981,258.068878 
	C445.064789,259.196136 450.770905,259.704926 456.304565,256.831177 
	C457.580780,256.168427 459.225800,255.349106 460.260681,257.179626 
	C461.174927,258.796692 459.995728,260.025848 458.985016,261.138977 
	C456.277649,264.120697 452.758575,264.789154 448.951080,264.521973 
	C443.283264,264.124298 437.617462,263.698364 431.897736,263.743774 
	C435.685944,264.969299 439.747528,264.901886 443.312561,266.701263 
	C445.064270,267.585388 448.456146,267.312531 447.721313,270.328583 
	C447.018768,273.212311 444.315216,271.806732 442.206665,271.623444 
	C437.708649,271.232483 433.349579,269.377930 427.249176,270.067139 
	C433.719421,275.672546 442.735565,274.071320 447.282288,280.748474 
	C444.646973,283.324066 441.686432,282.498962 439.132080,281.933807 
	C435.258484,281.076752 431.496552,279.647034 427.756683,278.271637 
	C423.712708,276.784363 419.883301,275.031708 415.264954,276.193176 
	C412.792725,276.814941 409.863220,276.837067 407.412689,275.544983 
	C400.969849,272.147827 394.341431,272.726379 387.652435,274.380127 
	C376.774597,277.069458 365.766846,274.751373 354.831604,275.305084 
	C344.570374,275.824738 334.959839,279.143372 325.194336,281.799957 
	C323.016754,282.392365 322.140015,283.804688 323.075592,286.405853 
	C326.874390,296.967560 329.394012,298.377625 340.802124,297.070831 
	C353.511780,295.615021 366.263031,293.357941 379.080414,295.757416 
	C396.143921,298.951843 410.681946,307.334442 422.743774,319.462921 
	C425.853027,322.589355 428.992493,325.583588 432.901398,328.318542 
	C430.279480,331.355927 431.189697,333.679077 433.692993,336.024231 
	C437.402405,339.499329 442.316864,340.951202 445.407043,345.992676 
	C448.372833,350.831238 454.379517,354.142700 461.171936,355.236816 
	C459.385895,358.182251 456.945435,357.716461 454.712158,358.546204 
M231.115646,252.610687 
	C232.859085,251.278519 235.169754,250.282486 234.482162,246.973618 
	C233.396667,247.469147 232.563904,247.671768 231.954163,248.155518 
	C226.643967,252.368423 220.888428,255.388321 213.882065,255.376556 
	C212.450714,255.374161 211.386826,256.320557 210.655930,257.473358 
	C208.520950,260.840698 206.419510,264.230988 204.390991,267.663147 
	C203.836380,268.601501 203.015793,269.730530 204.387466,270.744324 
	C205.624146,271.658386 206.535736,271.080994 207.359482,270.077057 
	C213.633408,262.430817 222.430527,258.198639 231.115646,252.610687 
z"/>
</svg>