<svg version="1.1" id="Layer_1" xmlns="http://www.w3.org/2000/svg" xmlns:xlink="http://www.w3.org/1999/xlink" x="0px" y="0px"
	 width="100%" viewBox="0 0 1199 1012" enable-background="new 0 0 1199 1012" xml:space="preserve">
<path fill="none" opacity="1.000000" stroke="#000000" stroke-linecap="round" stroke-linejoin="round" stroke-width="8.000000"
	d="
M1100.000000,692.000000 
	C1098.422485,693.058716 1096.656372,692.466187 1095.000000,692.466492 
	C909.500000,692.502136 724.000000,692.500000 538.500000,692.500000 
"/>
<path fill="none" opacity="1.000000" stroke="#000000" stroke-linecap="round" stroke-linejoin="round" stroke-width="5.000000"
	d="
M516.000000,193.500000 
	C513.756592,188.555893 514.179626,187.551102 519.498535,184.996964 
	C524.420227,182.633560 529.287354,180.547195 533.163452,176.143906 
	C537.169373,171.593170 539.290894,166.574570 538.835144,161.013504 
	C538.136169,152.484833 538.996582,144.007401 538.726257,135.492813 
	C538.064026,114.632011 536.623108,93.822594 535.331299,73.010475 
	C534.813354,64.666214 533.913086,56.240322 532.039673,47.990993 
	C530.390442,40.728687 527.691040,39.784348 521.978088,44.473316 
	C511.717590,52.894707 504.655426,63.753162 497.974335,74.984734 
	C486.523346,94.234894 480.490540,115.661400 473.045319,136.516174 
	C470.546173,143.516525 467.175171,150.144440 465.306519,157.450516 
	C463.854462,163.127808 465.356293,167.142700 469.001282,170.998779 
	C469.324982,171.341232 469.628998,171.718491 470.005615,171.992264 
	C476.496368,176.710678 478.371033,182.788284 476.152618,190.543655 
	C475.624451,192.390137 474.887177,194.465149 476.145935,197.165085 
	C477.350769,199.749283 472.691833,201.213608 471.000000,203.500000 
"/>
<path fill="none" opacity="1.000000" stroke="#000000" stroke-linecap="round" stroke-linejoin="round" stroke-width="5.000000"
	d="
M672.500000,17.500000 
	C672.500000,18.166666 672.216858,19.190205 672.541443,19.447765 
	C680.625366,25.862013 682.388794,35.307926 684.451599,44.510849 
	C686.919434,55.520592 687.561340,66.777046 688.584778,77.992264 
	C689.785522,91.149239 690.804016,104.308304 691.625671,117.492172 
	C691.781311,119.989090 691.994690,122.507912 691.961426,124.999489 
	C691.772339,139.167221 693.106689,153.322174 692.040955,167.503082 
	C690.931885,182.260742 690.239319,196.999649 684.634155,211.053497 
	C682.535217,216.315842 678.744690,218.087402 673.992798,218.960876 
	C667.688660,220.119659 661.352173,221.165100 654.987732,221.892517 
	C653.233887,222.092941 651.632080,222.530121 650.004150,223.013870 
	C644.868225,224.540009 644.747131,224.820114 646.500000,229.999329 
	C653.666687,232.138718 660.833313,230.221451 668.000000,230.000000 
"/>
<path fill="none" opacity="1.000000" stroke="#000000" stroke-linecap="round" stroke-linejoin="round" stroke-width="5.000000"
	d="
M672.000000,20.000000 
	C665.040283,23.487837 660.618225,29.775660 656.130005,35.600193 
	C642.947144,52.707993 630.781494,70.547829 619.404236,88.940765 
	C613.432495,98.594948 609.830933,109.237503 605.737732,119.593956 
	C600.926208,131.767822 595.097351,143.299301 588.440247,154.464386 
	C585.635498,159.168411 583.200256,164.013580 581.005920,169.002609 
	C577.644897,176.644516 578.594177,183.749344 583.465515,190.524796 
	C586.565308,194.836334 589.976929,199.019913 591.023010,204.495605 
	C591.701538,208.047455 591.413574,211.378693 589.500000,214.500000 
"/>
<path fill="none" opacity="1.000000" stroke="#000000" stroke-linecap="round" stroke-linejoin="round" stroke-width="5.000000"
	d="
M300.500000,569.000000 
	C306.300110,573.378052 314.335358,574.735596 318.025818,581.986877 
	C318.330780,582.586121 318.910736,583.239624 319.513367,583.464050 
	C328.766113,586.910339 333.110291,595.261353 338.463531,602.526855 
	C345.324799,611.838989 352.750153,620.704651 359.160614,630.393738 
	C364.048035,637.780823 366.046997,646.151672 369.415741,654.036011 
	C373.025482,662.484375 376.549561,670.945801 380.987885,679.006653 
	C387.683563,691.167358 388.120026,703.934021 386.287781,717.538757 
	C384.819366,728.441956 384.671814,739.789612 388.969818,750.512085 
	C390.006165,753.097412 390.666687,755.833313 391.500000,758.500000 
"/>
<path fill="none" opacity="1.000000" stroke="#000000" stroke-linecap="round" stroke-linejoin="round" stroke-width="4.000000"
	d="
M441.000000,545.000000 
	C440.169800,540.906616 436.520813,539.999573 433.488312,538.523987 
	C410.528473,527.351746 387.426361,516.494202 363.499878,507.500275 
	C360.834015,506.498169 358.204987,505.371155 355.481781,504.561340 
	C354.337219,504.220978 352.664856,504.170685 352.064331,505.528442 
	C351.348053,507.147919 353.078857,507.952057 354.034668,508.430817 
	C359.965759,511.401703 366.008057,514.149780 371.998505,517.003174 
	C391.329132,526.210754 410.783508,535.148682 430.524689,543.441223 
	C433.637421,544.748718 436.533142,546.681763 440.553345,545.723938 
	C442.998749,545.141296 445.195801,548.115662 447.500000,549.500000 
"/>
<path fill="none" opacity="1.000000" stroke="#000000" stroke-linecap="round" stroke-linejoin="round" stroke-width="4.000000"
	d="
M218.000000,715.500000 
	C218.498413,705.488892 218.987091,695.529724 217.659012,685.479004 
	C216.787827,678.886108 216.535767,672.257080 214.002655,665.998901 
	C209.177979,654.079346 201.581741,652.607056 191.058945,658.112671 
	C180.432297,663.672485 171.364304,671.413696 164.004074,681.003113 
	C163.639008,681.478760 163.208771,681.958191 163.024139,682.508118 
	C162.537872,683.956543 161.344025,685.316345 162.486496,687.009094 
	C163.558594,688.597595 165.162537,688.054199 166.495987,687.949036 
	C171.173004,687.580444 175.897629,687.326416 180.484818,686.422913 
	C187.237854,685.092773 192.422180,687.214294 196.491653,692.506409 
	C201.533234,699.062744 205.409363,706.351074 209.488464,713.506592 
	C211.359116,716.788147 213.445633,719.821777 217.000000,721.500000 
"/>
<path fill="none" opacity="1.000000" stroke="#000000" stroke-linecap="round" stroke-linejoin="round" stroke-width="4.000000"
	d="
M323.500000,468.000031 
	C335.000000,470.500031 346.466248,473.170349 358.008453,475.457428 
	C372.817200,478.391785 387.369446,482.346466 402.002838,485.988617 
	C429.255188,492.771454 455.961121,501.474091 483.031311,508.885590 
	C487.161957,510.016510 491.395416,511.513977 496.018677,510.593842 
	C499.962311,509.808929 502.158173,513.869812 505.500000,515.000000 
"/>
<path fill="none" opacity="1.000000" stroke="#000000" stroke-linecap="round" stroke-linejoin="round" stroke-width="3.000000"
	d="
M496.000000,510.000000 
	C494.811737,505.624268 490.600067,505.509735 487.466705,504.616791 
	C463.422211,497.764496 439.518921,490.413361 415.454437,483.662415 
	C391.997406,477.081879 368.197083,471.704956 344.480194,466.083527 
	C337.943726,464.534271 331.166656,464.000031 324.500000,463.000031 
"/>
<path fill="none" opacity="1.000000" stroke="#000000" stroke-linecap="round" stroke-linejoin="round" stroke-width="4.000000"
	d="
M304.000000,570.500000 
	C304.655609,565.588867 301.590881,562.535095 298.499023,559.500977 
	C288.583923,549.771057 275.864777,544.906494 263.479797,539.546631 
	C252.124939,534.632629 240.431412,530.719666 228.003250,529.467712 
	C227.145035,529.381287 225.849380,529.057373 225.575302,528.465149 
	C222.997116,522.894348 217.996292,523.682800 213.506866,524.078003 
	C201.935059,525.096497 191.118454,528.832581 180.432434,533.339783 
	C175.146149,535.569519 170.402374,539.343384 163.996964,539.271973 
	C161.682510,539.246094 159.276184,542.259460 157.009872,544.012756 
	C147.179352,551.617859 138.720993,560.856201 128.500000,568.000000 
"/>
<path fill="none" opacity="1.000000" stroke="#000000" stroke-linecap="round" stroke-linejoin="round" stroke-width="4.000000"
	d="
M349.000000,152.500000 
	C349.014160,148.110611 349.540070,143.811340 350.394135,139.479126 
	C351.265076,135.061523 352.388245,130.627579 352.042175,125.996849 
	C351.669128,121.005768 354.252441,116.645081 355.404114,111.976349 
	C357.108307,105.067833 358.394867,98.031960 359.382019,90.983475 
	C359.750824,88.350174 361.672150,87.553833 362.433746,84.546738 
	C367.255341,91.107086 368.340942,97.682945 370.849182,103.564316 
	C374.622589,112.412148 377.700317,121.650909 377.449646,131.498718 
	C377.305389,137.164764 381.372772,140.108704 385.101135,142.330261 
	C394.102295,147.693588 399.993622,155.296768 404.574463,164.462784 
	C409.197418,173.713150 416.217773,181.388840 422.597992,189.422180 
	C426.286835,194.066757 429.688049,198.887131 432.328644,204.087021 
	C433.821716,207.027222 435.694611,208.890915 438.518127,209.399231 
	C442.755402,210.162094 444.750000,212.699402 445.717468,216.376205 
	C450.410309,218.449844 455.159210,216.758881 459.450897,215.783829 
	C472.557404,212.806168 485.786774,213.532837 498.990234,212.819077 
	C507.573334,212.355072 516.067017,213.256149 524.477295,213.831696 
	C535.592468,214.592392 546.497131,217.866699 557.008057,221.979416 
	C567.471252,226.073471 578.000000,230.000000 588.500000,234.000000 
"/>
<path fill="none" opacity="1.000000" stroke="#000000" stroke-linecap="round" stroke-linejoin="round" stroke-width="4.000000"
	d="
M497.500000,470.000000 
	C493.586700,465.741119 487.965607,465.600739 482.972504,464.643402 
	C467.046661,461.589966 451.076965,458.464264 434.978027,456.700684 
	C419.366028,454.990387 403.743500,453.017120 388.002472,452.433258 
	C380.488098,452.154510 372.999329,451.174164 365.500427,450.495392 
	C363.299744,450.296173 361.378784,450.590881 360.500000,453.000000 
"/>
<path fill="none" opacity="1.000000" stroke="#000000" stroke-linecap="round" stroke-linejoin="round" stroke-width="4.000000"
	d="
M359.500000,453.500000 
	C364.851318,456.874481 371.058044,457.360535 377.010712,457.876312 
	C394.977936,459.433105 413.123230,458.497345 430.997345,461.515656 
	C441.345215,463.263000 451.698090,465.007843 461.991089,467.045013 
	C472.109680,469.047729 482.220856,471.611694 492.502869,471.715118 
	C497.152618,471.761902 501.833344,470.366669 506.500000,472.000000 
"/>
<path fill="none" opacity="1.000000" stroke="#000000" stroke-linecap="round" stroke-linejoin="round" stroke-width="9.000000"
	d="
M669.500000,712.500000 
	C668.491455,725.489197 669.348694,738.504700 668.942322,751.498169 
	C668.757874,757.395508 668.158020,763.299622 663.015503,767.518921 
	C656.698792,772.701416 649.362732,774.284119 642.082642,771.298462 
	C635.101929,768.435425 631.023804,762.810486 630.346130,754.512573 
	C629.229004,740.832520 629.727417,727.169250 629.500000,713.500000 
"/>
<path fill="none" opacity="1.000000" stroke="#000000" stroke-linecap="round" stroke-linejoin="round" stroke-width="6.000000"
	d="
M758.500000,383.500000 
	C762.500000,391.166656 766.844360,398.675873 770.434753,406.529816 
	C780.805054,429.214600 790.915710,452.013306 796.536194,476.491669 
	C798.241882,483.920105 799.264404,491.401276 799.483215,499.000488 
	C799.557739,501.591034 799.787720,504.194855 798.031677,506.523895 
	C796.257202,508.877319 798.011047,511.382172 798.638611,513.458069 
	C802.070679,524.811218 807.376404,535.335571 813.397156,545.560547 
	C815.719238,549.504028 817.971741,553.561035 819.670593,557.933716 
	C820.867065,561.013367 822.276489,563.626648 821.083618,567.029297 
	C820.684021,568.169128 821.786621,569.384644 822.406433,570.549744 
	C823.276733,572.186096 823.742615,574.138672 823.958008,576.004822 
	C824.897095,584.142517 827.786438,591.554688 832.025513,598.484375 
	C832.503845,599.266235 833.333313,599.833374 834.000000,600.500000 
"/>
<path fill="none" opacity="1.000000" stroke="#000000" stroke-linecap="round" stroke-linejoin="round" stroke-width="4.000000"
	d="
M868.500000,765.000000 
	C867.308228,767.185120 866.483887,769.162354 866.859192,772.018494 
	C868.671570,785.810791 870.205872,799.648438 871.434937,813.505737 
	C872.422852,824.643982 872.878723,835.830872 873.486694,847.000732 
	C874.049011,857.330627 874.473694,867.668091 875.014465,877.999268 
	C875.200989,881.562134 874.655090,885.030640 874.000000,888.500000 
"/>
<path fill="none" opacity="1.000000" stroke="#000000" stroke-linecap="round" stroke-linejoin="round" stroke-width="4.000000"
	d="
M268.000000,768.000000 
	C272.729584,770.455750 277.975311,770.201111 283.004456,770.351624 
	C287.061157,770.473145 291.058075,771.008911 294.975769,771.648376 
	C299.450195,772.378784 302.305176,776.000610 305.019897,779.484497 
	C307.942627,783.235229 310.944031,786.874023 315.990479,788.041199 
	C319.975403,788.962891 321.651215,788.283569 321.422485,784.504700 
	C320.614258,771.152283 319.485657,757.586609 313.272400,745.618164 
	C308.028503,735.517029 305.505280,734.235046 294.581970,740.151367 
	C284.492004,745.616333 276.232819,753.546997 269.365295,762.901123 
	C268.265320,764.399292 269.001923,767.001282 266.500000,767.500000 
"/>
<path fill="none" opacity="1.000000" stroke="#000000" stroke-linecap="round" stroke-linejoin="round" stroke-width="11.000000"
	d="
M1096.750000,603.000000 
	C1095.115112,614.302795 1096.423950,625.670532 1095.998413,636.999939 
	C1095.812622,641.943604 1095.328857,646.940430 1093.411743,651.462585 
	C1089.891846,659.765564 1083.029419,664.179993 1074.516479,666.559082 
	C1069.392456,667.991028 1064.270142,669.340088 1058.993042,669.938599 
	C1057.471191,670.111206 1056.558838,670.497620 1056.250000,672.000000 
"/>
<path fill="none" opacity="1.000000" stroke="#000000" stroke-linecap="round" stroke-linejoin="round" stroke-width="8.000000"
	d="
M1014.000000,741.500000 
	C1018.498596,741.294922 1022.988342,741.568359 1027.511475,741.114258 
	C1032.305176,740.632874 1040.392700,747.925598 1041.499878,753.000000 
	C1043.655518,762.879272 1040.622925,767.412659 1030.514282,770.054626 
	C1026.544556,771.092041 1022.631409,772.250488 1018.501587,771.976013 
	C1013.666870,771.654663 1012.188660,770.287781 1012.571472,765.505737 
	C1013.211731,757.508484 1012.871399,749.392456 1012.859192,741.500977 
	C1012.847778,734.115112 1013.454956,726.476013 1012.537537,718.995422 
	C1012.345947,717.433350 1012.204956,715.767212 1013.196594,714.128784 
	C1018.278564,713.279114 1023.416199,712.872986 1028.525513,715.449341 
	C1037.025269,719.735291 1039.181274,729.099426 1032.997437,735.997681 
	C1031.627686,737.525635 1029.761353,738.699646 1029.500000,741.000000 
"/>
<path fill="none" opacity="1.000000" stroke="#000000" stroke-linecap="round" stroke-linejoin="round" stroke-width="5.000000"
	d="
M321.000000,259.500000 
	C320.479675,261.129272 319.733612,262.717987 320.003601,264.499451 
	C320.278656,266.314301 319.138123,268.122620 317.972229,268.368195 
	C310.872162,269.863617 308.536652,276.413666 305.213776,281.149994 
	C292.359863,299.471680 281.065002,318.760803 273.460144,339.985718 
	C272.508026,342.643097 272.421356,345.300934 272.565002,347.996552 
	C272.608429,348.811981 273.469391,349.470551 274.500000,348.750000 
"/>
<path fill="none" opacity="1.000000" stroke="#000000" stroke-linecap="round" stroke-linejoin="round" stroke-width="4.000000"
	d="
M339.250000,97.000000 
	C340.051971,100.387993 337.348694,102.828011 336.717072,105.942619 
	C334.775482,115.516472 335.129547,124.869080 335.750580,134.516052 
	C336.378540,144.270859 337.721252,154.178177 335.580444,164.017502 
	C335.034180,166.528168 333.439636,168.448624 332.857971,170.967209 
	C331.957031,174.868500 331.712524,178.108978 334.404388,181.574280 
	C337.156891,185.117615 334.987762,193.633606 330.955048,195.920761 
	C328.783295,197.152451 327.820312,199.186066 327.616669,201.013000 
	C325.503540,219.970932 325.334808,238.740097 333.950958,256.523773 
	C335.640106,260.010132 339.209259,261.536987 341.801300,263.626190 
	C344.170807,265.536072 348.398926,262.693573 351.012573,260.012268 
	C351.422791,259.591400 352.024963,259.365112 352.496277,258.995239 
	C360.379028,252.808945 370.491669,251.348038 378.992371,246.486679 
	C384.216187,243.499268 390.544891,242.150650 394.000000,236.500000 
"/>
<path fill="none" opacity="1.000000" stroke="#000000" stroke-linecap="round" stroke-linejoin="round" stroke-width="8.000000"
	d="
M559.000000,712.000000 
	C554.493164,713.291260 549.790833,713.812378 546.424927,717.938782 
	C542.522461,722.723083 542.355469,727.054688 546.471863,731.525879 
	C549.212219,734.502441 552.471130,736.759216 556.038208,738.417786 
	C559.186401,739.881714 562.135315,741.580444 565.005676,743.491516 
	C575.308044,750.351013 575.545105,760.921631 566.068665,769.079773 
	C559.732239,774.534729 546.305237,771.952820 542.991089,764.503967 
	C542.265137,762.872437 541.463684,761.256104 539.500000,760.750000 
"/>
<path fill="none" opacity="1.000000" stroke="#000000" stroke-linecap="round" stroke-linejoin="round" stroke-width="10.000000"
	d="
M1012.500000,594.500000 
	C1018.477661,596.258057 1017.941956,601.824585 1018.194519,606.018372 
	C1018.369324,608.922729 1018.703430,612.133972 1018.335632,614.978760 
	C1015.449097,637.306030 1005.957764,655.021667 983.533508,663.587769 
	C977.224792,665.997620 971.237793,668.675598 964.500000,665.500000 
"/>
<path fill="none" opacity="1.000000" stroke="#000000" stroke-linecap="round" stroke-linejoin="round" stroke-width="11.000000"
	d="
M767.750000,616.500000 
	C768.698242,618.033752 769.952637,619.460388 769.006958,621.503235 
	C762.978516,634.525085 757.118408,647.708313 744.480957,655.970886 
	C735.219360,662.026245 724.788818,665.060425 713.999390,666.996765 
	C711.413391,667.460815 709.198669,666.371948 707.000000,665.250000 
"/>
<path fill="none" opacity="1.000000" stroke="#000000" stroke-linecap="round" stroke-linejoin="round" stroke-width="5.000000"
	d="
M402.500000,773.500000 
	C399.870392,773.003113 399.927032,774.724182 399.996307,776.500122 
	C400.555206,790.828125 399.093933,805.176880 400.864868,819.516663 
	C401.531372,824.913818 400.950592,830.531372 400.347687,835.983154 
	C400.133331,837.921631 400.511200,839.666687 400.500000,841.500000 
"/>
<path fill="none" opacity="1.000000" stroke="#000000" stroke-linecap="round" stroke-linejoin="round" stroke-width="10.000000"
	d="
M936.500000,615.500000 
	C939.427246,622.032898 934.721558,626.835632 932.401489,631.955383 
	C922.232605,654.395752 903.027344,663.840942 880.000000,667.500000 
"/>
<path fill="none" opacity="1.000000" stroke="#000000" stroke-linecap="round" stroke-linejoin="round" stroke-width="5.000000"
	d="
M846.000000,627.500000 
	C845.903320,636.574951 849.521790,644.862976 851.484070,653.503601 
	C854.138428,665.192261 856.502808,676.959717 856.441467,688.999695 
	C856.388550,699.399109 857.509155,709.695679 858.612549,719.987915 
	C858.955261,723.184387 859.306702,726.826660 862.500000,729.000000 
"/>
<path fill="none" opacity="1.000000" stroke="#000000" stroke-linecap="round" stroke-linejoin="round" stroke-width="4.000000"
	d="
M694.000000,289.000000 
	C702.240601,295.006622 711.574219,300.010132 716.880493,309.069977 
	C722.849426,319.261139 732.005554,327.224152 737.278564,337.612396 
	C744.033386,350.920044 752.501099,363.033569 760.478943,375.513458 
	C762.124268,378.087219 763.500000,380.833344 765.000000,383.500000 
"/>
<path fill="none" opacity="1.000000" stroke="#000000" stroke-linecap="round" stroke-linejoin="round" stroke-width="8.000000"
	d="
M899.000000,746.000000 
	C904.874084,746.548035 911.133057,744.402100 916.524719,748.365295 
	C913.484436,764.950562 903.826477,772.166260 887.998352,772.968018 
	C884.126648,773.164124 880.716736,771.356506 877.536560,769.439331 
	C874.847839,767.818420 872.520508,765.530518 869.471008,764.594421 
	C868.684021,764.352844 868.267273,763.957581 868.034302,763.483154 
	C865.562561,758.448425 862.384277,753.521912 861.675598,747.977539 
	C860.962341,742.398193 860.868835,736.536133 862.567261,731.020691 
	C863.986023,726.413269 867.766479,723.182556 871.099854,720.108276 
	C883.660828,708.523438 899.517334,709.782898 910.505066,719.494263 
	C911.347839,720.239136 911.927246,721.707886 913.500000,720.750000 
"/>
<path fill="none" opacity="1.000000" stroke="#000000" stroke-linecap="round" stroke-linejoin="round" stroke-width="8.000000"
	d="
M992.500000,712.500000 
	C992.500000,732.166687 992.500000,751.833313 992.500000,771.500000 
"/>
<path fill="none" opacity="1.000000" stroke="#000000" stroke-linecap="round" stroke-linejoin="round" stroke-width="9.000000"
	d="
M1093.000000,713.000000 
	C1093.000000,732.333313 1093.000000,751.666687 1093.000000,771.000000 
"/>
<path fill="none" opacity="1.000000" stroke="#000000" stroke-linecap="round" stroke-linejoin="round" stroke-width="10.000000"
	d="
M747.250000,713.000000 
	C747.333374,732.166687 747.416687,751.333313 747.500000,770.500000 
"/>
<path fill="none" opacity="1.000000" stroke="#000000" stroke-linecap="round" stroke-linejoin="round" stroke-width="3.000000"
	d="
M654.000000,258.000000 
	C656.106873,262.811401 661.036560,263.729065 664.993286,266.011597 
	C675.146484,271.868683 686.090576,276.302887 695.563232,283.415771 
	C698.525574,285.640137 701.192261,288.144806 704.063599,290.419708 
	C706.212524,292.122284 705.409302,294.055023 705.500000,296.000000 
"/>
<path fill="none" opacity="1.000000" stroke="#000000" stroke-linecap="round" stroke-linejoin="round" stroke-width="11.000000"
	d="
M1016.500000,610.000000 
	C1014.287903,608.817810 1011.878601,609.002869 1009.500000,609.002258 
	C993.333313,608.998047 977.166687,609.000000 961.000000,609.000000 
"/>
<path fill="none" opacity="1.000000" stroke="#000000" stroke-linecap="round" stroke-linejoin="round" stroke-width="10.000000"
	d="
M601.000000,715.000000 
	C600.198730,716.603210 600.513611,718.325562 600.511719,720.000000 
	C600.492432,736.833313 600.500000,753.666687 600.500000,770.500000 
"/>
<path fill="none" opacity="1.000000" stroke="#000000" stroke-linecap="round" stroke-linejoin="round" stroke-width="9.000000"
	d="
M1059.500000,712.500000 
	C1059.666626,717.166687 1060.006592,721.834778 1059.966431,726.499695 
	C1059.860474,738.833374 1060.309692,751.167114 1059.571045,763.504272 
	C1059.171631,770.175659 1060.295654,770.993286 1067.000000,770.999207 
	C1071.666626,771.003357 1076.333374,771.000000 1081.000000,771.000000 
"/>
<path fill="none" opacity="1.000000" stroke="#000000" stroke-linecap="round" stroke-linejoin="round" stroke-width="3.000000"
	d="
M44.500000,712.500000 
	C49.538242,705.732971 52.293125,697.725037 56.365814,690.425110 
	C58.902939,685.877502 58.922989,680.314758 61.249569,675.381897 
	C63.396870,670.829041 64.752335,665.658813 67.644363,661.602966 
	C72.823990,654.338867 76.101364,646.123474 80.646133,638.588135 
	C81.508621,637.158142 82.004242,635.241577 81.814590,634.550903 
	C79.855583,627.416809 85.027359,623.937317 89.057487,620.059753 
	C92.486977,616.760071 95.896271,613.509338 98.622360,609.311523 
	C104.766632,612.746460 109.444221,605.187378 117.188972,608.573364 
	C120.446045,611.603943 121.134163,617.917358 121.926437,624.009583 
	C123.200592,633.807251 124.010834,643.665588 124.989624,653.501038 
	C125.157906,655.192017 125.031929,656.843994 123.067009,658.319763 
	C118.253365,655.924744 115.024902,651.537231 111.504395,647.496155 
	C103.980537,638.859863 101.511040,636.135437 89.997246,643.995972 
	C87.515900,645.690002 85.064087,647.442139 82.479126,648.964539 
	C80.526711,650.114380 78.493553,651.416504 76.000000,650.500000 
"/>
<path fill="none" opacity="1.000000" stroke="#000000" stroke-linecap="round" stroke-linejoin="round" stroke-width="12.000000"
	d="
M834.999939,602.000000 
	C834.833313,606.166687 834.663147,610.333191 834.503540,614.500122 
	C834.478027,615.165833 834.787842,616.154846 834.456543,616.451477 
	C829.908325,620.523376 831.817017,624.417603 834.415283,628.553223 
	C835.138123,629.703796 834.955872,631.497986 834.980652,633.000305 
	C835.181763,645.166443 835.333374,657.333313 835.500061,669.500000 
"/>
<path fill="none" opacity="1.000000" stroke="#000000" stroke-linecap="round" stroke-linejoin="round" stroke-width="11.000000"
	d="
M603.500000,603.750000 
	C601.484131,605.144348 599.468262,606.538696 597.354797,608.000488 
	C593.967407,606.595886 590.317261,605.959717 586.499878,605.978149 
	C574.333496,606.037048 562.166687,606.000000 550.000000,606.000000 
"/>
<path fill="none" opacity="1.000000" stroke="#000000" stroke-linecap="round" stroke-linejoin="round" stroke-width="4.000000"
	d="
M447.500000,223.500000 
	C439.784698,222.378799 433.397522,227.390274 426.011932,228.120575 
	C419.456879,228.768753 413.180878,230.908142 407.487183,234.479568 
	C404.105438,236.600784 400.888733,238.829712 399.000000,242.500000 
"/>
<path fill="none" opacity="1.000000" stroke="#000000" stroke-linecap="round" stroke-linejoin="round" stroke-width="11.000000"
	d="
M831.500000,620.000000 
	C825.288635,616.390076 818.484680,615.851135 811.499512,615.972473 
	C804.335022,616.096924 797.166687,616.000000 790.000000,616.000000 
"/>
<path fill="none" opacity="1.000000" stroke="#000000" stroke-linecap="round" stroke-linejoin="round" stroke-width="10.000000"
	d="
M829.000000,625.000000 
	C823.904785,628.217102 821.413147,633.744019 817.614990,638.100281 
	C810.646179,646.093323 803.114563,653.367432 794.469299,659.456421 
	C791.382629,661.630554 792.085938,664.599792 792.000000,667.500000 
"/>
<path fill="none" opacity="1.000000" stroke="#000000" stroke-linecap="round" stroke-linejoin="round" stroke-width="10.000000"
	d="
M672.500000,647.000000 
	C671.912476,649.625610 670.855957,651.712097 668.574402,653.590332 
	C659.989014,660.658020 650.342957,665.681030 639.991455,669.476746 
	C637.018799,670.566711 633.944702,671.325073 631.000000,669.250000 
"/>
<path fill="none" opacity="1.000000" stroke="#000000" stroke-linecap="round" stroke-linejoin="round" stroke-width="3.000000"
	d="
M362.000000,189.500000 
	C362.000000,187.000000 362.158173,184.487595 361.963226,182.002884 
	C361.664490,178.195084 358.574402,174.419113 355.496918,174.023987 
	C351.788696,173.547897 349.324707,175.430740 347.485504,178.491287 
	C344.766083,183.016510 345.530151,188.631302 349.500000,192.500000 
"/>
<path fill="none" opacity="1.000000" stroke="#000000" stroke-linecap="round" stroke-linejoin="round" stroke-width="11.000000"
	d="
M1051.000000,604.000000 
	C1051.000000,617.333313 1051.000000,630.666687 1051.000000,644.000000 
"/>
<path fill="none" opacity="1.000000" stroke="#000000" stroke-linecap="round" stroke-linejoin="round" stroke-width="4.000000"
	d="
M43.500000,712.500000 
	C46.452801,712.918274 44.668056,715.270996 44.380116,715.949097 
	C37.603874,731.904663 32.075966,748.376038 24.542150,764.020325 
	C23.269810,766.662354 22.631207,769.576355 24.000000,772.500000 
"/>
<path fill="none" opacity="1.000000" stroke="#000000" stroke-linecap="round" stroke-linejoin="round" stroke-width="4.000000"
	d="
M124.500000,575.500000 
	C120.644852,576.660400 117.681953,579.159790 115.013435,582.012573 
	C108.970726,588.472656 102.943741,594.949341 97.023598,601.521240 
	C94.045456,604.827332 94.271988,606.878235 97.500000,610.000000 
"/>
<path fill="none" opacity="1.000000" stroke="#000000" stroke-linecap="round" stroke-linejoin="round" stroke-width="10.000000"
	d="
M628.500000,638.500000 
	C627.680298,634.234497 629.497620,631.418884 632.950012,628.930603 
	C638.525879,624.911865 643.094055,619.719666 647.418274,614.433167 
	C650.164673,611.075623 652.624023,609.774353 657.045776,611.373413 
	C662.957581,613.511536 669.326660,612.287109 675.499878,612.502625 
	C680.119141,612.663940 684.839905,611.803650 689.277527,613.942932 
	C689.653015,614.123901 690.416626,613.499939 691.000000,613.249939 
"/>
<path fill="none" opacity="1.000000" stroke="#000000" stroke-linecap="round" stroke-linejoin="round" stroke-width="10.000000"
	d="
M597.000000,608.500000 
	C598.500366,612.133362 596.779114,615.443420 595.397766,618.453064 
	C591.974915,625.911072 587.664429,633.099487 583.102234,639.726196 
	C579.005615,645.676758 572.582092,650.437195 566.922729,655.412109 
	C562.990723,658.868652 558.211365,661.341248 554.037048,664.548218 
	C550.431580,667.318054 546.798157,668.506104 542.500000,666.500000 
"/>
<path fill="none" opacity="1.000000" stroke="#000000" stroke-linecap="round" stroke-linejoin="round" stroke-width="9.000000"
	d="
M970.750000,740.000000 
	C958.833313,740.000000 946.916687,740.000000 935.000000,740.000000 
"/>
<path fill="none" opacity="1.000000" stroke="#000000" stroke-linecap="round" stroke-linejoin="round" stroke-width="10.000000"
	d="
M689.500000,614.500000 
	C688.864868,625.829773 683.786926,635.295837 676.971130,643.977356 
	C674.651794,646.931519 672.083984,646.995178 668.943359,644.573425 
	C664.670654,641.278687 660.000977,638.498535 655.499634,635.500488 
	C652.725708,633.653076 649.574341,634.054077 646.500000,634.000000 
"/>
<path fill="none" opacity="1.000000" stroke="#000000" stroke-linecap="round" stroke-linejoin="round" stroke-width="8.000000"
	d="
M195.500000,423.000000 
	C197.500000,423.666656 199.458969,424.524658 201.507706,424.964081 
	C207.610764,426.272919 209.175003,427.953003 209.500000,434.000000 
	C209.759232,438.823303 206.268356,443.910950 201.489914,444.953827 
	C191.613113,447.109344 182.242065,450.923920 172.500000,453.500000 
"/>
<path fill="none" opacity="1.000000" stroke="#000000" stroke-linecap="round" stroke-linejoin="round" stroke-width="9.000000"
	d="
M933.000000,713.000000 
	C933.037048,722.676880 934.018616,732.430481 933.606567,741.983032 
	C933.189148,751.662231 933.573181,761.341614 933.000000,771.000000 
"/>
<path fill="none" opacity="1.000000" stroke="#000000" stroke-linecap="round" stroke-linejoin="round" stroke-width="9.000000"
	d="
M972.250000,712.500000 
	C971.915222,719.505005 972.460754,726.526733 972.316833,733.496216 
	C972.058655,745.999756 972.183655,758.500244 972.000000,771.000000 
"/>
<path fill="none" opacity="1.000000" stroke="#000000" stroke-linecap="round" stroke-linejoin="round" stroke-width="6.000000"
	d="
M665.500000,258.000000 
	C661.839294,257.702606 658.279114,257.088715 654.492798,257.171844 
	C649.910706,257.272461 645.977356,253.701477 642.566345,250.430817 
	C642.237854,250.115829 642.581604,248.865189 642.906128,247.966125 
	C643.959473,245.048477 644.604309,241.983383 645.548401,238.442810 
	C655.533997,239.462051 665.517029,240.481033 675.500000,241.500000 
"/>
<path fill="none" opacity="1.000000" stroke="#000000" stroke-linecap="round" stroke-linejoin="round" stroke-width="5.000000"
	d="
M783.000000,479.000000 
	C785.828308,486.568695 788.245667,494.300415 791.993835,501.503204 
	C793.228333,503.875580 794.499207,506.195099 797.000000,507.500000 
"/>
<path fill="none" opacity="1.000000" stroke="#000000" stroke-linecap="round" stroke-linejoin="round" stroke-width="4.000000"
	d="
M249.500000,403.500000 
	C248.510345,394.046661 241.850113,388.893341 235.103104,383.373962 
	C227.857422,377.446655 219.914749,382.791138 218.526810,390.005157 
	C218.180725,391.803986 217.800690,393.720032 218.058975,395.491394 
	C219.834076,407.665833 213.849319,417.131775 207.500000,426.500000 
"/>
<path fill="none" opacity="1.000000" stroke="#000000" stroke-linecap="round" stroke-linejoin="round" stroke-width="6.000000"
	d="
M189.500000,498.000000 
	C190.333023,498.168213 191.288345,498.344269 192.005066,498.372772 
	C196.238174,498.541199 195.703949,501.165344 193.902435,502.898590 
	C189.733307,506.909668 187.147110,511.498962 184.949173,516.877075 
	C183.317322,520.869995 178.585495,523.301758 174.500000,525.500000 
"/>
<path fill="none" opacity="1.000000" stroke="#000000" stroke-linecap="round" stroke-linejoin="round" stroke-width="10.000000"
	d="
M584.000000,640.500000 
	C592.000000,647.833313 599.877197,655.307922 608.064575,662.425720 
	C611.052063,665.022949 611.988953,667.856140 611.500000,671.500000 
"/>
<path fill="none" opacity="1.000000" stroke="#000000" stroke-linecap="round" stroke-linejoin="round" stroke-width="5.000000"
	d="
M575.500000,245.000000 
	C577.000000,244.833328 578.521790,244.417892 579.995911,244.546997 
	C584.283875,244.922562 587.277100,244.025192 588.082214,239.013214 
	C588.831177,234.351440 589.535706,229.579163 590.426331,225.084488 
	C592.449768,214.873627 587.589661,213.540833 579.551514,212.192734 
	C574.442627,211.335907 569.794800,207.569672 565.033569,204.939224 
	C564.118774,204.433792 563.333008,204.668228 562.500000,204.500000 
"/>
<path fill="none" opacity="1.000000" stroke="#000000" stroke-linecap="round" stroke-linejoin="round" stroke-width="6.000000"
	d="
M204.500000,445.000000 
	C207.454544,449.517761 207.205261,454.782043 206.289917,459.458893 
	C204.851456,466.808685 207.345551,473.517456 208.085648,480.490906 
	C208.409790,483.544952 209.872787,486.461975 210.435638,489.511871 
	C210.896622,492.009888 212.183929,493.373566 214.500000,494.000000 
"/>
<path fill="none" opacity="1.000000" stroke="#000000" stroke-linecap="round" stroke-linejoin="round" stroke-width="5.000000"
	d="
M241.500000,402.000000 
	C240.166672,402.333344 238.560989,403.318024 237.544708,402.893066 
	C231.454559,400.346588 225.500000,403.255096 219.500000,403.000000 
"/>
<path fill="none" opacity="1.000000" stroke="#000000" stroke-linecap="round" stroke-linejoin="round" stroke-width="4.000000"
	d="
M587.000000,240.000000 
	C579.876282,237.985703 572.711060,237.757797 565.500000,239.500000 
"/>
<path fill="none" opacity="1.000000" stroke="#000000" stroke-linecap="round" stroke-linejoin="round" stroke-width="11.000000"
	d="
M896.500000,631.000000 
	C890.921936,632.717285 885.931335,631.242859 880.965576,628.563782 
	C877.307495,626.590088 873.333313,625.570068 869.500000,628.500000 
"/>
<path fill="none" opacity="1.000000" stroke="#000000" stroke-linecap="round" stroke-linejoin="round" stroke-width="5.000000"
	d="
M805.500000,549.500000 
	C807.948792,555.811951 812.524170,560.706787 816.505798,565.995605 
	C817.492737,567.306519 819.105286,567.456116 820.500000,568.000000 
"/>
<path fill="none" opacity="1.000000" stroke="#000000" stroke-linecap="round" stroke-linejoin="round" stroke-width="4.000000"
	d="
M568.500000,194.500000 
	C569.260071,197.007355 571.772949,197.703934 573.567261,198.898987 
	C578.489502,202.177261 582.689270,205.932571 585.000000,211.500000 
"/>
<path fill="none" opacity="1.000000" stroke="#000000" stroke-linecap="round" stroke-linejoin="round" stroke-width="5.000000"
	d="
M400.000000,849.500000 
	C401.408691,852.191772 398.950531,853.570923 398.041840,855.519531 
	C396.683350,858.432434 393.102020,861.556213 394.724884,864.370300 
	C398.208374,870.410889 394.704071,875.278503 393.399658,880.474792 
	C392.428375,884.344116 393.091858,887.867065 394.000000,891.500000 
"/>
<path fill="none" opacity="1.000000" stroke="#000000" stroke-linecap="round" stroke-linejoin="round" stroke-width="5.000000"
	d="
M272.500000,349.500000 
	C269.997253,358.835144 265.264740,366.634247 257.000000,372.000000 
"/>
<path fill="none" opacity="1.000000" stroke="#000000" stroke-linecap="round" stroke-linejoin="round" stroke-width="4.000000"
	d="
M340.000000,99.000000 
	C343.569427,100.477448 343.426666,104.398438 344.773712,107.112320 
	C346.763214,111.120430 349.039551,114.732399 352.000000,118.000000 
"/>
<path fill="none" opacity="1.000000" stroke="#000000" stroke-linecap="round" stroke-linejoin="round" stroke-width="7.000000"
	d="
M281.500000,343.500000 
	C281.333344,347.666656 281.138458,351.832489 281.011597,356.000366 
	C280.945709,358.165009 281.000000,360.333344 281.000000,362.500000 
"/>
<path fill="none" opacity="1.000000" stroke="#000000" stroke-linecap="round" stroke-linejoin="round" stroke-width="7.000000"
	d="
M458.000000,178.000000 
	C461.679871,180.248184 463.977509,184.480469 468.506439,185.470520 
	C470.802917,185.972504 473.166656,186.166672 475.500000,186.500000 
"/>
<path fill="none" opacity="1.000000" stroke="#000000" stroke-linecap="round" stroke-linejoin="round" stroke-width="3.000000"
	d="
M332.500000,180.000000 
	C328.996338,185.044785 326.237885,190.225067 329.500000,196.500000 
"/>
<path fill="none" opacity="1.000000" stroke="#000000" stroke-linecap="round" stroke-linejoin="round" stroke-width="5.000000"
	d="
M645.000000,244.500000 
	C651.500000,245.833344 658.000000,247.166672 664.500000,248.500000 
"/>
<path fill="none" opacity="1.000000" stroke="#000000" stroke-linecap="round" stroke-linejoin="round" stroke-width="4.000000"
	d="
M573.500000,220.000000 
	C578.894287,221.089539 583.744995,224.353302 589.500000,224.000000 
"/>
<path fill="none" opacity="1.000000" stroke="#000000" stroke-linecap="round" stroke-linejoin="round" stroke-width="10.000000"
	d="
M708.500000,607.500000 
	C712.166687,604.167664 715.948608,606.702820 719.468140,607.622009 
	C723.111389,608.573547 726.500000,610.500000 730.000000,612.000000 
"/>
<path fill="none" opacity="1.000000" stroke="#000000" stroke-linecap="round" stroke-linejoin="round" stroke-width="4.000000"
	d="
M512.000000,205.500000 
	C517.296082,206.859573 522.632751,206.918655 528.000000,206.000000 
"/>
<path fill="none" opacity="1.000000" stroke="#000000" stroke-linecap="round" stroke-linejoin="round" stroke-width="9.000000"
	d="
M617.000000,713.000000 
	C611.645691,713.275940 606.157898,713.964050 600.999084,713.973267 
	C595.847351,713.982544 590.355652,713.262085 585.000000,713.000000 
"/>
<path fill="none" opacity="1.000000" stroke="#000000" stroke-linecap="round" stroke-linejoin="round" stroke-width="5.000000"
	d="
M267.500000,385.000000 
	C266.456879,382.464111 264.926239,380.667542 262.023621,379.909485 
	C259.718262,379.307465 257.088562,378.669006 256.013123,375.994720 
	C255.538239,374.813843 254.264648,373.999512 253.513214,374.099365 
	C245.557083,375.156860 236.941208,373.997070 230.500000,380.500000 
"/>
<path fill="none" opacity="1.000000" stroke="#000000" stroke-linecap="round" stroke-linejoin="round" stroke-width="4.000000"
	d="
M210.000000,491.250000 
	C205.153564,493.841278 198.628677,492.702606 195.000000,498.000000 
"/>
<path fill="none" opacity="1.000000" stroke="#000000" stroke-linecap="round" stroke-linejoin="round" stroke-width="3.000000"
	d="
M35.000000,759.000000 
	C31.439623,763.453064 29.460279,769.135742 24.500000,772.500000 
"/>
<path fill="none" opacity="1.000000" stroke="#000000" stroke-linecap="round" stroke-linejoin="round" stroke-width="3.000000"
	d="
M175.500000,530.000000 
	C173.000000,531.166687 170.525208,532.391907 167.992523,533.482666 
	C165.727417,534.458191 164.187363,535.916565 164.000000,538.500000 
"/>
<path fill="none" opacity="1.000000" stroke="#000000" stroke-linecap="round" stroke-linejoin="round" stroke-width="4.000000"
	d="
M515.500000,198.000000 
	C518.137573,200.843903 521.605286,200.446808 524.998840,200.541840 
	C526.627502,200.587433 526.618652,199.451996 527.000000,198.500000 
"/>
<path fill="none" opacity="1.000000" stroke="#000000" stroke-linecap="round" stroke-linejoin="round" stroke-width="8.000000"
	d="
M558.750000,710.500000 
	C559.071716,713.730408 561.954773,712.107605 563.542908,712.915710 
	C566.790955,714.568420 569.747559,716.931335 573.500000,717.500000 
"/>
<path fill="none" opacity="1.000000" stroke="#000000" stroke-linecap="round" stroke-linejoin="round" stroke-width="9.000000"
	d="
M531.500000,188.500000 
	C528.291626,189.130829 524.639893,188.835007 522.566589,192.043030 
	C521.932922,193.023529 520.750488,191.834290 520.500000,193.000000 
	C516.542175,192.132248 515.362854,195.066727 514.000000,197.750000 
"/>
<path fill="none" opacity="1.000000" stroke="#000000" stroke-linecap="round" stroke-linejoin="round" stroke-width="4.000000"
	d="
M397.000000,894.500000 
	C396.505768,897.538330 396.597107,900.706787 395.000000,903.500000 
"/>
<path fill="none" opacity="1.000000" stroke="#000000" stroke-linecap="round" stroke-linejoin="round" stroke-width="5.000000"
	d="
M461.500000,205.000000 
	C463.000000,204.666656 464.502045,204.342239 465.999664,203.998505 
	C472.774200,202.443527 475.000000,204.544113 475.000000,212.500000 
"/>
<path fill="none" opacity="1.000000" stroke="#000000" stroke-linecap="round" stroke-linejoin="round" stroke-width="5.000000"
	d="
M642.500000,251.000000 
	C639.346313,251.509460 639.414490,254.362045 638.465210,256.525543 
	C639.389099,258.777466 641.471436,259.350342 643.500000,260.000000 
"/>
<path fill="none" opacity="1.000000" stroke="#000000" stroke-linecap="round" stroke-linejoin="round" stroke-width="4.000000"
	d="
M397.500000,758.500000 
	C398.055664,761.991699 395.878937,765.073486 396.000000,768.500000 
"/>
<path fill="none" opacity="1.000000" stroke="#000000" stroke-linecap="round" stroke-linejoin="round" stroke-width="3.000000"
	d="
M612.000000,666.000000 
	C614.166687,666.000000 616.333313,666.000000 618.500000,666.000000 
"/>
<path fill="none" opacity="1.000000" stroke="#000000" stroke-linecap="round" stroke-linejoin="round" stroke-width="6.000000"
	d="
M514.000000,198.500000 
	C510.955902,202.351440 510.383362,207.343597 508.000000,211.500000 
"/>
<path fill="none" opacity="1.000000" stroke="#000000" stroke-linecap="round" stroke-linejoin="round" stroke-width="3.000000"
	d="
M88.500000,628.500000 
	C86.467628,629.784790 85.100830,632.067932 82.500000,632.500000 
"/>
<path fill="none" opacity="1.000000" stroke="#000000" stroke-linecap="round" stroke-linejoin="round" stroke-width="3.000000"
	d="
M255.500000,379.000000 
	C253.900055,380.866852 251.781952,381.179199 249.500000,381.000000 
"/>
<path fill="none" opacity="1.000000" stroke="#000000" stroke-linecap="round" stroke-linejoin="round" stroke-width="3.000000"
	d="
M320.500000,458.000000 
	C323.533997,459.320251 324.948334,460.854370 323.176208,464.583740 
	C322.091492,466.866455 322.955231,470.012451 321.500000,472.500000 
"/>
<path fill="none" opacity="1.000000" stroke="#000000" stroke-linecap="round" stroke-linejoin="round" stroke-width="3.000000"
	d="
M272.000000,355.000000 
	C273.547913,356.612488 273.397125,358.533844 273.000000,360.500000 
"/>
<path fill="none" opacity="1.000000" stroke="#000000" stroke-linecap="round" stroke-linejoin="round" stroke-width="3.000000"
	d="
M265.500000,386.000000 
	C267.833344,384.654510 270.166656,386.313293 272.500000,386.000000 
"/>
<path fill="none" opacity="1.000000" stroke="#000000" stroke-linecap="round" stroke-linejoin="round" stroke-width="4.000000"
	d="
M762.750000,381.000000 
	C760.093811,382.107452 757.414001,383.019531 754.500000,382.000000 
"/>
<path fill="none" opacity="1.000000" stroke="#000000" stroke-linecap="round" stroke-linejoin="round" stroke-width="8.000000"
	d="
M691.500000,713.500000 
	C697.541443,713.502747 703.579834,713.296936 709.505554,714.980469 
	C725.474976,719.517334 730.524353,728.191223 730.779053,741.004395 
	C731.080078,756.141541 724.376404,765.696594 709.517456,769.566895 
	C704.197510,770.952576 698.871704,770.831177 693.501770,771.044128 
	C689.441711,771.205261 687.897949,769.554565 687.946960,765.499329 
	C688.094116,753.334473 688.000000,741.166687 688.000000,729.000000 
	C688.000000,725.500000 687.839539,721.989746 688.061768,718.503967 
	C688.189697,716.496643 687.935242,713.927795 691.000000,713.500000 
"/>
<path fill="none" opacity="1.000000" stroke="#000000" stroke-linecap="round" stroke-linejoin="round" stroke-width="4.000000"
	d="
M367.000000,343.500000 
	C352.845673,345.923340 342.637695,358.279907 340.352356,372.977051 
	C339.644897,377.526611 339.568268,381.988373 339.522797,386.500244 
	C339.369568,401.701538 345.824402,407.169495 357.566406,410.246643 
	C370.706787,413.690277 383.850739,411.331909 395.976044,404.954468 
	C402.058472,401.755341 404.313385,396.020111 404.457886,389.499054 
	C404.695770,378.766083 403.688568,367.952118 398.323303,358.601410 
	C391.694427,347.048584 380.886230,342.190704 367.500000,343.500000 
"/>
<path fill="none" opacity="1.000000" stroke="#000000" stroke-linecap="round" stroke-linejoin="round" stroke-width="8.000000"
	d="
M793.000000,712.000000 
	C783.725525,712.918396 776.117249,716.517822 769.879700,723.898315 
	C761.974365,733.252075 761.906128,749.426086 767.502197,757.998535 
	C775.014771,769.506836 788.442139,775.094299 800.981079,771.435181 
	C811.262573,768.434814 819.028503,762.367798 821.992004,751.497803 
	C827.439453,731.516174 815.074280,714.126221 796.001038,712.487976 
	C795.159607,712.415710 794.333313,712.166687 793.500000,712.000000 
"/>
</svg>