<svg version="1.1" id="Layer_1" xmlns="http://www.w3.org/2000/svg" xmlns:xlink="http://www.w3.org/1999/xlink" x="0px" y="0px"
	 width="100%" viewBox="0 0 736 976" enable-background="new 0 0 736 976" xml:space="preserve">
<path fill="#000000" opacity="1.000000" stroke="none" 
	d="
M737.000000,132.531342 
	C735.857056,131.011948 736.096069,128.811142 736.089233,126.670486 
	C735.966797,88.631500 735.861755,50.592449 735.768738,12.553376 
	C735.763916,10.573759 735.565186,8.550745 736.756958,6.341955 
	C737.000000,48.020893 737.000000,90.041786 737.000000,132.531342 
z"/>
<path fill="#000000" opacity="1.000000" stroke="none" 
	d="
M737.000000,919.531372 
	C736.711060,918.715881 736.174316,917.432434 736.170593,916.147461 
	C736.119751,898.822571 736.136902,881.497375 736.167847,864.172363 
	C736.169312,863.356689 736.458374,862.541565 736.806763,861.363098 
	C737.000000,880.354248 737.000000,899.708435 737.000000,919.531372 
z"/>
<path fill="#000000" opacity="1.000000" stroke="none" 
	d="
M737.000000,970.531372 
	C735.310974,961.930908 735.923645,952.829163 736.806824,943.363159 
	C737.000000,952.020874 737.000000,961.041809 737.000000,970.531372 
z"/>
<path fill="#000000" opacity="1.000000" stroke="none" 
	d="
M348.865051,659.275635 
	C350.937775,665.704407 352.448273,671.829285 352.390594,678.242859 
	C352.364044,681.196289 353.590729,682.503601 356.743439,681.918518 
	C360.955566,681.136841 365.007599,682.116211 368.988831,683.515320 
	C370.386841,684.006653 371.863800,684.417603 373.331970,684.540955 
	C381.159668,685.198547 381.662750,684.696350 382.677429,676.858948 
	C384.276917,664.504517 389.019440,653.475891 396.879913,643.800049 
	C399.078827,641.093262 401.604767,638.840210 405.402405,639.958130 
	C409.198425,641.075562 409.981201,644.343628 410.471375,647.795593 
	C412.197968,659.955017 410.905090,672.040588 409.521698,684.100464 
	C409.122589,687.579346 409.184448,690.530640 411.497528,693.445557 
	C414.534943,697.273193 416.274231,701.844360 417.319794,706.594727 
	C418.039581,709.865234 419.202301,711.234375 422.792236,709.717224 
	C425.600800,708.530334 428.662445,707.525330 432.020142,708.087891 
	C431.603760,710.881897 429.252869,710.360962 427.783203,711.026489 
	C425.821350,711.914856 423.697540,712.438354 421.672272,713.195984 
	C419.886475,713.864014 418.884064,715.193909 419.465179,717.095459 
	C420.087372,719.131409 421.769073,718.471924 423.234192,718.218750 
	C426.020233,717.737488 428.798920,717.144043 431.607147,716.889282 
	C433.088593,716.755005 434.981476,716.166016 436.162811,718.666565 
	C432.796143,719.250366 429.613220,719.723389 426.464600,720.364624 
	C419.625153,721.757568 418.927338,723.090576 423.314606,728.711365 
	C430.417847,737.811951 433.965179,748.197510 435.630310,759.391785 
	C436.882141,767.807556 435.361603,775.985474 433.214600,784.076843 
	C432.700195,786.015503 432.011841,788.149109 430.345062,789.242310 
	C425.431213,792.465454 423.489899,797.450867 421.343201,802.545105 
	C418.919647,808.296509 414.586914,812.795593 410.159210,817.127319 
	C409.218140,818.047974 407.947479,818.925842 407.560181,820.070862 
	C405.002045,827.633301 401.259094,830.967041 393.290009,828.852722 
	C386.235840,826.981140 379.414398,828.119995 372.536194,827.660156 
	C362.756927,827.006409 352.997131,825.245483 343.123444,826.178833 
	C340.123474,826.462341 337.131836,826.511230 334.742096,828.790649 
	C334.020874,829.478760 322.065796,830.169434 321.330170,829.551880 
	C320.167633,828.575806 319.079376,828.444763 317.655670,828.877075 
	C315.637573,829.489929 313.895020,828.372559 314.282745,826.505066 
	C314.968170,823.203552 312.727478,822.093262 310.918976,820.465027 
	C297.450897,808.340027 291.119476,793.628235 294.479340,775.345154 
	C295.079803,772.077820 295.463959,768.750183 295.655029,765.433411 
	C295.898468,761.208435 296.490692,757.275757 291.225464,754.575500 
	C286.928925,752.372131 287.203278,747.253296 288.494537,742.853394 
	C290.100891,737.379761 293.912994,733.335754 297.862762,729.502014 
	C299.970917,727.455811 300.685303,725.577087 300.132874,722.487183 
	C297.681519,708.777527 299.545013,695.239868 303.151306,681.991943 
	C311.856049,650.014221 327.340637,621.888000 351.426758,598.791687 
	C352.116302,598.130493 353.089142,597.587036 352.792999,595.558044 
	C344.288940,598.383606 338.563629,604.693665 332.512939,611.237732 
	C330.689606,602.156921 334.056000,596.465881 340.606293,592.106628 
	C343.211273,590.372925 343.077667,590.172180 343.536926,586.557983 
	C343.151093,587.237305 342.940857,587.643127 342.696808,588.027466 
	C342.436676,588.437195 342.144531,588.826538 341.875519,589.211670 
	C334.429352,586.044128 332.958984,579.883789 337.741486,571.380554 
	C340.619354,571.985291 344.025543,571.408386 345.577698,575.166687 
	C345.762268,575.613708 346.769257,576.153198 347.172638,576.012512 
	C352.747131,574.067566 358.916107,574.493286 365.668945,571.773438 
	C360.155792,568.466553 355.216522,566.501770 351.112701,563.226257 
	C350.387360,562.647339 349.610504,563.422119 348.856628,563.763977 
	C343.211761,566.324341 341.611328,565.434204 341.264160,559.691956 
	C341.237091,559.243958 340.756134,558.839844 340.610199,558.376221 
	C340.526520,558.110413 340.693146,557.765808 340.748016,557.451477 
	C342.195221,556.467285 343.176605,558.142212 344.452362,558.086060 
	C344.556305,553.059570 346.071655,551.438721 350.374603,551.788391 
	C350.713684,546.440613 355.366455,544.954468 358.974518,544.363220 
	C363.916260,543.553467 368.730927,542.371582 373.285767,540.639221 
	C377.486389,539.041626 378.980316,540.878296 380.814972,544.226868 
	C381.985840,544.481018 382.088715,541.590210 384.192749,542.542053 
	C384.864105,545.746582 382.662079,547.705017 380.416168,549.171570 
	C378.222504,550.604004 377.749847,552.110352 378.117462,554.559937 
	C378.509888,557.174866 378.292450,559.877869 378.396332,562.540222 
	C378.660553,569.313904 382.944031,571.825073 389.037872,569.094788 
	C393.279785,567.194214 397.233521,564.566833 401.883087,563.638428 
	C403.770569,563.261536 404.725128,562.055969 405.198608,560.325439 
	C406.282745,556.362732 409.159760,556.649963 411.892822,557.902710 
	C414.682983,559.181641 415.862274,561.296875 414.430939,564.663513 
	C413.234100,567.478577 416.092896,570.854248 415.232147,573.099609 
	C413.302643,578.132812 417.904358,577.132385 419.464325,578.896729 
	C419.868256,580.679688 417.960632,580.819763 417.040863,582.078552 
	C418.214142,582.442444 419.215271,582.752991 419.445465,582.824402 
	C421.395477,588.654602 416.192505,592.797180 417.281525,598.171265 
	C417.811768,600.787781 413.781189,600.237244 414.043945,602.713135 
	C408.029266,600.241150 409.309235,607.126343 406.499969,609.008362 
	C404.081543,610.628479 400.992584,612.223938 399.155579,615.058411 
	C398.657471,615.826904 396.439667,616.690430 395.158661,615.062927 
	C392.738831,611.988647 389.856903,612.590698 385.973450,614.506836 
	C387.423065,607.040955 384.036774,601.243530 381.557678,593.991638 
	C381.149048,601.707397 382.520081,607.964417 385.209656,613.055908 
	C374.761047,618.014526 365.154999,615.403320 355.947144,611.285767 
	C352.612549,615.204407 353.288696,620.348938 350.448151,625.124023 
	C346.875885,617.292542 350.259949,611.213806 353.056458,604.128967 
	C335.764984,621.345337 324.168152,640.950684 316.042267,662.709473 
	C311.780701,674.120789 308.466980,685.803650 307.211456,697.986023 
	C307.035461,699.693665 305.716522,701.977600 308.503937,702.458557 
	C311.012238,702.891418 313.866699,705.338379 316.189484,701.878418 
	C319.074188,697.581299 322.195526,693.469116 326.113129,690.034546 
	C327.783600,688.570068 327.594055,686.947388 326.849091,685.064148 
	C323.102936,675.593994 322.585175,666.028625 325.811249,656.246399 
	C327.056183,652.471619 327.679688,648.489624 328.547943,644.593506 
	C329.287628,641.274292 330.785339,638.579834 334.456970,638.007202 
	C338.038055,637.448792 340.540924,639.402344 342.425873,642.138550 
	C345.903809,647.187195 346.863647,653.218689 348.865051,659.275635 
M339.723450,765.959961 
	C343.732025,768.633728 343.750336,773.046204 339.756287,775.200623 
	C337.150482,776.606201 334.652130,776.134888 332.114624,774.890259 
	C330.431458,774.064636 328.443756,773.480774 327.060333,775.189453 
	C325.750793,776.806946 327.199280,778.389893 328.010895,779.730286 
	C332.063324,786.422791 336.154419,793.094604 340.378265,799.679871 
	C344.000397,805.326904 347.500641,811.058899 352.992767,816.873657 
	C346.359711,817.198792 342.274872,815.565308 338.925629,811.545105 
	C328.285645,798.773804 319.601135,784.864624 313.722565,769.265137 
	C313.277740,768.084717 313.134460,766.618591 311.344452,766.179871 
	C310.989105,766.673279 310.493988,767.146423 310.254120,767.725281 
	C303.977112,782.873474 304.523407,797.904541 311.215149,812.761230 
	C315.225189,821.664124 321.932404,826.184875 331.920258,824.699646 
	C342.833130,823.076843 353.751770,822.309937 364.717682,823.985962 
	C371.186829,824.974670 377.685150,824.621033 384.172302,824.588196 
	C392.653046,824.545288 398.989014,821.101807 403.257721,813.368347 
	C412.210358,797.149353 414.079803,780.772522 404.240997,764.511353 
	C398.622894,755.225830 391.755402,746.829468 379.887085,744.646057 
	C376.784729,744.075256 373.014343,743.387756 371.484161,739.379211 
	C383.328217,740.088745 395.926025,747.003723 404.929749,760.329529 
	C417.896912,779.521362 415.650360,798.655884 403.159027,818.585144 
	C422.148621,805.009094 424.885864,787.309875 421.011780,767.210510 
	C424.733459,773.035156 425.240295,779.313049 425.340210,785.487549 
	C431.443054,784.923279 430.906189,779.900391 431.648956,775.953430 
	C435.345612,756.309631 428.783997,739.646423 416.447388,724.730042 
	C414.847198,724.210693 413.481781,726.564392 411.774170,725.115295 
	C411.234497,723.012939 413.220978,722.790100 414.215546,721.876709 
	C415.537109,720.663025 416.393188,719.470520 415.098114,717.857971 
	C412.074432,718.062378 411.078217,722.269653 407.354156,721.055298 
	C408.943115,716.127014 416.676514,714.945251 414.561768,708.273621 
	C412.978424,703.278442 411.882568,698.084839 408.024841,694.170410 
	C405.483521,695.862915 406.632050,700.087097 403.063751,700.557434 
	C401.896240,699.312805 402.377899,698.138306 402.779938,697.091553 
	C405.492218,690.029419 406.766693,682.658447 407.323608,675.173401 
	C407.990662,666.208191 408.404602,657.214722 407.367615,648.251526 
	C407.131989,646.214905 406.967407,643.590027 404.306549,643.019836 
	C402.016602,642.529175 400.788483,644.453186 399.482788,645.971558 
	C392.218140,654.419922 388.522675,664.443604 386.184998,675.172180 
	C385.106506,680.121704 386.016785,685.375427 384.589722,689.262024 
	C372.706268,687.551270 361.962891,682.729187 350.750153,686.644836 
	C349.401489,685.531250 349.175964,684.524780 349.258392,683.535522 
	C350.315918,670.843750 345.531555,659.368958 341.851959,647.660828 
	C341.235229,645.698486 340.174896,643.997681 338.705017,642.630859 
	C336.086548,640.195923 332.747559,640.726135 332.150085,644.150879 
	C330.585052,653.121765 326.785980,661.623840 327.177734,671.039062 
	C327.460327,677.830444 330.055634,683.888611 332.200623,690.311340 
	C326.954987,692.492920 324.380524,696.886658 321.267334,700.746155 
	C318.927856,703.646423 317.178864,706.525452 320.786865,709.798889 
	C321.525482,710.468933 321.703583,711.576355 320.691467,712.427795 
	C318.497131,713.099182 318.354553,709.557678 315.903412,710.262634 
	C314.059814,713.820190 320.549408,713.347107 319.132233,716.757690 
	C317.290436,717.718323 315.915161,715.223206 313.969116,715.881348 
	C312.998138,716.962708 312.347382,718.188049 313.088806,719.876831 
	C315.289093,720.404175 319.963165,720.039917 318.508362,722.829590 
	C316.542023,726.600098 317.003876,731.071350 314.961090,734.064758 
	C309.818481,741.600281 315.989227,746.925415 316.417023,753.860352 
	C335.547363,740.318909 357.061157,733.554688 364.164978,738.746460 
	C361.324341,740.573975 358.237976,739.699524 355.373077,740.106201 
	C342.734650,741.900208 330.523926,744.720764 320.921844,754.099243 
	C317.798767,757.149658 317.737823,759.884521 320.652283,762.912231 
	C331.423981,757.638123 336.971527,758.629150 338.364441,765.781311 
	C337.070099,765.036865 335.735657,764.353638 334.488892,763.536499 
	C330.602295,760.989502 327.200104,762.314392 323.951447,764.802551 
	C322.074860,766.239807 321.934204,767.993347 322.883484,770.120911 
	C323.816498,772.212097 325.192169,772.135254 326.946411,771.474854 
	C328.775543,770.786316 330.574097,771.318665 332.329651,771.838135 
	C339.356049,773.917358 340.451355,772.961853 339.723450,765.959961 
M296.609955,782.851746 
	C296.541138,793.130493 299.279114,802.393005 306.206146,810.152832 
	C306.040314,807.434387 305.389740,804.875916 304.780151,802.307678 
	C302.015564,790.660950 301.961670,778.901917 307.284790,768.182678 
	C310.219421,762.273315 310.288605,757.360596 308.052307,751.747009 
	C307.501160,750.363525 307.220245,748.874451 306.750641,747.455200 
	C306.606750,747.020203 306.248260,746.656250 306.039825,746.338684 
	C304.410583,746.103821 304.035767,748.970337 301.705017,747.373169 
	C302.984039,742.858704 303.193665,737.790100 308.819794,735.516602 
	C310.807526,734.713318 313.176514,733.214294 312.424957,730.781067 
	C311.591949,728.084167 312.496887,726.087524 314.300903,723.261658 
	C303.762665,725.906433 298.064819,732.919373 292.869659,740.486145 
	C291.645386,742.269287 291.086426,744.420471 291.037567,746.635315 
	C290.931427,751.450806 293.081604,753.549377 297.936188,753.716431 
	C299.628906,753.774658 301.520294,752.610291 303.532684,754.689453 
	C301.901428,756.408508 298.783997,756.725098 298.889191,760.214600 
	C299.109528,767.521912 297.893860,774.778442 296.609955,782.851746 
M369.073578,581.840515 
	C367.587982,586.014771 363.591919,588.649841 362.321411,593.250916 
	C366.647858,588.406128 372.573792,587.265015 378.238770,585.518066 
	C379.316101,585.185791 380.227295,584.339600 381.245728,583.786804 
	C384.332550,582.111450 385.620544,579.812805 383.953247,576.391602 
	C382.344330,573.090210 380.253448,571.107788 376.098145,572.145264 
	C370.731476,573.485229 368.078949,578.741516 363.139038,580.650574 
	C362.371948,580.947021 361.105591,581.818176 361.566803,583.314636 
	C363.604523,583.047424 365.061737,581.971252 366.516144,580.835754 
	C367.427124,580.124573 368.507233,579.216980 369.073578,581.840515 
M336.968079,801.294495 
	C335.829742,798.147949 334.027374,795.370361 332.297089,792.527588 
	C325.216278,780.894409 318.143524,769.258728 314.414459,755.962341 
	C312.927277,750.659485 311.036682,745.469849 309.329742,740.228638 
	C308.939056,740.393433 308.548370,740.558289 308.157715,740.723083 
	C313.802460,764.970398 322.456116,787.804626 340.040771,806.426514 
	C339.122742,804.926880 338.204712,803.427246 336.968079,801.294495 
M389.624146,574.862793 
	C389.057068,575.776306 387.727570,577.246643 389.749146,577.419250 
	C394.586426,577.832275 399.560791,578.693420 404.109314,575.821777 
	C406.969635,574.015991 407.522888,571.257507 406.604980,568.535583 
	C405.528168,565.342712 402.862030,566.225159 400.350983,566.992371 
	C396.057373,568.304382 392.792114,570.932678 389.624146,574.862793 
M353.937988,555.280823 
	C353.505798,557.145020 352.004303,559.167114 353.652649,560.887390 
	C357.312164,564.706604 362.016541,566.611267 367.167664,567.731934 
	C365.066345,563.156616 362.731049,559.001038 360.056824,555.076416 
	C358.532623,552.839539 356.359131,552.436890 353.937988,555.280823 
M347.829102,579.418701 
	C346.978027,582.117920 348.806641,583.809937 349.924835,586.062866 
	C353.797699,583.163147 358.197296,581.745483 361.562225,577.532776 
	C356.526489,575.956238 352.492310,577.877625 347.829102,579.418701 
M399.472412,598.042786 
	C400.782776,599.430176 401.210785,601.650757 404.048798,602.455750 
	C404.269165,600.092896 407.578766,598.275940 405.764008,595.944214 
	C403.521332,593.062805 400.282043,590.835876 395.702087,591.822144 
	C396.340118,594.235901 397.889038,595.752991 399.472412,598.042786 
M369.305054,554.323242 
	C368.756134,552.450195 368.623932,550.006897 365.737396,550.585999 
	C364.168823,550.900696 362.867096,552.315735 363.500824,553.924683 
	C365.154602,558.123047 367.213531,562.145203 371.812988,564.549500 
	C371.042511,561.391724 370.272064,558.233948 369.305054,554.323242 
M408.030487,583.214600 
	C410.799133,580.436401 408.395477,578.272156 406.379822,578.648682 
	C402.384644,579.394958 397.866425,579.447021 393.662018,583.238220 
	C398.845673,583.986877 403.059235,584.087341 408.030487,583.214600 
M302.220398,705.820251 
	C302.194244,708.803528 302.068085,711.790283 302.170197,714.769165 
	C302.271393,717.721497 301.886108,720.831482 304.124542,723.378601 
	C302.913452,711.145813 303.423309,699.032043 305.424713,686.952271 
	C302.886932,692.696289 303.396240,698.930237 302.220398,705.820251 
M395.385254,597.088562 
	C393.718842,594.992737 392.362244,592.572815 388.691376,590.548767 
	C391.450226,596.724915 393.500580,601.699524 398.714081,605.823181 
	C399.307465,601.587952 397.262421,599.734375 395.385254,597.088562 
M387.432220,601.935486 
	C388.415405,603.067932 388.872772,605.090759 391.916779,603.851074 
	C389.777313,599.672058 387.701569,595.617554 385.625854,591.562988 
	C384.556763,595.295898 385.764435,598.309998 387.432220,601.935486 
M311.619659,710.282227 
	C314.197235,705.339966 310.022919,705.931335 307.243469,704.773376 
	C306.334656,707.115295 305.611053,709.265808 307.094666,711.090637 
	C308.152557,712.391907 309.830902,711.668152 311.619659,710.282227 
M406.117157,589.645203 
	C411.252899,589.474854 411.252899,589.474854 410.816315,585.366577 
	C408.161041,586.638611 405.090424,585.849609 402.048889,587.848328 
	C403.473328,588.581848 404.447235,589.083374 406.117157,589.645203 
M378.679688,597.778992 
	C378.509338,597.242493 377.847809,596.246094 377.741577,596.757751 
	C377.006561,600.298767 375.840698,603.874451 376.788544,607.963745 
	C378.964294,604.920166 378.964294,604.920166 378.679688,597.778992 
M309.093384,719.185730 
	C309.354736,717.846191 310.390381,716.352051 308.313171,715.415161 
	C305.746124,716.244141 306.447998,718.030212 307.100067,719.728821 
	C307.624817,721.095581 308.289337,721.118530 309.093384,719.185730 
z"/>
<path fill="#000000" opacity="1.000000" stroke="none" 
	d="
M445.726196,477.474304 
	C446.737213,478.527649 447.642303,478.498413 448.700745,478.295105 
	C457.805695,476.546143 457.810699,476.560394 461.527740,485.062195 
	C461.920532,485.960602 462.270660,486.877625 462.658234,487.829315 
	C460.299683,490.799988 457.276947,492.075165 453.797241,490.933411 
	C450.999481,490.015411 449.196869,490.789124 447.958191,493.102753 
	C445.546967,497.606598 442.355621,501.745819 441.970978,507.193817 
	C441.814301,509.412994 441.432831,511.943848 439.086823,513.258301 
	C438.338501,513.677612 437.347015,513.593323 436.838867,512.801819 
	C435.206970,510.260132 436.801056,507.957581 437.701111,505.744293 
	C438.569946,503.607635 439.867096,501.628662 441.105377,499.661835 
	C444.636902,494.052490 447.462982,488.514435 444.050049,481.597900 
	C442.824707,479.114685 443.472321,478.795135 445.726196,477.474304 
z"/>
<path fill="#000000" opacity="1.000000" stroke="none" 
	d="
M405.855225,446.809631 
	C408.688843,440.792786 412.939941,444.552155 416.408752,445.024933 
	C418.438232,445.301575 420.380615,445.917969 422.564728,445.071136 
	C423.449005,448.807495 421.205322,451.266510 419.633392,453.490295 
	C418.011505,455.784698 418.121063,457.486572 418.961304,459.841675 
	C420.631897,464.523956 422.003387,469.313049 423.491302,474.060272 
	C423.640106,474.535004 423.829987,475.022095 423.846802,475.508728 
	C423.929169,477.889008 425.006073,481.368011 421.682495,481.641663 
	C418.712128,481.886200 418.669861,478.310730 418.970642,476.207916 
	C419.767212,470.639496 417.606964,465.752167 416.061371,460.717255 
	C415.228424,458.003876 413.828278,455.934509 410.265015,456.889893 
	C408.239929,457.432831 406.434998,456.280151 404.738708,455.128662 
	C399.853760,451.812653 404.433105,449.675018 405.855225,446.809631 
z"/>
<path fill="#000000" opacity="1.000000" stroke="none" 
	d="
M453.073578,433.144348 
	C453.051605,435.487793 453.540771,438.166779 450.696899,438.094513 
	C448.125000,438.029175 447.957092,435.243103 448.081177,433.406921 
	C448.461578,427.778870 448.957489,422.127991 449.954529,416.584167 
	C450.516479,413.459442 450.081451,411.483002 447.651886,409.240265 
	C445.913239,407.635437 443.530884,405.740967 443.799469,402.207184 
	C447.680939,403.066376 450.435394,400.347504 453.698090,399.201630 
	C456.262543,398.301025 458.419098,398.245514 459.862885,400.189941 
	C461.434479,402.306519 465.340088,403.216125 464.336090,406.666534 
	C463.571136,409.295441 461.270172,411.189240 458.346008,411.255524 
	C454.690094,411.338348 453.271210,413.570801 452.847015,416.561920 
	C452.084137,421.941589 450.777863,427.378540 453.073578,433.144348 
z"/>
<path fill="#000000" opacity="1.000000" stroke="none" 
	d="
M443.368622,541.621948 
	C442.084259,539.173523 438.356262,536.904419 441.354340,534.705811 
	C443.992859,532.770874 445.935150,536.163391 447.431305,538.269531 
	C450.305725,542.315857 453.115173,546.413269 455.806274,550.583252 
	C457.467926,553.158020 458.329071,556.659851 462.733032,554.778076 
	C463.617584,554.400085 464.250000,555.272766 464.820404,556.306458 
	C468.480865,562.938965 465.931732,567.497925 458.111816,568.137146 
	C456.217896,568.291931 454.349518,568.759033 452.137665,569.139648 
	C451.862396,565.133362 450.928345,561.404236 454.548279,558.480042 
	C456.316681,557.051453 455.071808,555.453796 454.314392,554.020569 
	C451.724091,549.119507 448.182739,545.047119 443.368622,541.621948 
z"/>
<path fill="#000000" opacity="1.000000" stroke="none" 
	d="
M406.546844,545.579407 
	C413.567139,542.164124 409.049530,535.111511 411.956207,529.825012 
	C414.087067,533.569275 417.624481,532.409241 420.499542,533.033081 
	C423.230957,533.625610 424.748993,534.867859 425.177551,537.261536 
	C425.654938,539.928223 426.471313,543.083435 424.179138,545.134094 
	C422.150818,546.948608 419.303986,546.398743 417.196777,544.856934 
	C414.376495,542.793335 412.407257,543.740540 410.283386,545.857361 
	C406.893921,549.235535 402.893524,552.097046 401.413513,556.992310 
	C401.320648,557.299500 401.126556,557.613953 400.893982,557.834961 
	C399.575867,559.087708 398.724030,561.991821 396.340149,560.287354 
	C394.448181,558.934692 395.967499,556.919922 396.952667,555.429504 
	C397.766327,554.198608 398.793427,553.086548 399.842194,552.038025 
	C401.954102,549.926514 404.145203,547.894226 406.546844,545.579407 
z"/>
<path fill="#000000" opacity="1.000000" stroke="none" 
	d="
M410.955902,391.047943 
	C413.101105,392.913147 415.112366,394.415497 416.844482,396.190277 
	C418.199371,397.578552 419.763092,399.088745 419.289337,401.353882 
	C419.189545,401.831085 418.406372,402.484528 417.913635,402.506409 
	C415.492035,402.614044 414.321625,400.712616 413.587067,398.952881 
	C411.887329,394.881104 408.379120,392.570618 405.361023,389.771881 
	C403.507385,388.052979 401.662750,387.446198 399.138794,389.040802 
	C396.538757,390.683502 393.332855,391.593994 391.434204,388.010376 
	C389.895599,385.106171 392.255310,379.809692 395.023193,378.488281 
	C397.646515,377.235870 400.797668,377.445648 403.688873,374.201355 
	C404.488098,381.141724 404.304230,387.596497 410.955902,391.047943 
z"/>
<path fill="#000000" opacity="1.000000" stroke="none" 
	d="
M398.137268,506.994568 
	C402.193146,506.346375 405.257721,507.565948 407.852509,510.051422 
	C408.015503,512.511780 406.169128,513.733948 405.138245,515.343811 
	C404.030914,517.072998 400.540314,516.314209 400.623444,519.289856 
	C400.719849,522.740784 400.983887,526.203003 402.466278,529.424011 
	C402.811401,530.173950 403.186737,530.926331 403.399536,531.717590 
	C403.909302,533.612976 404.764374,535.570801 403.416626,537.418701 
	C403.131165,537.809998 402.118744,538.081787 401.680695,537.882446 
	C399.345917,536.820007 399.230774,534.484375 398.975037,532.386536 
	C398.534851,528.775696 398.159729,525.144409 398.031250,521.512024 
	C397.925995,518.534302 396.958313,516.391968 393.812500,515.791260 
	C393.778595,512.043396 394.725098,509.077942 398.137268,506.994568 
z"/>
<path fill="#000000" opacity="1.000000" stroke="none" 
	d="
M377.797394,707.246033 
	C379.048187,704.598145 380.591034,702.628296 382.527557,701.030823 
	C387.325409,697.073120 393.240845,697.275940 397.398438,701.441833 
	C401.910492,705.962830 402.117249,711.607910 397.954315,716.619202 
	C394.207397,721.129700 387.123016,723.189270 382.766144,721.034790 
	C377.380920,718.371643 375.931488,714.567749 377.797394,707.246033 
M383.041565,704.190674 
	C380.650543,707.281982 378.462341,710.507202 380.140167,714.640076 
	C381.686523,718.449280 385.859406,719.920959 390.289062,718.476440 
	C395.064270,716.919250 398.544250,712.097534 397.877106,707.962646 
	C397.239899,704.013428 393.512878,701.350586 388.953613,701.630188 
	C390.455933,703.328552 392.951630,704.588989 391.950928,707.419312 
	C391.115875,709.781189 389.453461,711.717957 386.743164,711.110901 
	C382.949615,710.261292 382.721924,707.287476 383.041565,704.190674 
z"/>
<path fill="#000000" opacity="1.000000" stroke="none" 
	d="
M354.611755,761.958130 
	C351.025299,761.999451 346.910522,763.989624 345.269897,760.054321 
	C343.612518,756.078918 346.958130,753.329834 349.653717,750.850647 
	C356.880432,744.203979 367.558289,745.926819 372.641144,754.538452 
	C373.607422,756.175598 374.101715,757.968384 372.956573,759.703369 
	C371.653168,761.678040 369.656311,762.398926 367.351318,762.239807 
	C363.255524,761.957214 359.198608,760.512756 354.611755,761.958130 
M369.253601,759.078003 
	C371.507843,757.373474 370.329620,755.911438 368.820068,754.656433 
	C367.292847,753.386841 365.632111,752.271606 363.988525,751.149353 
	C357.749542,746.888733 349.221069,751.264832 348.400574,759.996460 
	C355.198273,758.558411 361.906799,758.291077 369.253601,759.078003 
z"/>
<path fill="#000000" opacity="1.000000" stroke="none" 
	d="
M383.902771,773.802002 
	C382.729401,775.368103 381.332397,776.517700 382.282745,779.173645 
	C387.713684,778.108948 393.400940,777.223328 399.309174,780.859436 
	C398.820007,774.362122 394.107269,772.343384 390.189789,769.292480 
	C395.798370,768.263062 403.823975,776.303162 402.603943,780.812439 
	C401.916016,783.355164 399.842255,783.757935 397.830994,782.924072 
	C393.236420,781.019348 388.643890,780.707520 383.705444,781.258301 
	C379.247772,781.755615 377.703491,778.928406 379.646881,774.902893 
	C381.476471,771.113220 384.228424,769.136841 387.804169,769.115967 
	C387.621429,771.484436 385.283630,772.039185 383.902771,773.802002 
z"/>
<path fill="#000000" opacity="1.000000" stroke="none" 
	d="
M339.016022,705.610474 
	C336.476227,704.864319 333.988556,706.182312 331.443909,705.056702 
	C337.748291,700.272644 349.097351,703.268127 351.609589,710.853638 
	C344.247101,709.428589 337.175842,709.081726 329.018463,711.862061 
	C332.144745,707.136047 336.571960,708.048157 339.016022,705.610474 
z"/>
<path fill="#000000" opacity="1.000000" stroke="none" 
	d="
M366.350067,716.339233 
	C365.304382,717.351074 365.429626,718.853027 363.919617,719.252563 
	C362.193634,718.818787 362.162994,716.762268 360.937012,715.704102 
	C359.469666,714.437683 356.792450,712.632446 359.737579,710.668579 
	C362.437012,708.868713 366.024353,708.693604 368.501190,711.067505 
	C370.901642,713.368164 368.040039,714.698975 366.350067,716.339233 
z"/>
</svg>